<svg xmlns="http://www.w3.org/2000/svg" version="1.1" xmlns:xlink="http://www.w3.org/1999/xlink" xmlns:svgjs="http://svgjs.dev/svgjs" width="700" height="700"><svg xmlns="http://www.w3.org/2000/svg" viewBox="0 0 700 700">
<g transform="translate(0.000000,700.000000) scale(0.100000,-0.100000)" fill="#ec4185">
<path d="M4208 5975 c-2 -1 -48 -5 -103 -9 -195 -12 -213 -21 -254 -121 -15
-38 -40 -110 -55 -160 -15 -49 -38 -124 -51 -165 -22 -69 -144 -483 -202 -680
-13 -47 -110 -375 -214 -730 -105 -355 -217 -735 -249 -845 -32 -110 -117
-398 -189 -640 -71 -242 -147 -501 -169 -575 -22 -74 -72 -247 -112 -383 -46
-158 -69 -252 -63 -258 20 -20 376 -6 431 17 45 18 54 41 169 419 30 99 61
200 68 225 7 25 32 108 55 185 22 77 49 169 60 205 17 60 96 330 140 480 11
36 78 265 150 510 72 245 139 474 150 510 11 36 99 335 195 665 200 678 206
701 270 915 25 85 47 162 50 170 2 8 18 62 34 120 38 132 38 140 4 141 -16 0
-47 2 -70 3 -23 2 -44 2 -45 1z"></path>
<path d="M1935 3951 c-55 -26 -140 -67 -190 -91 -421 -200 -1125 -548 -1205
-596 -124 -74 -163 -135 -162 -249 1 -116 29 -211 77 -259 29 -30 113 -75 245
-134 132 -58 223 -98 288 -128 41 -19 75 -34 78 -34 2 0 43 -18 90 -40 47 -22
88 -40 90 -40 2 0 29 -12 61 -26 32 -15 72 -32 88 -39 62 -27 181 -78 210 -91
90 -40 337 -133 380 -143 60 -14 87 -6 129 35 74 74 125 203 117 295 -1 18
-94 69 -261 144 -58 26 -123 55 -145 65 -22 10 -148 66 -280 125 -299 133
-515 236 -515 245 0 15 13 22 815 430 164 84 309 160 321 169 36 26 48 58 47
126 0 52 -7 76 -37 136 -44 89 -82 135 -116 143 -18 4 -55 -9 -125 -43z"></path>
<path d="M4863 3942 c-47 -7 -139 -151 -173 -268 -24 -79 -30 -76 515 -321
121 -55 322 -146 447 -202 124 -56 233 -108 242 -114 21 -15 44 -3 -614 -335
-278 -140 -517 -266 -532 -280 -36 -33 -50 -80 -44 -137 7 -53 81 -204 126
-252 l30 -33 82 39 c364 170 1373 675 1460 730 121 76 144 124 133 275 -8 110
-27 181 -58 214 -26 27 -121 74 -442 217 -82 36 -163 72 -180 80 -162 72 -532
233 -785 340 -101 42 -159 56 -207 47z"></path>
</g>
</svg><style>@media (prefers-color-scheme: light) { :root { filter: none; } }
@media (prefers-color-scheme: dark) { :root { filter: none; } }
</style></svg>