<svg version="1" xmlns="http://www.w3.org/2000/svg" width="933.333" height="933.333" viewBox="0 0 700.000000 700.000000"><path d="M420.8 102.5c-.2.2-5.1.5-11 .8-12.6.7-18.2 2-21.3 5.1-3.3 3.3-8 18.3-38.1 121.1-3.6 12.1-8.5 28.7-10.9 37-2.4 8.2-7.1 24.2-10.5 35.5-3.4 11.3-7.4 25-9 30.5-1.5 5.5-4.7 16.3-7 24-2.3 7.7-4.5 15.3-5 17-.4 1.6-1.7 5.9-2.8 9.5-1.1 3.6-2.2 7.4-2.5 8.5-.3 1.1-1.4 4.9-2.5 8.5-1.1 3.6-4.1 13.7-6.6 22.5-2.6 8.8-5.8 19.6-7.1 24-1.4 4.4-4.7 15.6-7.4 25-2.7 9.3-6.6 22.6-8.6 29.5-2.1 6.9-5.4 18.3-7.5 25.5-2.1 7.1-5 16.9-6.4 21.8-1.4 4.8-2.6 9.4-2.6 10.2 0 1.5.9 1.6 12 1.7 5.8.1 26.6-1.1 28.3-1.6.6-.3 2.4-.7 3.8-1 3.2-.7 4.8-4.1 11.3-24.6 3.9-12.2 20.9-69.2 22.1-74 .2-.8 2.4-8.5 5-17 2.5-8.5 5.9-20 7.5-25.5 1.5-5.5 8.5-29.4 15.5-53 6.9-23.7 14.7-50 17.2-58.5s6.1-20.7 7.9-27c1.9-6.3 3.6-12.2 3.8-13 .2-.8 1.2-4.2 2.2-7.5 1-3.3 1.9-6.5 2-7 .2-.8 4.5-15.3 16.4-55.5 18.4-62.1 26.9-91.3 26.6-91.7-.2-.3-14.5-1-14.8-.8zM200 301.8c-49.5 23.6-74 35.5-109 52.8-44.7 22.2-47.9 24.3-51.8 33.4-3 7.1-1.5 23.6 2.8 32 3.1 6.1 6.9 8.5 28.5 18 11.6 5.1 23.3 10.3 26 11.5 51.8 23.4 92.8 40.5 102.1 42.6 5 1.1 5.9 1.1 9-.6 3.7-2 6.9-5.8 10.7-12.6 4.1-7.5 6.4-17.7 4.7-20.9-.9-1.7-9.5-6.2-24.5-12.8-4.9-2.2-11.5-5.1-14.5-6.5-3-1.3-15.7-7-28.1-12.5-26.9-11.9-48.5-22-51.7-24-2.2-1.5-2.2-1.5 3.2-4.8 3.1-1.8 27.3-14.2 53.8-27.5 26.6-13.3 50.6-25.6 53.5-27.5 4.1-2.6 5.4-4.1 6.2-7.1 2.2-8.3-.3-17.7-7.5-27.9-5.6-8-7.1-8.6-13.4-5.6zM486.3 305.8c-4.9.7-12.6 12.3-16.7 25-2.8 8.2-2.1 9.2 9.6 15 9.9 4.8 50.6 23.3 91.8 41.7 10.7 4.8 19.9 9.1 20.4 9.5.4.5-23.6 13-53.5 27.9-29.9 14.9-56.7 28.4-59.5 30-8.3 4.8-10.3 11.8-6.5 22.6 2.2 6.2 7.7 15.7 11.5 19.8l2.5 2.7 7.3-3.4c18.1-8.4 37.2-17.7 91.3-44.6 61.6-30.7 63.8-32.1 67.8-40.9 1.7-3.9 1.9-5.8 1.3-15.2-.7-12.9-2.7-19.3-7.1-23.1-2.8-2.3-21-10.7-85.6-39.1-50.5-22.3-66.6-28.7-70.9-28.4-.8.1-2.5.3-3.7.5z"/></svg>