<svg version="1" xmlns="http://www.w3.org/2000/svg" width="933.333" height="933.333" viewBox="0 0 700.000000 700.000000"><path d="M422.8 102.5c-.2.1-6.2.5-13.4.8-13.5.6-18.5 1.8-21.5 5.3-2 2.2-5.8 13.4-12.8 36.9-7.4 25.1-17.6 59.9-22.8 77.5-2.5 8.5-5.4 18.4-6.4 22-1.1 3.6-2.1 7.2-2.4 8-.2.8-1.7 6-3.4 11.5-1.6 5.5-6.8 23-11.5 39-20.8 71-33.9 115.3-38.6 131-2.8 9.3-5.3 17.8-5.5 18.8-.2.9-2.2 7.7-4.4 15-4.6 15.3-11 36.9-12.1 41.2-.4 1.6-3.6 12.2-7 23.5-8.4 27.7-8.3 27-5.6 27.1 12.6.7 35.6-.5 41.6-2.1 5.9-1.6 5.3 0 25-67 4-13.5 9.7-32.8 12.7-43 5.4-18.1 8-27 8.8-30 1.2-4.3 13.5-46.3 25.5-87 3.8-12.9 13.8-46.7 22.1-75 8.3-28.3 18-61.4 21.6-73.5 3.5-12.1 6.6-22.7 6.8-23.5.2-.8 1.8-6.2 3.5-11.9s3.3-11.1 3.6-12c.2-.9 2.4-8.3 4.9-16.5 2.5-8.2 4.3-15.1 4.2-15.3-.4-.4-12.5-1.1-12.9-.8zM201.5 301.1c-19.9 9.4-32.2 15.2-51 24.4-12.1 5.9-26.5 12.9-32 15.5-32.3 15.3-65.8 32.5-70.8 36.2-8.1 6.1-10.2 10.7-10.2 22.3.1 6.8.6 10.7 2.4 16 2.9 8.5 6.2 11.8 15.8 16 3.7 1.6 9.5 4.1 12.8 5.6 3.3 1.5 15.9 7.1 28 12.4 12.1 5.3 23.8 10.5 26 11.5 45.4 20.4 74.1 32 80 32.2 6.4.2 14-7.9 18.5-19.8 2.2-6.1 3.4-14.4 2.3-16.1-.9-1.2-10.9-6.1-29.3-14.1-53.5-23.4-92.5-41.3-92.5-42.4 0-.7 23.4-12.9 52.5-27.4 28.9-14.4 52.5-26.1 52.5-26.1s3-1.7 6.7-3.8c5.4-3.1 7-4.6 7.9-7.4 1.4-4.1.6-13.2-1.6-18.4-3-7.3-9.3-16-13-17.9-.5-.3-2.8.3-5 1.3zM483 307.3c-4.5 3.2-9.5 11.5-13.1 21.9-2.4 7.1-2.6 8.6-1.5 10.2 1.8 2.8 8.6 6 68.1 32.6 28.6 12.8 52.8 23.7 53.8 24.2 1.8.9 1.8 1 0 2.3-2.1 1.5-39.7 20.3-58.8 29.5-27.9 13.4-53.2 26.3-56.5 28.9-6.6 5.3-6.8 15.1-.5 27.3 3 5.9 10.3 15.8 11.6 15.8.4 0 13.3-6.1 28.6-13.6s36.9-18.1 48.1-23.5c22.2-10.8 69.2-34.3 75.9-38 6.8-3.6 10.9-7.5 13.3-12.6 2-4.3 2.2-5.9 1.8-16.3-.4-10.3-.8-12.3-3.4-17.5-3.8-7.6 4.1-3.6-76.4-39-28.3-12.5-54-23.8-57-25.2-20.3-9.3-28.3-10.9-34-7z"/></svg>