<?xml version="1.0" encoding="utf-8"?>
<svg xmlns="http://www.w3.org/2000/svg">
<symbol id="android" viewBox="0 0 56.693 56.693"><g><path d="M35.021,8.568l0.547-0.819l0.537-0.808l1.209-1.813c0.148-0.223,0.088-0.523-0.133-0.672   c-0.225-0.149-0.525-0.089-0.674,0.135l-1.295,1.944l-0.545,0.817L34.114,8.18c-1.752-0.679-3.705-1.06-5.768-1.06   c-2.061,0-4.014,0.381-5.766,1.06L22.03,7.352l-0.545-0.817L20.188,4.59c-0.148-0.223-0.449-0.283-0.673-0.135   c-0.222,0.148-0.282,0.449-0.134,0.672l1.208,1.813l0.539,0.808l0.547,0.819c-4.115,1.916-6.898,5.546-6.898,9.701h27.142   C41.919,14.114,39.136,10.484,35.021,8.568z M22.532,14.391c-0.805,0-1.455-0.651-1.455-1.454s0.65-1.453,1.455-1.453   c0.803,0,1.453,0.65,1.453,1.453S23.335,14.391,22.532,14.391z M34.163,14.391c-0.803,0-1.453-0.651-1.453-1.454   s0.65-1.453,1.453-1.453c0.805,0,1.455,0.65,1.455,1.453S34.968,14.391,34.163,14.391z"/><path d="M14.986,20.208h-0.209v2.418v1.973v16.936c0,1.693,1.376,3.07,3.069,3.07h2.216c-0.074,0.256-0.116,0.527-0.116,0.807   v0.162v0.969v5.01c0,1.605,1.303,2.908,2.909,2.908s2.908-1.303,2.908-2.908v-5.01v-0.969v-0.162c0-0.279-0.043-0.551-0.115-0.807   h5.4c-0.074,0.256-0.115,0.527-0.115,0.807v0.162v0.969v5.01c0,1.605,1.303,2.908,2.908,2.908s2.908-1.303,2.908-2.908v-5.01   v-0.969v-0.162c0-0.279-0.041-0.551-0.115-0.807h2.215c1.693,0,3.07-1.377,3.07-3.07V24.599v-1.973v-2.418H41.71H14.986z"/><path d="M9.929,20.208c-1.606,0-2.908,1.301-2.908,2.909v12.439c0,1.605,1.302,2.908,2.908,2.908c1.605,0,2.908-1.303,2.908-2.908   V23.116C12.837,21.509,11.535,20.208,9.929,20.208z"/><path d="M46.767,20.208c-1.607,0-2.908,1.301-2.908,2.909v12.439c0,1.605,1.301,2.908,2.908,2.908c1.605,0,2.906-1.303,2.906-2.908   V23.116C49.673,21.509,48.372,20.208,46.767,20.208z"/></g>
</symbol>
<symbol id="apple" viewBox="0 0 56.693 56.693"><g><path d="M41.777,30.517c-0.062-6.232,5.082-9.221,5.312-9.372c-2.891-4.227-7.395-4.807-8.998-4.873   c-3.83-0.389-7.477,2.256-9.42,2.256c-1.939,0-4.941-2.199-8.117-2.143c-4.178,0.062-8.029,2.43-10.179,6.17   c-4.339,7.527-1.11,18.682,3.118,24.791c2.067,2.986,4.532,6.346,7.766,6.223c3.117-0.123,4.293-2.016,8.061-2.016   s4.826,2.016,8.123,1.953c3.352-0.061,5.477-3.043,7.527-6.041c2.373-3.469,3.35-6.828,3.408-6.998   C48.305,40.433,41.844,37.958,41.777,30.517z"/><path d="M35.582,12.229c1.715-2.082,2.877-4.975,2.561-7.855c-2.475,0.1-5.471,1.645-7.248,3.725   c-1.592,1.846-2.984,4.785-2.611,7.613C31.045,15.926,33.861,14.307,35.582,12.229z"/></g>
</symbol>
<symbol id="arrow-left" viewBox="0 0 128 128"><g><g><line style="fill:none;stroke:#2F3435;stroke-width:12;stroke-linecap:square;stroke-miterlimit:10;" x1="57.12" x2="17.787" y1="103.334" y2="64"/><line style="fill:none;stroke:#2F3435;stroke-width:12;stroke-linecap:square;stroke-miterlimit:10;" x1="17.787" x2="57.12" y1="64" y2="24.666"/></g><line style="fill:none;stroke:#2F3435;stroke-width:12;stroke-miterlimit:10;" x1="17.787" x2="118.213" y1="64" y2="64"/></g>
</symbol>
<symbol id="arrow-right" viewBox="0 0 128 128"><g><g><line style="fill:none;stroke:#2F3435;stroke-width:12;stroke-linecap:square;stroke-miterlimit:10;" x1="70.88" x2="110.213" y1="24.666" y2="64"/><line style="fill:none;stroke:#2F3435;stroke-width:12;stroke-linecap:square;stroke-miterlimit:10;" x1="110.213" x2="70.88" y1="64" y2="103.334"/></g><line style="fill:none;stroke:#2F3435;stroke-width:12;stroke-miterlimit:10;" x1="110.213" x2="9.787" y1="64" y2="64"/></g>
</symbol>
<symbol id="cancel" viewBox="0 0 80 80"><polygon points="56.971,52.728 44.243,40 56.971,27.272 52.728,23.029 40,35.757 27.272,23.029 23.029,27.272 35.757,40   23.029,52.728 27.272,56.971 40,44.243 52.728,56.971 "/>
</symbol>
<symbol id="check" viewBox="0 0 80 80"><g><polygon points="54.849,26.565 36.464,44.95 25.151,33.636 20.908,37.879 36.464,53.435 59.092,30.808  "/></g>
</symbol>
<symbol id="chrome" viewBox="0 0 32 32"><g id="Flat_copy"><g><path d="M16,24.188c-1.625,0-3.104-0.438-4.438-1.312c-1.334-0.875-2.334-2-3-3.375L2,8c-1.375,2.459-2,5.209-2,8    c0,4,1.302,7.49,3.906,10.469s5.844,4.76,9.719,5.344l4.641-8.031C17.799,23.919,17.02,24.188,16,24.188z"/><path d="M10.969,9.531C12.447,8.386,14.125,8,16,8c0.25,0,13.75,0,13.75,0c-1.417-2.416-3.344-4.458-5.781-5.875    C21.531,0.709,18.875,0,16,0c-2.5,0-4.834,0.531-7,1.594C6.833,2.656,4.828,4.203,3.359,6.188L8,14    C8.458,12.209,9.489,10.678,10.969,9.531z"/><path d="M30.797,10H21.5c1.625,1.625,2.688,3.709,2.688,6c0,1.709-0.479,3.271-1.438,4.688L16.188,32    c4.375-0.042,8.104-1.625,11.188-4.75C30.458,24.125,32,20.375,32,16C32,13.959,31.656,11.812,30.797,10z"/><circle cx="16" cy="16" r="6"/></g></g>
</symbol>
<symbol id="codepen" viewBox="0 0 30 30"><path d="M29.979,10.205c-0.007-0.036-0.014-0.072-0.022-0.107c-0.006-0.021-0.014-0.042-0.021-0.063  c-0.01-0.031-0.021-0.063-0.033-0.094c-0.009-0.021-0.019-0.042-0.028-0.063c-0.014-0.029-0.028-0.058-0.045-0.086  c-0.011-0.021-0.023-0.04-0.036-0.06c-0.018-0.026-0.035-0.053-0.055-0.078c-0.014-0.02-0.028-0.037-0.044-0.056  c-0.021-0.024-0.042-0.047-0.064-0.07c-0.017-0.017-0.033-0.034-0.051-0.05c-0.023-0.021-0.048-0.042-0.073-0.062  c-0.02-0.015-0.038-0.03-0.059-0.044c-0.007-0.005-0.014-0.011-0.021-0.017L15.715,0.216c-0.433-0.288-0.997-0.288-1.43,0  L0.574,9.356C0.566,9.362,0.56,9.368,0.553,9.373c-0.02,0.014-0.039,0.029-0.059,0.044c-0.024,0.02-0.049,0.04-0.073,0.062  C0.404,9.494,0.387,9.512,0.37,9.528c-0.022,0.023-0.044,0.046-0.064,0.07c-0.015,0.019-0.03,0.036-0.044,0.056  C0.242,9.68,0.225,9.706,0.207,9.732c-0.013,0.02-0.025,0.039-0.037,0.06C0.154,9.82,0.14,9.849,0.126,9.878  c-0.01,0.021-0.02,0.041-0.029,0.063c-0.012,0.031-0.023,0.063-0.033,0.094c-0.007,0.021-0.014,0.042-0.02,0.063  c-0.009,0.035-0.016,0.071-0.022,0.107c-0.003,0.019-0.008,0.037-0.011,0.056C0.004,10.316,0,10.373,0,10.43v9.141  c0,0.057,0.004,0.112,0.011,0.168c0.003,0.02,0.007,0.037,0.011,0.056c0.006,0.036,0.013,0.072,0.022,0.108  c0.006,0.021,0.013,0.042,0.02,0.063c0.01,0.031,0.021,0.063,0.033,0.095c0.009,0.021,0.019,0.041,0.029,0.062  c0.014,0.029,0.028,0.058,0.044,0.087c0.011,0.02,0.024,0.039,0.037,0.059c0.018,0.027,0.035,0.053,0.055,0.079  c0.014,0.019,0.029,0.037,0.044,0.055c0.021,0.024,0.042,0.048,0.064,0.07c0.017,0.017,0.034,0.034,0.051,0.05  c0.023,0.021,0.048,0.042,0.073,0.062c0.02,0.016,0.039,0.03,0.059,0.045c0.007,0.005,0.014,0.011,0.021,0.016l13.711,9.141  C14.502,29.928,14.751,30,15,30s0.499-0.072,0.715-0.217l13.711-9.141c0.008-0.005,0.015-0.011,0.021-0.016  c0.021-0.015,0.039-0.029,0.059-0.045c0.025-0.02,0.05-0.04,0.073-0.062c0.018-0.016,0.034-0.033,0.051-0.05  c0.022-0.022,0.044-0.046,0.064-0.07c0.016-0.018,0.03-0.036,0.044-0.055c0.02-0.026,0.037-0.052,0.055-0.079  c0.013-0.02,0.025-0.039,0.036-0.059c0.017-0.029,0.031-0.058,0.045-0.087c0.01-0.021,0.02-0.041,0.028-0.062  c0.013-0.031,0.023-0.063,0.033-0.095c0.007-0.021,0.015-0.041,0.021-0.063c0.009-0.036,0.016-0.072,0.022-0.108  c0.003-0.019,0.008-0.036,0.01-0.056C29.996,19.683,30,19.627,30,19.57V10.43c0-0.057-0.004-0.113-0.012-0.169  C29.986,10.242,29.981,10.224,29.979,10.205z M15,18.05L10.441,15L15,11.95L19.56,15L15,18.05z M13.711,9.711l-5.589,3.738  L3.61,10.432l10.101-6.734V9.711z M5.803,15l-3.225,2.157v-4.314L5.803,15z M8.122,16.551l5.589,3.738v6.013L3.61,19.568  L8.122,16.551z M16.289,20.289l5.589-3.738l4.512,3.018l-10.101,6.733V20.289z M24.196,15l3.226-2.157v4.314L24.196,15z   M21.878,13.449l-5.589-3.738V3.697l10.101,6.734L21.878,13.449z" id="wtf"/>
</symbol>
<symbol id="dropbox" viewBox="0 0 32 32"><g id="Flat_copy"><path d="M22.682,24.566l2.827-1.696v1.543l-9.531,6.182l-9.32-6.226v-1.453l2.788,1.652l0.31,0.183l0.286-0.219l6.021-4.621   l6.019,4.621l0.288,0.219L22.682,24.566z M16.083,7.131l9.166,5.266L16,18.526l-9.192-5.791L16.083,7.131z M31.999,7.439   l-9.443-6.034l-6.493,5.444L9.717,1.405L0,7.734l6.691,5.09L0,17.915l6.657,3.944l3.06,1.811l6.346-4.87l6.344,4.87l3.102-1.861   L32,17.915l-6.197-5.313L31.999,7.439z"/></g>
</symbol>
<symbol id="edge" viewBox="0 0 56.6934 56.6934"><g><path d="M23.9119,16.9729c-1.884,2.141-2.8612,4.6136-3.2311,7.4099c5.6693,0,11.2781,0,16.9289,0   c0-0.4139,0.0223-0.8342-0.0039-1.2515c-0.1145-1.8259-0.5071-3.5784-1.5042-5.1423c-1.336-2.0954-3.3417-3.1383-5.7285-3.5229   c-3.4634-0.5581-6.8051,0.033-10.0522,1.216c-4.7503,1.7307-8.7392,4.5588-11.9133,8.5069   c-0.5335,0.6636-1.0082,1.3745-1.5934,2.178c0.0485-0.3993,0.0764-0.6875,0.1192-0.9734   c0.6841-4.5728,2.3307-8.7442,5.2947-12.3261c3.4833-4.2094,7.9725-6.7032,13.3569-7.5721   c5.2449-0.8464,10.2058,0.0045,14.8107,2.6715c4.2386,2.4549,7.1601,6.0524,8.9041,10.6113   c1.0058,2.6293,1.4971,5.3621,1.5227,8.1777c0.0161,1.7735,0.0324,3.547,0.0482,5.3204c0.0016,0.1771,0.0002,0.3543,0.0002,0.5999   c-10.0212,0-19.9979,0-30.0079,0c0.0115,2.4612,0.7278,4.5816,2.3803,6.3431c1.9199,2.0465,4.3838,3.0406,7.0832,3.4341   c5.6665,0.826,11.0037-0.2087,15.9823-3.0528c0.1275-0.0728,0.2545-0.1465,0.3826-0.2183   c0.0126-0.0071,0.0314-0.0032,0.1075-0.0089c0.0105,0.1715,0.0301,0.3432,0.0301,0.5149c0.0013,3.0229-0.0058,6.0459,0.0078,9.0687   c0.0016,0.3467-0.1105,0.5268-0.417,0.6796c-3.5699,1.7792-7.3483,2.7951-11.3187,3.1029   c-2.5295,0.1961-5.0515,0.1975-7.5561-0.3103c-7.5354-1.5277-13.5458-7.0451-14.925-14.806   c-1.5738-8.8562,2.6413-17.0331,11.1093-20.6493C23.7559,16.963,23.7913,16.9729,23.9119,16.9729z"/></g>
</symbol>
<symbol id="external" viewBox="0 0 16 16"><path d="M10,11H5V6h2l1-1H4v7h7V8l-1,1V11z M8,3v1h3.293L7,8.293L7.707,9L12,4.707V8h1V3H8z"/>
</symbol>
<symbol id="facebook" viewBox="0 0 56.693 56.693"><path d="M40.43,21.739h-7.645v-5.014c0-1.883,1.248-2.322,2.127-2.322c0.877,0,5.395,0,5.395,0V6.125l-7.43-0.029  c-8.248,0-10.125,6.174-10.125,10.125v5.518h-4.77v8.53h4.77c0,10.947,0,24.137,0,24.137h10.033c0,0,0-13.32,0-24.137h6.77  L40.43,21.739z"/>
</symbol>
<symbol id="firefox" viewBox="0 0 56.7 56.7"><path d="M50.1518,35.9687c1.5177-2.8698,3.2753-8.3992,1.8103-13.2533c-0.0185-0.062-0.0402-0.1231-0.0598-0.1848  c-0.0559-0.1856-0.0938-0.2882-0.0938-0.2882l-0.0001,0.0002l-0.0001-0.0002l0.0001,0.0002l-0.0001,0.0002  c-0.0049-0.0141-0.0089-0.0284-0.0139-0.0425c0.0042,0.016,0.0079,0.0321,0.012,0.0481c-0.0257,0.0773-0.4268,1.2875-0.954,3.0668  c0.2859-2.6547,0.086-5.4206-0.8379-7.9778c-0.4381-1.2203-0.9839-2.2336-1.5155-3.0426c-0.6891-1.1242-1.447-1.9833-2.0438-2.3949  c0.0679,0.0512,0.135,0.1106,0.2012,0.1766C46.529,11.9594,46.4551,11.9,46.4551,11.9c0.0145,0.0158,0.0276,0.0317,0.0419,0.0475  c-0.0439-0.0395-0.0699-0.0616-0.0699-0.0616s0.052,0.283,0.1429,0.7816c-1.2371-1.9677-3.0918-2.9611-3.3492-3.0923  c-0.029-0.0195-0.0449-0.0296-0.0449-0.0296s0.1011,0.5751,0.2539,1.8017c-1.9416-1.5476-4.2794-2.8152-7.0648-3.5815  c4.5546,2.999,6.2503,5.5496,7.3152,7.8199c-1.2191-1.2473-3.2933-2.5366-4.7087-2.6487c2.0789,1.5522,5.5532,6.1214,5.2638,13.0402  c-0.9391-2.3531-2.2088-3.3284-2.2088-3.3284c0.0017,0.0197,0.0035,0.04,0.0052,0.0598c-0.0109-0.0101-0.0224-0.0223-0.0332-0.0318  c0.295,2.6986,0.3749,4.5709,0.3352,5.9599c-0.0099,0.3115-0.0257,0.6241-0.0491,0.9366c-0.114,1.4462-0.3742,2.2852-0.602,3.1591  c-0.2565-1.0939-0.5949-1.7033-0.5949-1.7033s-0.0025,0.0266-0.0077,0.074c-0.0066-0.0148-0.0143-0.0318-0.0205-0.0459  c0,0-0.0842,2.1582-1.4856,5.2413c-0.8676,1.907-1.7539,2.7344-2.3178,2.9301c-0.2055,0.0592-0.375,0.033-0.4986-0.0572  c-0.0034,0.0133-0.0075,0.0261-0.011,0.0394c-0.0105-0.0066-0.0172-0.0113-0.0172-0.0113c0.028-0.3082,0.0701-0.6166-0.014-0.8268  c0,0-0.4485,0.1543-0.7429,0.5606c-0.1121,0.1683-0.2661,0.3225-0.4625,0.4765c-0.028,0.028,0.3223-0.4483,0.2944-0.4344  c-0.1682,0.1401-0.3645,0.3082-0.5465,0.5045c-0.6867,0.7147-1.3173,1.5137-1.6396,1.2893c0.2944-0.0981,0.5465-0.4763,0.6026-0.855  c-0.2661,0.1962-0.953,0.7007-2.4945,0.9391c-0.6306,0.098-3.3073,0.5885-6.8809-1.2054c0.5185-0.0559,1.3033-0.2382,1.8919,0.1121  c-0.5886-0.6447-2.032-0.5184-3.0551-0.8408c-0.8969-0.2803-2.0601-1.5415-2.7327-2.1722c2.4109,0.5905,4.9506,0.2845,6.673-0.5761  c0.2508-0.1231,0.4849-0.2582,0.6984-0.4047c1.0354-0.7159,2.4884-1.7433,3.2998-1.8231c0.0974-0.0006,0.1934,0.0072,0.2877,0.0293  c0.8969,0.1961,1.4995-0.7007,0.7988-1.5135c-0.7007-0.813-2.4104-1.8919-4.7227-1.3173c-1.7797,0.4485-3.2792,1.864-5.7737,0.883  c-0.1543-0.056-0.3083-0.1261-0.4626-0.2102c-0.1542-0.0842,0.5185,0.098,0.3504,0c-0.4763-0.1823-1.3452-0.5747-1.5694-0.7289  c-0.0422-0.0279,0.3644,0.0701,0.3223,0.0422c-0.4863-0.2878-0.8649-0.5635-1.1616-0.8263  c-0.0054-0.0049-0.0101-0.0099-0.0156-0.0147c-1.3452-1.1912-1.0369-2.3404-0.8689-2.9289  c0.1309-0.4641,0.4836-0.8766,0.7159-1.0424c0.0272-0.0173,0.0544-0.0348,0.0828-0.0506c0.3363,0.1261,0.5466,0.2382,0.5466,0.2382  s-0.1543-0.2382-0.2523-0.3644c0.0279-0.014,0.042-0.014,0.0701-0.028c0.2803,0.0981,0.9109,0.3223,1.2191,0.4905  c0.4346,0.2102,0.5747,0.4344,0.5747,0.4344s0.0981-0.0701,0-0.2803c-0.042-0.0981-0.1962-0.3644-0.6166-0.6166  c0.0142,0,0.0142,0,0.0142,0c0.2242,0.0841,0.4625,0.1962,0.7147,0.3504c0.0842-0.3784,0.2382-0.7708,0.1401-1.4575  c-0.0841-0.4905-0.0701-0.6026-0.1822-0.7848c-0.0981-0.1542,0.028-0.2102,0.1822-0.0841c-0.042-0.1261-0.0981-0.2382-0.1542-0.3644  c0.0005-0.0023,0.002-0.0049,0.0026-0.0073c0.0174,0.0349,0.032,0.0534,0.047,0.0505c0.0109,0.0145,0.0175,0.012,0.0206-0.0153  l0.0002-0.0006c0.7439-0.8972,3.6711-2.2559,4.3295-2.9564c0.0844-0.0914,0.1539-0.1695,0.2115-0.2375  c-0.005,0.0141-0.0102,0.0296-0.0148,0.0414c0.3782-0.2943,0.5463-0.5746,0.7146-0.981c0.1682-0.4204,0.3645-1.4014-0.1961-1.6116  c-0.443-0.1074-0.8352-0.1888-1.5323-0.1832c-0.5862-0.043-1.3779-0.0629-2.4479-0.055c-1.5556,0.014-2.2843-1.3453-2.5366-1.9199  c-0.0047,0.017-0.0088,0.0341-0.0134,0.0512c-0.0048-0.0122-0.0105-0.0257-0.0148-0.037c0.4485-1.6396,1.3594-3.0691,2.7748-4.2323  c0.0841-0.0701-0.3363,0.042-0.2523-0.028c0.0981-0.0841,0.7007-0.3784,0.8128-0.4344c0.1401-0.0841-0.6587-0.2943-1.3313-0.1542  c-0.6446,0.1316-0.7953,0.2137-1.1127,0.374c-0.0154,0.0061-0.0327,0.013-0.0535,0.0215c0.151-0.1536,0.5891-0.3671,0.4795-0.3534  c-0.7428,0.1682-1.6256,0.6587-2.3682,1.1772c0-0.0701,0-0.1261,0.014-0.2242c-0.3504,0.1822-1.2052,0.8408-1.4154,1.3313  c0-0.1121,0-0.1682-0.0141-0.2803c-0.2381,0.2241-0.4763,0.4904-0.6866,0.7706c0,0-0.0017,0.0052-0.0059,0.0093  c-0.8302-0.2069-1.5928-0.3066-2.2774-0.337c-1.2481-0.0625-2.3685,0.1001-3.3712,0.4152c-0.5299-0.431-1.3132-1.1814-1.9131-2.1476  c-0.0103-0.0155-0.0187-0.018-0.026-0.0126c-0.0111-0.0075-0.0197,0.0009-0.0271,0.0173C9.656,11.847,9.655,11.8455,9.654,11.8439  c-0.035-0.0527-0.0481,0.0376-0.0668,0.0917c-0.3734-0.6752-0.6762-1.8093-0.7179-2.6143c0,0-0.0055,0.0034-0.0134,0.0084  C8.8557,9.3271,8.8554,9.3241,8.8553,9.3214c0,0-0.0152,0.0091-0.0402,0.0268C8.8146,9.3394,8.8137,9.3301,8.8133,9.3214  c0,0-0.6165,0.3504-1.009,1.6116c-0.0399,0.1277-0.0751,0.2231-0.1058,0.3053c0.0073-0.1051,0.0151-0.215,0.0079-0.1932  c-0.003,0.0066-0.0078,0.0144-0.0113,0.0214c0.0006-0.0199-0.0001-0.0292-0.0027-0.0214c-0.0106,0.0234-0.0255,0.0496-0.0422,0.0773  c0.0033-0.0543,0.0046-0.0906,0.0001-0.0773c-0.0701,0.1542-0.2943,0.4064-0.3644,0.6867  c-0.0439,0.1647-0.1047,0.2787-0.1426,0.4481c-0.0029-0.0632-0.0062-0.1112-0.0117-0.0838  c-0.0006,0.0016-0.0012,0.0033-0.0018,0.0049c-0.0017-0.0112-0.0051-0.0189-0.0124-0.0189c0,0,0,0-0.0142,0  c-0.0047,0.0118-0.0094,0.0252-0.014,0.0377c-0.0042-0.0327-0.0089-0.0519-0.0136-0.0377c-0.1823,0.4625-0.3363,0.995-0.4765,1.5976  c-0.1379,0.6698-0.2753,1.5135-0.3013,2.5295c-0.0536,0.937-0.0172,1.6375,0.0349,1.7729c0.0041-0.0041,0.0073-0.0078,0.0113-0.0118  c0,0,0.0003,0.0009,0.0004,0.0015c-0.601,0.8252-0.9786,1.5244-1.1327,1.8743c-0.7289,1.4154-1.4718,3.6016-2.0742,6.993  c0,0,0.0127-0.0395,0.0362-0.108c-0.0074,0.041-0.0149,0.0807-0.0222,0.1221c0,0,0.0021-0.0066,0.006-0.0186  c-0.002,0.011-0.004,0.0216-0.006,0.0327c0,0,0.014-0.0561,0.0559-0.1542c-0.014,0.042-0.014,0.0981-0.028,0.1401  c0,0,0.0561-0.1542,0.1543-0.4344c0.0095-0.0529,0.0194-0.1029,0.029-0.1552c0.1892-0.4918,0.5057-1.2405,0.9509-2.0505  c-0.5751,1.8247-1.0313,4.6308-0.7557,8.8063c0.0013-0.0132,0.004-0.0374,0.0074-0.0668c0.0023,0.0364,0.0043,0.0722,0.0068,0.1088  c0-0.0251,0.0108-0.0741,0.0131-0.1442c0.0004-0.0035,0.0008-0.007,0.0012-0.0106c0.0001,0.0492,0.0009,0.0896,0.0137,0.1408  c0-0.0559,0.028-0.2943,0.0842-0.6585c-0.0027-0.0509-0.004-0.0992-0.0065-0.1497c0.0701-0.4574,0.1782-1.079,0.3337-1.7954  c0.1631,2.8147,0.844,6.2438,3.0218,9.975c1.6817,2.8729,6.0961,9.5437,17.1814,12.038c-0.0418-0.012-0.0817-0.0254-0.1224-0.0382  c0.055,0.0126,0.109,0.0259,0.1643,0.0383c-0.5045-0.1401-0.9389-0.3503-1.2613-0.5465c-0.0287-0.0077-0.0567-0.0157-0.0853-0.0235  c-0.4298-0.2576-0.6714-0.4812-0.6714-0.4812s0.2591,0.0831,0.6947,0.2061c0.0021,0.0014,0.0039,0.0027,0.006,0.0041  c1.2893,0.3644,4.2184,1.1071,6.5165,1.0232c-0.0218-0.0044-0.0409-0.0093-0.062-0.0139c0.002-0.0001,0.0041-0.0001,0.0061-0.0001  c-0.0264-0.0047-0.05-0.0103-0.0753-0.0154c-0.2185-0.0507-0.3986-0.1106-0.5273-0.1808c-0.0138-0.0005-0.0278-0.0013-0.0417-0.0018  c-0.397-0.1916-0.491-0.4186-0.491-0.4186s0.1191,0.0066,0.3342,0.0126c0.0055,0.0052,0.0103,0.0101,0.0161,0.0154  c1.5275,0.0422,8.801,0.0982,12.795-3.0549c0.995-0.7429,1.6395-1.6116,1.8497-2.3967c0,0-0.0068,0.0061-0.0221,0.014  c0.0015-0.0055,0.0032-0.011,0.0046-0.0165l0.0031-0.0016l-0.0006-0.0072c0.0008-0.0032,0.0019-0.0065,0.0027-0.0097  c0.0033-0.0017,0.0066-0.0035,0.0099-0.0052l0.0022,0.0123c0,0-0.0043,0.004-0.0142,0.0098l0.0004,0.0042  c0.4625-0.2381,0.9249-0.5184,1.4014-0.8407c1.076-0.7303,2.36-1.721,3.4402-2.9555c0.0411-0.0469,0.0814-0.0946,0.1219-0.1422  c0.0596-0.0702,0.1215-0.1379,0.1797-0.2097c0.4553-0.5519,0.8015-1.0898,1.0662-1.5879c0.0012-0.0022,0.0024-0.0044,0.0036-0.0067  c0.003-0.0056,0.0063-0.0114,0.0093-0.017c-0.0014,0.0026-0.003,0.0052-0.0044,0.0077c0.5331-0.9895,0.892-2.0938,0.9574-3.3151  c-0.0193,0.2825-0.0861,0.5608-0.1909,0.834c0.0059-0.0324,0.0115-0.0647,0.0172-0.097  C50.5117,37.3429,50.4866,36.5291,50.1518,35.9687z"/>
</symbol>
<symbol id="github" viewBox="-1163 1657.697 56.693 56.693"><g><path clip-rule="evenodd" d="M-1134.6598,1662.9163c-13.601,0-24.63,11.0267-24.63,24.6299   c0,10.8821,7.0573,20.1144,16.8435,23.3713c1.2308,0.2279,1.6829-0.5345,1.6829-1.1849c0-0.587-0.0227-2.5276-0.0334-4.5857   c-6.8521,1.4901-8.2979-2.906-8.2979-2.906c-1.1205-2.8467-2.7347-3.6039-2.7347-3.6039   c-2.2349-1.5287,0.1685-1.4972,0.1685-1.4972c2.473,0.1737,3.7755,2.5385,3.7755,2.5385c2.1967,3.7651,5.7618,2.6765,7.1675,2.0472   c0.2211-1.5917,0.8591-2.6786,1.5637-3.2936c-5.4707-0.6226-11.2218-2.7347-11.2218-12.1722c0-2.6888,0.9623-4.8861,2.538-6.611   c-0.2557-0.6206-1.0989-3.1255,0.2386-6.5183c0,0,2.0684-0.6616,6.7747,2.525c1.9648-0.5458,4.0719-0.8195,6.165-0.829   c2.093,0.0095,4.2017,0.2832,6.17,0.829c4.7012-3.1866,6.7665-2.525,6.7665-2.525c1.3406,3.3928,0.4974,5.8977,0.2417,6.5183   c1.5793,1.7249,2.5348,3.9221,2.5348,6.611c0,9.4602-5.7618,11.5428-11.2465,12.1527c0.8834,0.7644,1.6704,2.2632,1.6704,4.561   c0,3.2955-0.0282,5.9479-0.0282,6.7592c0,0.6556,0.4432,1.4236,1.6915,1.1818c9.7812-3.2605,16.8296-12.4896,16.8296-23.3682   C-1110.0299,1673.943-1121.0574,1662.9163-1134.6598,1662.9163z" fill-rule="evenodd"/><path d="M-1149.9611,1698.2793c-0.0542,0.1227-0.2469,0.1593-0.4222,0.0753c-0.1788-0.0804-0.2788-0.2473-0.2211-0.37   c0.053-0.126,0.2457-0.161,0.4242-0.0769C-1150.0013,1697.9882-1149.8993,1698.1566-1149.9611,1698.2793L-1149.9611,1698.2793z    M-1150.2642,1698.0547"/><path d="M-1148.9634,1699.3922c-0.1174,0.1086-0.3473,0.0581-0.5031-0.1139c-0.1613-0.1718-0.1912-0.4016-0.072-0.5118   c0.1211-0.1088,0.3438-0.0579,0.505,0.1139C-1148.8721,1699.0541-1148.8407,1699.2819-1148.9634,1699.3922L-1148.9634,1699.3922z    M-1149.1984,1699.14"/><path d="M-1147.9922,1700.8105c-0.151,0.1051-0.3979,0.0067-0.5505-0.2123c-0.151-0.2191-0.151-0.4819,0.0035-0.5872   c0.1526-0.1051,0.396-0.0104,0.5505,0.2068C-1147.8381,1700.4406-1147.8381,1700.7034-1147.9922,1700.8105L-1147.9922,1700.8105z    M-1147.9922,1700.8105"/><path d="M-1146.6619,1702.1812c-0.1351,0.1489-0.4227,0.1086-0.6329-0.0945c-0.2155-0.1984-0.2753-0.4803-0.1403-0.6293   c0.1371-0.149,0.4263-0.1072,0.6381,0.0944C-1146.5831,1701.7501-1146.5182,1702.0337-1146.6619,1702.1812L-1146.6619,1702.1812z    M-1146.6619,1702.1812"/><path d="M-1144.8265,1702.9769c-0.0597,0.1927-0.3365,0.2804-0.6154,0.1984c-0.2788-0.0845-0.4608-0.3103-0.4047-0.5051   c0.0577-0.1943,0.3361-0.2855,0.6169-0.1979C-1144.9512,1702.5563-1144.7688,1702.7805-1144.8265,1702.9769L-1144.8265,1702.9769z    M-1144.8265,1702.9769"/><path d="M-1142.8107,1703.1243c0.0067,0.2031-0.2299,0.3716-0.5226,0.3752c-0.2944,0.0067-0.533-0.1577-0.5361-0.3577   c0-0.2052,0.2313-0.3717,0.5258-0.3768C-1143.0509,1702.7594-1142.8107,1702.9227-1142.8107,1703.1243L-1142.8107,1703.1243z    M-1142.8107,1703.1243"/><path d="M-1140.9351,1702.8052c0.035,0.198-0.1686,0.4015-0.4594,0.4557c-0.2859,0.0526-0.5504-0.0701-0.587-0.2665   c-0.0354-0.2031,0.1716-0.4066,0.4573-0.4592C-1141.233,1702.4846-1140.9722,1702.6036-1140.9351,1702.8052L-1140.9351,1702.8052z    M-1140.9351,1702.8052"/></g>
</symbol>
<symbol id="google-plus" viewBox="0 0 56.6934 56.6934"><g><path d="M19.6671,25.7867c-0.0075,1.7935,0,3.5869,0.0076,5.3803c3.0067,0.098,6.0208,0.0527,9.0275,0.098   c-1.3262,6.6689-10.3989,8.8315-15.199,4.4761C8.5674,31.9206,8.801,23.5412,13.9327,19.992   c3.5869-2.8635,8.6884-2.1552,12.2752,0.324c1.4092-1.3036,2.7278-2.6977,4.0013-4.1445   c-2.984-2.3812-6.6462-4.0767-10.5421-3.8958c-8.1307-0.2713-15.6059,6.8497-15.7415,14.9805   c-0.52,6.6462,3.8506,13.1644,10.0222,15.5155c6.1489,2.3661,14.031,0.7535,17.957-4.77c2.5922-3.4889,3.1498-7.98,2.8484-12.1999   C29.7194,25.7641,24.6933,25.7716,19.6671,25.7867z"/><path d="M49.0704,25.7641c-0.0151-1.4996-0.0226-3.0067-0.0301-4.5062c-1.4996,0-2.9916,0-4.4836,0   c-0.0151,1.4996-0.0301,2.9991-0.0377,4.5062c-1.5071,0.0075-3.0067,0.0151-4.5062,0.0302c0,1.4995,0,2.9915,0,4.4836   c1.4995,0.0151,3.0066,0.0302,4.5062,0.0452c0.0151,1.4996,0.0151,2.9991,0.0302,4.4987c1.4996,0,2.9916,0,4.4911,0   c0.0075-1.4996,0.015-2.9991,0.0301-4.5062c1.5071-0.0151,3.0067-0.0226,4.5062-0.0377c0-1.4921,0-2.9916,0-4.4836   C52.0771,25.7792,50.57,25.7792,49.0704,25.7641z"/></g>
</symbol>
<symbol id="instagram" viewBox="0 0 56.7 56.7"><g><path d="M28.2,16.7c-7,0-12.8,5.7-12.8,12.8s5.7,12.8,12.8,12.8S41,36.5,41,29.5S35.2,16.7,28.2,16.7z M28.2,37.7   c-4.5,0-8.2-3.7-8.2-8.2s3.7-8.2,8.2-8.2s8.2,3.7,8.2,8.2S32.7,37.7,28.2,37.7z"/><circle cx="41.5" cy="16.4" r="2.9"/><path d="M49,8.9c-2.6-2.7-6.3-4.1-10.5-4.1H17.9c-8.7,0-14.5,5.8-14.5,14.5v20.5c0,4.3,1.4,8,4.2,10.7c2.7,2.6,6.3,3.9,10.4,3.9   h20.4c4.3,0,7.9-1.4,10.5-3.9c2.7-2.6,4.1-6.3,4.1-10.6V19.3C53,15.1,51.6,11.5,49,8.9z M48.4,39.9c0,3.1-0.9,5.6-2.7,7.3   c-1.8,1.7-4.3,2.6-7.3,2.6H18c-3,0-5.5-0.9-7.3-2.6C8.9,45.4,8,42.9,8,39.8V19.3c0-3,0.9-5.5,2.7-7.3c1.7-1.7,4.3-2.6,7.3-2.6h20.6   c3,0,5.5,0.9,7.3,2.7c1.7,1.8,2.7,4.3,2.7,7.2V39.9z"/></g>
</symbol>
<symbol id="internet-explorer" viewBox="0 0 32 32"><g id="Flat_copy"><g><path d="M11.456,18.421v0.064c0,1.051,0.24,2.061,0.725,3.023c0.569,1.008,1.35,1.807,2.337,2.398    c0.987,0.59,2.085,0.886,3.292,0.886c1.207,0,2.306-0.296,3.294-0.886c0.986-0.592,1.766-1.391,2.336-2.398h7.837    c-1.011,2.848-2.766,5.181-5.267,6.997c-2.503,1.818-5.313,2.727-8.429,2.727c-2.326,0-4.521-0.503-6.584-1.512    c-4.609,2.235-7.924,2.344-9.943,0.329C0.35,29.395,0,28.299,0,26.765c0-1.533,0.296-3.242,0.889-5.125    c0.592-1.883,1.58-3.954,2.963-6.21c1.382-2.256,3.017-4.304,4.904-6.144c1.098-1.14,1.8-1.841,2.106-2.103    c-2.722,1.313-5.18,3.352-7.373,6.11c0.789-3.197,2.491-5.826,5.102-7.886c2.611-2.059,5.608-3.088,8.988-3.088    c0.351,0,0.701,0.022,1.052,0.065c2.459-1.096,4.697-1.708,6.717-1.84c2.019-0.132,3.445,0.197,4.279,0.985    c1.668,1.709,1.822,4.381,0.461,8.017c1.273,2.238,1.91,4.648,1.91,7.232c0,0.613-0.022,1.161-0.065,1.644h-7.771L11.456,18.421    L11.456,18.421z M10.075,29.199c-2.94-1.796-5.005-4.314-6.191-7.558c-1.975,3.856-2.238,6.506-0.79,7.952    C4.367,30.863,6.693,30.731,10.075,29.199z M23.638,14.611c-0.088-1.578-0.724-2.924-1.909-4.042    c-1.186-1.117-2.579-1.676-4.181-1.676c-1.604,0-2.996,0.559-4.181,1.676c-1.187,1.118-1.823,2.464-1.911,4.042H23.638z     M22.914,3.373c2.808,1.139,5.047,2.978,6.715,5.52c1.01-2.716,0.965-4.621-0.131-5.718C28.312,1.95,26.117,2.016,22.914,3.373z"/></g></g>
</symbol>
<symbol id="ios" viewBox="-822 823.1 56.7 56.7"><g id="g10088_1_" transform="matrix(0.58397792,0,0,0.58397792,-520.1179,950.32031)"><path d="M-477.1-189.5c-3.4,0-6.3,0.7-9.1,2.1c-7.3,3.6-11.5,11.3-11.5,20.9c0,9.6,4.1,17.1,11.4,20.5   c2,0.9,4,1.4,7,1.8c1.5,0.1,2.9,0.2,4.4,0c3-0.4,5-0.9,7-1.8c7.3-3.5,11.4-10.9,11.4-20.5c0-9.6-4.2-17.3-11.5-20.9   C-470.9-188.8-473.8-189.5-477.1-189.5L-477.1-189.5z M-474.2-182.7c4.4,1.2,7.5,5.1,8.8,10.9c0.9,4,0.6,8.7-0.6,12.4   c-1.9,5.7-6,9-11.1,8.9c-5,0.1-9.2-3.2-11.1-8.9c-1.2-3.7-1.5-8.3-0.6-12.4c1.2-5.8,4.4-9.7,8.8-10.9   C-478.1-183.1-476.1-183.1-474.2-182.7L-474.2-182.7z" id="path10079_1_"/><path d="M-506.2-189.5c-2.4,0-4.4,2-4.4,4.4c0,2.4,2,4.4,4.4,4.4s4.4-2,4.4-4.4   C-501.8-187.5-503.8-189.5-506.2-189.5z M-510.3-176.2v32.1h8.2v-32.1H-510.3z" id="path10077_1_"/><path d="M-444.7-144.1c-3.5-0.6-6.9-1.1-9.7-2.7c0,0,1.7-6.5,1.8-6.6c4.6,1.6,11.1,3.7,15.4,1.7   c2.4-1.2,3.5-3.4,3.2-5.9c-0.4-2.9-2.4-4.5-7.8-6.5c-6-2.3-9.6-5-11-8.6c-0.7-1.8-0.9-4-0.6-6c0.9-5.5,5.2-9.3,11.7-10.5   c1.9-0.3,6-0.3,8,0c2.9,0.5,6.2,1.6,6.2,2c0,0.2-1.7,6.1-1.8,6.3c-2.9-1.1-6-1.9-8.8-2c-3.8-0.1-8,2.2-7.3,6.2   c0.5,2.5,2.1,3.7,8,6.1c4.4,1.8,6.4,3,8.2,4.8c2.5,2.5,3.3,5.4,3.3,8.3c0,2.4-0.2,3.5-1.1,5.4c-2.1,4.5-6.3,7.1-12.7,7.8   C-440.9-144.1-443.7-144-444.7-144.1L-444.7-144.1z" id="path10039_1_"/></g>
</symbol>
<symbol id="linkedin" viewBox="0 0 32 32"><g id="Flat_copy"><path d="M32,31.292V19.46c0-6.34-3.384-9.29-7.896-9.29c-3.641,0-5.273,2.003-6.182,3.409v-2.924h-6.86   c0.091,1.937,0,20.637,0,20.637h6.86V19.767c0-0.615,0.044-1.232,0.226-1.672c0.495-1.233,1.624-2.509,3.518-2.509   c2.483,0,3.475,1.892,3.475,4.666v11.041H32V31.292z M3.835,7.838c2.391,0,3.882-1.586,3.882-3.567   c-0.044-2.024-1.49-3.564-3.836-3.564S0,2.246,0,4.271c0,1.981,1.489,3.567,3.792,3.567H3.835z M7.265,31.292V10.655H0.406v20.637   H7.265z"/></g>
</symbol>
<symbol id="mercedes" viewBox="0 0 74.15 74.15"><g id="Calque_2" data-name="Calque 2"><g id="mercedes"><g id="mercedes-2" data-name="mercedes"><path id="path3524" class="cls-1" d="M54.28,4.2a37.09,37.09,0,0,1,0,65.7V65.66a33.18,33.18,0,0,0,11.11-11L54.28,50.2V43.34l12.19,9.52a33,33,0,0,0,4-15.81A33.44,33.44,0,0,0,54.28,8.44V4.2ZM37.11,0A36.94,36.94,0,0,1,54.28,4.2V8.44A33.51,33.51,0,0,0,38.12,3.7L42.36,34l11.92,9.29V50.2L37,43.22l-17.13,7V43.42L31.9,34,36.11,3.7a33.42,33.42,0,0,0-16.2,4.74V4.2A36.87,36.87,0,0,1,37.11,0ZM54.28,69.91a37.1,37.1,0,0,1-34.37,0V65.66a33.28,33.28,0,0,0,34.37,0v4.24Zm-34.37,0a37.09,37.09,0,0,1,0-65.74V8.44A33.39,33.39,0,0,0,7.72,52.94l12.19-9.52v6.83L8.83,54.79A33.15,33.15,0,0,0,19.91,65.66v4.28Z"/></g></g></g>
</symbol>
<symbol id="outlook" viewBox="0 0 56.6934 56.6934"><g><path d="M38.9577,26.3841l14.6256-9.8605c0-1.1669-1.0887-2.0036-1.7031-2.0036H35.1861v9.7243l3.3984,2.1398   C38.6739,26.41,38.8682,26.4122,38.9577,26.3841z"/><path d="M39.2509,30.0032c0,0-0.5265,0.321-0.9632,0l-3.1016-2.1304h-0.0018v13.2156h15.7551c1.4002,0,2.6458-0.8157,2.6458-2.7616   V20.4542C53.5852,20.4542,38.7262,30.3242,39.2509,30.0032z"/><path d="M18.6389,34.1928c1.04,0,1.8651-0.4688,2.4738-1.4056c0.6087-0.9377,0.9149-2.2394,0.9149-3.9033   c0-1.7345-0.2949-3.0847-0.8871-4.0496c-0.5917-0.9635-1.3999-1.4453-2.4269-1.4453c-1.0569,0-1.899,0.4969-2.521,1.4878   c-0.6217,0.9925-0.9333,2.3051-0.9333,3.9386c0,1.6581,0.3116,2.9686,0.9333,3.9321   C16.8145,33.7132,17.6306,34.1928,18.6389,34.1928z"/><path d="M4.0003,47.6256l28.9409,6.0676V3.9801L4.0003,9.5818V47.6256z M13.9221,22.5941   c1.2267-1.6343,2.8514-2.4515,4.8736-2.4515c1.9098,0,3.4561,0.7804,4.6342,2.3454c1.1799,1.5643,1.7699,3.6248,1.7699,6.1852   c0.0018,2.631-0.6104,4.7521-1.8333,6.3619c-1.2232,1.609-2.8178,2.4161-4.7857,2.4161c-1.9177,0-3.4784-0.7804-4.6865-2.3397   c-1.2063-1.5608-1.8113-3.5924-1.8113-6.0986C12.083,26.3675,12.6957,24.2276,13.9221,22.5941z"/></g>
</symbol>
<symbol id="pinterest" viewBox="0 0 56.693 56.693"><path d="M30.374,4.622c-13.586,0-20.437,9.74-20.437,17.864c0,4.918,1.862,9.293,5.855,10.922c0.655,0.27,1.242,0.01,1.432-0.715  c0.132-0.5,0.445-1.766,0.584-2.295c0.191-0.717,0.117-0.967-0.412-1.594c-1.151-1.357-1.888-3.115-1.888-5.607  c0-7.226,5.407-13.695,14.079-13.695c7.679,0,11.898,4.692,11.898,10.957c0,8.246-3.649,15.205-9.065,15.205  c-2.992,0-5.23-2.473-4.514-5.508c0.859-3.623,2.524-7.531,2.524-10.148c0-2.34-1.257-4.292-3.856-4.292  c-3.058,0-5.515,3.164-5.515,7.401c0,2.699,0.912,4.525,0.912,4.525s-3.129,13.26-3.678,15.582  c-1.092,4.625-0.164,10.293-0.085,10.865c0.046,0.34,0.482,0.422,0.68,0.166c0.281-0.369,3.925-4.865,5.162-9.359  c0.351-1.271,2.011-7.859,2.011-7.859c0.994,1.896,3.898,3.562,6.986,3.562c9.191,0,15.428-8.379,15.428-19.595  C48.476,12.521,41.292,4.622,30.374,4.622z"/>
</symbol>
<symbol id="search" viewBox="0 0 80 80"><path d="M59.446,55.911L49.337,45.802c1.922-2.64,3.069-5.88,3.069-9.396c0-8.837-7.163-16-16-16s-16,7.163-16,16s7.163,16,16,16  c3.516,0,6.756-1.147,9.396-3.069l10.109,10.109L59.446,55.911z M36.406,47.406c-6.065,0-11-4.935-11-11s4.935-11,11-11  s11,4.935,11,11S42.471,47.406,36.406,47.406z"/>
</symbol>
<symbol id="slack" viewBox="-91 49.217 56.693 56.693"><path d="M-38.3289,79.8244c-0.7526-2.2362-3.1756-3.4388-5.4117-2.6861l-4.5351,1.5264l-3.0737-9.1321l4.4169-1.4866  c2.2362-0.7526,3.4388-3.1756,2.6861-5.4117c-0.7526-2.2362-3.1756-3.4388-5.4117-2.6861l-4.4168,1.4866l-1.4877-4.4201  c-0.7527-2.2362-3.1756-3.4388-5.4117-2.6861v0c-2.2362,0.7526-3.4388,3.1756-2.6861,5.4117l1.4877,4.4201l-9.3246,3.1385  l-1.4697-4.3666c-0.7527-2.2362-3.1756-3.4388-5.4117-2.6861c-2.2362,0.7527-3.4388,3.1756-2.6861,5.4117l1.4697,4.3666  l-4.445,1.4961c-2.2362,0.7527-3.4388,3.1756-2.6861,5.4117v0c0.7526,2.2362,3.1756,3.4388,5.4117,2.6861l4.445-1.4961  l3.0737,9.1321l-4.3268,1.4563c-2.2362,0.7527-3.4388,3.1756-2.6861,5.4117c0.7526,2.2362,3.1756,3.4388,5.4117,2.6861  l4.3268-1.4563l1.5778,4.6877c0.7527,2.2362,3.1756,3.4388,5.4117,2.6861c2.2362-0.7527,3.4388-3.1756,2.6861-5.4117l-1.5778-4.6877  l9.3246-3.1385l1.5598,4.6342c0.7527,2.2362,3.1756,3.4388,5.4117,2.6861c2.2362-0.7527,3.4388-3.1756,2.6861-5.4117l-1.5598-4.6342  l4.5351-1.5264C-38.7789,84.4835-37.5762,82.0606-38.3289,79.8244z M-65.6982,84.5288l-3.0737-9.1321l9.3246-3.1385l3.0737,9.1321  L-65.6982,84.5288z"/>
</symbol>
<symbol id="stackoverflow" viewBox="-1163 1657.697 56.693 56.693"><rect height="4.1104" transform="matrix(-0.8613 -0.508 0.508 -0.8613 -2964.1831 2556.6357)" width="19.2465" x="-1142.8167" y="1680.7778"/><rect height="4.1105" transform="matrix(-0.9657 -0.2596 0.2596 -0.9657 -2672.0498 3027.386)" width="19.2462" x="-1145.7363" y="1688.085"/><rect height="4.1098" transform="matrix(-0.9958 -0.0918 0.0918 -0.9958 -2425.5647 3282.8535)" width="19.246" x="-1146.9451" y="1695.1263"/><rect height="4.111" width="19.2473" x="-1147.2625" y="1701.293"/><path d="M-1121.4579,1710.9474c0,0,0,0.9601-0.0323,0.9601v0.0156h-30.7953c0,0-0.9598,0-0.9598-0.0156h-0.0326v-20.03h3.2877  v16.8049h25.2446v-16.8049h3.2877V1710.9474z"/><rect height="4.111" transform="matrix(0.5634 0.8262 -0.8262 0.5634 892.9033 1662.7915)" width="19.247" x="-1136.5389" y="1674.2235"/><rect height="4.1108" transform="matrix(0.171 0.9853 -0.9853 0.171 720.9987 2489.031)" width="19.2461" x="-1128.3032" y="1670.9347"/>
</symbol>
<symbol id="twitter" viewBox="0 0 56.693 56.693"><path d="M52.837,15.065c-1.811,0.805-3.76,1.348-5.805,1.591c2.088-1.25,3.689-3.23,4.444-5.592c-1.953,1.159-4.115,2-6.418,2.454  c-1.843-1.964-4.47-3.192-7.377-3.192c-5.581,0-10.106,4.525-10.106,10.107c0,0.791,0.089,1.562,0.262,2.303  c-8.4-0.422-15.848-4.445-20.833-10.56c-0.87,1.492-1.368,3.228-1.368,5.082c0,3.506,1.784,6.6,4.496,8.412  c-1.656-0.053-3.215-0.508-4.578-1.265c-0.001,0.042-0.001,0.085-0.001,0.128c0,4.896,3.484,8.98,8.108,9.91  c-0.848,0.23-1.741,0.354-2.663,0.354c-0.652,0-1.285-0.063-1.902-0.182c1.287,4.015,5.019,6.938,9.441,7.019  c-3.459,2.711-7.816,4.327-12.552,4.327c-0.815,0-1.62-0.048-2.411-0.142c4.474,2.869,9.786,4.541,15.493,4.541  c18.591,0,28.756-15.4,28.756-28.756c0-0.438-0.009-0.875-0.028-1.309C49.769,18.873,51.483,17.092,52.837,15.065z"/>
</symbol>
<symbol id="windows" viewBox="0 0 56.693 56.693"><g><path d="M3.765,46.362l19.836,2.873V30.257H3.765V46.362z M3.765,27.546h19.836V8.566L3.765,11.439V27.546z M26.312,49.628   l26.616,3.855V30.257H26.312V49.628z M26.312,8.172v19.374h26.616V4.319L26.312,8.172z"/></g>
</symbol></svg>