<svg xmlns="http://www.w3.org/2000/svg" xmlns:xlink="http://www.w3.org/1999/xlink" viewBox="0 0 285.42 31.74"><defs><style>.cls-1,.cls-2{fill:none;}.cls-2,.cls-4{clip-path:url(#clip-path);}.cls-3{clip-path:url(#clip-path-8);}</style><clipPath id="clip-path"><polyline class="cls-1" points="0 0 285.52 0 285.52 31.54 0 31.54 0 0"/></clipPath><clipPath id="clip-path-8"><polyline class="cls-1" points="0 0 0 31.74 285.42 31.74 285.42 0"/></clipPath></defs><title>Fichier 1</title><g id="Calque_2" data-name="Calque 2"><g id="Layer_1" data-name="Layer 1"><g class="cls-3"><g class="cls-4"><path d="M234.78,20.35l4.81-14.08,4.65,14.08h-9.46M185,14.9v-13h2.25c3.72,0,6.22,2.42,6.22,6.8,0,2.41-1.89,6.18-5.81,6.18Zm-24.34,5.45,4.81-14.08,4.65,14.08Zm124.8-19H271.17v.62h2.35V24.21L259,1.3h-6.23v.62h2.35V30.1h-3.94L241.13,0,230.72,30.1H227V1.92h2.15V1.3h-5.62l-8,23.51L207.14,1.3h-5.72v.62h2.35V30.1h-4.32c-1.48,0-2.71-1.32-2.71-3.41V22.32c0-3.61-1.26-6.49-5.29-7.1a6.81,6.81,0,0,0,5.8-6.66c0-4.09-3-7.25-9.07-7.25h-9v.62h2.35V30.11h-4.5L167,0,156.56,30.1h-1.94v.62H160V30.1h-2.7L160.41,21h9.88l3,9.13h-3.7v.62h19v-.62H185V15.52h2.67c3.66,0,5.58,1.49,5.58,5.14v2.56c0,6,3.89,7.5,6,7.5H207V30.1H204.4V4l9.87,27,9.35-27.89v27h-2.35v.62h12.89V30.1h-2.7L234.57,21h9.88l3,9.13h-3.7v.62h14.38V30.1h-2.36V2.9l18.37,28.84V1.92h5.53V30.1h-2.36v.62h8.1V30.1h-2.36V1.92h2.36V1.3Z"/><path d="M128.44,30.85c-7.82,0-8.2-10.22-8.2-14.82s.52-14.82,8.2-14.82,8.24,10.25,8.24,14.82-.44,14.82-8.24,14.82m0-30.26C120.74.6,115.69,9.16,115.69,16c0,7.5,5.47,15.4,12.75,15.4S141.19,24,141.19,16C141.19,9.16,135.72.6,128.44.6Z"/><polyline points="106.49 1.92 108.85 1.92 108.85 30.1 106.49 30.1 106.49 30.72 114.59 30.72 114.59 30.1 112.24 30.1 112.24 1.92 114.59 1.92 114.59 1.3 106.49 1.3 106.49 1.92"/><path d="M66.57,14.9v-13h2.25c3.72,0,6.22,2.42,6.22,6.8,0,2.41-1.89,6.18-5.81,6.18H66.57m14.5,15.46c-1.49,0-2.71-1.36-2.71-3.45V22.32c0-3.62-1.26-6.49-5.29-7.1a6.81,6.81,0,0,0,5.8-6.66c0-4.09-2.95-7.25-9.07-7.25h-9v.62h2.35V30.11H60.83v.62H70.2v-.62H66.57V15.52h2.67c3.66,0,5.58,1.55,5.58,5.14v2.85c0,5.95,3.89,7.5,6,7.5a3.1,3.1,0,0,0,2.38-.83l-.37-.51A2.41,2.41,0,0,1,81.07,30.35Z"/><path d="M47,30.85c-7.82,0-8.2-10.22-8.2-14.82S39.31,1.22,47,1.22,55.24,11.47,55.24,16,54.8,30.85,47,30.85M47,.6C39.3.6,34.24,9.16,34.24,16c0,7.5,5.47,15.4,12.75,15.4S59.74,24,59.74,16C59.74,9.16,54.27.6,47,.6Z"/><polyline points="25 1.92 27.36 1.92 27.36 30.1 25 30.1 25 30.72 33.1 30.72 33.1 30.1 30.75 30.1 30.75 1.92 33.1 1.92 33.1 1.3 25 1.3 25 1.92"/><path d="M15.91,19.09h2.77v5.58a6.11,6.11,0,0,1-6.09,6.18c-7.37,0-8-9.3-8-14.82,0-5,.51-14.82,8.6-14.82,3.12,0,6.47,2.78,7.14,8.51h.53v-9h-.53a1.71,1.71,0,0,1-2,1.46C17.27,2.18,15.92.6,13.12.6,4.47.6,0,9.78,0,16c0,6.59,5,15.4,12.58,15.4,4.22,0,4.48-2.52,7.19-2.52a1.81,1.81,0,0,1,1.64,1.82h.66V19.09h2.35v-.62H15.91v.62"/><path d="M97.49,19.09h2.77v5.58a6.11,6.11,0,0,1-6.1,6.18c-7.37,0-8-9.3-8-14.82,0-5,.51-14.82,8.6-14.82,3.12,0,6.47,2.78,7.14,8.51h.53v-9h-.53a1.71,1.71,0,0,1-2,1.46C98.85,2.18,97.49.6,94.7.6,86.05.6,81.58,9.78,81.58,16c0,6.58,5,15.4,12.58,15.4,4.22,0,4.47-2.52,7.19-2.52A1.81,1.81,0,0,1,103,30.72h.66V19.09H106v-.62H97.49v.62"/></g></g></g></g></svg>