<svg xmlns="http://www.w3.org/2000/svg" viewBox="0 0 124.85 126.32"><defs><style>.cls-1{fill:#b1b1b1;}</style></defs><title>Fichier 1</title><g id="Calque_2" data-name="Calque 2"><g id="Calque_1-2" data-name="Calque 1"><path class="cls-1" d="M86,19.27V1.52A96.48,96.48,0,0,0,67,0C56.75.27.5,4.52,0,58.52s39.75,68.75,63.25,67.75,45-15,53-29,12.25-30,4.5-64c0,0-33.75-5-49.75,9.5C55.8,56.55,53.25,66.27,53.5,79.52H63s.5-14.25,5.25-20.25,17.25-19.25,44-17.5c0,0,12.5,43.5-18.25,64s-61.25,4.75-70.75-9.5C14.63,83.34,0,39.77,40.75,16.52,62,6.52,86,19.27,86,19.27Z"/><path class="cls-1" d="M94.5,64.77S95,90.77,71.25,96,33,96.64,32,91c-.67-3.75-.75-3,5-2.5,11.88,1.13,26.1,3,38.5-3.25C84.26,80.86,84,81.54,94.5,64.77Z"/></g></g></svg>