<?xml version="1.0" ?><svg height="56.7px" id="Layer_1" style="enable-background:new 0 0 56.7 56.7;" version="1.1" viewBox="0 0 56.7 56.7" width="56.7px" xml:space="preserve" xmlns="http://www.w3.org/2000/svg" xmlns:xlink="http://www.w3.org/1999/xlink"><path d="M50.1518,35.9687c1.5177-2.8698,3.2753-8.3992,1.8103-13.2533c-0.0185-0.062-0.0402-0.1231-0.0598-0.1848  c-0.0559-0.1856-0.0938-0.2882-0.0938-0.2882l-0.0001,0.0002l-0.0001-0.0002l0.0001,0.0002l-0.0001,0.0002  c-0.0049-0.0141-0.0089-0.0284-0.0139-0.0425c0.0042,0.016,0.0079,0.0321,0.012,0.0481c-0.0257,0.0773-0.4268,1.2875-0.954,3.0668  c0.2859-2.6547,0.086-5.4206-0.8379-7.9778c-0.4381-1.2203-0.9839-2.2336-1.5155-3.0426c-0.6891-1.1242-1.447-1.9833-2.0438-2.3949  c0.0679,0.0512,0.135,0.1106,0.2012,0.1766C46.529,11.9594,46.4551,11.9,46.4551,11.9c0.0145,0.0158,0.0276,0.0317,0.0419,0.0475  c-0.0439-0.0395-0.0699-0.0616-0.0699-0.0616s0.052,0.283,0.1429,0.7816c-1.2371-1.9677-3.0918-2.9611-3.3492-3.0923  c-0.029-0.0195-0.0449-0.0296-0.0449-0.0296s0.1011,0.5751,0.2539,1.8017c-1.9416-1.5476-4.2794-2.8152-7.0648-3.5815  c4.5546,2.999,6.2503,5.5496,7.3152,7.8199c-1.2191-1.2473-3.2933-2.5366-4.7087-2.6487c2.0789,1.5522,5.5532,6.1214,5.2638,13.0402  c-0.9391-2.3531-2.2088-3.3284-2.2088-3.3284c0.0017,0.0197,0.0035,0.04,0.0052,0.0598c-0.0109-0.0101-0.0224-0.0223-0.0332-0.0318  c0.295,2.6986,0.3749,4.5709,0.3352,5.9599c-0.0099,0.3115-0.0257,0.6241-0.0491,0.9366c-0.114,1.4462-0.3742,2.2852-0.602,3.1591  c-0.2565-1.0939-0.5949-1.7033-0.5949-1.7033s-0.0025,0.0266-0.0077,0.074c-0.0066-0.0148-0.0143-0.0318-0.0205-0.0459  c0,0-0.0842,2.1582-1.4856,5.2413c-0.8676,1.907-1.7539,2.7344-2.3178,2.9301c-0.2055,0.0592-0.375,0.033-0.4986-0.0572  c-0.0034,0.0133-0.0075,0.0261-0.011,0.0394c-0.0105-0.0066-0.0172-0.0113-0.0172-0.0113c0.028-0.3082,0.0701-0.6166-0.014-0.8268  c0,0-0.4485,0.1543-0.7429,0.5606c-0.1121,0.1683-0.2661,0.3225-0.4625,0.4765c-0.028,0.028,0.3223-0.4483,0.2944-0.4344  c-0.1682,0.1401-0.3645,0.3082-0.5465,0.5045c-0.6867,0.7147-1.3173,1.5137-1.6396,1.2893c0.2944-0.0981,0.5465-0.4763,0.6026-0.855  c-0.2661,0.1962-0.953,0.7007-2.4945,0.9391c-0.6306,0.098-3.3073,0.5885-6.8809-1.2054c0.5185-0.0559,1.3033-0.2382,1.8919,0.1121  c-0.5886-0.6447-2.032-0.5184-3.0551-0.8408c-0.8969-0.2803-2.0601-1.5415-2.7327-2.1722c2.4109,0.5905,4.9506,0.2845,6.673-0.5761  c0.2508-0.1231,0.4849-0.2582,0.6984-0.4047c1.0354-0.7159,2.4884-1.7433,3.2998-1.8231c0.0974-0.0006,0.1934,0.0072,0.2877,0.0293  c0.8969,0.1961,1.4995-0.7007,0.7988-1.5135c-0.7007-0.813-2.4104-1.8919-4.7227-1.3173c-1.7797,0.4485-3.2792,1.864-5.7737,0.883  c-0.1543-0.056-0.3083-0.1261-0.4626-0.2102c-0.1542-0.0842,0.5185,0.098,0.3504,0c-0.4763-0.1823-1.3452-0.5747-1.5694-0.7289  c-0.0422-0.0279,0.3644,0.0701,0.3223,0.0422c-0.4863-0.2878-0.8649-0.5635-1.1616-0.8263  c-0.0054-0.0049-0.0101-0.0099-0.0156-0.0147c-1.3452-1.1912-1.0369-2.3404-0.8689-2.9289  c0.1309-0.4641,0.4836-0.8766,0.7159-1.0424c0.0272-0.0173,0.0544-0.0348,0.0828-0.0506c0.3363,0.1261,0.5466,0.2382,0.5466,0.2382  s-0.1543-0.2382-0.2523-0.3644c0.0279-0.014,0.042-0.014,0.0701-0.028c0.2803,0.0981,0.9109,0.3223,1.2191,0.4905  c0.4346,0.2102,0.5747,0.4344,0.5747,0.4344s0.0981-0.0701,0-0.2803c-0.042-0.0981-0.1962-0.3644-0.6166-0.6166  c0.0142,0,0.0142,0,0.0142,0c0.2242,0.0841,0.4625,0.1962,0.7147,0.3504c0.0842-0.3784,0.2382-0.7708,0.1401-1.4575  c-0.0841-0.4905-0.0701-0.6026-0.1822-0.7848c-0.0981-0.1542,0.028-0.2102,0.1822-0.0841c-0.042-0.1261-0.0981-0.2382-0.1542-0.3644  c0.0005-0.0023,0.002-0.0049,0.0026-0.0073c0.0174,0.0349,0.032,0.0534,0.047,0.0505c0.0109,0.0145,0.0175,0.012,0.0206-0.0153  l0.0002-0.0006c0.7439-0.8972,3.6711-2.2559,4.3295-2.9564c0.0844-0.0914,0.1539-0.1695,0.2115-0.2375  c-0.005,0.0141-0.0102,0.0296-0.0148,0.0414c0.3782-0.2943,0.5463-0.5746,0.7146-0.981c0.1682-0.4204,0.3645-1.4014-0.1961-1.6116  c-0.443-0.1074-0.8352-0.1888-1.5323-0.1832c-0.5862-0.043-1.3779-0.0629-2.4479-0.055c-1.5556,0.014-2.2843-1.3453-2.5366-1.9199  c-0.0047,0.017-0.0088,0.0341-0.0134,0.0512c-0.0048-0.0122-0.0105-0.0257-0.0148-0.037c0.4485-1.6396,1.3594-3.0691,2.7748-4.2323  c0.0841-0.0701-0.3363,0.042-0.2523-0.028c0.0981-0.0841,0.7007-0.3784,0.8128-0.4344c0.1401-0.0841-0.6587-0.2943-1.3313-0.1542  c-0.6446,0.1316-0.7953,0.2137-1.1127,0.374c-0.0154,0.0061-0.0327,0.013-0.0535,0.0215c0.151-0.1536,0.5891-0.3671,0.4795-0.3534  c-0.7428,0.1682-1.6256,0.6587-2.3682,1.1772c0-0.0701,0-0.1261,0.014-0.2242c-0.3504,0.1822-1.2052,0.8408-1.4154,1.3313  c0-0.1121,0-0.1682-0.0141-0.2803c-0.2381,0.2241-0.4763,0.4904-0.6866,0.7706c0,0-0.0017,0.0052-0.0059,0.0093  c-0.8302-0.2069-1.5928-0.3066-2.2774-0.337c-1.2481-0.0625-2.3685,0.1001-3.3712,0.4152c-0.5299-0.431-1.3132-1.1814-1.9131-2.1476  c-0.0103-0.0155-0.0187-0.018-0.026-0.0126c-0.0111-0.0075-0.0197,0.0009-0.0271,0.0173C9.656,11.847,9.655,11.8455,9.654,11.8439  c-0.035-0.0527-0.0481,0.0376-0.0668,0.0917c-0.3734-0.6752-0.6762-1.8093-0.7179-2.6143c0,0-0.0055,0.0034-0.0134,0.0084  C8.8557,9.3271,8.8554,9.3241,8.8553,9.3214c0,0-0.0152,0.0091-0.0402,0.0268C8.8146,9.3394,8.8137,9.3301,8.8133,9.3214  c0,0-0.6165,0.3504-1.009,1.6116c-0.0399,0.1277-0.0751,0.2231-0.1058,0.3053c0.0073-0.1051,0.0151-0.215,0.0079-0.1932  c-0.003,0.0066-0.0078,0.0144-0.0113,0.0214c0.0006-0.0199-0.0001-0.0292-0.0027-0.0214c-0.0106,0.0234-0.0255,0.0496-0.0422,0.0773  c0.0033-0.0543,0.0046-0.0906,0.0001-0.0773c-0.0701,0.1542-0.2943,0.4064-0.3644,0.6867  c-0.0439,0.1647-0.1047,0.2787-0.1426,0.4481c-0.0029-0.0632-0.0062-0.1112-0.0117-0.0838  c-0.0006,0.0016-0.0012,0.0033-0.0018,0.0049c-0.0017-0.0112-0.0051-0.0189-0.0124-0.0189c0,0,0,0-0.0142,0  c-0.0047,0.0118-0.0094,0.0252-0.014,0.0377c-0.0042-0.0327-0.0089-0.0519-0.0136-0.0377c-0.1823,0.4625-0.3363,0.995-0.4765,1.5976  c-0.1379,0.6698-0.2753,1.5135-0.3013,2.5295c-0.0536,0.937-0.0172,1.6375,0.0349,1.7729c0.0041-0.0041,0.0073-0.0078,0.0113-0.0118  c0,0,0.0003,0.0009,0.0004,0.0015c-0.601,0.8252-0.9786,1.5244-1.1327,1.8743c-0.7289,1.4154-1.4718,3.6016-2.0742,6.993  c0,0,0.0127-0.0395,0.0362-0.108c-0.0074,0.041-0.0149,0.0807-0.0222,0.1221c0,0,0.0021-0.0066,0.006-0.0186  c-0.002,0.011-0.004,0.0216-0.006,0.0327c0,0,0.014-0.0561,0.0559-0.1542c-0.014,0.042-0.014,0.0981-0.028,0.1401  c0,0,0.0561-0.1542,0.1543-0.4344c0.0095-0.0529,0.0194-0.1029,0.029-0.1552c0.1892-0.4918,0.5057-1.2405,0.9509-2.0505  c-0.5751,1.8247-1.0313,4.6308-0.7557,8.8063c0.0013-0.0132,0.004-0.0374,0.0074-0.0668c0.0023,0.0364,0.0043,0.0722,0.0068,0.1088  c0-0.0251,0.0108-0.0741,0.0131-0.1442c0.0004-0.0035,0.0008-0.007,0.0012-0.0106c0.0001,0.0492,0.0009,0.0896,0.0137,0.1408  c0-0.0559,0.028-0.2943,0.0842-0.6585c-0.0027-0.0509-0.004-0.0992-0.0065-0.1497c0.0701-0.4574,0.1782-1.079,0.3337-1.7954  c0.1631,2.8147,0.844,6.2438,3.0218,9.975c1.6817,2.8729,6.0961,9.5437,17.1814,12.038c-0.0418-0.012-0.0817-0.0254-0.1224-0.0382  c0.055,0.0126,0.109,0.0259,0.1643,0.0383c-0.5045-0.1401-0.9389-0.3503-1.2613-0.5465c-0.0287-0.0077-0.0567-0.0157-0.0853-0.0235  c-0.4298-0.2576-0.6714-0.4812-0.6714-0.4812s0.2591,0.0831,0.6947,0.2061c0.0021,0.0014,0.0039,0.0027,0.006,0.0041  c1.2893,0.3644,4.2184,1.1071,6.5165,1.0232c-0.0218-0.0044-0.0409-0.0093-0.062-0.0139c0.002-0.0001,0.0041-0.0001,0.0061-0.0001  c-0.0264-0.0047-0.05-0.0103-0.0753-0.0154c-0.2185-0.0507-0.3986-0.1106-0.5273-0.1808c-0.0138-0.0005-0.0278-0.0013-0.0417-0.0018  c-0.397-0.1916-0.491-0.4186-0.491-0.4186s0.1191,0.0066,0.3342,0.0126c0.0055,0.0052,0.0103,0.0101,0.0161,0.0154  c1.5275,0.0422,8.801,0.0982,12.795-3.0549c0.995-0.7429,1.6395-1.6116,1.8497-2.3967c0,0-0.0068,0.0061-0.0221,0.014  c0.0015-0.0055,0.0032-0.011,0.0046-0.0165l0.0031-0.0016l-0.0006-0.0072c0.0008-0.0032,0.0019-0.0065,0.0027-0.0097  c0.0033-0.0017,0.0066-0.0035,0.0099-0.0052l0.0022,0.0123c0,0-0.0043,0.004-0.0142,0.0098l0.0004,0.0042  c0.4625-0.2381,0.9249-0.5184,1.4014-0.8407c1.076-0.7303,2.36-1.721,3.4402-2.9555c0.0411-0.0469,0.0814-0.0946,0.1219-0.1422  c0.0596-0.0702,0.1215-0.1379,0.1797-0.2097c0.4553-0.5519,0.8015-1.0898,1.0662-1.5879c0.0012-0.0022,0.0024-0.0044,0.0036-0.0067  c0.003-0.0056,0.0063-0.0114,0.0093-0.017c-0.0014,0.0026-0.003,0.0052-0.0044,0.0077c0.5331-0.9895,0.892-2.0938,0.9574-3.3151  c-0.0193,0.2825-0.0861,0.5608-0.1909,0.834c0.0059-0.0324,0.0115-0.0647,0.0172-0.097  C50.5117,37.3429,50.4866,36.5291,50.1518,35.9687z"/></svg>