<?xml version="1.0" ?><svg enable-background="new -822 823.1 56.7 56.7" height="56.7px" id="Layer_1" version="1.1" viewBox="-822 823.1 56.7 56.7" width="56.7px" xml:space="preserve" xmlns="http://www.w3.org/2000/svg" xmlns:xlink="http://www.w3.org/1999/xlink"><g id="g10088_1_" transform="matrix(0.58397792,0,0,0.58397792,-520.1179,950.32031)"><path d="M-477.1-189.5c-3.4,0-6.3,0.7-9.1,2.1c-7.3,3.6-11.5,11.3-11.5,20.9c0,9.6,4.1,17.1,11.4,20.5   c2,0.9,4,1.4,7,1.8c1.5,0.1,2.9,0.2,4.4,0c3-0.4,5-0.9,7-1.8c7.3-3.5,11.4-10.9,11.4-20.5c0-9.6-4.2-17.3-11.5-20.9   C-470.9-188.8-473.8-189.5-477.1-189.5L-477.1-189.5z M-474.2-182.7c4.4,1.2,7.5,5.1,8.8,10.9c0.9,4,0.6,8.7-0.6,12.4   c-1.9,5.7-6,9-11.1,8.9c-5,0.1-9.2-3.2-11.1-8.9c-1.2-3.7-1.5-8.3-0.6-12.4c1.2-5.8,4.4-9.7,8.8-10.9   C-478.1-183.1-476.1-183.1-474.2-182.7L-474.2-182.7z" id="path10079_1_"/><path d="M-506.2-189.5c-2.4,0-4.4,2-4.4,4.4c0,2.4,2,4.4,4.4,4.4s4.4-2,4.4-4.4   C-501.8-187.5-503.8-189.5-506.2-189.5z M-510.3-176.2v32.1h8.2v-32.1H-510.3z" id="path10077_1_"/><path d="M-444.7-144.1c-3.5-0.6-6.9-1.1-9.7-2.7c0,0,1.7-6.5,1.8-6.6c4.6,1.6,11.1,3.7,15.4,1.7   c2.4-1.2,3.5-3.4,3.2-5.9c-0.4-2.9-2.4-4.5-7.8-6.5c-6-2.3-9.6-5-11-8.6c-0.7-1.8-0.9-4-0.6-6c0.9-5.5,5.2-9.3,11.7-10.5   c1.9-0.3,6-0.3,8,0c2.9,0.5,6.2,1.6,6.2,2c0,0.2-1.7,6.1-1.8,6.3c-2.9-1.1-6-1.9-8.8-2c-3.8-0.1-8,2.2-7.3,6.2   c0.5,2.5,2.1,3.7,8,6.1c4.4,1.8,6.4,3,8.2,4.8c2.5,2.5,3.3,5.4,3.3,8.3c0,2.4-0.2,3.5-1.1,5.4c-2.1,4.5-6.3,7.1-12.7,7.8   C-440.9-144.1-443.7-144-444.7-144.1L-444.7-144.1z" id="path10039_1_"/></g></svg>