<svg xmlns="http://www.w3.org/2000/svg" viewBox="0 0 130.67 47.79"><title>Fichier 1</title><g id="Calque_2" data-name="Calque 2"><g id="Calque_1-2" data-name="Calque 1"><path d="M18.89,47.79C7.09,47.79,0,42.76,0,30.94v-.6H13.72v.54c0,4.3,1.59,5.84,4.71,5.84s4.71-1.54,4.71-5.84V.81H37.77V30.94C37.77,42.76,30.68,47.79,18.89,47.79Z"/><path d="M86.74,23.9C86.74,39.67,78.39,47,62.82,47H43.07V.81H62.82C78.39.81,86.74,8.12,86.74,23.9Zm-29,12h4.84c6.43,0,9.21-3.69,9.21-10v-4c0-6.31-2.78-10-9.21-10H57.72Z"/><path d="M129.41,14.23V15H115.7v-.27c0-2.42-1.66-4.7-5.9-4.7-4,0-6,1.41-6,3,0,6.91,26.57,1.48,26.91,18.59,0,11.48-8.61,16.11-20.08,16.11-12.79,0-22.53-3.29-22.53-16.45h13.85c0,5,2.85,5.84,7.36,5.84,2.65,0,6.43-.2,6.43-3.09,0-6.65-26.91-1.34-26.91-19.33C88.79,4,98.47,0,109.27,0,120.27,0,129.21,4.36,129.41,14.23Z"/></g></g></svg>