<?xml version="1.0" ?><svg enable-background="new 0 0 74.15 74.15" width="100" height="100" version="1.1" viewBox="0 0 74.15 74.15" xml:space="preserve" xmlns="http://www.w3.org/2000/svg" xmlns:xlink="http://www.w3.org/1999/xlink"><g id="Calque_2" data-name="Calque 2"><g id="mercedes"><g id="mercedes-2" data-name="mercedes"><path id="path3524" class="cls-1" d="M54.28,4.2a37.09,37.09,0,0,1,0,65.7V65.66a33.18,33.18,0,0,0,11.11-11L54.28,50.2V43.34l12.19,9.52a33,33,0,0,0,4-15.81A33.44,33.44,0,0,0,54.28,8.44V4.2ZM37.11,0A36.94,36.94,0,0,1,54.28,4.2V8.44A33.51,33.51,0,0,0,38.12,3.7L42.36,34l11.92,9.29V50.2L37,43.22l-17.13,7V43.42L31.9,34,36.11,3.7a33.42,33.42,0,0,0-16.2,4.74V4.2A36.87,36.87,0,0,1,37.11,0ZM54.28,69.91a37.1,37.1,0,0,1-34.37,0V65.66a33.28,33.28,0,0,0,34.37,0v4.24Zm-34.37,0a37.09,37.09,0,0,1,0-65.74V8.44A33.39,33.39,0,0,0,7.72,52.94l12.19-9.52v6.83L8.83,54.79A33.15,33.15,0,0,0,19.91,65.66v4.28Z"/></g></g></g></svg>
