<svg xmlns="http://www.w3.org/2000/svg" viewBox="0 0 70.86 60.27"><defs><style>.cls-1{fill:#c50124;}</style></defs><title>Fichier 1</title><g id="Calque_2" data-name="Calque 2"><g id="Calque_1-2" data-name="Calque 1"><g id="_c50124ff" data-name="#c50124ff"><path class="cls-1" d="M10.61,9.45C23.2-2.56,44.78-3.11,58.28,7.72A26.82,26.82,0,0,1,68.19,32c-1.11,9.56-7.24,18-15.06,23.3,4,.16,8,.14,12,.06,1.57-2,2.48-5.6,5.75-4.85-1.7,3.28-3.4,6.57-5.19,9.8-8.08-.14-16.17.21-24.24-.2,5.1-4.54,10.28-9.2,13.53-15.32,5.84-10.49,5.91-24.95-2.42-34.17C44.61,1.37,29,.6,20.14,8.84,14.43,13.79,11.57,21.52,11.73,29a35,35,0,0,0,8.92,22.56c2.59,3.13,5.83,5.62,8.66,8.52-8.07.37-16.14.14-24.21.13C3.43,56.92,1.65,53.7,0,50.41c3.37-.86,4.15,3,5.87,5,3.93,0,7.86,0,11.79,0C11.4,50.82,6.05,44.61,3.8,37.11.67,27.59,3.24,16.35,10.61,9.45Z"/></g></g></g></svg>