<svg xmlns="http://www.w3.org/2000/svg" viewBox="0 0 128.33 120.92"><defs><style>.cls-1{fill:#b6b6b6;}</style></defs><title>Fichier 1</title><g id="Calque_2" data-name="Calque 2"><g id="Calque_1-2" data-name="Calque 1"><path class="cls-1" d="M123.67,84.83c2.67-5.33,1.5-7.5.17-9-.71-.8-2.41-1.06-4.87-.1a60.25,60.25,0,0,1-11.46,22.68A26,26,0,0,0,123.67,84.83Z"/><path class="cls-1" d="M120.82,63.76c4.51-1.54,7.51-5,7.51-9.76,0-5.09-2.76-22.65-19.74-30.11a60.18,60.18,0,0,1,12.32,36.57C120.92,61.57,120.88,62.67,120.82,63.76Z"/><path class="cls-1" d="M115.5,64.67c-7.33.17-29.17,0-39.17,0a31.66,31.66,0,0,0-4.62.29c2,21.62,16.63,24.53,21.78,24.38,5.5-.17,10.5-.67,17.33-7.67A24.46,24.46,0,0,1,119,75.73a60.37,60.37,0,0,0,1.86-12A17.75,17.75,0,0,1,115.5,64.67Z"/><path class="cls-1" d="M53.67,60.39c0-12.61,4.5-40.05,37.33-39.89a43.88,43.88,0,0,1,17.6,3.39,60.46,60.46,0,1,0-1.09,74.52,44.63,44.63,0,0,1-13.67,1.92C58.33,100.31,53.67,73,53.67,60.39Z"/><path class="cls-1" d="M75.83,55.33S102.17,55,106.17,55s4.31.67,4.17-4.5c-.39-14.23-16.5-18-19.33-17.83-2.61.15-17.1,1.6-19.23,22A26.65,26.65,0,0,0,75.83,55.33Z"/><path class="cls-1" d="M67.33,67.67l0-.3A.87.87,0,0,0,67.33,67.67Z"/></g></g></svg>