<svg xmlns="http://www.w3.org/2000/svg" viewBox="0 0 444.37 444.37"><defs><style>.cls-1{fill:#c40808;}</style></defs><title>Fichier 1</title><g id="Calque_2" data-name="Calque 2"><g id="Calque_1-2" data-name="Calque 1"><path class="cls-1" d="M376.76,167.49h-20v35.12h17.95c13.8,0,28.53-1.39,28.53-17.95C403.22,169.44,389.08,167.49,376.76,167.49Z"/><path class="cls-1" d="M0,0V444.37H444.37V0ZM148.9,284.4c-13.18,0-31.57-3.19-44.34-18.37l-.36-.43,18.89-18.3.4.6a30.92,30.92,0,0,0,26,13.72c11.08,0,22.85-6.21,22.85-17.73,0-12.44-11.84-16.28-25.58-20.74-17.82-5.78-38-12.33-38-39.61,0-28.39,25.11-41.1,50-41.1,11,0,26.59,2.43,38.82,14l.44.42-18.33,19.32-.43-.6c-4.66-6.57-13-10.34-23-10.34-10.31,0-21.33,4.37-21.33,16.61,0,11.08,11.4,14.75,24.61,19,17.36,5.59,38.95,12.54,38.95,40.22C198.51,273.05,171.8,284.4,148.9,284.4ZM309.75,168.62H247.14v34h59v22.77h-59V281H222.08V145.85h87.66ZM404.21,281s-30.69-56.12-31-56.75H356.74V281h-25V145.85h47.15c23.06,0,50.55,6.77,50.55,39,0,20-11.48,33.61-30.69,36.73L434.39,281Z"/></g></g></svg>