<svg id="sogitec-icon" data-name="sogitec-icon" xmlns="http://www.w3.org/2000/svg" viewBox="0 0 46 53"><defs><style>.cls-1{fill:#ffffff;}.cls-2{fill:#ffffff;}.cls-3{fill:#ffffff;}</style></defs><title>sogitec-icon</title><polygon class="cls-1" points="23 53 23 26.6 31.6 21.7 36.7 34.4 45.9 39.3 38.6 38.3 40.3 42.5 23 53"/><path class="cls-1" d="M236.4,172" transform="translate(-213.4 -145.5)"/><polyline class="cls-1" points="36.2 19.1 46 13.8 45.9 39.3"/><polygon class="cls-2" points="0 13.7 23 0 9.8 19.2 0 13.7"/><polygon class="cls-2" points="14.4 21.8 23 11.2 23 0 25.8 7.7 29 3.7 46 13.8 23 26.5 14.4 21.8"/><polygon class="cls-3" points="0 39.3 23 39.4 23 53 0 39.3"/><polygon class="cls-3" points="0 13.7 23 26.5 23 36.1 9.1 34.3 0 39.3 4.7 33.6 0 32.8 0 13.7"/></svg>
