<?xml version="1.0" ?><svg xmlns="http://www.w3.org/2000/svg" viewBox="0 0 65.69 65.7" width="100" height="100" xml:space="preserve" xmlns="http://www.w3.org/2000/svg" xmlns:xlink="http://www.w3.org/1999/xlink"><g id="Calque_2" data-name="Calque 2"><g id="Calque_1-2" data-name="Calque 1"><path class="cls-1" d="M29.58.16a32.85,32.85,0,1,1-25.81,48A32.95,32.95,0,0,1,7.12,12.41,32.74,32.74,0,0,1,29.58.16Zm1.21,2.9A29.83,29.83,0,1,0,45.95,6a29.73,29.73,0,0,0-15.15-3ZM28.3,7.92a25,25,0,0,1,20.2,5.27,25.27,25.27,0,0,1,8.05,10.66,24.94,24.94,0,0,1,1.23,14.2A24.61,24.61,0,0,1,41.65,56.41a25.53,25.53,0,0,1-8.77,1.36,21.42,21.42,0,0,1-12.14-3.49,18.93,18.93,0,0,1-7.29-10.64A16.18,16.18,0,0,1,42.37,30.11a12.71,12.71,0,0,0-5.89-3.38,12.42,12.42,0,0,0-15.09,15,12,12,0,0,0,3.27,5.76,13,13,0,0,0,13.81,2.81,13,13,0,0,0,7-7.17,17.3,17.3,0,0,0,.9-9.45,17.67,17.67,0,0,0-5.46-10.14,19,19,0,0,0-11.17-4.83A18.92,18.92,0,0,0,10.51,30.1a19.11,19.11,0,0,0-1,12l0,.27A25.41,25.41,0,0,1,8.24,26.88a25,25,0,0,1,20.06-19ZM27.05,31.4A9.45,9.45,0,1,1,39.5,45.63a9.32,9.32,0,0,1-7.92,2A7.18,7.18,0,0,0,36.32,46a7.24,7.24,0,1,0-11.56-4A9,9,0,0,1,24,37.69a9.45,9.45,0,0,1,3-6.3Zm-.73,8.69A5,5,0,0,1,29.18,36a4,4,0,0,0-1.62,2.77,3.8,3.8,0,0,0,7.36,1.68,3.87,3.87,0,0,0-1.13-4.24,4.94,4.94,0,0,1,2.4,3.4A5.06,5.06,0,0,1,35.63,43a5,5,0,0,1-9.31-2.88Z"/></g></g></svg>
