<svg xmlns="http://www.w3.org/2000/svg" viewBox="0 0 99 99"><title>Fichier 1</title><g id="Calque_2" data-name="Calque 2"><g id="svg5398"><path id="path5411" d="M49.5,0A49.51,49.51,0,0,1,99,49.5,49.51,49.51,0,0,1,49.5,99,49.51,49.51,0,0,1,0,49.5,49.51,49.51,0,0,1,49.5,0Zm0,5.59A44,44,0,0,0,5.59,49.5,44,44,0,0,0,49.5,93.4,43.9,43.9,0,0,0,93.4,49.5,43.9,43.9,0,0,0,49.5,5.59Zm0,2.28a.73.73,0,0,1,.44.12.79.79,0,0,1,.28.37l3.69,10.41a1.3,1.3,0,0,1,0,.81,1.21,1.21,0,0,1-.47.62,3.81,3.81,0,0,0-1.56,4.12,3.82,3.82,0,0,0,1.22,1.94,9.81,9.81,0,0,1,3.41,7.37v3.72L74.78,26.81l2.28,3.94L56.5,42.59v2.87L59,46.87,79.53,35l2.25,3.91L63.5,49.5l3.22,1.87a9.66,9.66,0,0,1,3.06,2.78A9.84,9.84,0,0,1,71.4,58a3.79,3.79,0,0,0,1.09,2,3.84,3.84,0,0,0,2,1.06,3.88,3.88,0,0,0,2.28-.31,1.22,1.22,0,0,1,.78-.09,1.26,1.26,0,0,1,.69.41l7.19,8.37a.82.82,0,0,1,.19.44.71.71,0,0,1-.09.44.78.78,0,0,1-.34.31.8.8,0,0,1-.47.06l-10.84-2a1.21,1.21,0,0,1-.69-.37,1.34,1.34,0,0,1-.34-.75A3.82,3.82,0,0,0,72,65.4a3.89,3.89,0,0,0-1.94-1.25,3.8,3.8,0,0,0-2.28.06,9.53,9.53,0,0,1-8.09-.75L56.5,61.62V82.75H52V59L49.5,57.59,47,59V82.75H42.5V61.62l-3.22,1.84a9.53,9.53,0,0,1-8.09.75,3.8,3.8,0,0,0-2.28-.06A3.88,3.88,0,0,0,27,65.4a3.82,3.82,0,0,0-.84,2.12,1.3,1.3,0,0,1-.31.75,1.29,1.29,0,0,1-.72.37l-10.84,2a.79.79,0,0,1-.47-.06.76.76,0,0,1-.34-.31.73.73,0,0,1-.09-.44.82.82,0,0,1,.19-.44l7.19-8.37a1.25,1.25,0,0,1,.69-.41,1.21,1.21,0,0,1,.78.09,3.88,3.88,0,0,0,2.28.31,3.84,3.84,0,0,0,2-1.06,3.79,3.79,0,0,0,1.09-2,9.81,9.81,0,0,1,4.69-6.66L35.5,49.5,17.22,38.94,19.47,35,40,46.87l2.47-1.41V42.59L21.94,30.75l2.28-3.94L42.5,37.37V33.66a9.81,9.81,0,0,1,3.41-7.37,3.83,3.83,0,0,0,1.22-1.94,3.81,3.81,0,0,0-1.56-4.12,1.22,1.22,0,0,1-.47-.62,1.31,1.31,0,0,1,0-.81L48.78,8.37A.79.79,0,0,1,49.06,8,.74.74,0,0,1,49.5,7.87Zm0,22.69A2.45,2.45,0,0,0,47,33v7l2.47,1.41L52,40V33a2.45,2.45,0,0,0-2.47-2.47Zm0,15.66-2.84,1.66v3.28l2.84,1.62,2.84-1.62V47.87ZM40,52.12l-6,3.47a2.47,2.47,0,1,0,2.47,4.28l6-3.47V53.53Zm18.94,0L56.5,53.53v2.87l6,3.47A2.47,2.47,0,1,0,65,55.59Z"/></g></g></svg>