<svg viewBox="0 0 24 24" role="img" aria-hidden="true"><title>Instagram</title><path fill="currentcolor" d="m16.569616,2.139245a5.291136,5.291136 0 0 1 5.291136,5.291136l0,9.13924a5.291136,5.291136 0 0 1 -5.291136,5.291136l-9.139239,0a5.291136,5.291136 0 0 1 -5.29113,-5.291136l0,-9.13924a5.291136,5.291136 0 0 1 5.29113,-5.291136l9.139239,0m0,-1.92405l-9.139239,0a7.236831,7.236831 0 0 0 -7.215181,7.215186l0,9.13924a7.236831,7.236831 0 0 0 7.215181,7.215187l9.139239,0a7.236831,7.236831 0 0 0 7.215187,-7.215187l0,-9.13924a7.236831,7.236831 0 0 0 -7.215187,-7.215186z"/><path fill="currentcolor" d="m18.286835,4.303799a1.3781,1.3781 0 1 0 1.378103,1.378101a1.3781,1.3781 0 0 0 -1.378103,-1.378101z"/><path fill="currentcolor" d="m12.064935,7.783923a4.252149,4.252149 0 1 1 -4.249743,4.249747a4.256959,4.256959 0 0 1 4.249743,-4.249747m0,-1.924048a6.176199,6.176199 0 1 0 6.188231,6.173796a6.176199,6.176199 0 0 0 -6.188231,-6.173796z"/></svg>
