<svg viewBox="0 0 512 512" role="img" aria-hidden="true"><path d="M204,279.7c5,5,13.1,5,18.1,0l9.1-9c5-5,5-13.1,0-18.1L202.6,224l28.6-28.6c5-5,5-13.1,0-18.1l-9-9c-5-5-13.1-5-18.1,0 L157.4,215c-5,5-5,13.1,0,18.1L204,279.7z M280.8,270.7l9,9c5,5,13.1,5,18.1,0l46.7-46.7c5-5,5-13.1,0-18.1L308,168.3 c-5-5-13.1-5-18.1,0l-9,9.1c-5,5-5,13.1,0,18.1l28.5,28.6l-28.6,28.6C275.8,257.6,275.8,265.7,280.8,270.7L280.8,270.7z M499.2,403.2h-194c-0.6,15.9-11.8,25.6-26.2,25.6h-48.6c-15,0-26.4-14-26.2-25.6H12.8C5.7,403.2,0,408.9,0,416v12.8 C0.1,457,23,479.9,51.2,480h409.6c28.2-0.1,51.1-23,51.2-51.2V416C512,408.9,506.3,403.2,499.2,403.2z M460.8,108.8 c-0.1-21.2-17.2-38.3-38.4-38.4H89.6c-21.2,0.1-38.3,17.2-38.4,38.4v268.8h409.6V108.8z M409.6,326.4H102.4V121.6h307.2V326.4z"/></svg>
