<?xml version="1.0" encoding="utf-8"?><svg xmlns="http://www.w3.org/2000/svg">
<symbol id="accor" viewBox="0 0 84.72 40.05"><g><g><path d="M0,40s25.5.88,38.75-4.62,14.13-10.87,28.88-14,16.13-1.25,17-2.12-4.87-2.37-4.87-2.37-1.12-2.75-3.87-2.75S71,14.88,67.63,16s-8.25,6.13-18.12,4.13c0,0-3.87-8.5-15-11.87S21,8.88,2.13,0c0,0,3.25,12,15.5,22.75,5.64,4.95,4.25,6.5,4.25,6.5S22.38,33,0,40Z"/></g></g></symbol>
<symbol id="acf" viewBox="0 0 118.83 140.16"><g><g><path d="M64,140.16V104s45.26-9,54.79-52.26c-10,2.38-29.06,10-29.06,10V20.9S76.42,34.68,72.13,48c1.43,0-5.72-13.78-5.72-13.78s-6,10.11-7.56,13.06C59.23,24.57,49.26,0,49.26,0s-5.72,25.66-6.19,47.51c-.48,1.9-21-24.23-21-24.23l.48,34.21L.19,39.91S-6,83.62,53.07,100.25v39.91Z"/></g></g></symbol>
<symbol id="actforair" viewBox="0 0 512 512"><path d="M398.1,233.2c0-1.2,0.2-2.4,0.2-3.6c0-65-51.8-117.6-115.7-117.6c-46.1,0-85.7,27.4-104.3,67c-8.1-4.1-17.2-6.5-26.8-6.5 c-29.5,0-54.1,21.9-58.8,50.5C57.3,235.2,32,269.1,32,309c0,50.2,40.1,90.9,89.5,91h276.7l0,0c45.2-0.2,81.7-37.5,81.7-83.4 C480,270.6,443.3,233.3,398.1,233.2z"/></symbol>
<symbol id="areva" viewBox="0 0 390.95 308.9"><g><g><path d="M103.65,235.58a986.44,986.44,0,0,1,153-64.43L196.83,48.48Zm246.93-91.72,7.4,14.55q-18,7.5-36.07,15.39l69,135.1h-67.1L269.44,197.43c-69.8,32.84-138.36,70-200.22,111.47,0,0-.1-.22-69.22-.22L160.58,0H233L312,154.46c12.82-3.66,25.63-7.1,38.62-10.6"/></g></g></symbol>
<symbol id="armani" viewBox="0 0 285.42 31.74"><defs><clipPath id="clip-path"><polyline points="0 0 285.52 0 285.52 31.54 0 31.54 0 0"/></clipPath><clipPath><polyline points="0 0 0 31.74 285.42 31.74 285.42 0"/></clipPath></defs><g><g><g><g><path d="M234.78,20.35l4.81-14.08,4.65,14.08h-9.46M185,14.9v-13h2.25c3.72,0,6.22,2.42,6.22,6.8,0,2.41-1.89,6.18-5.81,6.18Zm-24.34,5.45,4.81-14.08,4.65,14.08Zm124.8-19H271.17v.62h2.35V24.21L259,1.3h-6.23v.62h2.35V30.1h-3.94L241.13,0,230.72,30.1H227V1.92h2.15V1.3h-5.62l-8,23.51L207.14,1.3h-5.72v.62h2.35V30.1h-4.32c-1.48,0-2.71-1.32-2.71-3.41V22.32c0-3.61-1.26-6.49-5.29-7.1a6.81,6.81,0,0,0,5.8-6.66c0-4.09-3-7.25-9.07-7.25h-9v.62h2.35V30.11h-4.5L167,0,156.56,30.1h-1.94v.62H160V30.1h-2.7L160.41,21h9.88l3,9.13h-3.7v.62h19v-.62H185V15.52h2.67c3.66,0,5.58,1.49,5.58,5.14v2.56c0,6,3.89,7.5,6,7.5H207V30.1H204.4V4l9.87,27,9.35-27.89v27h-2.35v.62h12.89V30.1h-2.7L234.57,21h9.88l3,9.13h-3.7v.62h14.38V30.1h-2.36V2.9l18.37,28.84V1.92h5.53V30.1h-2.36v.62h8.1V30.1h-2.36V1.92h2.36V1.3Z"/><path d="M128.44,30.85c-7.82,0-8.2-10.22-8.2-14.82s.52-14.82,8.2-14.82,8.24,10.25,8.24,14.82-.44,14.82-8.24,14.82m0-30.26C120.74.6,115.69,9.16,115.69,16c0,7.5,5.47,15.4,12.75,15.4S141.19,24,141.19,16C141.19,9.16,135.72.6,128.44.6Z"/><polyline points="106.49 1.92 108.85 1.92 108.85 30.1 106.49 30.1 106.49 30.72 114.59 30.72 114.59 30.1 112.24 30.1 112.24 1.92 114.59 1.92 114.59 1.3 106.49 1.3 106.49 1.92"/><path d="M66.57,14.9v-13h2.25c3.72,0,6.22,2.42,6.22,6.8,0,2.41-1.89,6.18-5.81,6.18H66.57m14.5,15.46c-1.49,0-2.71-1.36-2.71-3.45V22.32c0-3.62-1.26-6.49-5.29-7.1a6.81,6.81,0,0,0,5.8-6.66c0-4.09-2.95-7.25-9.07-7.25h-9v.62h2.35V30.11H60.83v.62H70.2v-.62H66.57V15.52h2.67c3.66,0,5.58,1.55,5.58,5.14v2.85c0,5.95,3.89,7.5,6,7.5a3.1,3.1,0,0,0,2.38-.83l-.37-.51A2.41,2.41,0,0,1,81.07,30.35Z"/><path d="M47,30.85c-7.82,0-8.2-10.22-8.2-14.82S39.31,1.22,47,1.22,55.24,11.47,55.24,16,54.8,30.85,47,30.85M47,.6C39.3.6,34.24,9.16,34.24,16c0,7.5,5.47,15.4,12.75,15.4S59.74,24,59.74,16C59.74,9.16,54.27.6,47,.6Z"/><polyline points="25 1.92 27.36 1.92 27.36 30.1 25 30.1 25 30.72 33.1 30.72 33.1 30.1 30.75 30.1 30.75 1.92 33.1 1.92 33.1 1.3 25 1.3 25 1.92"/><path d="M15.91,19.09h2.77v5.58a6.11,6.11,0,0,1-6.09,6.18c-7.37,0-8-9.3-8-14.82,0-5,.51-14.82,8.6-14.82,3.12,0,6.47,2.78,7.14,8.51h.53v-9h-.53a1.71,1.71,0,0,1-2,1.46C17.27,2.18,15.92.6,13.12.6,4.47.6,0,9.78,0,16c0,6.59,5,15.4,12.58,15.4,4.22,0,4.48-2.52,7.19-2.52a1.81,1.81,0,0,1,1.64,1.82h.66V19.09h2.35v-.62H15.91v.62"/><path d="M97.49,19.09h2.77v5.58a6.11,6.11,0,0,1-6.1,6.18c-7.37,0-8-9.3-8-14.82,0-5,.51-14.82,8.6-14.82,3.12,0,6.47,2.78,7.14,8.51h.53v-9h-.53a1.71,1.71,0,0,1-2,1.46C98.85,2.18,97.49.6,94.7.6,86.05.6,81.58,9.78,81.58,16c0,6.58,5,15.4,12.58,15.4,4.22,0,4.47-2.52,7.19-2.52A1.81,1.81,0,0,1,103,30.72h.66V19.09H106v-.62H97.49v.62"/></g></g></g></g></symbol>
<symbol id="elior" viewBox="0 0 171.09 167.92"><g><g><path d="M65.05,138.48s-43.33-8.67-43.67-57c-.39-56.37,46.33-67.67,57-68.33,0,0-75.07-2.24-78.33,69.67C-1.62,119.48,38.68,145.15,65.05,138.48Z"/><path d="M165.72,91.15s-2.78,36.6-48,53.67c-35.33,13.33-86.56,4.89-91.33-4.67,0,0,31.67,43,97.67,22C153.21,152.87,171.38,117.81,165.72,91.15Z"/><path d="M139.05,96.15a50.59,50.59,0,0,1-35.67,18c-15.68,1.1-30.07-4.77-34.85-14.33,0,0,2.43,29.72,33.18,29.72C124.05,129.53,139.39,106.15,139.05,96.15Z"/><path d="M68.54,121.48S47.72,94.15,63.05,66.15c21.74-39.71,42.35-30.45,53-31.33,0,0-47.51-30-74.09,25.31C27.93,94.43,59.13,118.08,68.54,121.48Z"/><path d="M65.05,4.48s57.4-5.09,79,37c13,25.33,4.83,41.5-.67,50.67,0,0,49.67-18.06,16-63.67C125.38-7.85,73.3-1.19,65.05,4.48Z"/><path d="M108.38,41.81s23.67,3.67,21,27.33-26,31.67-44.67,23S70.05,68.68,70.05,68.68s13.67,20.47,36,5.41C127.53,59.6,108.38,41.81,108.38,41.81Z"/></g></g></symbol>
<symbol id="emmaus" viewBox="0 0 261 209">><g><g><path d="M226,0h3c2,7.79-7.26,12.62-9,20a10.3,10.3,0,0,0-6,6c-.62,2.71-4.18,2.49-4,6-5.48,1.85-6.35,8.31-10,12v2c-5.71,1.63-3.07,9.8-12,10h-1c-.15-2.19-2.52-2.15-5-2-1.32-4.65,3.32-3.35,2-8,5.1-3.9,10.38-7.62,13-14,1.61-2.06,5.4-1.93,5-6,5.26-4.07,10.25-8.41,14-14V11c1.65-1.35,3.44-2.56,4-5h2C224.95,5.61,224.29,1.63,226,0Z"/><path d="M102,20c-.34-8.88,7.24-3.86,12,0a18.21,18.21,0,0,0,8,8c-.37,1.7.78,1.89,2,2a55.54,55.54,0,0,0,14,14v2a4.67,4.67,0,0,0,4,4c2.82-.15,2.51,2.83,4,4v4h-4a4.67,4.67,0,0,0-4-4h-2c-4.34-1-3.45-7.21-8-8-3,.38-1.7-3.63-4-4-3.52-6.48-10-10-16-14-1.17-1.49-4.15-1.18-4-4C103.77,22.23,105,19,102,20Z"/><path d="M104,24h-2V20C105,19,103.77,22.23,104,24Z"/><path d="M32,24c.74-2.26,5.61-.39,8-1C39.26,25.26,34.39,23.39,32,24Z"/><path d="M90,25h8C97.56,26.65,90.44,26.65,90,25Z"/><path d="M166,32c.44-.89.88-1.79,2-2V43C165.07,41.6,168.93,33.4,166,32Z"/><path d="M146,54h2c-.23,1.77,1,5-2,4Z"/><path d="M182,54c2.48-.15,4.85-.19,5,2C185.11,55.56,181,57.36,182,54Z"/><path d="M2,60c2.24.43.41,4.93,1,7C.76,66.57,2.59,62.07,2,60Z"/><path d="M164,62c-.65-3.22,10.65-3.22,10,0Z"/><path d="M148,66c7.15.49,9.68-3.65,16-4h10c4.69-.69,4.49,3.51,10,2a28.38,28.38,0,0,0,10,10c-.69,4.69,3.51,4.49,2,10v16c-4.19-.69-.68,1.91-2,4-1,1.59-5,2.66-6,4-.65.85.54,3.06,0,4-1.33,2.32-7.07,3.1-6,6-4-1.38-3.16,2.17-6,2-1.77.23-5-1-4,2a61.82,61.82,0,0,1-21-2c-2.22-2.11-3.82-4.85-7-6,1.24-3.24-3.24-.76-2-4a4.67,4.67,0,0,0-4-4c-1.29-7.38-5.4-11.93-4-22,3,1,1.77-2.23,2-4V78A40.8,40.8,0,0,0,148,66Z"/><path d="M131,76v7C129.35,82.86,129.35,76.14,131,76Z"/><path d="M234,84c7.85-1.48,14.51-4.16,22-6h4c1.38,4-2.17,3.16-2,6h-2c-1.77.23-5-1-4,2h-2c-1.77.23-5-1-4,2h-2c-1.77.23-5-1-4,2-4.64.69-8.28,2.38-12,4-2.48-.15-4.85-.19-5,2-4.58.42-7.51,2.49-11,4h-8V96q3.06-2.94,6-6h6c2.06-.61,6.95,1.61,6-2,4.65,1.32,3.35-3.32,8-2C231.77,85.77,235,87,234,84Z"/><path d="M136,80c-.23,1.77,1,5-2,4V80Z"/><path d="M196,84c3.22-.65,3.22,10.65,0,10Z"/><path d="M230,86c-1-3,2.23-1.77,4-2C235,87,231.77,85.77,230,86Z"/><path d="M256,84c1,3-2.23,1.77-4,2C251,83,254.23,84.23,256,84Z"/><path d="M17,86c2.27,1.06.38,6.29,1,9C15.73,93.94,17.62,88.71,17,86Z"/><path d="M250,86c1,3-2.23,1.77-4,2C245,85,248.23,86.23,250,86Z"/><path d="M5,94c-1.65-.14-1.65-6.86,0-7Z"/><path d="M216,90c-.95-3.61,3.94-1.39,6-2C222.95,91.61,218.06,89.39,216,90Z"/><path d="M244,88c1,3-2.23,1.77-4,2C239,87,242.23,88.23,244,88Z"/><path d="M122,96c-1-3,2.23-1.77,4-2C127,97,123.77,95.77,122,96Z"/><path d="M126,94c.84,1.21,3.9,1.78,4,2,4.09,9-9.55,7.15-14,10-2.7,2-7.37,2-8,6h-2c-1.77.23-5-1-4,2-4-1.38-3.16,2.17-6,2-.39-2.95-4.37-2.29-6-4-1-4.34,2.21-4.46,4-6,2.06-.61,6.95,1.61,6-2h2a4.67,4.67,0,0,0,4-4c6.5-.16,7.71-5.63,16-4C123.77,95.77,127,97,126,94Z"/><path d="M228,94q-1.28,2.22-5,2C223.15,93.81,225.52,93.85,228,94Z"/><path d="M204,100h8c.61,3.94-5.49,1.18-8,2Z"/><path d="M94,106c-.95-3.61,3.94-1.39,6-2C100.95,107.61,96.06,105.39,94,106Z"/><path d="M16,112c1.91-2,.13,7.56-1,9v-1C15.12,117.12,14.45,113.45,16,112Z"/><path d="M15,112h1c-1.55,1.45-.88,5.12-1,8C13.35,119.56,13.35,112.44,15,112Z"/><path d="M106,112c1,3-2.23,1.77-4,2C101,111,104.23,112.23,106,112Z"/><path d="M176,120c-.24,1.76-1.72,2.28-4,2C171,119,174.23,120.23,176,120Z"/><path d="M192,124c1.76-5.63,6.4,1,10,0a10.3,10.3,0,0,0,6,6c3.82.18,2.72,5.28,8,4a10.3,10.3,0,0,0,6,6c3.82.18,2.72,5.28,8,4a4.67,4.67,0,0,0,4,4c3.69,1,4,5.3,6,8-5.3,4.24-12.7-2.07-18-4-.08-3.92-3.42-4.58-6-6-3.08.75-1.22-3.45-5-2-.74-4.93-6.26-5.08-9-8h-1c-.51-3.16-4.57-2.77-7-4-1.7.37-1.89-.78-2-2Z"/><path d="M192,124v6c-3.61.95-1.4-3.94-2-6Z"/><path d="M160,142v-4c4.69.69,4.49-3.51,10-2v4c-1.32,2.35-2.79,4.55-2,9-2.19.15-2.15,2.52-2,5-1.69,2.31-2.59,5.41-2,10-1.75.92-2.21,3.13-2,6,.37,1.7-.78,1.89-2,2-2.62-.71-4.5-2.17-4-6-.64-6.59,2.58-4.54,2-12C162.27,153.6,159,145.62,160,142Z"/><path d="M170,136c1.95-.49,3.6,5,0,4Z"/><path d="M8,147c.59-2.07-1.24-6.57,1-7C8.41,142.07,10.24,146.57,8,147Z"/><path d="M172,147c.6-2.07-1.24-6.57,1-7C172.4,142.07,174.24,146.57,172,147Z"/><path d="M158,154c1-3.62-2.27-11.6,2-12C159,145.62,162.27,153.6,158,154Z"/><path d="M168,149c-.44,1.89,1.36,6-2,5C165.85,151.52,165.81,149.15,168,149Z"/><path d="M170,163c.6-2.07-1.24-6.57,1-7C170.4,158.07,172.24,162.57,170,163Z"/><path d="M164,164c-.6,2.06,1.61,6.95-2,6C161.79,167.13,162.25,164.92,164,164Z"/><path d="M167,168c.17-1.16,1.58-1.09,3-1v8c-2.24-.43-.4-4.93-1-7Z"/><path d="M170,176v8C168.35,183.56,168.35,176.44,170,176Z"/><path d="M34,197c.43-2.24,4.93-.4,7-1C40.57,198.24,36.07,196.4,34,197Z"/><path d="M77,198c.76-1.65,8.24-1.65,9,0Z"/><path d="M101,206c-2.39-.61-7.25,1.26-8-1C95.39,205.61,100.25,203.74,101,206Z"/><path d="M224,0h2c-1.71,1.63-1.05,5.61-4,6C220.62,2,224.17,2.84,224,0Z"/><path d="M220,6c-.56,2.44-2.35,3.65-4,5C215.8,7.8,217.68,6.68,220,6Z"/><path d="M202,26c4-5.34,8.38-10.29,14-14C212.25,17.59,207.26,21.93,202,26Z"/><path d="M197,32c-2.62,6.38-7.9,10.1-13,14C187.31,40.31,192.85,36.85,197,32Z"/><path d="M200,46c-1.11,3.55-9,16.2-12,10C196.93,55.8,194.29,47.63,200,46Z"/><path d="M210,32c-3.39,3.94-4.7,10-10,12C203.65,40.31,204.52,33.85,210,32Z"/><path d="M220,20a13.32,13.32,0,0,1-6,6A10.3,10.3,0,0,1,220,20Z"/><path d="M258,84c-.17-2.84,3.38-2,2-6h-4c-.48-4.12,4.88-1.42,5,0v4C260,82.65,260,84.3,258,84Z"/><path d="M210,90q-2.94,3.06-6,6Q203.52,89.52,210,90Z"/><path d="M177,168c.14,4.14-.27,7.73-2,10C175.51,174.51,175.45,170.45,177,168Z"/><path d="M196,100c2.6,4.58-4.8,5.56-6,8-.46.93.64,3.22,0,4-2,2.44-5.66,4.14-8,6-1.07-2.9,4.67-3.68,6-6,.54-.94-.65-3.15,0-4,1-1.34,5-2.41,6-4C195.32,101.91,191.81,99.31,196,100Z"/><path d="M184,64a28.38,28.38,0,0,1,10,10A28.38,28.38,0,0,1,184,64Z"/><path d="M148,66a40.8,40.8,0,0,1-12,12A40.8,40.8,0,0,1,148,66Z"/><path d="M116,106c-1.15,3.51-5.48,3.85-8,6C108.63,108,113.3,108,116,106Z"/><path d="M106,100a4.67,4.67,0,0,1-4,4A4.67,4.67,0,0,1,106,100Z"/><path d="M90,112c1.63,1.71,5.61,1.05,6,4C92.17,116.5,90.71,114.62,90,112Z"/><path d="M108,28c6,4,12.48,7.52,16,14C118.94,37.06,111.88,34.12,108,28Z"/><path d="M128,46c4.55.79,3.66,7,8,8C129.81,54.86,130.32,49,128,46Z"/><path d="M138,54a4.67,4.67,0,0,1,4,4A4.67,4.67,0,0,1,138,54Z"/><path d="M138,46a4.67,4.67,0,0,1,4,4A4.67,4.67,0,0,1,138,46Z"/><path d="M124,30a55.54,55.54,0,0,1,14,14A55.54,55.54,0,0,1,124,30Z"/><path d="M114,20a18.21,18.21,0,0,1,8,8A18.21,18.21,0,0,1,114,20Z"/><path d="M65,14c2.1-2.35,7.9,0,10,1C70.63,15.7,69.37,13.3,65,14Z"/><path d="M10,43c.53-3.47-1.49-9.49,2-10C9.51,34.51,12.61,41.61,10,43Z"/><path d="M15,139c4.06,4.26.27,16.16,1,21-.17-1.5.36-3.69-1-4C14.73,148.91,16.73,145.15,15,139Z"/><path d="M143,44c1.14,3.53,6.34,3,8,6C147.35,49,143.67,48,143,44Z"/><path d="M89,31c3.07-1.37,14.44-2.46,16,1C101.41,29.92,94.19,31.48,89,31Z"/><path d="M155,125c4.21,1.27,8.36-2.61,9,1C163,124,156.88,128.1,155,125Z"/><path d="M144,114c3.18,1.15,4.78,3.89,7,6C148.21,118.46,144.76,117.58,144,114Z"/><path d="M138,106a4.67,4.67,0,0,1,4,4A4.67,4.67,0,0,1,138,106Z"/><path d="M201,136c-1.33-2.34-6.88-.46-7-4C196.43,133.23,200.49,132.84,201,136Z"/><path d="M211,144c-2.93-2.74-7.91-3.43-9-8C204.74,138.92,210.26,139.07,211,144Z"/><path d="M222,152c-2.21-1.79-4.69-3.31-6-6C218.58,147.42,221.92,148.08,222,152Z"/><path d="M230,144a4.67,4.67,0,0,1,4,4A4.67,4.67,0,0,1,230,144Z"/><path d="M216,134a10.3,10.3,0,0,1,6,6A10.3,10.3,0,0,1,216,134Z"/><path d="M202,124a10.3,10.3,0,0,1,6,6A10.3,10.3,0,0,1,202,124Z"/><path d="M160,172v2c-2.39-.73-9.26-6.11-4-8C155.5,169.83,157.38,171.29,160,172Z"/><path d="M1,33c.51-10.18,3.09-12,10-14s9.25-.58,14-1c2-.17,4-1.67,6-2,3.22-.53,7.74.73,11,0,1.79-.4,2.58-1.88,4-2,7.33-.62,13.58,2.46,19,0,4.37-.7,5.63,1.7,10,1,5.88,1.36,36.33-.82,23,10H90c-4.84-3.35-10.19.7-15,0-3.06-.44-5-2.72-8-3-8.56-.78-17.68,1.59-27,1-2.39.61-7.26-1.26-8,1-6.32,3.35-20.16-.83-20,9-3.49.51-1.47,6.53-2,10a226.79,226.79,0,0,0,3,36v23c-.41,4.41.27,7.73,2,10-1.65.44-1.65,7.56,0,8v1c.44,6.57,1.16,10.19,0,18,1.73,6.15-.27,9.91,0,17v7c-2.8,7.85.94,19.25-3,24,1.6,4.59.07,6.79,0,12,21.63,1.73,46.17.47,65-1h9c11.51-1.33,25.93,5.71,36,1,16.41-4.07,51.94,6.15,48-15V163c2.24-.43.4-4.93,1-7,0-3.29,1.69-5,1-9,2.24-.43.4-4.93,1-7,1.41-4.5-5-17.69,4-19,3.31,19.82.49,30.4,0,47-1.55,2.45-1.49,6.51-2,10-2.19,9.06,3.23,14.32,1,20-5.1,13-43.35,2.78-52,11h-3c-3.92-2.9-12.1-1.87-20-3-.75-2.26-5.61-.39-8-1-12.85.55-31.19-1.74-41-1-9.35.71-15.88.63-24,1-8.55.39-19.92,2.33-23-4-3.37-6.92,1.48-29.63,2-34,.9-7.52-.54-14.15,1-20,2.24-.43.41-4.93,1-7,.14-18.41-5.6-31.27-4-46V87c-.39-6.95-1.27-13.39-2-20-.59-2.07,1.24-6.57-1-7-1.21-1.79-.18-5.82-2-7V46C2.3,43.63.36,37,1,33Z"/><path d="M168,30c.51-8.22-11.44-5-19-5-2.05,0-1.58-1.62-4-2-8.39-1.3-15.65,4.23-22-1-11.6-9.56,17.06-6.53,27-6,1.54.08,3.39-1.07,5-1s3.29,2,4,2c2.64,0,9.21-3,14-1s4.49,4.55,5,13c.49,8.06,2.6,16.92,2,22-.9,7.68-6.34,4.47-15,6V54c.48-4.18,1.92-7.41,3-11Z"/><path d="M0,46V33H1C.36,37,2.3,43.63,0,46Z"/><path d="M168,43c-1.08,3.59-2.52,6.82-3,11-6.19,4-12.27,3.31-14-4-1.66-3-6.86-2.47-8-6-3.27-3.73-4.52-9.48-6-15,7.41-.63,24.24-3.33,29,3C168.93,33.4,165.07,41.6,168,43Z"/><path d="M13,79c1.66,5.35,1.66,17.65,0,23Z"/><path d="M18,109c-2.48-1.58-.41-7,0-9C20.87,102,17.65,106.24,18,109Z"/><path d="M170,184c3.94,21.15-31.59,10.93-48,15-4.51-.46-12-2.44-15-3-3.41-.64-9.23,1-13,0-2.47-.68-2.64-2.8-5-3-10.14-.85-21,2.81-30,2-1.31-.12-3.55-2.11-5-2-4.39.32-8.08,4.17-13,3-2.07.6-6.57-1.24-7,1-5.74-2.9-11.18,2-15,0-3.36-1.72-1.57-10.48-7-10,3.94-4.75.2-16.15,3-24,2.89,2.24,2.44,10.34,3,17,1,11.61.11,12.31,14,13,4.09.2,10.4,2,12-2-4.4-6.3-11.54,0-17-4-6.79-5-3.72-14.66-4-25-.32-12-3.73-26.09-3-37s4.59-20.95,3-29c-1.27-2.55-4.9.93-5-1-.62-2.71,1.27-7.94-1-9,1.75-7,.26-14.81,1-21s4.75-14.67,6-22c.43-2.51-.66-6.14,0-8,3.27-9.26,8.05-5,16-5,4.74,0,10-2.77,13-3,10.63-.83,26.14,4.36,36,4,5.19.48,12.41-1.08,16,1,6.08-.31,9,6.49,12,10,2.28,2.66,6.28,3.91,8,6,1,1.18.2,3.83,1,5,2.32,3.42,15.71,6,16,10,.15,2-3.76,2.14-6,4-4.19,3.47-4,5.91-5,9-1.65.14-1.65,6.86,0,7,1.91,10.79-8.74,5.84-14,7-4.62,1-19,7.76-22,10-4.62,3.44-10.52,5.36-10,11,.41,4.39,7.77,9.2,13,9,1.2,0,4.57-3.34,9-5s11-1.74,14-3c3.29-1.37,10.35-8.75,13-8,4.86,1.37,2.82,11,5,14,2.78,3.86,15.19,5.86,16,7,1.88,3.1,8-1,9,1,3.93-1,5.81,2.21,4,4-3,.63-8.61-1.28-10,1-4.5.28-.69,7.54-3,17-.51,2.1-2.62,4.85-3,7a78.18,78.18,0,0,0-1,15,7.79,7.79,0,0,0,12,6c2.61-1.71,1.2-3.65,4-8h2c.6,2.07-1.24,6.57,1,7v1C168.35,176.44,168.35,183.56,170,184Z"/><path d="M158,131c1.39-2.28,7-.37,10-1C166.61,132.28,161,130.37,158,131Z"/></g></g></symbol>
<symbol id="engie" viewBox="0 0 124.85 126.32"><g><g><path d="M86,19.27V1.52A96.48,96.48,0,0,0,67,0C56.75.27.5,4.52,0,58.52s39.75,68.75,63.25,67.75,45-15,53-29,12.25-30,4.5-64c0,0-33.75-5-49.75,9.5C55.8,56.55,53.25,66.27,53.5,79.52H63s.5-14.25,5.25-20.25,17.25-19.25,44-17.5c0,0,12.5,43.5-18.25,64s-61.25,4.75-70.75-9.5C14.63,83.34,0,39.77,40.75,16.52,62,6.52,86,19.27,86,19.27Z"/><path d="M94.5,64.77S95,90.77,71.25,96,33,96.64,32,91c-.67-3.75-.75-3,5-2.5,11.88,1.13,26.1,3,38.5-3.25C84.26,80.86,84,81.54,94.5,64.77Z"/></g></g></symbol>
<symbol id="jds" viewBox="0 0 130.67 47.79"><g><g><path d="M18.89,47.79C7.09,47.79,0,42.76,0,30.94v-.6H13.72v.54c0,4.3,1.59,5.84,4.71,5.84s4.71-1.54,4.71-5.84V.81H37.77V30.94C37.77,42.76,30.68,47.79,18.89,47.79Z"/><path d="M86.74,23.9C86.74,39.67,78.39,47,62.82,47H43.07V.81H62.82C78.39.81,86.74,8.12,86.74,23.9Zm-29,12h4.84c6.43,0,9.21-3.69,9.21-10v-4c0-6.31-2.78-10-9.21-10H57.72Z"/><path d="M129.41,14.23V15H115.7v-.27c0-2.42-1.66-4.7-5.9-4.7-4,0-6,1.41-6,3,0,6.91,26.57,1.48,26.91,18.59,0,11.48-8.61,16.11-20.08,16.11-12.79,0-22.53-3.29-22.53-16.45h13.85c0,5,2.85,5.84,7.36,5.84,2.65,0,6.43-.2,6.43-3.09,0-6.65-26.91-1.34-26.91-19.33C88.79,4,98.47,0,109.27,0,120.27,0,129.21,4.36,129.41,14.23Z"/></g></g></symbol>
<symbol id="laposte" viewBox="0 0 96.48 34.27"><g><g><path d="M.23,34.26C37.54,24.83,62.29,17.8,95.48,11.53c1-.15,1.63-.58,0-.61L38,12c.23,2.34-2.27,5.69-7.48,8.92-2.67,1.67-8.77,4.89-30.34,13-.29.12-.15.42.07.37"/><path d="M60.9,21.32l-6.54,8.39c-.92,1.23-2.66,3.16-5.11,3.26L9.35,34.25c-.25,0-.18-.16-.07-.2l51.51-13c.28-.09.29.08.12.25"/><path d="M69.84,0c5.12.07,5,3.28,2.58,6.48-1,1.33-1.33,1.8-2.27,2.95l-33.05.36C32.57,5.74,23.93,2.43,18.7.56c-1-.39-.41-.39.39-.38,5,0,48-.22,50.75-.18"/></g></g></symbol>
<symbol id="liebig" viewBox="0 0 227.27 197.07"><g><g><path d="M109.76,197.07s2.5-25,61-56.5,56.5-73.5,56.5-83-.94-55-63.5-57.5c-50.56-2-62,42-62,42s-17-19.5-45-14.5-60,33-56.5,72.5S30.26,180.57,109.76,197.07Z"/></g></g></symbol>
<symbol id="mercedes" viewBox="0 0 74.15 74.15"><g><g id="mercedes"><g><path d="M54.28,4.2a37.09,37.09,0,0,1,0,65.7V65.66a33.18,33.18,0,0,0,11.11-11L54.28,50.2V43.34l12.19,9.52a33,33,0,0,0,4-15.81A33.44,33.44,0,0,0,54.28,8.44V4.2ZM37.11,0A36.94,36.94,0,0,1,54.28,4.2V8.44A33.51,33.51,0,0,0,38.12,3.7L42.36,34l11.92,9.29V50.2L37,43.22l-17.13,7V43.42L31.9,34,36.11,3.7a33.42,33.42,0,0,0-16.2,4.74V4.2A36.87,36.87,0,0,1,37.11,0ZM54.28,69.91a37.1,37.1,0,0,1-34.37,0V65.66a33.28,33.28,0,0,0,34.37,0v4.24Zm-34.37,0a37.09,37.09,0,0,1,0-65.74V8.44A33.39,33.39,0,0,0,7.72,52.94l12.19-9.52v6.83L8.83,54.79A33.15,33.15,0,0,0,19.91,65.66v4.28Z"/></g></g></g></symbol>
<symbol id="moet" viewBox="0 0 51.57 44.98"><g><g><path d="M19.89,39.5a1.17,1.17,0,1,1-1.17,1.17,1.17,1.17,0,0,1,1.17-1.17Zm11.78,0a1.17,1.17,0,1,1-1.17,1.17,1.17,1.17,0,0,1,1.17-1.17ZM6.58,36.32H45a.62.62,0,0,1,.62.62h0a.62.62,0,0,1-.62.62H6.58A.62.62,0,0,1,6,36.94H6a.62.62,0,0,1,.62-.62Zm0,7.42H45a.62.62,0,0,1,.62.62h0A.62.62,0,0,1,45,45H6.58A.62.62,0,0,1,6,44.36H6a.62.62,0,0,1,.62-.62ZM7,38.53H44.55V42.8H7V38.53Zm16.2,1.24h5.14v1.79H23.22V39.77Zm-15.12,0h2.57v1.79H8.1V39.77Zm32.81,0h2.57v1.79H40.9V39.77Zm-26.14,2L17,40.66l-2.21-1.08-2.21,1.08,2.21,1.08Zm22,0L39,40.66,36.8,39.59l-2.21,1.08,2.21,1.08ZM1.91,26.07A1.14,1.14,0,1,1,.78,27.21a1.14,1.14,0,0,1,1.14-1.14Zm-.57-3.29A1.35,1.35,0,1,1,0,24.13a1.35,1.35,0,0,1,1.35-1.35Zm1.08-3.05A1.23,1.23,0,1,1,1.2,21a1.23,1.23,0,0,1,1.23-1.23Zm2.14-2.12a1.12,1.12,0,1,1-1.12,1.12,1.12,1.12,0,0,1,1.12-1.12Zm2.56-1.2A1.08,1.08,0,1,1,6,17.49a1.08,1.08,0,0,1,1.08-1.08Zm2.78-.66a1.08,1.08,0,1,1-1.08,1.08A1.08,1.08,0,0,1,9.9,15.75Zm2.6,5.59a1.14,1.14,0,1,1-1.14,1.14,1.14,1.14,0,0,1,1.14-1.14Zm-.39-3a1.26,1.26,0,1,1-1.26,1.26,1.26,1.26,0,0,1,1.26-1.26Zm1.07-2.51A1.14,1.14,0,1,1,12.05,17a1.14,1.14,0,0,1,1.14-1.14ZM15.28,14a1.14,1.14,0,1,1-1.14,1.14A1.14,1.14,0,0,1,15.28,14Zm2.45-.54a.93.93,0,1,1-.93.93.93.93,0,0,1,.93-.93Zm2.39-.06a.84.84,0,1,1-.84.84.84.84,0,0,1,.84-.84Zm2.09.15a.69.69,0,1,1-.69.69.69.69,0,0,1,.69-.69Zm3.56,21.89H6.5a6.07,6.07,0,0,0-1-1.21C5.17,34,4.33,34,4,33.37a3.65,3.65,0,0,1-.32-1.55c-.09-.52,0-.54-.45-1a5.12,5.12,0,0,0-1.42-1.16,1.33,1.33,0,0,0-.84,0c-.15,0,0-.19.26-.39a1.48,1.48,0,0,1,1.68,0,13.84,13.84,0,0,1,1.62,1.6c.28.19.74-.11.79-.66s0-.89-.17-1-.15-.26.25-.17a1.32,1.32,0,0,1,.87.82c.14.37,0,.49.2.52a1.3,1.3,0,0,1,1.13.55,1.57,1.57,0,0,1,.3,1.2c0,.18,0,.24.34.53a1.18,1.18,0,0,1,.52,1c0,.46-.15.72-.32.81s0-.56-.53-.78a2,2,0,0,0-1.33-.11c-.24.09-.36.25,0,.6a2.85,2.85,0,0,0,1.09.87,3.25,3.25,0,0,0,1.35,0,2,2,0,0,0,1.22-1.17,1.65,1.65,0,0,0,0-.77,1.39,1.39,0,0,1-1.34-.85c-.37-.69-.3-1.45.17-1.7s1.15.1,1.52.78a1.41,1.41,0,0,1,0,1.57l.23.26a1.76,1.76,0,0,0,1.89.72,1.77,1.77,0,0,0,1.48-1.94c0-1.16-.09-1.46-.34-1.62a.48.48,0,0,0-.78.26,5.65,5.65,0,0,1-.6,1.5c-.21.25-.53.12-.78-.26a1.68,1.68,0,0,1-.3-.83c0-.19-.16-.25-.35-.32a.76.76,0,0,1-.51-.76c0-.53.11-.71-.12-.94a1.35,1.35,0,0,1-.44-1.09c.09-.41.55-.35,1.29-.14s.79.23.94.11.14-.18-.49-.83-1.08-1-1.15-1.48.44-.6.81-.6a.6.6,0,0,0,.62-.35.75.75,0,0,1,.83-.26c.39.09.51-.09.74-.21s.48-.32.79-.16.23,1,.12,1.92-.16,1.22,0,1.27.32,0,.44-.39a2.76,2.76,0,0,1,1-1.24.58.58,0,0,1,.76.6,1,1,0,0,0,.25,1,1.65,1.65,0,0,1,.44,1.41c-.12.55,0,.72.21.94s.34,1.16-.05,1.25a2.71,2.71,0,0,1-1.8-.72c-.53-.48-.83-.19-.86.07a2.64,2.64,0,0,0,.81,1.52,2.3,2.3,0,0,0,2.19.83,2,2,0,0,0,1.88-1.71,1.61,1.61,0,0,1-1.14-1.31,1.44,1.44,0,0,1,.84-1.81c.65-.14,1.32.45,1.5,1.31a1.56,1.56,0,0,1-.59,1.71,2.06,2.06,0,0,0,1.49,1.46A2.92,2.92,0,0,0,25,30.48c.49-1.16.46-1.59.41-1.83s-.3-.3-.49-.35-.44.12-.64.41A5.28,5.28,0,0,1,22.6,30c-.53.19-.85,0-.83-.71s.12-.9-.07-1.27-.48-.69-.26-1.25.34-.35.11-1.06-.19-1.16.32-1.24,2.08,1,2.33,1.2.51-.07.32-.37a24.4,24.4,0,0,1-1.16-2.42c-.25-.63.19-1,.76-.79s.67.23.86.09.29-.21.81-.21.62.07.81.21.3.07.86-.09,1,.16.76.79a24.4,24.4,0,0,1-1.16,2.42c-.19.3.07.55.32.37s1.82-1.27,2.33-1.2.55.53.32,1.24-.11.49.11,1.06-.07.88-.26,1.25-.09.6-.07,1.27-.3.9-.83.71a5.28,5.28,0,0,1-1.62-1.34c-.19-.28-.44-.46-.64-.41s-.44.11-.49.35-.09.67.41,1.83a2.92,2.92,0,0,0,3.26,1.41,2.06,2.06,0,0,0,1.49-1.46,1.56,1.56,0,0,1-.59-1.71c.18-.86.86-1.45,1.5-1.31a1.44,1.44,0,0,1,.84,1.81A1.61,1.61,0,0,1,32,30.53a2,2,0,0,0,1.88,1.71,2.3,2.3,0,0,0,2.19-.83,2.64,2.64,0,0,0,.81-1.52c0-.26-.34-.55-.86-.07a2.71,2.71,0,0,1-1.8.72c-.39-.09-.26-1-.05-1.25s.34-.39.21-.94a1.65,1.65,0,0,1,.44-1.41A1,1,0,0,0,35,26a.58.58,0,0,1,.76-.6,2.76,2.76,0,0,1,1,1.24c.12.35.32.44.44.39s.07-.32,0-1.27S37,24,37.29,23.81s.56,0,.79.16.35.3.74.21a.75.75,0,0,1,.83.26.6.6,0,0,0,.62.35c.37,0,.88.07.81.6s-.51.83-1.15,1.48-.64.71-.49.83.19.11.94-.11,1.2-.26,1.29.14a1.35,1.35,0,0,1-.44,1.09c-.23.23-.09.41-.12.94a.76.76,0,0,1-.51.76c-.19.07-.34.12-.35.32a1.68,1.68,0,0,1-.3.83c-.25.39-.56.51-.78.26a5.65,5.65,0,0,1-.6-1.5.48.48,0,0,0-.78-.26c-.25.16-.3.46-.34,1.62A1.87,1.87,0,0,0,40.82,33l.23-.26a1.41,1.41,0,0,1,0-1.57c.37-.69,1.05-1,1.52-.78s.55,1,.17,1.7a1.39,1.39,0,0,1-1.34.85,1.65,1.65,0,0,0,0,.77,2,2,0,0,0,1.22,1.17,3.25,3.25,0,0,0,1.35,0A2.85,2.85,0,0,0,45,34.05c.33-.36.21-.51,0-.6a2,2,0,0,0-1.33.11c-.55.23-.37.87-.53.78s-.31-.34-.32-.81a1.18,1.18,0,0,1,.52-1c.32-.3.34-.36.34-.53a1.57,1.57,0,0,1,.3-1.2,1.3,1.3,0,0,1,1.13-.55c.25,0,.06-.15.2-.52a1.32,1.32,0,0,1,.87-.82c.4-.09.41,0,.25.17s-.23.46-.17,1,.51.85.79.66a13.84,13.84,0,0,1,1.62-1.6,1.48,1.48,0,0,1,1.68,0c.24.2.42.4.26.39a1.33,1.33,0,0,0-.84,0,5.12,5.12,0,0,0-1.42,1.16c-.5.47-.37.5-.45,1a3.65,3.65,0,0,1-.32,1.55c-.34.63-1.19.67-1.53.88a6.07,6.07,0,0,0-1,1.21ZM4.29,28.83a1.86,1.86,0,0,1,1-.75,12.74,12.74,0,0,1-.54-3.77c.08-1.8,1-4.14,5.25-4.88a1.13,1.13,0,0,1,.44-1,11.05,11.05,0,0,0-3.49,1c-1.76.85-4.66,3-2.64,9.45Zm19.15-7.19a2.13,2.13,0,0,1,1-.1,8.08,8.08,0,0,1-.34-3.25,13.15,13.15,0,0,1,.63-3.17,2.08,2.08,0,0,0-1,.28c-.65.32-1.66.38-3.81.4s-3.94.36-5.07,2a5.21,5.21,0,0,0-.16,5,5.5,5.5,0,0,1,.54,2.34,1.25,1.25,0,0,1,.95-.5,3.81,3.81,0,0,0-.4-2.08,5.61,5.61,0,0,1-.32-3.9,3.49,3.49,0,0,1,3-1.9A23.72,23.72,0,0,1,22,16.6a3.49,3.49,0,0,0,1.45-.26s-.89,1.72,0,5.31ZM6,33.78c.15-.1,0-.33-.16-.58a.42.42,0,0,1,.11-.61.63.63,0,0,1,.43-.18c.1,0,.06-.22-.21-.22a.65.65,0,0,0-.59.22c-.19.21-.26,0-.43-.22a3.41,3.41,0,0,0-.76-.74c-.12-.05,0,.14.1.61a2.13,2.13,0,0,0,.62,1.25c.43.34.72.52.89.47Zm8.19-4c-.19.08-.32-.22-.58-.52s-.26-.37-.54-.34a1,1,0,0,0-.59.34c-.14.12-.34-.08-.21-.37a1.06,1.06,0,0,1,.63-.54c.21-.05.37-.08.11-.55a3.92,3.92,0,0,1-.32-1.5c-.05-.47.05-.61.19-.48a3.07,3.07,0,0,1,.76,1.06A6.26,6.26,0,0,1,14,28c0,.12.23-.15.43-.21a.71.71,0,0,1,.69.21c.16.21.15.25-.11.25a1,1,0,0,0-.65.23.72.72,0,0,0-.16.73c.08.3.16.54-.07.54Zm11.64-5.83c-.32,0-.54,1.15-.5,1.9s-.12.37-.6.45a1,1,0,0,0-.78.61c-.07.16.15.12.46,0a2.54,2.54,0,0,1,.78-.06c.16,0,.21,0,.27.4s0,.79.36.79V23.93Zm23.87,2.14a1.14,1.14,0,1,0,1.14,1.14,1.14,1.14,0,0,0-1.14-1.14Zm.57-3.29a1.35,1.35,0,1,0,1.35,1.35,1.35,1.35,0,0,0-1.35-1.35Zm-1.08-3.05A1.23,1.23,0,1,0,50.37,21a1.23,1.23,0,0,0-1.23-1.23ZM47,17.61a1.12,1.12,0,1,0,1.12,1.12A1.12,1.12,0,0,0,47,17.61Zm-2.56-1.2a1.08,1.08,0,1,0,1.08,1.08,1.08,1.08,0,0,0-1.08-1.08Zm-2.78-.66a1.08,1.08,0,1,0,1.08,1.08,1.08,1.08,0,0,0-1.08-1.08Zm-2.6,5.59a1.14,1.14,0,1,0,1.14,1.14,1.14,1.14,0,0,0-1.14-1.14Zm.39-3a1.26,1.26,0,1,0,1.26,1.26,1.26,1.26,0,0,0-1.26-1.26Zm-1.07-2.51A1.14,1.14,0,1,0,39.51,17a1.14,1.14,0,0,0-1.14-1.14ZM36.28,14a1.14,1.14,0,1,0,1.14,1.14A1.14,1.14,0,0,0,36.28,14Zm-2.45-.54a.93.93,0,1,0,.93.93.93.93,0,0,0-.93-.93Zm-2.39-.06a.84.84,0,1,0,.84.84.84.84,0,0,0-.84-.84Zm-2.09.15a.69.69,0,1,0,.69.69.69.69,0,0,0-.69-.69ZM47.27,28.83a1.86,1.86,0,0,0-1-.75,12.74,12.74,0,0,0,.54-3.77c-.08-1.8-1-4.14-5.25-4.88a1.13,1.13,0,0,0-.44-1,11.05,11.05,0,0,1,3.49,1c1.76.85,4.66,3,2.64,9.45ZM28.12,21.65a2.13,2.13,0,0,0-1-.1,8.08,8.08,0,0,0,.34-3.25,13.15,13.15,0,0,0-.63-3.17,2.08,2.08,0,0,1,1,.28c.65.32,1.66.38,3.81.4s3.94.36,5.07,2a5.21,5.21,0,0,1,.16,5,5.5,5.5,0,0,0-.54,2.34,1.25,1.25,0,0,0-.95-.5,3.81,3.81,0,0,1,.4-2.08,5.61,5.61,0,0,0,.32-3.9,3.49,3.49,0,0,0-3-1.9,23.72,23.72,0,0,0-3.55-.14,3.49,3.49,0,0,1-1.45-.26s.89,1.72,0,5.31ZM45.61,33.78c-.15-.1,0-.33.17-.58a.42.42,0,0,0-.11-.61.63.63,0,0,0-.43-.18c-.1,0-.06-.22.21-.22a.65.65,0,0,1,.59.22c.19.21.26,0,.43-.22a3.41,3.41,0,0,1,.76-.74c.12-.05,0,.14-.1.61a2.13,2.13,0,0,1-.62,1.25c-.43.34-.72.52-.89.47Zm-8.19-4c.19.08.32-.22.58-.52s.26-.37.54-.34a1,1,0,0,1,.59.34c.14.12.34-.08.21-.37a1.06,1.06,0,0,0-.63-.54c-.21-.05-.37-.08-.11-.55a3.92,3.92,0,0,0,.32-1.5c.05-.47-.05-.61-.19-.48A3.07,3.07,0,0,0,38,26.86,6.27,6.27,0,0,0,37.55,28c0,.12-.23-.15-.43-.21a.71.71,0,0,0-.69.21c-.16.21-.15.25.11.25a1,1,0,0,1,.65.23.72.72,0,0,1,.16.73c-.08.3-.16.54.07.54ZM25.78,23.93c.32,0,.54,1.15.5,1.9s.12.37.6.45a1,1,0,0,1,.78.61c.07.16-.15.12-.46,0a2.54,2.54,0,0,0-.78-.06c-.16,0-.21,0-.27.4s0,.79-.36.79V23.93Zm0-4.4a1,1,0,1,1-1,1,1,1,0,0,1,1-1Zm0-2.4a.9.9,0,1,1-.9.9.9.9,0,0,1,.9-.9Zm0-1.9a.71.71,0,1,1-.71.71.71.71,0,0,1,.71-.71Zm0-9.14a4.09,4.09,0,1,1-4.09,4.09,4.09,4.09,0,0,1,4.09-4.09Zm4.06,3.58a4.11,4.11,0,0,1-.07,1.44,22.38,22.38,0,0,0-4-.38,22.38,22.38,0,0,0-4,.38,4.12,4.12,0,0,1-.07-1.44,24.37,24.37,0,0,1,3.37-.37V3.56l-2,.68V1.6l2,.68V2l-.7-2h2.79l-.7,2v.29l2-.68V4.24l-2-.68V9.31a24.37,24.37,0,0,1,3.37.37Z"/></g></g></symbol>
<symbol id="omega" viewBox="0 0 70.86 60.27"><g><g><g><path d="M10.61,9.45C23.2-2.56,44.78-3.11,58.28,7.72A26.82,26.82,0,0,1,68.19,32c-1.11,9.56-7.24,18-15.06,23.3,4,.16,8,.14,12,.06,1.57-2,2.48-5.6,5.75-4.85-1.7,3.28-3.4,6.57-5.19,9.8-8.08-.14-16.17.21-24.24-.2,5.1-4.54,10.28-9.2,13.53-15.32,5.84-10.49,5.91-24.95-2.42-34.17C44.61,1.37,29,.6,20.14,8.84,14.43,13.79,11.57,21.52,11.73,29a35,35,0,0,0,8.92,22.56c2.59,3.13,5.83,5.62,8.66,8.52-8.07.37-16.14.14-24.21.13C3.43,56.92,1.65,53.7,0,50.41c3.37-.86,4.15,3,5.87,5,3.93,0,7.86,0,11.79,0C11.4,50.82,6.05,44.61,3.8,37.11.67,27.59,3.24,16.35,10.61,9.45Z"/></g></g></g></symbol>
<symbol id="pole-emploi" viewBox="0 0 128.33 120.92"><g><g><path d="M123.67,84.83c2.67-5.33,1.5-7.5.17-9-.71-.8-2.41-1.06-4.87-.1a60.25,60.25,0,0,1-11.46,22.68A26,26,0,0,0,123.67,84.83Z"/><path d="M120.82,63.76c4.51-1.54,7.51-5,7.51-9.76,0-5.09-2.76-22.65-19.74-30.11a60.18,60.18,0,0,1,12.32,36.57C120.92,61.57,120.88,62.67,120.82,63.76Z"/><path d="M115.5,64.67c-7.33.17-29.17,0-39.17,0a31.66,31.66,0,0,0-4.62.29c2,21.62,16.63,24.53,21.78,24.38,5.5-.17,10.5-.67,17.33-7.67A24.46,24.46,0,0,1,119,75.73a60.37,60.37,0,0,0,1.86-12A17.75,17.75,0,0,1,115.5,64.67Z"/><path d="M53.67,60.39c0-12.61,4.5-40.05,37.33-39.89a43.88,43.88,0,0,1,17.6,3.39,60.46,60.46,0,1,0-1.09,74.52,44.63,44.63,0,0,1-13.67,1.92C58.33,100.31,53.67,73,53.67,60.39Z"/><path d="M75.83,55.33S102.17,55,106.17,55s4.31.67,4.17-4.5c-.39-14.23-16.5-18-19.33-17.83-2.61.15-17.1,1.6-19.23,22A26.65,26.65,0,0,0,75.83,55.33Z"/><path d="M67.33,67.67l0-.3A.87.87,0,0,0,67.33,67.67Z"/></g></g></symbol>
<symbol id="sandro" viewBox="0 0 296.79 34.69"><g><g><path d="M1.33,26.45c.92,3.91,3,6.63,6.72,6.63,2.44,0,4.28-1.47,4.28-3.82,0-3.13-2.9-4.19-5-4.83C3.54,23.28.41,21.58.41,17.76.41,13.39,3.82,11,8.79,11a10.6,10.6,0,0,1,5.93,1.56V18H13.39c-.32-2.81-1.89-5.34-5.15-5.34-2.3,0-4.14,1.33-4.14,3.73,0,2.58,3,3.54,4.92,4.14,4.74,1.47,7.22,3.31,7.22,7.36s-3.13,6.81-8.6,6.81c-2.71,0-5.52-.74-7.18-2.21l-.46-6Z"/><path d="M55.75,22.68c3.63-1.15,8.1-2.3,9.25-3.5V17.25c0-3.68-2.12-4.6-3.91-4.6s-3.73,1.1-4.74,4.51c-.23.78-.51,1.29-1.47,1.29s-2.58-.69-2.58-2.16C52.3,13.76,56.4,11,61.6,11c6.95,0,7.54,3.45,7.54,6.12V28.29c0,2.9.78,3.77,1.61,4a5.76,5.76,0,0,0,2.35,0l.28,1.1a12.66,12.66,0,0,1-5.43,1.38c-1.61,0-2.35-1.06-3-2.76-1.47,1-4.19,2.76-6.85,2.76a6.27,6.27,0,0,1-6.62-6.53C51.47,26,52.44,23.69,55.75,22.68Zm4.6,9.57A4.4,4.4,0,0,0,65,27.56V21.07a39.24,39.24,0,0,1-5.29,2.21c-2.58,1-3.59,2.07-3.59,4.23C56.12,30.23,57.5,32.25,60.35,32.25Z"/><path d="M106.08,32.8c3.31-.23,3.45-.32,3.45-2.67V15.64c0-1.66-.28-1.89-1.47-2.07l-1.75-.23V12.19L113.16,11l.64,3.5c2.85-1.84,5-3.5,8.37-3.5,4.23,0,6.76,2.67,6.76,7.32V30.13c0,2.35.18,2.44,3.45,2.67v1.33H121.17V32.8c3.31-.23,3.45-.32,3.45-2.67V19.28c0-4-1.7-5.75-4.83-5.75a6.36,6.36,0,0,0-5.47,3.31,5.09,5.09,0,0,0-.46,2.53V30.13c0,2.35.18,2.44,3.45,2.67v1.33H106.08Z"/><path d="M169.83,14.22A11.41,11.41,0,0,1,178.34,11a10.78,10.78,0,0,1,5.11,1.1V4.6c0-1.75-.28-2-1.47-2.12l-1.75-.18V1.15L187.45,0l.32.28V30.13c0,2.35.18,2.44,3.45,2.67v1.33h-7.45l-.37-.32V31.56c-2.48,2-4.65,3.13-7.13,3.13-6.07,0-9.62-4.55-9.62-11.36C166.66,19.32,167.85,16.29,169.83,14.22Zm8,18c2.39,0,4.42-.92,5.34-3.31a7.48,7.48,0,0,0,.32-2.58v-8.1a5.61,5.61,0,0,0-.41-2.67,4.89,4.89,0,0,0-4.74-2.9c-4.69,0-6.85,4.14-6.85,10.12C171.44,28.06,173.56,32.2,177.79,32.2Z"/><path d="M224.71,32.8c3.22-.23,3.45-.32,3.45-2.67V15.64c0-1.66-.28-1.89-1.47-2.07l-1.75-.23V12.19l7-1.15.55,3.68c3-2.67,4.42-3.68,6.07-3.68A2.22,2.22,0,0,1,241,13.3a2.42,2.42,0,0,1-2.12,2.58,1.93,1.93,0,0,1-.92-.23,6,6,0,0,0-2.85-1c-1.06,0-2.62,1.2-2.62,4.74V30.13c0,2.35.28,2.44,4.37,2.67v1.33H224.71Z"/><path d="M285.75,11c7.41,0,11,4.37,11,11.82s-3.63,11.82-11,11.82-11-4.37-11-11.82S278.34,11,285.75,11Zm0,22c4.23,0,6.26-3.86,6.26-10.21s-2-10.21-6.26-10.21-6.26,3.86-6.26,10.21S281.52,33.08,285.75,33.08Z"/></g></g></symbol>
<symbol id="sfr" viewBox="0 0 444.37 444.37"><g><g><path d="M376.76,167.49h-20v35.12h17.95c13.8,0,28.53-1.39,28.53-17.95C403.22,169.44,389.08,167.49,376.76,167.49Z"/><path d="M0,0V444.37H444.37V0ZM148.9,284.4c-13.18,0-31.57-3.19-44.34-18.37l-.36-.43,18.89-18.3.4.6a30.92,30.92,0,0,0,26,13.72c11.08,0,22.85-6.21,22.85-17.73,0-12.44-11.84-16.28-25.58-20.74-17.82-5.78-38-12.33-38-39.61,0-28.39,25.11-41.1,50-41.1,11,0,26.59,2.43,38.82,14l.44.42-18.33,19.32-.43-.6c-4.66-6.57-13-10.34-23-10.34-10.31,0-21.33,4.37-21.33,16.61,0,11.08,11.4,14.75,24.61,19,17.36,5.59,38.95,12.54,38.95,40.22C198.51,273.05,171.8,284.4,148.9,284.4ZM309.75,168.62H247.14v34h59v22.77h-59V281H222.08V145.85h87.66ZM404.21,281s-30.69-56.12-31-56.75H356.74V281h-25V145.85h47.15c23.06,0,50.55,6.77,50.55,39,0,20-11.48,33.61-30.69,36.73L434.39,281Z"/></g></g></symbol>
<symbol id="sogitec" viewBox="0 0 46 53"><polygon points="23 53 23 26.6 31.6 21.7 36.7 34.4 45.9 39.3 38.6 38.3 40.3 42.5 23 53"/><path d="M236.4,172" transform="translate(-213.4 -145.5)"/><polyline points="36.2 19.1 46 13.8 45.9 39.3"/><polygon points="0 13.7 23 0 9.8 19.2 0 13.7"/><polygon points="14.4 21.8 23 11.2 23 0 25.8 7.7 29 3.7 46 13.8 23 26.5 14.4 21.8"/><polygon points="0 39.3 23 39.4 23 53 0 39.3"/><polygon points="0 13.7 23 26.5 23 36.1 9.1 34.3 0 39.3 4.7 33.6 0 32.8 0 13.7"/></symbol>
<symbol id="ubisoft" viewBox="0 0 644.05 666.14"><g><g id="svg2"><g id="layer1"><path d="M302,0C95.16,0,5.89,184.07,5.89,184.07l26.28,18.81S-.9,265.76,0,346.41C0,511.05,131.08,666.14,324,666.14c175.27,0,320-142.66,320-319.33C644.05,116.4,465.37,0,302,0Zm1.79,56.17c161.57,0,286.95,130.2,286.95,281.56,0,160.46-120.68,272-261.31,272-103.5,0-196.86-78.82-196.86-186.88,0-62.41,33.17-105.93,70.35-129.12l5.44,5.9c-10.17,8-39.18,54.56-39.18,100.36,0,85,66.67,143.91,150.68,143.91,107,0,178.37-91.27,178.37-197.24,0-123.3-108.83-228-239.81-228-72.44,0-133.93,31.15-169.26,58.66l-5.5-5C129.84,101.14,209.88,56.17,303.75,56.17ZM255.54,174.12c83.58,0,165.18,55.29,185.55,133.78l-7.41,2.81c-36.57-48.29-96.5-88.32-167.26-88.32-130.21,0-198.6,118.32-188.56,217.15l-7.67,2.81S55.81,410.61,55.81,373c0-109,89.49-198.86,199.73-198.86Zm55.24,136.76c39.57,0,71.22,32.07,71.22,70.15,0,31.51-20.23,50.18-20.23,50.18l24,16.75s-23.76,37.3-72.26,37.3c-46.39,0-87.42-37.44-87.42-87.8,0-51.88,44.63-86.58,84.73-86.58Z"/></g></g></g></symbol>
<symbol id="watch" viewBox="0 0 55.5 63.7"><g><g><path d="M45.5,10.5V2.8A2.69,2.69,0,0,0,42.8.1H39.5V6.8A28.14,28.14,0,0,0,27.9,4.2a28.5,28.5,0,0,0-12,2.7V0H12.6A2.69,2.69,0,0,0,9.9,2.7v8A27.63,27.63,0,0,0,9.8,53v8a2.69,2.69,0,0,0,2.7,2.7h3.3V56.9a28.16,28.16,0,0,0,12,2.7A26.33,26.33,0,0,0,39.4,57v6.7h3.3A2.69,2.69,0,0,0,45.4,61V53.3a27.81,27.81,0,0,0,.1-42.8ZM27.8,52.3A20.4,20.4,0,1,1,48.2,31.9,20.42,20.42,0,0,1,27.8,52.3ZM29.4,14H26.2v6.1h3.2ZM26.2,49.8h3.2V43.7H26.2ZM39.6,30.3v3.2h6.1V30.3ZM9.9,33.5H16V30.3H9.9Zm17.9-2.4L15.9,18.2,26.1,32l-2.8,1.4L26,37.3l2.4-2.2,1.8,2.5,2-1.6L30,33.6l8.1-7.7Z"/></g></g></symbol>
<symbol id="yamaha" viewBox="0 0 99 99"><g><g><path d="M49.5,0A49.51,49.51,0,0,1,99,49.5,49.51,49.51,0,0,1,49.5,99,49.51,49.51,0,0,1,0,49.5,49.51,49.51,0,0,1,49.5,0Zm0,5.59A44,44,0,0,0,5.59,49.5,44,44,0,0,0,49.5,93.4,43.9,43.9,0,0,0,93.4,49.5,43.9,43.9,0,0,0,49.5,5.59Zm0,2.28a.73.73,0,0,1,.44.12.79.79,0,0,1,.28.37l3.69,10.41a1.3,1.3,0,0,1,0,.81,1.21,1.21,0,0,1-.47.62,3.81,3.81,0,0,0-1.56,4.12,3.82,3.82,0,0,0,1.22,1.94,9.81,9.81,0,0,1,3.41,7.37v3.72L74.78,26.81l2.28,3.94L56.5,42.59v2.87L59,46.87,79.53,35l2.25,3.91L63.5,49.5l3.22,1.87a9.66,9.66,0,0,1,3.06,2.78A9.84,9.84,0,0,1,71.4,58a3.79,3.79,0,0,0,1.09,2,3.84,3.84,0,0,0,2,1.06,3.88,3.88,0,0,0,2.28-.31,1.22,1.22,0,0,1,.78-.09,1.26,1.26,0,0,1,.69.41l7.19,8.37a.82.82,0,0,1,.19.44.71.71,0,0,1-.09.44.78.78,0,0,1-.34.31.8.8,0,0,1-.47.06l-10.84-2a1.21,1.21,0,0,1-.69-.37,1.34,1.34,0,0,1-.34-.75A3.82,3.82,0,0,0,72,65.4a3.89,3.89,0,0,0-1.94-1.25,3.8,3.8,0,0,0-2.28.06,9.53,9.53,0,0,1-8.09-.75L56.5,61.62V82.75H52V59L49.5,57.59,47,59V82.75H42.5V61.62l-3.22,1.84a9.53,9.53,0,0,1-8.09.75,3.8,3.8,0,0,0-2.28-.06A3.88,3.88,0,0,0,27,65.4a3.82,3.82,0,0,0-.84,2.12,1.3,1.3,0,0,1-.31.75,1.29,1.29,0,0,1-.72.37l-10.84,2a.79.79,0,0,1-.47-.06.76.76,0,0,1-.34-.31.73.73,0,0,1-.09-.44.82.82,0,0,1,.19-.44l7.19-8.37a1.25,1.25,0,0,1,.69-.41,1.21,1.21,0,0,1,.78.09,3.88,3.88,0,0,0,2.28.31,3.84,3.84,0,0,0,2-1.06,3.79,3.79,0,0,0,1.09-2,9.81,9.81,0,0,1,4.69-6.66L35.5,49.5,17.22,38.94,19.47,35,40,46.87l2.47-1.41V42.59L21.94,30.75l2.28-3.94L42.5,37.37V33.66a9.81,9.81,0,0,1,3.41-7.37,3.83,3.83,0,0,0,1.22-1.94,3.81,3.81,0,0,0-1.56-4.12,1.22,1.22,0,0,1-.47-.62,1.31,1.31,0,0,1,0-.81L48.78,8.37A.79.79,0,0,1,49.06,8,.74.74,0,0,1,49.5,7.87Zm0,22.69A2.45,2.45,0,0,0,47,33v7l2.47,1.41L52,40V33a2.45,2.45,0,0,0-2.47-2.47Zm0,15.66-2.84,1.66v3.28l2.84,1.62,2.84-1.62V47.87ZM40,52.12l-6,3.47a2.47,2.47,0,1,0,2.47,4.28l6-3.47V53.53Zm18.94,0L56.5,53.53v2.87l6,3.47A2.47,2.47,0,1,0,65,55.59Z"/></g></g></symbol>
<symbol id="ouikili" viewBox="0 0 218.67 105.59"><g><g><path d="M43,24.22a5.66,5.66,0,0,0,1-1.9c.14-.56,0-.92-.37-1.08a1.43,1.43,0,0,0-1.67.25,6.37,6.37,0,0,0-1.36,1.9,23.5,23.5,0,0,0-1.17,2.78c-.36,1-.7,1.95-1,2.78.88-.77,1.74-1.58,2.57-2.4A19.65,19.65,0,0,0,43,24.22Z"/><path d="M202,59.25a3.15,3.15,0,0,0,3.23,3.29c2.37,0,3.47-1.77,3.47-4a3.3,3.3,0,0,0-3.35-3.35c-2.38,0-3.35,1.88-3.35,4m15.11,18.52c-.92,2.37-2.14,5.24-3.05,7.13-1.16,2.37-2.5,4.38-3.53,4.38-3.29,0-3.36-10.11-3.36-12.3,0-2.63.61-5.06.61-7.68,0-1.22-.42-2.25-1.82-2.25-5.79,0-5.18,7.61-5.18,11.75,0,4,.85,15.11,6.58,15.11,3.17,0,6-4.26,8.1-8.65,1-2,2.25-5.12,3.17-7.55ZM198.44,41.4a33,33,0,0,1-6.82,19.37,36.69,36.69,0,0,1-5.54,5.85c.48-4.94,4.81-28.39,11.33-28.39,1.15,0,1,2.44,1,3.17m-4.57,52.88c-6.39,0-7.73-21.08-7.73-25.65,8-7.13,13.64-16.15,13.64-27.17,0-2.68-.48-5.67-3.83-5.67-12.8,0-16.15,27.48-16.15,36.86,0,6.82,2.25,25,11.7,25,7.73,0,11.45-13.53,13.64-20.11l-1.4-.06c-1.21,3.42-5.24,16.76-9.87,16.76m-27.11-35A3.15,3.15,0,0,0,170,62.54c2.38,0,3.47-1.77,3.47-4a3.3,3.3,0,0,0-3.35-3.35c-2.37,0-3.35,1.88-3.35,4m15.11,18.52c-.91,2.37-2.13,5.24-3,7.13-1.16,2.37-2.5,4.38-3.54,4.38-3.29,0-3.35-10.11-3.35-12.3,0-2.63.61-5.06.61-7.68,0-1.22-.43-2.25-1.83-2.25-5.78,0-5.18,7.61-5.18,11.75,0,4,.86,15.11,6.58,15.11,3.17,0,6-4.26,8.11-8.65,1-2,2.25-5.12,3.17-7.55Zm-45.32,11c-.68-.55-.61-2.26-.61-3.17,0-7.55,2.68-14.32,6.33-20.84-.24,3.11-2.25,23.52-5.72,24m1.15-43.93c-1.76-1.22-3.71-3-3.71-5.36a4,4,0,0,1,3.9-3.9c2,0,3.16,3,3.83,6.58a79.66,79.66,0,0,1,.8,10.85l-.19,8.41V61.3c-5.3,9.81-7.79,17.24-7.79,24.55,0,2.38.91,5.31,3.77,5.31,8.59,0,9.2-22.3,9.45-28.33,6.09,1.94,5.54,14.8,6.82,25.89,1,9,3.17,16.87,10.72,16.87,5.79,0,8.29-9,8.29-13.58a9,9,0,0,0-.55-3.54l-1.16.25a6.7,6.7,0,0,1,.31,2.92c0,2.74-1.47,11-5.18,11-5.73,0-5.3-13-6.77-25-1.27-9.26-3.65-17.79-11.51-18.58C151.9,55,162.2,38.94,167.19,38.94c1.16-.18.91,1.71.43,3l1.21.12c.92-2.62.31-4.57-1.94-4.57-5.3,0-15.11,15.42-18.52,19.56a51.11,51.11,0,0,0,.36-6.1c0-5.54-1.1-17.36-8.83-17.36-3.42,0-7.19,2-7.19,5.73,0,3,2,5.42,4.44,6.88Zm-15,7.5a3.15,3.15,0,0,0,3.22,3.29c2.38,0,3.48-1.77,3.48-4A3.31,3.31,0,0,0,126,48.33c-2.38,0-3.35,1.88-3.35,4m15.1,18.52c-.91,2.37-2.13,5.24-3,7.13-1.16,2.37-2.5,4.38-3.54,4.38-3.29,0-3.35-10.11-3.35-12.3,0-2.63.61-5.06.61-7.68,0-1.22-.42-2.25-1.82-2.25-5.79,0-5.18,7.61-5.18,11.75,0,4,.85,15.11,6.58,15.11,3.16,0,6-4.26,8.1-8.65,1-2,2.25-5.12,3.17-7.55Zm-14.07.06c-2.19,5.85-7.43,20-10.17,20-2,0,.24-13,.24-14,.49-3.41,1.65-11.64,1.65-15.23,0-1.89-3.48-2.2-4.7-2.2-.54,0-2.86,8.48-3.1,9-2.13,4.69-6.28,13.77-9.57,13.77-2.8,0-.79-11-.3-13.34,1.16-4.57,3.41-8.22-2-8.22C91.89,60.76,90,73.85,90,77.08c0,2.93.43,8.84,4.57,8.84,6.09,0,10.84-8.78,13.4-14.57l-.42,2-.37,2.56a72.52,72.52,0,0,0-1,11c0,2.86,1,8.35,4.93,8.35,2.5,0,5.3-3.9,6.4-5.79,2.62-4.69,6-13.77,7.61-18.52Z"/><path d="M76.24,20.08q-3.39-5.14-6.59-6.23a5.69,5.69,0,0,0-5.64.84,11.74,11.74,0,0,0-3.69,6.25,26.43,26.43,0,0,0-.67,10,32.31,32.31,0,0,0,1.62,7.43,30.42,30.42,0,0,0,3.61,7.21,32.21,32.21,0,0,0,5.68,6.35,27.46,27.46,0,0,0,8,4.73,56.57,56.57,0,0,0,2.65-17.09A43.74,43.74,0,0,0,79.94,28.7,28.34,28.34,0,0,0,76.24,20.08Z"/><path d="M0,48.08c0,.75,0,1.49.06,2.23A19.3,19.3,0,0,1,5,45.46a40.13,40.13,0,0,1,7.34-4c2.74-1.16,5.52-2.3,8.33-3.4.67-.28,1.35-.55,2-.79s1.37-.51,2-.79a38.06,38.06,0,0,1,3.4-11.2,21.78,21.78,0,0,1,5.23-6.8,12.44,12.44,0,0,1,7.55-2.66,6.94,6.94,0,0,1,3.69,1,4.56,4.56,0,0,1,2,2.61,5.89,5.89,0,0,1,.29,2.66A9.44,9.44,0,0,1,45.47,26a24.08,24.08,0,0,1-7,7.21,8.75,8.75,0,0,1-1.58,1.08,53,53,0,0,0-1.2,9.46A55.89,55.89,0,0,0,36.18,54a45.46,45.46,0,0,0,3.07,11.53A31,31,0,0,0,44.43,74a18.82,18.82,0,0,0,6.64,5,13.19,13.19,0,0,0,7.42,1,16.79,16.79,0,0,0,7.59-3.44,30.54,30.54,0,0,0,7.18-8.34c.61-.94,1.19-1.93,1.74-3s1.08-2.12,1.58-3.23l-1.75-.33-1.74-.34a34,34,0,0,1-9.87-4.06,37.61,37.61,0,0,1-3.9-2.86A30.49,30.49,0,0,1,55.84,51a39,39,0,0,1-2.9-4,30.1,30.1,0,0,1-2.33-4.39,34.2,34.2,0,0,1-2.74-9.13,36.52,36.52,0,0,1-.24-8.83,22.9,22.9,0,0,1,2.07-7.76A15,15,0,0,1,54.18,11a11.41,11.41,0,0,1,7-2.32,20.37,20.37,0,0,1,17.83,9.54A31.43,31.43,0,0,1,83.21,28a47,47,0,0,1,1.33,11.53A60.63,60.63,0,0,1,82.38,55.5l-.66,2.24a20,20,0,0,0,6.39.91,25.37,25.37,0,0,0,6.72-1.16,1.49,1.49,0,0,1,.42,0A48.09,48.09,0,1,0,0,48.08Z"/><path d="M94.39,61c-1.26.36-2.37.65-3.34.85a32.22,32.22,0,0,1-3.65.58,25.77,25.77,0,0,1-3.4.13q-1.69,0-4-.21A41.52,41.52,0,0,1,76.08,70,36.33,36.33,0,0,1,66,80.88,25,25,0,0,1,52,85.11a23.23,23.23,0,0,1-12.19-3.28,27.08,27.08,0,0,1-9.29-9.66,46,46,0,0,1-5-12.61q-.75-3.41-1.16-6.84a58,58,0,0,1-.42-7c0-1.88.09-3.71.25-5.48l-2.32.91c-2.77,1.06-5.42,2.12-8,3.2A37.79,37.79,0,0,0,7.23,48a18.15,18.15,0,0,0-4.65,4.43A8.87,8.87,0,0,0,1,57.92,48.09,48.09,0,0,0,94.39,61Z"/><path d="M39.45,26.17a23.5,23.5,0,0,1,1.17-2.78A6.37,6.37,0,0,1,42,21.49a1.43,1.43,0,0,1,1.67-.25c.38.16.51.52.37,1.08a5.66,5.66,0,0,1-1,1.9,19.65,19.65,0,0,1-2,2.33c-.83.82-1.69,1.63-2.57,2.4C38.75,28.12,39.09,27.2,39.45,26.17Z"/></g></g></symbol>
<symbol id="ultramedia" viewBox="0 0 254.38 139.45"><g><g><path d="M118.54,67.27c-.08-6.59-1.53-18.19-11-17.34-10.32.91-9.34,14.32-9.41,21.53-.08,8.41.75,17.49-2.62,25.43-3.47,8.18-11,14.17-19.1,17.42-16.79,6.75-36.58.32-48.4-12.88C21.86,94.58,21.62,87.8,21.61,79q0-15.47.13-30.92c.09-9.49.35-19,.49-28.45C22.35,11.73,19.81,3.39,10,4.82.59,6.19,1.2,14.48,1,21.75.79,32.35.42,42.85.53,53.46.73,72-3.28,93.34,8.06,109.24c9.65,13.52,23.53,24.4,39.81,28.49a59.63,59.63,0,0,0,53.87-13.46C119,108.69,118.79,88.8,118.54,67.27Z"/><path d="M253.72,79.35q0-13.12-.08-26.25c0-17.18-5-31.06-19.87-41.24C219.36,2,200.68-1,183.55,1.83c-11.64,1.89-20.9,8.91-28.93,17.19C132.2-3.83,90.09-7.07,65.89,14.66,52.85,26.38,48.14,41,47.8,58.09c-.15,7.72-2.1,17.22,6.1,21.6,6.28,3.34,14.65.87,17.52-5.78,3-7.07.08-16.76.6-24.22S77,35.21,82.51,30.43c11.89-10.26,30.55-10.59,44.28-4,6.83,3.29,14,8.42,14.83,16.13.94,8.9,0,18.5,0,27.45l0,28.8c0,8.32-1.8,19.36.38,27.4A11.65,11.65,0,0,0,157.35,134c7.61-2.89,7.3-10.24,7.31-17.11q0-28.77,0-57.53c0-5,0-10,0-15.06,0-4.4-.4-5.78,2-9.08,2-2.82,5.43-5.54,8.13-7.72,6.95-5.61,14-6.42,22.84-6.3,11.9.16,25.49,4.55,32.43,15,4,6,3.1,12.89,3.08,19.69L233,95c0,9-.67,18.24-.08,27.23.89,13.6,19.7,15.7,21,1.15S253.76,93.87,253.72,79.35Z"/></g></g></symbol>
<symbol id="carrier" viewBox="0 0 38.2 8.35"><g><g><g><g><path d="M4.63,7.89A4.89,4.89,0,0,0,6.39,6.74a.27.27,0,0,0,0-.34h0a.24.24,0,0,0-.34,0H6a4.81,4.81,0,0,1-1.13.77A2.86,2.86,0,0,1,3,7.5C1.61,7.19,1.32,5.59,2,4,2.4,2.86,3.54.54,6.27.59c.28,0,.62,0,.52.35a.75.75,0,0,0-.06.53A.65.65,0,0,0,7.42,2a.82.82,0,0,0,.86-.69A1.12,1.12,0,0,0,7.9.4,2.46,2.46,0,0,0,6.5,0H6.15C3.68,0,.42,1.93,0,5.2-.2,7.06,1.49,9,4.63,7.89Z"/><path d="M32.54,3.75c0-1-.79-1.3-1.51-1.34a3.81,3.81,0,0,0-3.74,3.87,1.93,1.93,0,0,0,1.78,2.07h.22a3.24,3.24,0,0,0,2.26-1c.13-.13.25-.25.34-.36a.21.21,0,0,0,0-.28h0a.22.22,0,0,0-.31,0l0,0-.12.11-.35.29L31,7.2h-.06a2.13,2.13,0,0,1-.93.36c-.76.09-1.28-.29-1.29-1a2.78,2.78,0,0,1,.12-.7C29.75,5.91,32.54,5.61,32.54,3.75Zm-1.65-.82c.38,0,.49.44.46.71A1.78,1.78,0,0,1,30.45,5a3,3,0,0,1-1.56.37C29.1,4.6,30,2.93,30.89,2.93Z"/><path d="M11.79,2.4l-.11.34h0a1.46,1.46,0,0,0-1-.33A3.86,3.86,0,0,0,8.2,3.79,4.75,4.75,0,0,0,7,6.71,1.19,1.19,0,0,0,7.9,8.08c.58.15,1.44-.21,2.21-1.22a1.76,1.76,0,0,0,0,.79.63.63,0,0,0,.55.46,1.29,1.29,0,0,0,.69-.17,4.14,4.14,0,0,0,1.41-1.38.2.2,0,0,0,0-.27h0a.19.19,0,0,0-.26,0,4.13,4.13,0,0,1-.66.78.28.28,0,0,1-.17.07c-.1,0-.12-.15-.12-.24A4.89,4.89,0,0,1,11.79,6s.79-2.29,1.05-3.13L13,2.42a.07.07,0,0,0,0-.1h-1a.08.08,0,0,0-.1,0,.07.07,0,0,0,0,.1Zm-.43,1c-.09,1.07-1.66,4.11-2.6,3.74s0-2.12.34-2.7,1.15-1.53,1.81-1.53a.45.45,0,0,1,.45.45v0Z"/><path d="M26.5,2.37a.13.13,0,0,1,.13.15v0L25.24,6.91c-.12.36.18.37.31.29a2.89,2.89,0,0,0,.77-.75l.07-.1a.22.22,0,0,1,.29,0h0a.2.2,0,0,1,.05.28h0A3.8,3.8,0,0,1,25.28,8a1,1,0,0,1-1.07-.07A1,1,0,0,1,24,6.75h0c.22-.73,1.14-3.61,1.35-4.24a.17.17,0,0,1,.17-.12Z"/><path d="M26.37,1.74a.85.85,0,0,0,.85-.66.6.6,0,0,0-.53-.66h-.13a.85.85,0,0,0-.85.66.59.59,0,0,0,.53.66A.29.29,0,0,0,26.37,1.74Z"/><path d="M18.87,2.87a.66.66,0,0,0-.5-.55h-.11c-1-.12-1.71.92-2.22,1.95h0a7.78,7.78,0,0,0,.28-1.08c.11-.59-.17-.84-.39-.87a1.32,1.32,0,0,0-.8.23,5.15,5.15,0,0,0-1.24,1.31h0L13.81,4a.18.18,0,0,0,0,.25h0a.18.18,0,0,0,.25-.06h0a5.21,5.21,0,0,1,.56-.77,1,1,0,0,1,.47-.35c.12,0,.09.12.08.18-.2.67-1.19,4-1.4,4.65a.1.1,0,0,0,.06.13h1A.1.1,0,0,0,15,8c.29-1,.45-1.35.57-1.73a9.6,9.6,0,0,1,.63-1.56c.19-.36.37-.63.46-.79a1.41,1.41,0,0,1,.65-.65h.11a1.7,1.7,0,0,0-.09.29.44.44,0,0,0,.34.49.86.86,0,0,0,1-.24A1,1,0,0,0,18.87,2.87Z"/><path d="M24.28,2.87a.66.66,0,0,0-.5-.55h-.11c-1-.12-1.71.92-2.21,1.95h0a8.07,8.07,0,0,0,.22-1.11c.11-.59-.17-.84-.39-.87a1.32,1.32,0,0,0-.8.23,5.15,5.15,0,0,0-1.24,1.31h0L19.18,4a.18.18,0,0,0,0,.25h0a.18.18,0,0,0,.25-.06h0a5.54,5.54,0,0,1,.57-.71,1,1,0,0,1,.47-.35c.12,0,.09.12.08.18-.2.67-1.19,4-1.4,4.65a.1.1,0,0,0,.06.13h1A.1.1,0,0,0,20.38,8c.29-1,.45-1.35.57-1.73a10.1,10.1,0,0,1,.73-1.65c.19-.36.37-.63.46-.79a1.37,1.37,0,0,1,.65-.65h.11a1.7,1.7,0,0,0-.09.29.44.44,0,0,0,.24.41.86.86,0,0,0,1-.24A1,1,0,0,0,24.28,2.87Z"/><path d="M38.19,2.87a.66.66,0,0,0-.5-.55h-.11c-1-.12-1.71.92-2.21,1.95h0a7.78,7.78,0,0,0,.28-1.08c.11-.59-.17-.84-.39-.87a1.32,1.32,0,0,0-.8.23,5,5,0,0,0-1.24,1.31h0L33.14,4a.18.18,0,0,0,0,.25h0a.18.18,0,0,0,.25-.06h0A5.54,5.54,0,0,1,34,3.47a1,1,0,0,1,.47-.35c.12,0,.09.12.08.18-.2.67-1.19,4-1.4,4.65a.1.1,0,0,0,.06.13h1A.1.1,0,0,0,34.34,8c.3-1,.45-1.35.57-1.73a9.6,9.6,0,0,1,.63-1.56c.18-.36.37-.63.46-.79a1.38,1.38,0,0,1,.68-.71h.11a1.7,1.7,0,0,0-.09.29.44.44,0,0,0,.24.41.86.86,0,0,0,1-.24A1,1,0,0,0,38.19,2.87Z"/></g></g></g></g></symbol>
<symbol id="lmde" viewBox="0 0 181.67 244.62"><g><g><path d="M181.14,73.85c-2-10-22.25-2.5-33.75.75s-18.25,8-45.75,5.5-47.75-37-51.5-43S29.64,2.35,17.64,9.85s-.5,35.5,9.25,82,4.5,46.5,0,56.75S1.39,189.85.14,199.1s6.5,11.25,6.5,11.25c16.75,1,40.25-17,51.75-16.5s26.75,1.5,52.5,28.75,39.25,22.25,43.5,20.5,3.75-11.5-2.25-26-31.75-47.75-30.5-65,22.5-32.5,40.5-47.25S183.14,83.85,181.14,73.85Z"/><ellipse cx="99.37" cy="28.17" rx="28.23" ry="21.95" transform="translate(60.87 124.01) rotate(-83.94)"/></g></g></symbol>
<symbol id="keolis" viewBox="0 0 113.6 90"><g><g><rect y="2.1" width="15.8" height="85.8"/><path d="M36.9,45a4,4,0,0,1,2.6-3.7l74.1-26L108.1,0l-74,26.7a19.43,19.43,0,0,0,0,36.6l74,26.7,5.5-15.3-74.1-26A4,4,0,0,1,36.9,45Z"/></g></g></symbol>
<symbol id="lisi" viewBox="0 0 320 243.28"><g><g><g><path d="M128.89,215.92H117.28V87.83h9.45a3.27,3.27,0,0,0,3.33-3.26V64.42a3.25,3.25,0,0,0-3.3-3.27H86.05a3.26,3.26,0,0,0-3.31,3.25V240a3.27,3.27,0,0,0,3.39,3.25h32c3.26,0,4.35-.44,6-3.73l8.24-19.28c.8-2-.72-4.33-3.43-4.33"/><path d="M272.48,87.82h11.61V215.91h-9.45a3.28,3.28,0,0,0-3.33,3.25V240a3.26,3.26,0,0,0,3.31,3.28h40.7a3.26,3.26,0,0,0,3.3-3.25V64.4a3.27,3.27,0,0,0-3.39-3.25h-32c-3.27,0-4.35.43-6,3.74L269,83.49c-.8,2,.71,4.33,3.43,4.33"/><path d="M231.56,145.23c-7.84-5.11-16.44-8-24-10.57-11.21-3.79-20.08-6.79-20.08-15,0-10.44,10.77-12,17.19-12,14.35,0,25.81,4.66,30.12,6.4l2,.68c1,0,2.67-1.75,3.24-3.13l6.36-15a10.7,10.7,0,0,0,1.48-4c0-7.89-29.34-14.42-44.33-14.42-29.06,0-50.16,19.12-50.16,45.46,0,17.05,9.16,26.63,16.84,31.67,7,4.56,15.28,7.45,22.6,10,12,4.16,22.36,7.76,22.36,16.89,0,11.32-11.05,12.54-15.81,12.54-13.45,0-29.4-7.43-36.21-10.6-2.59-1.2-3-1.37-3.43-1.37-2,0-2.75,2-3.23,3.12l-6.1,15.53c0,.13-.67,1.59-.67,1.59a6.19,6.19,0,0,0-.79,2.35c0,8.52,32.67,18.77,53.19,18.77,29,0,48.49-18.06,48.49-44.92,0-14.37-6.42-25.84-19.06-34.12"/><path d="M101.8,44.09A22.27,22.27,0,0,0,124.1,21.92,22,22,0,0,0,101.8,0C89.3,0,79.23,9.63,79.23,21.92A22.32,22.32,0,0,0,101.8,44.09"/><path d="M297.43,44.09A22.33,22.33,0,0,0,320,21.92C320,9.63,309.93,0,297.43,0a22,22,0,1,0,0,44.09"/><path d="M59,215.91H44.93C37,215.79,34.8,214,34.6,205.74c.08-65.91-.06-197-.06-197C34.54,4.23,32.79,4,30.1,4H26.31L5.17,4C1.7,4,0,4.8,0,8.81V200.47c0,24.45,4.23,42.82,34.43,42.82l13.81-.07c3.26,0,4.34-.43,6-3.73l8.23-19.36c.4-1.55-.24-4-3.43-4.21"/></g></g></g></symbol>
<symbol id="gulag" viewBox="0 0 95 92"><g><g><rect width="6.83" height="41.83"/><polygon points="8.83 46 6.83 46 2 46 0 46 0 92 6.83 92 6.83 52.83 8.83 52.83 8.83 92 15.67 92 15.67 0 8.83 0 8.83 46"/><rect x="26" width="6.83" height="92"/><rect x="17.42" y="64.83" width="6.83" height="27.17"/><rect x="35" width="6.83" height="33"/><rect x="44.08" width="6.83" height="92"/><rect x="61.42" width="6.83" height="92"/><rect x="70.38" width="6.83" height="92"/><rect x="52.75" width="6.83" height="70.17"/><rect x="78.92" width="6.83" height="20"/><rect x="88.17" y="48.83" width="6.83" height="6.83"/><rect x="78.92" y="48.83" width="6.83" height="43.17"/></g></g></symbol>
</svg>
