<?xml version="1.0" standalone="no"?>
<!DOCTYPE svg PUBLIC "-//W3C//DTD SVG 1.1//EN" "http://www.w3.org/Graphics/SVG/1.1/DTD/svg11.dtd">
<svg xmlns="http://www.w3.org/2000/svg">
<metadata>Copyright (C) 2020 by original authors @ fontello.com</metadata>
<defs>
<font id="icons" horiz-adv-x="1000" >
<font-face font-family="icons" font-weight="400" font-stretch="normal" units-per-em="1000" ascent="850" descent="-150" />
<missing-glyph horiz-adv-x="1000" />
<glyph glyph-name="home" unicode="&#xe800;" d="M521 819q322-279 500-429 20-16 20-40 0-21-15-37t-36-15h-105v-364q0-21-15-37t-36-16h-156q-22 0-37 16t-16 37v208h-209v-208q0-21-15-37t-36-16h-156q-21 0-37 16t-16 37v364h-103q-22 0-37 15t-16 37 19 40z" horiz-adv-x="1041" />

<glyph glyph-name="briefcase" unicode="&#xe801;" d="M357 707h286v72h-286v-72z m643-357v-268q0-37-26-63t-63-26h-822q-36 0-63 26t-26 63v268h375v-89q0-15 11-25t25-11h178q15 0 25 11t11 25v89h375z m-429 0v-71h-142v71h142z m429 268v-214h-1000v214q0 37 26 63t63 26h197v89q0 23 15 38t38 16h322q22 0 38-16t15-38v-89h197q37 0 63-26t26-63z" horiz-adv-x="1000" />

<glyph glyph-name="comment" unicode="&#xe802;" d="M1000 350q0-97-67-179t-182-130-251-48q-39 0-81 4-110-97-257-135-27-8-63-12-10-1-17 5t-10 16v1q-2 2 0 6t1 6 2 5l12 15q4 5 17 19l20 22q7 8 17 22t18 28 15 33l15 42q-88 50-138 123t-51 157q0 73 40 139t106 114 160 76 194 28q136 0 251-48t182-130 67-179z" horiz-adv-x="1000" />

<glyph glyph-name="link" unicode="&#xe803;" d="M294 116q14 14 34 14t36-14q32-34 0-70l-42-40q-56-56-133-56t-133 56-56 133 56 133l148 148q70 68 144 77t128-43q16-16 16-36t-16-36q-36-32-70 0-50 48-132-34l-148-146q-26-26-26-64t26-63 63-25 63 26z m450 574q56-56 56-133t-56-133l-158-158q-74-72-150-72-62 0-112 50-14 14-14 34t14 35 35 15 35-14q50-48 122 24l158 156q28 28 28 65t-28 61q-24 26-56 31t-60-21l-50-50q-16-14-36-14t-34 14q-34 34 0 70l50 50q54 54 127 51t129-61z" horiz-adv-x="800" />

<glyph glyph-name="cog" unicode="&#xe804;" d="M571 350q0 59-41 101t-101 42-101-42-42-101 42-101 101-42 101 42 41 101z m286 61v-124q0-7-4-13t-11-7l-104-16q-10-30-21-51 19-27 59-77 6-6 6-13t-5-13q-15-21-55-61t-53-39q-7 0-14 5l-77 60q-25-13-51-21-9-76-16-104-4-16-20-16h-124q-8 0-14 5t-6 12l-16 103q-27 9-50 21l-79-60q-6-5-14-5t-14 6q-70 64-92 94-4 5-4 12t5 13q8 12 28 37t30 40q-15 28-23 55l-102 15q-7 1-11 7t-5 13v124q0 7 5 13t10 7l104 16q8 25 22 51-23 32-60 77-6 7-6 13t5 13q15 20 55 60t53 40q7 0 15-5l77-60q24 13 50 21 9 76 17 104 3 16 20 16h124q7 0 13-5t7-12l15-103q28-9 51-20l79 59q5 5 13 5t14-5q72-67 92-95 4-5 4-12t-4-13q-9-12-29-37t-30-40q15-28 23-54l102-16q7-1 12-7t4-13z" horiz-adv-x="857" />

<glyph glyph-name="external" unicode="&#xe805;" d="M625 163h-312v312h125l62 63h-250v-438h438v250l-63-62v-125z m-125 500v-63h206l-268-268 44-44 268 268v-206h63v313h-313z" horiz-adv-x="1000" />

<glyph glyph-name="basket" unicode="&#xe806;" d="M357-7q0-29-21-50t-50-22-50 22-22 50 22 50 50 21 50-21 21-50z m500 0q0-29-21-50t-50-22-50 22-22 50 22 50 50 21 50-21 21-50z m72 607v-286q0-13-10-23t-22-12l-583-68q7-34 7-41t-13-34h513q15 0 26-11t10-25-10-25-26-11h-571q-14 0-25 11t-11 25q0 6 5 18t9 20 12 22 8 17l-98 459h-114q-15 0-25 10t-11 25 11 26 25 10h143q9 0 16-3t10-9 8-14 4-14 3-17 3-14h670q14 0 25-11t11-25z" horiz-adv-x="928" />

<glyph glyph-name="heart" unicode="&#xe807;" d="M500-79q-14 0-25 10l-348 336-15 15q-10 10-31 37t-38 54-30 67-13 77q0 123 71 192t196 70q34 0 70-12t67-33 54-38 42-38q20 20 42 38t54 38 67 33 70 12q125 0 196-70t71-192-128-251l-347-335q-10-10-25-10z" horiz-adv-x="1000" />

<glyph glyph-name="heart-empty" unicode="&#xe808;" d="M929 517q0 46-12 80t-31 55-46 33-52 18-55 4-62-14-62-36-48-40-34-34q-10-13-27-13t-27 13q-14 15-34 34t-48 40-62 36-62 14-55-4-52-18-46-33-31-55-12-80q0-93 105-198l324-312 324 312q105 105 105 198z m71 0q0-123-128-251l-347-335q-10-10-25-10t-25 10l-348 336-15 15q-10 10-31 37t-38 54-30 67-13 77q0 123 71 192t196 70q34 0 70-12t67-33 54-38 42-38q20 20 42 38t54 38 67 33 70 12q125 0 196-70t71-192z" horiz-adv-x="1000" />

<glyph glyph-name="star" unicode="&#xe809;" d="M929 489q0-12-15-27l-202-197 48-279v-12q0-11-6-19t-16-9-23 7l-251 132-250-132q-12-7-23-7t-17 9-6 19q0 4 1 12l48 279-203 197q-14 15-14 27 0 21 31 26l280 40 126 254q11 23 27 23t28-23l125-254 280-40q32-5 32-26z" horiz-adv-x="928" />

<glyph glyph-name="star-empty" unicode="&#xe80a;" d="M635 290l170 166-235 34-106 213-105-213-236-34 171-166-41-235 211 111 211-111z m294 199q0-12-15-27l-202-197 48-279v-12q0-28-23-28-10 0-22 7l-251 132-250-132q-12-7-23-7t-17 9-6 19q0 4 1 12l48 279-203 197q-14 15-14 27 0 21 31 26l280 40 126 254q11 23 27 23t28-23l125-254 280-40q32-5 32-26z" horiz-adv-x="928" />

<glyph glyph-name="facebook" unicode="&#xe80b;" d="M535 843v-147h-87q-48 0-65-20t-17-60v-106h164l-22-165h-142v-424h-171v424h-142v165h142v122q0 104 58 161t155 57q82 0 127-7z" horiz-adv-x="571" />

<glyph glyph-name="youtube-play" unicode="&#xe80c;" d="M714 350q0 21-16 30l-286 179q-17 11-36 1t-19-31v-358q0-21 19-31 9-4 17-4 11 0 19 5l286 179q16 9 16 30z m286 0q0-54-1-84t-4-76-13-82q-9-41-38-69t-70-32q-123-14-374-14t-374 14q-40 4-70 32t-39 69q-7 36-12 82t-4 76-1 84 1 84 4 76 13 82q9 41 38 69t70 32q123 14 374 14t374-14q40-4 70-32t39-69q8-36 12-82t4-76 1-84z" horiz-adv-x="1000" />

<glyph glyph-name="tag" unicode="&#xe80d;" d="M250 600q0 30-21 51t-50 20-51-20-21-51 21-50 51-21 50 21 21 50z m595-321q0-30-20-51l-274-274q-22-21-51-21t-50 21l-399 399q-21 21-36 57t-15 65v232q0 29 21 50t50 22h233q29 0 65-15t57-36l399-399q20-21 20-50z" horiz-adv-x="857" />

<glyph glyph-name="code" unicode="&#xe80e;" d="M344 69l-28-28q-5-5-12-5t-13 5l-260 261q-6 5-6 12t6 13l260 260q5 6 13 6t12-6l28-28q6-5 6-13t-6-12l-219-220 219-219q6-6 6-13t-6-13z m330 596l-208-721q-2-7-9-11t-13-1l-34 9q-8 3-11 9t-2 14l209 720q2 8 8 11t13 2l35-10q7-2 11-9t1-13z m367-363l-260-261q-6-5-13-5t-13 5l-28 28q-5 6-5 13t5 13l219 219-219 220q-5 5-5 12t5 13l28 28q6 6 13 6t13-6l260-260q5-5 5-13t-5-12z" horiz-adv-x="1071" />

<glyph glyph-name="attention" unicode="&#xe80f;" d="M571 83v106q0 8-5 13t-12 5h-108q-7 0-12-5t-5-13v-106q0-8 5-13t12-6h108q7 0 12 6t5 13z m-1 208l10 257q0 6-5 10-7 6-14 6h-122q-6 0-14-6-5-4-5-12l9-255q0-5 6-9t13-3h103q8 0 14 3t5 9z m-7 522l428-786q20-35-1-70-9-17-26-26t-35-10h-858q-18 0-35 10t-26 26q-21 35-1 70l429 786q9 17 26 27t36 10 36-10 27-27z" horiz-adv-x="1000" />

<glyph glyph-name="attention-circled" unicode="&#xe810;" d="M429 779q116 0 215-58t156-156 57-215-57-215-156-156-215-58-216 58-155 156-58 215 58 215 155 156 216 58z m71-696v106q0 8-5 13t-12 5h-107q-8 0-13-5t-6-13v-106q0-8 6-13t13-6h107q7 0 12 6t5 13z m-1 192l10 346q0 7-6 10-5 5-13 5h-123q-8 0-13-5-6-3-6-10l10-346q0-6 5-10t14-4h103q8 0 13 4t6 10z" horiz-adv-x="857" />

<glyph glyph-name="stackoverflow" unicode="&#xe811;" d="M719-61h-624v268h-89v-357h803v357h-90v-268z m-525 293l18 87 437-92-18-87z m57 208l38 82 404-189-37-81z m112 199l57 69 343-287-57-68z m222 211l266-358-71-53-267 357z m-401-821v89h447v-89h-447z" horiz-adv-x="857" />

<glyph glyph-name="help-circled" unicode="&#xe812;" d="M500 82v107q0 8-5 13t-13 5h-107q-8 0-13-5t-5-13v-107q0-8 5-13t13-5h107q8 0 13 5t5 13z m143 375q0 49-31 91t-77 65-95 23q-136 0-207-119-9-13 4-24l74-55q4-4 10-4 9 0 14 7 30 38 49 52t46 13 49-15 21-33q0-21-11-34t-38-25q-35-15-65-48t-29-70v-20q0-8 5-13t13-5h107q8 0 13 5t5 14 12 26 30 28l28 16q10 6 25 19t25 27 16 34 7 45z m214-107q0-117-57-215t-156-156-215-58-216 58-155 156-58 215 58 215 155 156 216 58 215-58 156-156 57-215z" horiz-adv-x="857" />

<glyph glyph-name="info-circled" unicode="&#xe813;" d="M571 82v89q0 8-5 13t-12 5h-54v286q0 8-5 13t-13 5h-178q-8 0-13-5t-5-13v-89q0-8 5-13t13-5h53v-179h-53q-8 0-13-5t-5-13v-89q0-8 5-13t13-5h250q7 0 12 5t5 13z m-71 500v89q0 8-5 13t-13 5h-107q-8 0-13-5t-5-13v-89q0-8 5-13t13-5h107q8 0 13 5t5 13z m357-232q0-117-57-215t-156-156-215-58-216 58-155 156-58 215 58 215 155 156 216 58 215-58 156-156 57-215z" horiz-adv-x="857" />

<glyph glyph-name="slack" unicode="&#xe814;" d="M848 417q34 0 57-23t24-56q0-54-52-73l-96-33 31-93q4-12 4-26 0-33-24-57t-56-24q-26 0-48 15t-29 40l-31 92-173-59 31-91q4-14 4-27 0-33-23-57t-57-24q-27 0-48 15t-29 41l-31 91-85-30q-17-5-28-5-34 0-57 22t-23 57q0 26 16 47t40 30l87 29-59 175-87-30q-14-5-27-5-33 0-56 23t-23 56q0 26 15 48t40 29l88 30-30 88q-4 14-4 27 0 33 23 57t57 24q26 0 48-16t29-40l30-89 173 59-30 89q-4 13-4 26 0 33 23 57t57 24q26 0 48-15t30-40l29-90 91 31q11 3 24 3 33 0 57-22t24-55q0-25-17-45t-41-29l-88-30 59-177 91 32q13 4 26 4z m-443-146l173 58-59 176-173-60z" horiz-adv-x="928" />

<glyph glyph-name="share" unicode="&#xe815;" d="M650 200q62 0 106-43t44-107q0-62-44-106t-106-44-106 44-44 106q0 6 1 14t1 12l-260 156q-42-32-92-32-62 0-106 44t-44 106 44 106 106 44q54 0 92-30l260 156q0 4-1 12t-1 12q0 62 44 106t106 44 106-43 44-107q0-62-44-106t-106-44q-52 0-90 32l-262-156q2-8 2-26 0-16-2-24l262-156q36 30 90 30z" horiz-adv-x="800" />

<glyph glyph-name="terminal" unicode="&#xe816;" d="M327 302l-261-261q-5-5-12-5t-13 5l-28 28q-6 6-6 13t6 13l219 219-219 220q-6 5-6 12t6 13l28 28q5 6 13 6t12-6l261-260q5-5 5-13t-5-12z m602-256v-35q0-8-5-13t-13-5h-536q-8 0-13 5t-5 13v35q0 8 5 13t13 5h536q8 0 13-5t5-13z" horiz-adv-x="928" />

<glyph glyph-name="bug" unicode="&#xe817;" d="M911 314q0-14-11-25t-25-10h-125q0-96-37-162l116-117q10-11 10-25t-10-25-25-11-25 11l-111 110-8-7q-5-4-24-16t-36-21-46-16-54-7v500h-71v-500q-29 0-57 7t-49 19-36 22-25 18l-8 8-102-116q-11-12-27-12-13 0-24 9t-11 25 8 26l113 127q-32 63-32 153h-125q-15 0-25 10t-11 25 11 25 25 11h125v164l-97 97q-11 10-11 25t11 25 25 10 25-10l97-97h471l96 97q11 10 25 10t26-10 10-25-10-25l-97-97v-164h125q15 0 25-11t11-25z m-268 322h-357q0 74 52 126t126 52 127-52 52-126z" horiz-adv-x="928" />

<glyph glyph-name="paper-plane" unicode="&#xe818;" d="M984 844q19-13 15-36l-142-857q-3-16-18-25-8-5-18-5-6 0-13 3l-253 104-135-165q-10-13-27-13-7 0-12 2-11 4-17 13t-7 21v195l482 590-596-516-221 91q-20 8-21 31t17 32l928 536q9 5 19 5t19-6z" horiz-adv-x="1000" />

<glyph glyph-name="mail-alt" unicode="&#xe819;" d="M1000 454v-443q0-37-26-63t-63-27h-822q-36 0-63 27t-26 63v443q25-27 56-49 202-137 278-192 32-24 51-37t53-27 61-13h2q28 0 61 13t53 27 51 37q95 68 278 192 32 22 56 49z m0 164q0-44-27-84t-68-69q-210-146-262-181l-53-39q-12-9-29-18t-32-15-28-5h-2q-12 0-27 5t-32 15l-30 18q-13 8-30 22t-23 17l-147 101q-96 66-114 80-35 23-65 64t-31 77q0 43 23 72t66 29h822q36 0 63-26t26-63z" horiz-adv-x="1000" />

<glyph glyph-name="mail" unicode="&#xe81a;" d="M929 11v428q-18-20-39-36-149-115-238-189-28-24-46-37t-48-28-57-13h-2q-26 0-57 13t-48 28-46 37q-88 74-238 189-21 16-39 36v-428q0-7 6-13t12-5h822q7 0 12 5t6 13z m0 586v14l-2 14-3 5q-3 5-5 4t-8 2h-822q-7 0-12-6t-6-12q0-94 83-159 107-84 223-176 4-3 20-17t25-21 25-17 28-16 24-5h2q11 0 24 5t28 16 25 17 25 21 20 17q116 92 224 176 30 24 56 65t26 73z m71 21v-607q0-37-26-63t-63-27h-822q-36 0-63 27t-26 63v607q0 37 26 63t63 26h822q37 0 63-26t26-63z" horiz-adv-x="1000" />

<glyph glyph-name="twitter" unicode="&#xe81b;" d="M904 622q-37-54-90-93v-23q0-73-21-145t-64-139-103-117-144-82-181-30q-151 0-276 81 19-2 43-2 126 0 224 77-59 1-105 36t-64 89q19-3 34-3 24 0 48 6-63 13-104 62t-41 115v2q38-21 82-23-37 25-59 64t-22 87 25 90q68-83 164-133t208-55q-5 21-5 41 0 75 53 127t127 53q79 0 132-57 61 12 115 44-21-64-80-100 52 6 104 28z" horiz-adv-x="928" />

<glyph glyph-name="search" unicode="&#xe81c;" d="M746 209l254-255-105-105-254 254q-106-72-232-72-169 0-289 120t-120 289 120 289 289 120 289-120 120-289q0-127-72-231z m-65 231q0 113-79 193t-193 80-193-80-80-193 80-192 193-80 193 80 79 192z" horiz-adv-x="1000" />

<glyph glyph-name="outlook" unicode="&#xe81d;" d="M687 385l258 174q0 14-10 25t-20 10h-294v-172l60-37q1-1 3-1t3 1z m5-64q-3-1-5-2-7-2-12 2l-54 37v-233h278q20 0 33 13t13 36v315l-130-86q-129-86-123-82z m-363-74q28 0 44 25t16 69-16 71q-15 25-43 25t-44-26-17-69 17-69 43-26z m-258-237l510-107v877l-510-99v-671z m175 442q32 43 86 43 51 0 82-41t31-111-32-111-84-43-84 42-32 107q0 71 33 114z" horiz-adv-x="1000" />

<glyph glyph-name="coffee" unicode="&#xe81e;" d="M929 493q0 45-32 76t-76 31h-35v-214h35q45 0 76 31t32 76z m-929-429h1000q0-59-42-101t-101-42h-714q-59 0-101 42t-42 101z m1036 429q0-89-63-152t-152-62h-35v-18q0-52-37-88t-88-37h-393q-51 0-88 37t-37 88v410q0 15 11 26t25 10h642q89 0 152-63t63-151z" horiz-adv-x="1071" />

<glyph glyph-name="ok" unicode="&#xe81f;" d="M0 339q0-35 24-60l246-239q24-25 60-25t60 25l505 495q25 24 25 59t-25 59-60 24-60-25l-445-435-185 181q-25 24-60 24t-60-24-25-59z" horiz-adv-x="920" />

<glyph glyph-name="cancel" unicode="&#xe820;" d="M0 90q0 36 26 62l195 195-195 196q-26 25-26 61t26 61 61 25 61-25l196-196 195 196q25 25 61 25t61-25 25-61-25-61l-195-196 195-195q25-26 25-62t-25-61-61-25-61 25l-195 195-196-195q-25-25-61-25t-61 26-26 60z" horiz-adv-x="686" />

<glyph glyph-name="desktop" unicode="&#xe821;" d="M1000 296v465q0 7-5 12t-13 6h-893q-7 0-12-6t-6-12v-465q0-7 6-12t12-5h893q7 0 13 5t5 12z m71 465v-607q0-37-26-63t-63-27h-303q0-20 9-43t17-40 9-24q0-14-10-25t-25-11h-286q-15 0-25 11t-11 25q0 8 9 25t18 39 9 43h-304q-36 0-63 27t-26 63v607q0 37 26 63t63 26h893q37 0 63-26t26-63z" horiz-adv-x="1071" />

<glyph glyph-name="laptop" unicode="&#xe822;" d="M232 136q-37 0-63 26t-26 63v393q0 37 26 63t63 26h607q37 0 63-26t27-63v-393q0-37-27-63t-63-26h-607z m-18 482v-393q0-7 6-13t12-5h607q8 0 13 5t5 13v393q0 7-5 12t-13 6h-607q-7 0-12-6t-6-12z m768-518h89v-54q0-22-26-37t-63-16h-893q-36 0-63 16t-26 37v54h982z m-402-54q9 0 9 9t-9 9h-89q-9 0-9-9t9-9h89z" horiz-adv-x="1071" />

<glyph glyph-name="tablet" unicode="&#xe823;" d="M357 64q0 15-10 25t-26 11-25-11-10-25 10-25 25-10 26 10 10 25z m214 90v535q0 8-5 13t-12 5h-465q-7 0-12-5t-6-13v-535q0-8 6-13t12-5h465q7 0 12 5t5 13z m72 535v-607q0-37-26-63t-63-26h-465q-36 0-63 26t-26 63v607q0 37 26 63t63 27h465q36 0 63-27t26-63z" horiz-adv-x="642" />

<glyph glyph-name="mobile" unicode="&#xe824;" d="M259 64q0 19-13 32t-32 13-31-13-13-32 13-31 31-13 32 13 13 31z m116 90v392q0 8-5 13t-13 5h-286q-7 0-12-5t-5-13v-392q0-8 5-13t12-5h286q7 0 13 5t5 13z m-107 473q0 9-9 9h-89q-9 0-9-9t9-9h89q9 0 9 9z m161 9v-572q0-29-22-50t-50-21h-286q-29 0-50 21t-21 50v572q0 29 21 50t50 21h286q29 0 50-21t22-50z" horiz-adv-x="428" />

<glyph glyph-name="fork" unicode="&#xe827;" d="M161 29q0 22-16 38t-38 15-38-15-15-38 15-38 38-16 38 16 16 38z m0 642q0 23-16 38t-38 16-38-16-15-38 15-37 38-16 38 16 16 37z m357-71q0 22-16 38t-38 16-38-16-15-38 15-38 38-16 38 16 16 38z m53 0q0-29-14-54t-39-39q-1-160-126-231-38-21-113-45-72-22-95-39t-23-56v-15q24-14 39-39t14-53q0-45-31-76t-76-32-76 32-31 76q0 29 15 53t39 39v458q-25 14-39 39t-15 53q0 45 31 76t76 32 76-32 31-76q0-29-14-53t-39-39v-277q30 14 86 31 30 10 49 17t39 17 33 22 22 29 16 38 5 51q-25 14-39 39t-15 54q0 45 31 76t76 31 76-31 31-76z" horiz-adv-x="571" />

<glyph glyph-name="android" unicode="&#xe828;" d="M275 581q9 0 16 6t6 15-6 16-16 6-15-6-6-16 6-15 15-6z m236 0q9 0 15 6t6 15-6 16-15 6-16-6-6-16 6-15 16-6z m-453-103q23 0 40-17t16-40v-240q0-24-16-41t-40-17-41 17-17 41v240q0 23 17 40t41 17z m591-11v-371q0-26-18-44t-43-18h-42v-127q0-24-16-40t-41-17-41 17-17 40v127h-77v-127q0-24-16-40t-40-17-41 17-17 40l-1 127h-41q-26 0-43 18t-18 44v371h512z m-129 226q59-30 95-85t36-121h-516q0 66 35 121t96 85l-39 73q-4 8 2 12 8 3 12-4l40-74q53 24 112 24t112-24l40 74q4 7 11 4t3-12z m266-272v-240q0-24-17-41t-40-17-41 17-17 41v240q0 24 17 40t41 17 40-17 17-40z" horiz-adv-x="785" />

<glyph glyph-name="apple" unicode="&#xe829;" d="M777 172q-21-70-68-139-72-110-144-110-27 0-78 18-48 18-83 18t-80-19-74-19q-85 0-167 146t-83 280q0 127 63 208t159 81q40 0 98-17t77-17q25 0 81 19t96 19q66 0 119-36 29-20 58-56-44-37-64-66-36-52-36-115 0-69 38-125t88-70z m-209 655q0-34-16-76t-53-77q-30-30-60-40-20-7-58-10 2 83 44 143t139 83q1-2 2-6t1-6v-6q0-4 1-5z" horiz-adv-x="785" />

<glyph glyph-name="windows" unicode="&#xe82a;" d="M381 289v-364l-381 53v311h381z m0 414v-367h-381v315z m548-414v-439l-507 70v369h507z m0 490v-443h-507v373z" horiz-adv-x="928" />

<glyph glyph-name="wordpress" unicode="&#xe82b;" d="M71 350q0 91 37 175l205-561q-109 53-176 157t-66 229z m719 22q0-11-2-22l-5-27q-3-16-7-25t-9-33-10-32l-43-143-155 461 49 4q11 2 15 11t-2 17-15 8l-115-6q-42 1-113 6-6 0-11-3t-6-9-1-10 5-9 11-5l44-4 67-183-94-281-156 464 49 4q11 2 15 11t-2 17-15 8l-115-6h-13q-9 0-14 1 58 89 153 141t205 52q82 0 157-29t133-84h-6q-31 0-51-22t-21-53q0-7 1-14l2-12q1-5 5-13t5-11 7-13l23-38q35-60 35-118z m-283-59l133-361q0-4 2-7-70-24-142-24-62 0-121 18z m369 243q53-97 53-206 0-117-58-215t-156-156l132 379q33 94 33 154 0 23-4 44z m-376 294q102 0 194-40t160-106 106-160 40-194-40-194-106-160-160-106-194-40-194 40-160 106-106 160-40 194 40 194 106 160 160 106 194 40z m0-977q97 0 185 38t152 102 102 152 38 185-38 185-102 152-152 102-185 38-185-38-152-102-102-152-38-185 38-185 102-152 152-102 185-38z" horiz-adv-x="1000" />

<glyph glyph-name="arrow-left" unicode="&#xe82c;" d="M0 353l390 391q19 18 44 18t43-18 18-44-18-43l-243-243h642q25 0 43-18t18-43-18-43-43-18h-642l243-243q18-18 18-44t-18-43-43-18-44 18z" horiz-adv-x="938" />

<glyph glyph-name="arrow-right" unicode="&#xe82d;" d="M0 347q0 26 18 43t43 17h642l-242 244q-19 18-19 44t19 42q17 19 42 19t44-19l390-390-390-391q-20-18-44-18t-42 18-19 44 19 43l242 242h-642q-25 0-43 18t-18 44z" horiz-adv-x="938" />

<glyph glyph-name="qq" unicode="&#xe82e;" d="M151 400q-5 11-5 29 0 11 6 28t14 25q-1 12 4 29t13 24q0 78 51 161t122 117q77 37 180 37 75 0 149-31 27-11 50-26t40-32 30-38 24-41 18-47 14-50 12-55l1-2q31-47 31-84 0-8-5-23t-5-21v-2q0-2 2-2t1-2q43-64 68-120t24-116q0-24-11-56t-31-32q-5 0-11 4t-10 10-11 14-9 15-7 15-5 9-2 1l-3-2q-33-86-74-125 12-11 35-21t38-23 20-37q-1-2-2-9t-4-10q-36-54-169-54-29 0-61 5t-55 11-58 17l-13 4q-8 2-26 3t-22 0q-23-25-71-36t-94-11q-20 0-39 1t-52 5-56 11-42 23-18 35q0 23 6 33t23 28q6 1 22 7t28 7l8 1q1 1 1 2l-1 2q-27 6-60 58t-41 88l-3 2q-2 0-7-12-10-23-30-41t-43-21h-1q-2 0-3 2t-3 3q-13 31-13 56 0 154 141 260z" horiz-adv-x="1000" />

<glyph glyph-name="linkedin" unicode="&#xe82f;" d="M195 501v-553h-184v553h184z m12 171q0-41-29-68t-75-27h-1q-46 0-74 27t-28 68 29 68 75 27 74-27 29-68z m650-407v-317h-183v296q0 59-23 92t-71 33q-35 0-58-19t-36-48q-6-17-6-45v-309h-184q1 223 1 361v165l-1 27h184v-80h-1q11 18 23 31t31 29 49 24 64 9q95 0 153-63t58-186z" horiz-adv-x="857" />

<glyph glyph-name="html" unicode="&#xe830;" d="M631 517l9 98h-494l26-298h342l-12-128-110-29-110 29-7 78h-97l12-155 202-55h2l200 55 28 304h-359l-8 101h376z m-631 262h786l-72-803-322-90-321 90z" horiz-adv-x="785" />

<glyph glyph-name="instagram" unicode="&#xe831;" d="M571 350q0 59-41 101t-101 42-101-42-42-101 42-101 101-42 101 42 41 101z m77 0q0-91-64-156t-155-64-156 64-64 156 64 156 156 64 155-64 64-156z m61 229q0-21-15-36t-37-15-36 15-15 36 15 36 36 15 37-15 15-36z m-280 123h-43-59q-20 0-54-2t-57-5-40-11q-28-11-49-32t-33-49q-6-16-10-40t-6-58-1-53 0-59 0-43 0-43 0-59 1-53 6-58l10-40q12-28 33-49t49-32q16-6 40-11t57-5 54-2 59 0 43 0 42 0 59 0 54 2 58 5 39 11q28 11 50 32t32 49q6 16 10 40t6 58 1 53 0 59 0 43 0 43 0 59-1 53-6 58l-10 40q-11 28-32 49t-50 32q-16 6-39 11t-58 5-54 2-59 0-42 0z m428-352q0-128-3-177-5-116-69-180t-179-69q-50-3-177-3t-177 3q-116 6-180 69t-69 180q-3 49-3 177t3 177q5 116 69 180t180 69q49 3 177 3t177-3q116-6 179-69t69-180q3-49 3-177z" horiz-adv-x="857" />

<glyph glyph-name="joomla" unicode="&#xe832;" d="M597 251l-89-89-101-102q-36-35-85-48t-95-1q-9-39-41-65t-72-25q-47 0-80 34t-34 81q0 41 25 72t63 40q-12 48 1 97t49 84l7 7 84-85-6-6q-21-21-21-50t21-49 49-21 50 20l101 102 90 89z m-190 381l7-7-85-85-7 7q-21 21-50 21t-49-21-21-50 21-50l190-190-84-85-90 89-101 102q-38 37-50 89t2 100q-39 8-64 40t-25 72q0 47 34 81t81 34q42 0 74-28t39-68q47 11 94-2t84-49z m450-596q0-47-33-81t-81-34q-41 0-73 27t-40 66q-48-16-100-4t-90 50l-6 7 84 85 7-7q20-20 49-20t50 20 21 50-21 50l-17 16-174 174 85 85 174-174 16-17q36-35 49-84t1-95q43-6 71-39t28-75z m-1 628q0-43-28-76t-71-38q14-48 1-99t-50-88l-6-7-85 85 7 7q21 20 21 49t-21 50-50 21-49-21l-191-191-85 85 90 89 85 85 16 17q37 37 89 50t99-2q6 42 38 70t76 29q47 0 81-34t33-81z" horiz-adv-x="857" />

<glyph glyph-name="drupal" unicode="&#xe833;" d="M651-35q-3 11-13 3-17-13-49-22t-73-10q-72 0-107 28-3 2-8 2t-14-7q-4-3-4-9t4-11q19-18 49-25t57-7 55 2q23 2 47 12t36 16 16 12q7 6 4 16z m-21 64q-11 26-22 34-13 9-43 9-26 0-39-6-16-7-44-31-14-14-7-25 6-4 10-2t18 13q2 1 6 5t6 4 5 4 7 4 7 3 8 2 9 2 12 0q15 0 24-4t13-8 8-12q5-10 7-11t7 0q13 7 8 19z m198 157q0 12-3 25t-9 25-19 20-30 8-54-23-72-47-56-23q-15-1-36 11t-42 27-47 32-55 28-62 10q-64 0-110-44t-47-99q-1-63 41-92 16-11 35-16t58-4q32 0 73 18t75 39 67 40 52 17q15-1 36-18t40-37 38-38 31-17q20-2 33 7t31 35q15 23 24 57t8 59z m29 89q0-91-34-170t-93-131-135-84-162-30-164 32-138 88-95 135-36 168q0 50 11 96t27 82 40 66 43 52 44 39 36 26 24 14l59 30q11 6 27 17t33 25q20 15 33 40t16 70q72-86 104-108 25-16 73-38t72-36q12-8 22-14t33-26 43-40 42-53 38-68 26-83 11-99z" horiz-adv-x="857" />

<glyph glyph-name="dropbox" unicode="&#xe834;" d="M224 456l276-171-191-159-273 178z m551-310v-60l-274-164v-1 1l-1-1v1l-273 164v60l82-54 191 159v1l1-1v1-1l192-159z m-466 638l191-159-276-169-188 150z m467-328l188-152-273-178-191 159z m-85 328l273-178-188-150-276 169z" horiz-adv-x="1000" />

<glyph glyph-name="arrow-up" unicode="&#xe835;" d="M0 354q0 26 18 44l391 390 390-390q18-18 18-44t-18-43-43-18-43 18l-243 243v-642q0-25-18-43t-43-18-44 18-17 43v642l-244-243q-18-18-43-18t-43 18-18 43z" horiz-adv-x="817" />

<glyph glyph-name="arrow-down" unicode="&#xe836;" d="M0 283q0 25 18 43t44 18 42-18l244-243v642q0 25 18 43t43 18 43-18 18-43v-642l243 243q18 18 43 18t43-18 18-43-18-44l-390-390-391 390q-18 20-18 44z" horiz-adv-x="817" />

<glyph glyph-name="github" unicode="&#xe837;" d="M357 171q0-22-7-45t-24-43-40-19-41 19-24 43-7 45 7 46 24 43 41 19 40-19 24-43 7-46z m357 0q0-22-7-45t-24-43-40-19-41 19-24 43-7 45 7 46 24 43 41 19 40-19 24-43 7-46z m90 0q0 67-39 114t-104 47q-23 0-109-12-40-6-88-6t-87 6q-85 12-109 12-66 0-104-47t-39-114q0-49 18-85t45-58 68-33 78-17 83-4h94q46 0 83 4t78 17 69 33 45 58 18 85z m125 99q0-116-34-185-22-43-59-74t-79-48-95-27-96-12-93-3q-43 0-79 2t-82 7-85 17-77 29-67 45-48 64q-35 69-35 185 0 132 76 221-15 45-15 95 0 64 28 121 61 0 106-22t106-69q82 20 172 20 83 0 157-18 58 46 104 67t105 22q29-57 29-121 0-49-15-94 76-89 76-222z" horiz-adv-x="928" />

<glyph glyph-name="codeopen" unicode="&#xe838;" d="M121 198l336-225v201l-186 124z m-35 80l108 72-108 72v-144z m457-305l337 225-151 100-186-124v-201z m-43 275l152 102-152 102-152-102z m-229 154l186 124v201l-336-225z m535-52l108-72v144z m-77 52l151 100-337 225v-201z m271 100v-304q0-23-19-36l-457-305q-12-7-24-7t-24 7l-457 305q-19 13-19 36v304q0 23 19 36l457 305q12 7 24 7t24-7l457-305q19-13 19-36z" horiz-adv-x="1000" />

<glyph glyph-name="picture" unicode="&#xe83a;" d="M357 529q0-45-31-76t-76-32-76 32-31 76 31 76 76 31 76-31 31-76z m572-215v-250h-786v107l178 179 90-89 285 285z m53 393h-893q-7 0-12-5t-6-13v-678q0-7 6-13t12-5h893q7 0 13 5t5 13v678q0 8-5 13t-13 5z m89-18v-678q0-37-26-63t-63-27h-893q-36 0-63 27t-26 63v678q0 37 26 63t63 27h893q37 0 63-27t26-63z" horiz-adv-x="1071" />

<glyph glyph-name="ios" unicode="&#xe83c;" d="M171 442h6v-296h-83v296h77z m-35 119q-20 0-33-12t-13-32 13-32 33-13 32 13 13 32-12 32-33 12z m473-208q0-64-24-112t-68-75-103-27q-54 0-96 27t-67 73-24 108 25 110 68 75 100 27 99-26 67-72 23-108z m-87-3q0 56-25 96-29 44-78 44t-77-39-29-104q0-62 29-100t76-39 76 39 28 103z m283 36q-41 16-55 27-17 13-17 33 0 17 14 29 16 13 46 13 41 0 77-18l5-3 19 64 1 5-3 2q-42 20-97 20-64 0-105-33t-41-86q0-41 28-70t83-50q36-14 51-27t15-35-17-35-49-13q-26 0-53 8-23 7-40 17l-6 3-2-6-17-64 3-2q19-11 50-18t60-8q54 0 91 19 33 17 49 48 15 26 15 57 0 43-25 73t-80 50z" horiz-adv-x="1000" />

<glyph glyph-name="onedrive" unicode="&#xe83d;" d="M910 193q0-36-25-61t-62-26h-443q-44 0-75 31t-31 75 31 75 75 31h12q1 39 21 72t53 51 72 19 70-17 51-47q24 12 53 12 32 0 60-16t44-44 16-60q0-5-1-8 34-3 57-28t22-59z m-545 155q8 40 33 73t62 51 78 18q38 0 72-15t59-43q21 6 43 6v0q-5 44-29 80t-63 56-83 20q-50 0-92-26t-64-70q-30 16-63 16t-63-17-46-46-17-63q0-18 4-31-44-1-75-33t-31-77q0-30 15-56t41-41 55-15h66q-23 34-23 77 0 52 35 91t86 45z" horiz-adv-x="1000" />

<glyph glyph-name="download" unicode="&#xe83e;" d="M714 100q0 15-10 25t-25 11-25-11-11-25 11-25 25-11 25 11 10 25z m143 0q0 15-10 25t-26 11-25-11-10-25 10-25 25-11 26 11 10 25z m72 125v-179q0-22-16-37t-38-16h-821q-23 0-38 16t-16 37v179q0 22 16 38t38 16h259l75-76q33-32 76-32t76 32l76 76h259q22 0 38-16t16-38z m-182 318q10-23-8-39l-250-250q-10-11-25-11t-25 11l-250 250q-17 16-8 39 10 21 33 21h143v250q0 15 11 25t25 11h143q14 0 25-11t10-25v-250h143q24 0 33-21z" horiz-adv-x="928" />

<glyph glyph-name="upload" unicode="&#xe83f;" d="M714 29q0 14-10 25t-25 10-25-10-11-25 11-25 25-11 25 11 10 25z m143 0q0 14-10 25t-26 10-25-10-10-25 10-25 25-11 26 11 10 25z m72 125v-179q0-22-16-38t-38-16h-821q-23 0-38 16t-16 38v179q0 22 16 38t38 15h238q12-31 39-51t62-20h143q34 0 61 20t40 51h238q22 0 38-15t16-38z m-182 361q-9-22-33-22h-143v-250q0-15-10-25t-25-11h-143q-15 0-25 11t-11 25v250h-143q-23 0-32 22t7 39l250 250q10 10 25 10t25-10l250-250q18-17 8-39z" horiz-adv-x="928" />

<glyph glyph-name="vue" unicode="&#xe858;" d="M697 724h-150l-109-173-94 173h-344l438-749 437 749h-178z m-588-62h105l224-387 223 387h105l-328-563-329 563z" horiz-adv-x="875" />

<glyph glyph-name="nodejs" unicode="&#xe859;" d="M438-142c-14 0-27 3-38 10l-121 71c-18 10-9 14-3 16 24 8 29 10 54 25 3 1 7 1 9-1l93-55c3-2 8-2 11 0l361 208c3 2 5 6 5 10v416c0 5-2 8-5 10l-361 208c-3 2-8 2-11 0l-360-208c-4-2-6-6-6-10v-416c0-4 2-8 6-10l98-57c54-26 87 5 87 37v411c0 6 5 10 10 10h46c6 0 11-4 11-10v-411c0-72-39-113-107-113-21 0-37 0-83 23l-95 54c-23 14-38 39-38 66v416c0 27 15 53 38 66l361 208c23 13 53 13 75 0l361-208c24-13 38-39 38-66v-416c0-27-14-52-38-66l-361-208c-11-7-24-10-37-10z m291 410c0 78-53 99-164 113-112 15-123 23-123 49 0 22 9 51 92 51 74 0 102-16 113-66 1-5 5-9 10-9h47c3 0 6 2 8 4s3 5 3 8c-8 86-65 126-181 126-103 0-164-43-164-116 0-79 61-101 160-111 118-11 127-29 127-52 0-40-32-57-108-57-96 0-117 24-124 71 0 5-5 9-10 9h-47c-5 0-10-5-10-10 0-61 33-134 191-134 114 1 180 46 180 124z" horiz-adv-x="875" />

<glyph glyph-name="javascript" unicode="&#xe85a;" d="M0 788v-876h875v876h-875z m476-683c0-85-50-124-123-124-65 0-104 34-123 75l67 41c13-23 25-42 53-42 27 0 44 10 44 51v280h82v-281z m195-124c-77 0-126 36-150 84l67 39c18-29 41-50 81-50 34 0 56 17 56 40 0 29-22 38-60 55l-21 9c-59 25-98 57-98 124 0 62 47 108 120 108 52 0 90-18 117-65l-64-41c-14 25-29 35-53 35-24 0-39-15-39-35 0-25 15-35 50-50l21-9c70-30 109-61 109-129 0-74-58-115-136-115z" horiz-adv-x="875" />

<glyph glyph-name="npm" unicode="&#xe85d;" d="M563 288h-63v125h63v-125z m562 250v-375h-562v-63h-250v63h-313v375h1125z m-812-63h-250v-250h125v188h62v-188h63v250z m312 0h-250v-312h125v62h125v250z m438 0h-375v-250h125v188h62v-188h63v188h62v-188h63v250z" horiz-adv-x="1125" />

<glyph glyph-name="react" unicode="&#xe85e;" d="M817 504c-11 3-21 7-32 10 2 7 4 14 5 22 24 116 8 210-45 240-51 30-135-1-220-75-8-7-17-14-24-22-6 5-11 10-17 15-88 79-178 112-231 81-51-30-66-118-45-228 2-11 5-22 7-32-12-4-24-8-36-12-104-36-179-93-179-152 0-61 80-122 188-159 9-3 18-6 27-9-3-11-6-23-8-35-21-108-5-194 47-224 52-30 141 1 227 77 7 6 14 12 21 19 8-9 17-17 26-25 84-72 167-101 218-71 52 30 69 123 47 235-2 9-3 18-6 27 7 1 13 3 19 5 112 38 194 98 194 160 0 59-77 116-183 153z m-264 166c72 63 140 88 171 70 33-19 46-95 25-196-1-7-3-13-5-20-43 10-87 17-131 21-25 36-53 71-83 104 7 7 15 14 23 21z m-226-421c10-17 20-34 30-50-30 3-60 8-90 15 8 28 19 57 32 86 9-17 18-34 28-51z m-60 235c29 7 58 12 89 16-10-17-20-33-30-50-9-17-19-34-27-51-13 29-23 58-32 85z m54-134c13 27 27 53 42 79s31 51 47 76c30 2 60 3 90 3s61-1 90-3c16-24 32-50 47-75s29-53 43-79c-14-27-28-54-43-80-14-26-30-51-47-76-29-2-59-3-90-3s-60 1-89 2c-17 25-33 51-48 77s-29 52-42 79z m353-100c10 17 19 34 28 52 13-28 24-57 33-87-30-6-61-12-92-15 11 16 21 33 31 50z m28 149c-9 17-19 35-29 51-9 17-19 33-29 50 31-4 61-10 89-16-9-29-19-57-31-85z m-202 220c21-22 40-46 58-70-38 2-77 2-116 0 19 25 39 49 58 70z m-226 120c33 19 106-8 182-76 5-5 10-9 15-14-30-33-58-68-84-104-44-4-88-11-131-20-2 10-5 20-7 30-18 95-6 166 25 184z m-48-515c-8 2-16 5-24 7-42 14-89 34-123 61-20 14-33 35-37 59 0 36 62 81 151 112 11 4 22 8 34 11 13-42 29-84 47-124-18-41-34-83-48-126z m228-192c-32-29-70-53-110-69-22-10-47-11-69-2-31 18-44 87-27 180 2 11 5 22 8 32 43-9 87-16 132-19 26-36 54-71 85-104-7-6-13-12-19-18z m48 48c-20 21-40 45-60 71 19-1 39-1 58-1 20 0 40 0 59 1-18-25-37-48-57-71z m255-59c-2-24-14-46-32-61-31-18-98 6-169 67-8 7-16 15-25 22 30 33 58 68 83 105 44 4 89 11 133 21 2-8 3-16 5-24 10-42 11-86 5-130z m35 210c-5-1-11-3-16-5-14 43-31 84-50 125 19 40 35 81 48 123 10-3 20-6 29-9 91-32 155-78 155-114 0-38-68-87-166-120z m-292 30c49 0 90 40 90 89s-41 90-90 90c-49 0-89-41-89-90s40-89 89-89z" horiz-adv-x="1000" />

<glyph glyph-name="sass" unicode="&#xe85f;" d="M590 110c-1-1-2-2 0 0z m486 170a256 256 0 0 1-113-26c-12 23-24 43-26 58-2 18-4 29-2 50s15 51 15 53-3 13-28 13-47-5-49-12a240 240 0 0 1-10-37c-5-23-51-104-77-147-8 17-16 31-17 43-3 18-5 28-2 49s15 51 14 54-2 12-27 13-47-5-50-12-5-22-10-37-66-151-82-187c-9-17-16-32-21-42 0-1-1-2-1-3 0 1 1 2 1 2-5-9-7-14-7-14v0c-4-6-7-12-9-12-1 0-4 17 0 39 10 47 31 121 31 123 0 2 4 15-14 21-18 7-24-4-26-4s-3-4-3-4 20 83-38 83c-35 0-85-39-110-75-15-9-49-27-84-46-13-8-27-15-40-22-1 1-2 2-3 3-70 74-199 127-194 227 2 37 15 132 249 249 191 95 344 69 370 11 38-83-82-238-280-260-76-8-116 21-126 32-10 11-12 12-16 10-6-4-2-14 0-20 6-15 31-43 72-56 37-12 126-19 233 23 121 46 215 176 187 284-28 110-211 146-383 85-103-36-215-94-295-169-95-89-110-166-104-199 23-115 181-190 245-245-4-2-7-4-9-5-32-16-153-79-183-146-34-76 5-130 32-138 81-22 165 19 210 86s39 154 18 194c0 1 0 1 0 2 8 4 16 9 25 14 16 10 32 19 46 26-8-21-14-46-17-83-3-43 14-99 37-121 11-9 23-9 31-9 26 0 39 22 52 49 17 32 31 70 31 70s-18-102 32-102c18 0 37 23 45 35v0s0 1 1 3c2 3 3 4 3 4v1c8 13 24 42 48 90 32 62 62 139 62 139a393 393 0 0 1 12-50c6-19 17-39 27-59-8-10-12-16-12-16a1 1 0 0 1 0 0c-6-8-13-16-20-24-24-30-54-64-58-74-5-11-4-20 5-27 7-5 19-5 31-5 22 2 38 8 46 11a161 161 0 0 1 39 21c25 18 40 43 38 77-1 19-7 38-14 56 2 3 4 6 7 9 38 57 68 119 68 119a393 393 0 0 1 12-51c5-16 14-33 23-50-37-29-59-64-67-86-15-42-3-60 18-65 10-2 23 3 33 7a155 155 0 0 1 43 22c24 18 48 43 46 77 0 16-5 31-10 46 30 13 70 20 121 14 109-13 130-81 126-109s-27-44-35-49-10-6-9-10c1-5 4-5 11-4 9 2 57 24 59 76 3 66-61 140-174 139z m-838-283c-36-39-86-54-108-41-23 13-14 71 30 113 27 25 62 49 85 63 5 3 13 8 22 14 2 1 3 1 3 1 1 1 3 2 5 3 16-59 1-111-37-153z m262 179c-12-31-39-109-55-105-13 4-22 63-2 122 10 29 30 64 43 78 19 22 41 29 46 20 7-11-24-96-32-115z m217-104c-5-2-10-4-12-3-2 1 2 5 2 5s27 29 38 42c6 8 13 17 21 27 0-1 0-2 0-3 0-35-34-58-49-68z m167 38c-4 3-3 12 10 41 5 11 17 30 37 48a71 71 0 0 0 4-21c0-44-32-61-51-68z" horiz-adv-x="1250" />

<glyph glyph-name="less" unicode="&#xe862;" d="M1197 422c0 40 6 64 6 107 0 67-25 88-79 88h-40v-47h12c28 0 34-9 34-43 0-32-3-64-3-101 0-47 15-65 46-73v-3c-31-7-46-25-46-73 0-37 3-66 3-100 0-35-7-44-34-44v-1h-12v-50h40c54 0 79 22 79 89 0 44-6 67-6 106 0 22 13 45 53 46v54c-40 1-53 24-53 45z m-207-62c-30 12-59 19-59 40 0 15 12 24 35 24s43-9 65-25l42 54c-26 20-61 40-108 40-70 0-117-40-117-96 0-50 44-76 81-91 32-12 62-22 62-43 0-15-12-25-40-25-25 0-51 10-79 32l-41-60c31-26 78-43 117-43 82 0 126 43 126 99s-43 81-84 94z m-700-116c-8 0-17 6-17 25v348h-146c-55 0-80-21-80-88 0-44 7-69 7-106 0-22-14-45-54-47v-53c40-1 54-24 54-45 0-38-7-61-7-105 0-67 25-88 79-88h40v47h-12c-25 0-34 11-34 44s3 63 3 101c0 47-15 66-46 73v3c31 7 46 26 46 73 0 37-3 67-3 100s8 44 34 44h28v-295c0-63 21-104 84-104 19 0 35 3 46 8l-10 66c-6-1-9-1-12-1z m452 116c-32 12-61 19-61 40 0 15 13 24 35 24 23 0 44-9 66-25l41 54c-25 20-60 40-108 40-69 0-117-40-117-96 0-50 44-76 81-91 32-12 63-22 63-43 0-15-12-25-40-25-26 0-51 10-79 32l-40-60c31-26 78-43 117-43 82 0 126 43 126 99 0 57-44 81-84 94z m-303 134c-75 0-146-63-144-161 0-102 66-161 154-161 37 0 78 13 110 35l-31 54c-22-13-44-19-66-19-41 0-73 19-81 66h185c1 8 4 22 4 38 1 84-45 148-131 148z m-58-129c6 41 31 60 59 60 37 0 52-25 52-60h-111z" horiz-adv-x="1250" />

<glyph glyph-name="symfony" unicode="&#xe864;" d="M500 834c-268 0-484-216-484-484s216-484 484-484 484 216 484 484-216 484-484 484z m261-280c-22-1-38 13-38 33-1 18 13 26 12 37 0 13-19 13-25 13-77-3-95-111-115-222 42-7 72 1 88 12 24 15-6 30-2 48 7 35 63 37 62-11-1-35-50-81-151-69-21-117-36-225-114-316-57-68-114-78-140-79-48-2-80 24-81 58-1 34 28 52 47 52 43 2 59-50 29-66-23-19 1-25 4-25 21 1 34 11 44 18 47 39 65 107 88 231 16 97 34 152 36 160-33 25-53 56-97 68-31 8-49 1-63-15-15-20-10-45 5-60l25-28c30-35 47-62 40-98-10-59-79-104-162-78-70 21-83 71-74 98 14 48 82 23 67-26-5-17-9-17-12-26-9-28 82-55 99 3 9 28-10 42-43 78-56 62-31 128 6 156 103 76 196-35 216-51 72 213 196 206 200 206 49 2 86-20 87-56 1-15-8-44-38-45z" horiz-adv-x="1000" />

<glyph glyph-name="down-open" unicode="&#xf004;" d="M0 533q0 25 18 43t44 18 42-18l305-303 304 303q18 18 43 18t43-18 18-43-18-43l-390-391-391 391q-18 19-18 43z" horiz-adv-x="817" />

<glyph glyph-name="up-open" unicode="&#xf005;" d="M0 167q0 26 18 43l391 391 390-391q17-17 17-43t-17-43-44-18-43 17l-303 305-305-305q-18-17-43-17t-43 18-18 43z" horiz-adv-x="816" />

<glyph glyph-name="right-open" unicode="&#xf006;" d="M0 0q0 25 18 43l305 304-305 304q-18 18-18 44t18 43 44 18 43-18l390-391-390-391q-19-18-43-18t-43 18-19 44z" horiz-adv-x="495" />

<glyph glyph-name="left-open" unicode="&#xf007;" d="M0 353l391 391q18 18 43 18t43-18 18-44-18-43l-304-304 304-305q18-17 18-43t-18-44-43-17-43 18z" horiz-adv-x="495" />

<glyph glyph-name="gplus" unicode="&#xf0d5;" d="M802 341q0-117-49-207t-138-142-206-51q-83 0-159 32t-131 87-87 131-32 159 32 159 87 131 131 87 159 32q160 0 274-107l-111-107q-65 63-163 63-69 0-127-34t-92-94-34-130 34-130 92-94 127-34q46 0 85 13t64 32 44 43 27 47 12 41h-232v141h386q7-36 7-68z m484 68v-118h-117v-116h-117v116h-117v118h117v116h117v-116h117z" horiz-adv-x="1285" />

<glyph glyph-name="comment-empty" unicode="&#xf0e5;" d="M500 636q-114 0-213-39t-157-105-59-142q0-62 40-119t113-98l48-28-15-53q-13-51-39-97 85 36 154 96l24 21 32-3q38-5 72-5 114 0 213 39t157 105 59 142-59 142-157 105-213 39z m500-286q0-97-67-179t-182-130-251-48q-39 0-81 4-110-97-257-135-27-8-63-12h-3q-8 0-15 6t-9 15v1q-2 2 0 6t1 6 2 5l12 15q4 5 17 19l20 22q7 8 17 22t18 28 15 33l15 42q-88 50-138 123t-51 157q0 97 67 179t182 130 251 48 251-48 182-130 67-179z" horiz-adv-x="1000" />

<glyph glyph-name="bell-alt" unicode="&#xf0f3;" d="M509-96q0 8-9 8-33 0-57 24t-23 57q0 9-9 9t-9-9q0-41 29-70t69-28q9 0 9 9z m455 160q0-29-21-50t-50-21h-250q0-59-42-101t-101-42-101 42-42 101h-250q-29 0-50 21t-21 50q28 24 51 49t47 67 42 89 27 115 11 145q0 84 66 157t171 89q-5 10-5 21 0 23 16 38t38 16 38-16 16-38q0-11-5-21 106-16 171-89t66-157q0-78 11-145t28-115 41-89 48-67 50-49z" horiz-adv-x="1000" />

<glyph glyph-name="help" unicode="&#xf128;" d="M393 149v-134q0-9-7-15t-15-7h-134q-9 0-16 7t-7 15v134q0 9 7 16t16 6h134q9 0 15-6t7-16z m176 335q0-30-8-56t-20-43-31-33-32-25-34-19q-23-13-38-37t-15-37q0-10-7-18t-16-9h-134q-8 0-14 11t-6 20v26q0 46 37 87t79 60q33 16 47 32t14 41-26 42-60 18q-36 0-60-16-20-14-60-64-7-9-17-9-7 0-14 4l-91 70q-8 6-9 14t3 16q89 148 259 148 45 0 90-17t81-46 59-72 23-88z" horiz-adv-x="571" />

<glyph glyph-name="info" unicode="&#xf129;" d="M357 100v-71q0-15-10-25t-26-11h-285q-15 0-25 11t-11 25v71q0 15 11 25t25 11h35v214h-35q-15 0-25 11t-11 25v71q0 15 11 25t25 11h214q15 0 25-11t11-25v-321h35q15 0 26-11t10-25z m-71 643v-107q0-15-11-25t-25-11h-143q-14 0-25 11t-11 25v107q0 14 11 25t25 11h143q15 0 25-11t11-25z" horiz-adv-x="357" />

<glyph glyph-name="attention-alt" unicode="&#xf12a;" d="M286 154v-125q0-15-11-25t-25-11h-143q-14 0-25 11t-11 25v125q0 14 11 25t25 10h143q15 0 25-10t11-25z m17 589l-16-429q-1-14-12-25t-25-10h-143q-14 0-25 10t-12 25l-15 429q-1 14 10 25t24 11h179q14 0 25-11t10-25z" horiz-adv-x="357" />

<glyph glyph-name="trello" unicode="&#xf181;" d="M393 100v571q0 8-5 13t-13 5h-268q-8 0-13-5t-5-13v-571q0-8 5-13t13-5h268q8 0 13 5t5 13z m375 214v357q0 8-5 13t-13 5h-268q-8 0-13-5t-5-13v-357q0-7 5-12t13-6h268q8 0 13 6t5 12z m89 429v-786q0-14-10-25t-26-11h-785q-15 0-25 11t-11 25v786q0 14 11 25t25 11h785q15 0 26-11t10-25z" horiz-adv-x="857" />

<glyph glyph-name="wheelchair" unicode="&#xf193;" d="M571 188l57-114q-33-100-117-162t-190-62q-87 0-161 43t-117 117-43 161q0 101 58 185t154 117l9-73q-68-30-109-92t-41-137q0-103 74-176t176-74q71 0 130 37t92 98 28 132z m306-56l32-64-143-71q-7-4-16-4-22 0-32 19l-133 267h-264q-13 0-23 9t-12 22l-54 435q-1 9 4 24 7 28 31 46t54 17q37 0 64-26t26-63q0-39-29-66t-67-23l20-161h236v-72h-227l9-71h254q23 0 32-19l127-254z" horiz-adv-x="928" />

<glyph glyph-name="database" unicode="&#xf1c0;" d="M429 421q132 0 247 24t181 71v-95q0-38-57-71t-157-52-214-19-215 19-156 52-58 71v95q66-47 181-71t248-24z m0-428q132 0 247 24t181 71v-95q0-39-57-72t-157-52-214-19-215 19-156 52-58 72v95q66-47 181-71t248-24z m0 214q132 0 247 24t181 71v-95q0-38-57-71t-157-52-214-20-215 20-156 52-58 71v95q66-47 181-71t248-24z m0 643q116 0 214-19t157-52 57-72v-71q0-39-57-72t-157-52-214-19-215 19-156 52-58 72v71q0 39 58 72t156 52 215 19z" horiz-adv-x="857" />

<glyph glyph-name="git" unicode="&#xf1d3;" d="M332 5q0 56-92 56-88 0-88-57t96-58q84 0 84 59z m-33 422q0 34-17 56t-49 23q-69 0-69-81 0-75 69-75 66 0 66 77z m150 180v-112q-20-7-44-13 9-24 9-47 0-70-41-120t-110-63q-22-5-33-15t-11-33q0-17 13-28t32-18 44-12 48-15 44-21 32-35 13-55q0-170-203-170-38 0-72 7t-65 23-49 46-18 71q0 92 102 125v3q-38 22-38 70 0 61 35 76v3q-40 13-66 60t-27 93q0 77 53 129t131 51q54 0 100-26 54 0 121 26z m178-491h-124q2 25 2 74v340q0 53-2 72h124q-3-19-3-69v-343q0-49 3-74z m335 124v-110q-40-22-97-22-35 0-60 12t-39 27-22 44-10 51-2 58v196h1v2h-11q-7 0-10 1-12 0-33-3v106h54v42q0 30-4 50h127q-3-23-3-92h95v-106q-8 0-24 1t-24 1h-47v-204q0-73 48-73 34 0 61 19z m-321 528q0-32-22-57t-54-24-54 24-22 57 21 57 55 25 54-25 22-57z" horiz-adv-x="1000" />

<glyph glyph-name="commenting" unicode="&#xf27a;" d="M357 350q0 30-21 51t-50 20-51-20-21-51 21-50 51-21 50 21 21 50z m214 0q0 30-20 51t-51 20-50-20-21-51 21-50 50-21 51 21 20 50z m215 0q0 30-21 51t-51 20-50-20-21-51 21-50 50-21 51 21 21 50z m214 0q0-97-67-179t-182-130-251-48q-61 0-118 10-96-97-242-128-29-6-48-7-7-1-13 3t-7 10q-2 9 11 21l28 25q5 4 13 14t13 18 11 20 12 27 8 32 7 41q-82 50-128 121t-47 150q0 97 67 179t182 130 251 48 251-48 182-130 67-179z" horiz-adv-x="1000" />

<glyph glyph-name="gitlab" unicode="&#xf296;" d="M58 456l442-566-484 351q-10 7-14 19t0 24z m258 0h368l-184-566z m-111 342l111-342h-258l111 342q4 12 18 12t18-12z m737-342l56-172q4-12 0-24t-14-19l-484-351z m0 0h-258l111 342q4 12 18 12t19-12z" horiz-adv-x="1000" />
</font>
</defs>
</svg>
