<?xml version="1.0" standalone="no"?>
<!DOCTYPE svg PUBLIC "-//W3C//DTD SVG 1.1//EN" "http://www.w3.org/Graphics/SVG/1.1/DTD/svg11.dtd" >
<svg xmlns="http://www.w3.org/2000/svg" xmlns:xlink="http://www.w3.org/1999/xlink" version="1.1">
<metadata>
Created by FontForge 20161003 at Wed Mar 14 01:25:16 2018
 By www-data
Copyright (C) 2016 by original authors @ fontello.com
</metadata>
<defs>
<font id="icons" horiz-adv-x="1000" >
  <font-face 
    font-family="icons"
    font-weight="400"
    font-stretch="normal"
    units-per-em="1000"
    panose-1="2 0 5 3 0 0 0 0 0 0"
    ascent="850"
    descent="-150"
    bbox="-0.8 -151 1286 851"
    underline-thickness="0"
    underline-position="10"
    unicode-range="U+E800-F2AC"
  />
<missing-glyph 
 />
    <glyph glyph-name=".notdef" 
 />
    <glyph glyph-name="home" unicode="&#xe800;" horiz-adv-x="1041" 
d="M521 819q322 -279 500 -429q20 -16 20 -40q0 -21 -15 -37t-36 -15h-105v-364q0 -21 -15 -37t-36 -16h-156q-22 0 -37 16t-16 37v208h-209v-208q0 -21 -15 -37t-36 -16h-156q-21 0 -37 16t-16 37v364h-103q-22 0 -37 15t-16 37t19 40z" />
    <glyph glyph-name="briefcase" unicode="&#xe801;" 
d="M357 707h286v72h-286v-72zM1000 350v-268q0 -37 -26 -63t-63 -26h-822q-36 0 -63 26t-26 63v268h375v-89q0 -15 11 -25t25 -11h178q15 0 25 11t11 25v89h375zM571 350v-71h-142v71h142zM1000 618v-214h-1000v214q0 37 26 63t63 26h197v89q0 23 15 38t38 16h322
q22 0 38 -16t15 -38v-89h197q37 0 63 -26t26 -63z" />
    <glyph glyph-name="comment" unicode="&#xe802;" 
d="M1000 350q0 -97 -67 -179t-182 -130t-251 -48q-39 0 -81 4q-110 -97 -257 -135q-27 -8 -63 -12q-10 -1 -17 5t-10 16v1q-2 2 0 6t1 6t2 5l12 15q4 5 17 19l20 22q7 8 17 22t18 28t15 33l15 42q-88 50 -138 123t-51 157q0 73 40 139t106 114t160 76t194 28q136 0 251 -48
t182 -130t67 -179z" />
    <glyph glyph-name="link" unicode="&#xe803;" horiz-adv-x="800" 
d="M294 116q14 14 34 14t36 -14q32 -34 0 -70l-42 -40q-56 -56 -133 -56t-133 56t-56 133t56 133l148 148q70 68 144 77t128 -43q16 -16 16 -36t-16 -36q-36 -32 -70 0q-50 48 -132 -34l-148 -146q-26 -26 -26 -64t26 -63t63 -25t63 26zM744 690q56 -56 56 -133t-56 -133
l-158 -158q-74 -72 -150 -72q-62 0 -112 50q-14 14 -14 34t14 35t35 15t35 -14q50 -48 122 24l158 156q28 28 28 65t-28 61q-24 26 -56 31t-60 -21l-50 -50q-16 -14 -36 -14t-34 14q-34 34 0 70l50 50q54 54 127 51t129 -61z" />
    <glyph glyph-name="cog" unicode="&#xe804;" horiz-adv-x="857" 
d="M571 350q0 59 -41 101t-101 42t-101 -42t-42 -101t42 -101t101 -42t101 42t41 101zM857 411v-124q0 -7 -4 -13t-11 -7l-104 -16q-10 -30 -21 -51q19 -27 59 -77q6 -6 6 -13t-5 -13q-15 -21 -55 -61t-53 -39q-7 0 -14 5l-77 60q-25 -13 -51 -21q-9 -76 -16 -104
q-4 -16 -20 -16h-124q-8 0 -14 5t-6 12l-16 103q-27 9 -50 21l-79 -60q-6 -5 -14 -5t-14 6q-70 64 -92 94q-4 5 -4 12t5 13q8 12 28 37t30 40q-15 28 -23 55l-102 15q-7 1 -11 7t-5 13v124q0 7 5 13t10 7l104 16q8 25 22 51q-23 32 -60 77q-6 7 -6 13t5 13q15 20 55 60
t53 40q7 0 15 -5l77 -60q24 13 50 21q9 76 17 104q3 16 20 16h124q7 0 13 -5t7 -12l15 -103q28 -9 51 -20l79 59q5 5 13 5t14 -5q72 -67 92 -95q4 -5 4 -12t-4 -13q-9 -12 -29 -37t-30 -40q15 -28 23 -54l102 -16q7 -1 12 -7t4 -13z" />
    <glyph glyph-name="external" unicode="&#xe805;" 
d="M625 163h-312v312h125l62 63h-250v-438h438v250l-63 -62v-125zM500 663v-63h206l-268 -268l44 -44l268 268v-206h63v313h-313z" />
    <glyph glyph-name="basket" unicode="&#xe806;" horiz-adv-x="928" 
d="M357 -7q0 -29 -21 -50t-50 -22t-50 22t-22 50t22 50t50 21t50 -21t21 -50zM857 -7q0 -29 -21 -50t-50 -22t-50 22t-22 50t22 50t50 21t50 -21t21 -50zM929 600v-286q0 -13 -10 -23t-22 -12l-583 -68q7 -34 7 -41t-13 -34h513q15 0 26 -11t10 -25t-10 -25t-26 -11h-571
q-14 0 -25 11t-11 25q0 6 5 18t9 20t12 22t8 17l-98 459h-114q-15 0 -25 10t-11 25t11 26t25 10h143q9 0 16 -3t10 -9t8 -14t4 -14t3 -17t3 -14h670q14 0 25 -11t11 -25z" />
    <glyph glyph-name="heart" unicode="&#xe807;" 
d="M500 -79q-14 0 -25 10l-348 336l-15 15q-10 10 -31 37t-38 54t-30 67t-13 77q0 123 71 192t196 70q34 0 70 -12t67 -33t54 -38t42 -38q20 20 42 38t54 38t67 33t70 12q125 0 196 -70t71 -192t-128 -251l-347 -335q-10 -10 -25 -10z" />
    <glyph glyph-name="heart-empty" unicode="&#xe808;" 
d="M929 517q0 46 -12 80t-31 55t-46 33t-52 18t-55 4t-62 -14t-62 -36t-48 -40t-34 -34q-10 -13 -27 -13t-27 13q-14 15 -34 34t-48 40t-62 36t-62 14t-55 -4t-52 -18t-46 -33t-31 -55t-12 -80q0 -93 105 -198l324 -312l324 312q105 105 105 198zM1000 517q0 -123 -128 -251
l-347 -335q-10 -10 -25 -10t-25 10l-348 336l-15 15q-10 10 -31 37t-38 54t-30 67t-13 77q0 123 71 192t196 70q34 0 70 -12t67 -33t54 -38t42 -38q20 20 42 38t54 38t67 33t70 12q125 0 196 -70t71 -192z" />
    <glyph glyph-name="star" unicode="&#xe809;" horiz-adv-x="928" 
d="M929 489q0 -12 -15 -27l-202 -197l48 -279v-12q0 -11 -6 -19t-16 -9t-23 7l-251 132l-250 -132q-12 -7 -23 -7t-17 9t-6 19q0 4 1 12l48 279l-203 197q-14 15 -14 27q0 21 31 26l280 40l126 254q11 23 27 23t28 -23l125 -254l280 -40q32 -5 32 -26z" />
    <glyph glyph-name="star-empty" unicode="&#xe80a;" horiz-adv-x="928" 
d="M635 290l170 166l-235 34l-106 213l-105 -213l-236 -34l171 -166l-41 -235l211 111l211 -111zM929 489q0 -12 -15 -27l-202 -197l48 -279v-12q0 -28 -23 -28q-10 0 -22 7l-251 132l-250 -132q-12 -7 -23 -7t-17 9t-6 19q0 4 1 12l48 279l-203 197q-14 15 -14 27
q0 21 31 26l280 40l126 254q11 23 27 23t28 -23l125 -254l280 -40q32 -5 32 -26z" />
    <glyph glyph-name="facebook" unicode="&#xe80b;" horiz-adv-x="571" 
d="M535 843v-147h-87q-48 0 -65 -20t-17 -60v-106h164l-22 -165h-142v-424h-171v424h-142v165h142v122q0 104 58 161t155 57q82 0 127 -7z" />
    <glyph glyph-name="youtube-play" unicode="&#xe80c;" 
d="M714 350q0 21 -16 30l-286 179q-17 11 -36 1t-19 -31v-358q0 -21 19 -31q9 -4 17 -4q11 0 19 5l286 179q16 9 16 30zM1000 350q0 -54 -1 -84t-4 -76t-13 -82q-9 -41 -38 -69t-70 -32q-123 -14 -374 -14t-374 14q-40 4 -70 32t-39 69q-7 36 -12 82t-4 76t-1 84t1 84t4 76
t13 82q9 41 38 69t70 32q123 14 374 14t374 -14q40 -4 70 -32t39 -69q8 -36 12 -82t4 -76t1 -84z" />
    <glyph glyph-name="tag" unicode="&#xe80d;" horiz-adv-x="857" 
d="M250 600q0 30 -21 51t-50 20t-51 -20t-21 -51t21 -50t51 -21t50 21t21 50zM845 279q0 -30 -20 -51l-274 -274q-22 -21 -51 -21t-50 21l-399 399q-21 21 -36 57t-15 65v232q0 29 21 50t50 22h233q29 0 65 -15t57 -36l399 -399q20 -21 20 -50z" />
    <glyph glyph-name="code" unicode="&#xe80e;" horiz-adv-x="1071" 
d="M344 69l-28 -28q-5 -5 -12 -5t-13 5l-260 261q-6 5 -6 12t6 13l260 260q5 6 13 6t12 -6l28 -28q6 -5 6 -13t-6 -12l-219 -220l219 -219q6 -6 6 -13t-6 -13zM674 665l-208 -721q-2 -7 -9 -11t-13 -1l-34 9q-8 3 -11 9t-2 14l209 720q2 8 8 11t13 2l35 -10q7 -2 11 -9
t1 -13zM1041 302l-260 -261q-6 -5 -13 -5t-13 5l-28 28q-5 6 -5 13t5 13l219 219l-219 220q-5 5 -5 12t5 13l28 28q6 6 13 6t13 -6l260 -260q5 -5 5 -13t-5 -12z" />
    <glyph glyph-name="attention" unicode="&#xe80f;" 
d="M571 83v106q0 8 -5 13t-12 5h-108q-7 0 -12 -5t-5 -13v-106q0 -8 5 -13t12 -6h108q7 0 12 6t5 13zM570 291l10 257q0 6 -5 10q-7 6 -14 6h-122q-6 0 -14 -6q-5 -4 -5 -12l9 -255q0 -5 6 -9t13 -3h103q8 0 14 3t5 9zM563 813l428 -786q20 -35 -1 -70q-9 -17 -26 -26
t-35 -10h-858q-18 0 -35 10t-26 26q-21 35 -1 70l429 786q9 17 26 27t36 10t36 -10t27 -27z" />
    <glyph glyph-name="attention-circled" unicode="&#xe810;" horiz-adv-x="857" 
d="M429 779q116 0 215 -58t156 -156t57 -215t-57 -215t-156 -156t-215 -58t-216 58t-155 156t-58 215t58 215t155 156t216 58zM500 83v106q0 8 -5 13t-12 5h-107q-8 0 -13 -5t-6 -13v-106q0 -8 6 -13t13 -6h107q7 0 12 6t5 13zM499 275l10 346q0 7 -6 10q-5 5 -13 5h-123
q-8 0 -13 -5q-6 -3 -6 -10l10 -346q0 -6 5 -10t14 -4h103q8 0 13 4t6 10z" />
    <glyph glyph-name="stackoverflow" unicode="&#xe811;" horiz-adv-x="857" 
d="M719 -61h-624v268h-89v-357h803v357h-90v-268zM194 232l18 87l437 -92l-18 -87zM251 440l38 82l404 -189l-37 -81zM363 639l57 69l343 -287l-57 -68zM585 850l266 -358l-71 -53l-267 357zM184 29v89h447v-89h-447z" />
    <glyph glyph-name="help-circled" unicode="&#xe812;" horiz-adv-x="857" 
d="M500 82v107q0 8 -5 13t-13 5h-107q-8 0 -13 -5t-5 -13v-107q0 -8 5 -13t13 -5h107q8 0 13 5t5 13zM643 457q0 49 -31 91t-77 65t-95 23q-136 0 -207 -119q-9 -13 4 -24l74 -55q4 -4 10 -4q9 0 14 7q30 38 49 52t46 13t49 -15t21 -33q0 -21 -11 -34t-38 -25
q-35 -15 -65 -48t-29 -70v-20q0 -8 5 -13t13 -5h107q8 0 13 5t5 14t12 26t30 28l28 16q10 6 25 19t25 27t16 34t7 45zM857 350q0 -117 -57 -215t-156 -156t-215 -58t-216 58t-155 156t-58 215t58 215t155 156t216 58t215 -58t156 -156t57 -215z" />
    <glyph glyph-name="info-circled" unicode="&#xe813;" horiz-adv-x="857" 
d="M571 82v89q0 8 -5 13t-12 5h-54v286q0 8 -5 13t-13 5h-178q-8 0 -13 -5t-5 -13v-89q0 -8 5 -13t13 -5h53v-179h-53q-8 0 -13 -5t-5 -13v-89q0 -8 5 -13t13 -5h250q7 0 12 5t5 13zM500 582v89q0 8 -5 13t-13 5h-107q-8 0 -13 -5t-5 -13v-89q0 -8 5 -13t13 -5h107q8 0 13 5
t5 13zM857 350q0 -117 -57 -215t-156 -156t-215 -58t-216 58t-155 156t-58 215t58 215t155 156t216 58t215 -58t156 -156t57 -215z" />
    <glyph glyph-name="slack" unicode="&#xe814;" horiz-adv-x="928" 
d="M848 417q34 0 57 -23t24 -56q0 -54 -52 -73l-96 -33l31 -93q4 -12 4 -26q0 -33 -24 -57t-56 -24q-26 0 -48 15t-29 40l-31 92l-173 -59l31 -91q4 -14 4 -27q0 -33 -23 -57t-57 -24q-27 0 -48 15t-29 41l-31 91l-85 -30q-17 -5 -28 -5q-34 0 -57 22t-23 57q0 26 16 47
t40 30l87 29l-59 175l-87 -30q-14 -5 -27 -5q-33 0 -56 23t-23 56q0 26 15 48t40 29l88 30l-30 88q-4 14 -4 27q0 33 23 57t57 24q26 0 48 -16t29 -40l30 -89l173 59l-30 89q-4 13 -4 26q0 33 23 57t57 24q26 0 48 -15t30 -40l29 -90l91 31q11 3 24 3q33 0 57 -22t24 -55
q0 -25 -17 -45t-41 -29l-88 -30l59 -177l91 32q13 4 26 4zM405 271l173 58l-59 176l-173 -60z" />
    <glyph glyph-name="vine" unicode="&#xe815;" horiz-adv-x="857" 
d="M835 389v-111q-56 -13 -110 -13q-36 -76 -92 -151t-102 -120t-71 -60q-45 -25 -91 2q-15 9 -33 24t-48 47t-57 72t-60 102t-59 136t-51 176t-39 218h158q14 -122 39 -223t58 -177t68 -131t78 -109q94 94 160 227q-79 40 -124 122t-45 186q0 107 58 176t158 69t152 -60
t53 -166q0 -89 -32 -159l-11 -2q-7 -1 -25 -1t-36 3t-34 14t-28 29q17 58 17 103q0 48 -16 73t-44 26q-30 0 -48 -28t-18 -78q0 -104 59 -164t149 -60q35 0 67 8z" />
    <glyph glyph-name="terminal" unicode="&#xe816;" horiz-adv-x="928" 
d="M327 302l-261 -261q-5 -5 -12 -5t-13 5l-28 28q-6 6 -6 13t6 13l219 219l-219 220q-6 5 -6 12t6 13l28 28q5 6 13 6t12 -6l261 -260q5 -5 5 -13t-5 -12zM929 46v-35q0 -8 -5 -13t-13 -5h-536q-8 0 -13 5t-5 13v35q0 8 5 13t13 5h536q8 0 13 -5t5 -13z" />
    <glyph glyph-name="bug" unicode="&#xe817;" horiz-adv-x="928" 
d="M911 314q0 -14 -11 -25t-25 -10h-125q0 -96 -37 -162l116 -117q10 -11 10 -25t-10 -25t-25 -11t-25 11l-111 110l-8 -7q-5 -4 -24 -16t-36 -21t-46 -16t-54 -7v500h-71v-500q-29 0 -57 7t-49 19t-36 22t-25 18l-8 8l-102 -116q-11 -12 -27 -12q-13 0 -24 9t-11 25t8 26
l113 127q-32 63 -32 153h-125q-15 0 -25 10t-11 25t11 25t25 11h125v164l-97 97q-11 10 -11 25t11 25t25 10t25 -10l97 -97h471l96 97q11 10 25 10t26 -10t10 -25t-10 -25l-97 -97v-164h125q15 0 25 -11t11 -25zM643 636h-357q0 74 52 126t126 52t127 -52t52 -126z" />
    <glyph glyph-name="paper-plane" unicode="&#xe818;" 
d="M984 844q19 -13 15 -36l-142 -857q-3 -16 -18 -25q-8 -5 -18 -5q-6 0 -13 3l-253 104l-135 -165q-10 -13 -27 -13q-7 0 -12 2q-11 4 -17 13t-7 21v195l482 590l-596 -516l-221 91q-20 8 -21 31t17 32l928 536q9 5 19 5t19 -6z" />
    <glyph glyph-name="mail-alt" unicode="&#xe819;" 
d="M1000 454v-443q0 -37 -26 -63t-63 -27h-822q-36 0 -63 27t-26 63v443q25 -27 56 -49q202 -137 278 -192q32 -24 51 -37t53 -27t61 -13h2q28 0 61 13t53 27t51 37q95 68 278 192q32 22 56 49zM1000 618q0 -44 -27 -84t-68 -69q-210 -146 -262 -181l-53 -39q-12 -9 -29 -18
t-32 -15t-28 -5h-2q-12 0 -27 5t-32 15l-30 18q-13 8 -30 22t-23 17l-147 101q-96 66 -114 80q-35 23 -65 64t-31 77q0 43 23 72t66 29h822q36 0 63 -26t26 -63z" />
    <glyph glyph-name="mail" unicode="&#xe81a;" 
d="M929 11v428q-18 -20 -39 -36q-149 -115 -238 -189q-28 -24 -46 -37t-48 -28t-57 -13h-2q-26 0 -57 13t-48 28t-46 37q-88 74 -238 189q-21 16 -39 36v-428q0 -7 6 -13t12 -5h822q7 0 12 5t6 13zM929 597v14l-2 14l-3 5q-3 5 -5 4t-8 2h-822q-7 0 -12 -6t-6 -12
q0 -94 83 -159q107 -84 223 -176q4 -3 20 -17t25 -21t25 -17t28 -16t24 -5h2q11 0 24 5t28 16t25 17t25 21t20 17q116 92 224 176q30 24 56 65t26 73zM1000 618v-607q0 -37 -26 -63t-63 -27h-822q-36 0 -63 27t-26 63v607q0 37 26 63t63 26h822q37 0 63 -26t26 -63z" />
    <glyph glyph-name="twitter" unicode="&#xe81b;" horiz-adv-x="928" 
d="M904 622q-37 -54 -90 -93v-23q0 -73 -21 -145t-64 -139t-103 -117t-144 -82t-181 -30q-151 0 -276 81q19 -2 43 -2q126 0 224 77q-59 1 -105 36t-64 89q19 -3 34 -3q24 0 48 6q-63 13 -104 62t-41 115v2q38 -21 82 -23q-37 25 -59 64t-22 87t25 90q68 -83 164 -133
t208 -55q-5 21 -5 41q0 75 53 127t127 53q79 0 132 -57q61 12 115 44q-21 -64 -80 -100q52 6 104 28z" />
    <glyph glyph-name="search" unicode="&#xe81c;" 
d="M746 209l254 -255l-105 -105l-254 254q-106 -72 -232 -72q-169 0 -289 120t-120 289t120 289t289 120t289 -120t120 -289q0 -127 -72 -231zM681 440q0 113 -79 193t-193 80t-193 -80t-80 -193t80 -192t193 -80t193 80t79 192z" />
    <glyph glyph-name="outlook" unicode="&#xe81d;" 
d="M687 385l258 174q0 14 -10 25t-20 10h-294v-172l60 -37q1 -1 3 -1t3 1zM692 321q-3 -1 -5 -2q-7 -2 -12 2l-54 37v-233h278q20 0 33 13t13 36v315l-130 -86q-129 -86 -123 -82zM329 247q28 0 44 25t16 69t-16 71q-15 25 -43 25t-44 -26t-17 -69t17 -69t43 -26zM71 10
l510 -107v877l-510 -99v-671zM246 452q32 43 86 43q51 0 82 -41t31 -111t-32 -111t-84 -43t-84 42t-32 107q0 71 33 114z" />
    <glyph glyph-name="coffee" unicode="&#xe81e;" horiz-adv-x="1071" 
d="M929 493q0 45 -32 76t-76 31h-35v-214h35q45 0 76 31t32 76zM0 64h1000q0 -59 -42 -101t-101 -42h-714q-59 0 -101 42t-42 101zM1036 493q0 -89 -63 -152t-152 -62h-35v-18q0 -52 -37 -88t-88 -37h-393q-51 0 -88 37t-37 88v410q0 15 11 26t25 10h642q89 0 152 -63
t63 -151z" />
    <glyph glyph-name="ok" unicode="&#xe81f;" horiz-adv-x="920" 
d="M0 339q0 -35 24 -60l246 -239q24 -25 60 -25t60 25l505 495q25 24 25 59t-25 59t-60 24t-60 -25l-445 -435l-185 181q-25 24 -60 24t-60 -24t-25 -59z" />
    <glyph glyph-name="cancel" unicode="&#xe820;" horiz-adv-x="686" 
d="M0 90q0 36 26 62l195 195l-195 196q-26 25 -26 61t26 61t61 25t61 -25l196 -196l195 196q25 25 61 25t61 -25t25 -61t-25 -61l-195 -196l195 -195q25 -26 25 -62t-25 -61t-61 -25t-61 25l-195 195l-196 -195q-25 -25 -61 -25t-61 26t-26 60z" />
    <glyph glyph-name="desktop" unicode="&#xe821;" horiz-adv-x="1071" 
d="M1000 296v465q0 7 -5 12t-13 6h-893q-7 0 -12 -6t-6 -12v-465q0 -7 6 -12t12 -5h893q7 0 13 5t5 12zM1071 761v-607q0 -37 -26 -63t-63 -27h-303q0 -20 9 -43t17 -40t9 -24q0 -14 -10 -25t-25 -11h-286q-15 0 -25 11t-11 25q0 8 9 25t18 39t9 43h-304q-36 0 -63 27
t-26 63v607q0 37 26 63t63 26h893q37 0 63 -26t26 -63z" />
    <glyph glyph-name="laptop" unicode="&#xe822;" horiz-adv-x="1071" 
d="M232 136q-37 0 -63 26t-26 63v393q0 37 26 63t63 26h607q37 0 63 -26t27 -63v-393q0 -37 -27 -63t-63 -26h-607zM214 618v-393q0 -7 6 -13t12 -5h607q8 0 13 5t5 13v393q0 7 -5 12t-13 6h-607q-7 0 -12 -6t-6 -12zM982 100h89v-54q0 -22 -26 -37t-63 -16h-893
q-36 0 -63 16t-26 37v54h982zM580 46q9 0 9 9t-9 9h-89q-9 0 -9 -9t9 -9h89z" />
    <glyph glyph-name="tablet" unicode="&#xe823;" horiz-adv-x="642" 
d="M357 64q0 15 -10 25t-26 11t-25 -11t-10 -25t10 -25t25 -10t26 10t10 25zM571 154v535q0 8 -5 13t-12 5h-465q-7 0 -12 -5t-6 -13v-535q0 -8 6 -13t12 -5h465q7 0 12 5t5 13zM643 689v-607q0 -37 -26 -63t-63 -26h-465q-36 0 -63 26t-26 63v607q0 37 26 63t63 27h465
q36 0 63 -27t26 -63z" />
    <glyph glyph-name="mobile" unicode="&#xe824;" horiz-adv-x="428" 
d="M259 64q0 19 -13 32t-32 13t-31 -13t-13 -32t13 -31t31 -13t32 13t13 31zM375 154v392q0 8 -5 13t-13 5h-286q-7 0 -12 -5t-5 -13v-392q0 -8 5 -13t12 -5h286q7 0 13 5t5 13zM268 627q0 9 -9 9h-89q-9 0 -9 -9t9 -9h89q9 0 9 9zM429 636v-572q0 -29 -22 -50t-50 -21h-286
q-29 0 -50 21t-21 50v572q0 29 21 50t50 21h286q29 0 50 -21t22 -50z" />
    <glyph glyph-name="fork" unicode="&#xe827;" horiz-adv-x="571" 
d="M161 29q0 22 -16 38t-38 15t-38 -15t-15 -38t15 -38t38 -16t38 16t16 38zM161 671q0 23 -16 38t-38 16t-38 -16t-15 -38t15 -37t38 -16t38 16t16 37zM518 600q0 22 -16 38t-38 16t-38 -16t-15 -38t15 -38t38 -16t38 16t16 38zM571 600q0 -29 -14 -54t-39 -39
q-1 -160 -126 -231q-38 -21 -113 -45q-72 -22 -95 -39t-23 -56v-15q24 -14 39 -39t14 -53q0 -45 -31 -76t-76 -32t-76 32t-31 76q0 29 15 53t39 39v458q-25 14 -39 39t-15 53q0 45 31 76t76 32t76 -32t31 -76q0 -29 -14 -53t-39 -39v-277q30 14 86 31q30 10 49 17t39 17
t33 22t22 29t16 38t5 51q-25 14 -39 39t-15 54q0 45 31 76t76 31t76 -31t31 -76z" />
    <glyph glyph-name="android" unicode="&#xe828;" horiz-adv-x="785" 
d="M275 581q9 0 16 6t6 15t-6 16t-16 6t-15 -6t-6 -16t6 -15t15 -6zM511 581q9 0 15 6t6 15t-6 16t-15 6t-16 -6t-6 -16t6 -15t16 -6zM58 478q23 0 40 -17t16 -40v-240q0 -24 -16 -41t-40 -17t-41 17t-17 41v240q0 23 17 40t41 17zM649 467v-371q0 -26 -18 -44t-43 -18h-42
v-127q0 -24 -16 -40t-41 -17t-41 17t-17 40v127h-77v-127q0 -24 -16 -40t-40 -17t-41 17t-17 40l-1 127h-41q-26 0 -43 18t-18 44v371h512zM520 693q59 -30 95 -85t36 -121h-516q0 66 35 121t96 85l-39 73q-4 8 2 12q8 3 12 -4l40 -74q53 24 112 24t112 -24l40 74q4 7 11 4
t3 -12zM786 421v-240q0 -24 -17 -41t-40 -17t-41 17t-17 41v240q0 24 17 40t41 17t40 -17t17 -40z" />
    <glyph glyph-name="apple" unicode="&#xe829;" horiz-adv-x="785" 
d="M777 172q-21 -70 -68 -139q-72 -110 -144 -110q-27 0 -78 18q-48 18 -83 18t-80 -19t-74 -19q-85 0 -167 146t-83 280q0 127 63 208t159 81q40 0 98 -17t77 -17q25 0 81 19t96 19q66 0 119 -36q29 -20 58 -56q-44 -37 -64 -66q-36 -52 -36 -115q0 -69 38 -125t88 -70z
M568 827q0 -34 -16 -76t-53 -77q-30 -30 -60 -40q-20 -7 -58 -10q2 83 44 143t139 83q1 -2 2 -6t1 -6v-6q0 -4 1 -5z" />
    <glyph glyph-name="windows" unicode="&#xe82a;" horiz-adv-x="928" 
d="M381 289v-364l-381 53v311h381zM381 703v-367h-381v315zM929 289v-439l-507 70v369h507zM929 779v-443h-507v373z" />
    <glyph glyph-name="wordpress" unicode="&#xe82b;" 
d="M71 350q0 91 37 175l205 -561q-109 53 -176 157t-66 229zM790 372q0 -11 -2 -22l-5 -27q-3 -16 -7 -25t-9 -33t-10 -32l-43 -143l-155 461l49 4q11 2 15 11t-2 17t-15 8l-115 -6q-42 1 -113 6q-6 0 -11 -3t-6 -9t-1 -10t5 -9t11 -5l44 -4l67 -183l-94 -281l-156 464l49 4
q11 2 15 11t-2 17t-15 8l-115 -6h-13q-9 0 -14 1q58 89 153 141t205 52q82 0 157 -29t133 -84h-6q-31 0 -51 -22t-21 -53q0 -7 1 -14l2 -12q1 -5 5 -13t5 -11t7 -13l23 -38q35 -60 35 -118zM507 313l133 -361q0 -4 2 -7q-70 -24 -142 -24q-62 0 -121 18zM876 556
q53 -97 53 -206q0 -117 -58 -215t-156 -156l132 379q33 94 33 154q0 23 -4 44zM500 850q102 0 194 -40t160 -106t106 -160t40 -194t-40 -194t-106 -160t-160 -106t-194 -40t-194 40t-160 106t-106 160t-40 194t40 194t106 160t160 106t194 40zM500 -127q97 0 185 38t152 102
t102 152t38 185t-38 185t-102 152t-152 102t-185 38t-185 -38t-152 -102t-102 -152t-38 -185t38 -185t102 -152t152 -102t185 -38z" />
    <glyph glyph-name="arrow-left" unicode="&#xe82c;" horiz-adv-x="938" 
d="M0 353l390 391q19 18 44 18t43 -18t18 -44t-18 -43l-243 -243h642q25 0 43 -18t18 -43t-18 -43t-43 -18h-642l243 -243q18 -18 18 -44t-18 -43t-43 -18t-44 18z" />
    <glyph glyph-name="arrow-right" unicode="&#xe82d;" horiz-adv-x="938" 
d="M0 347q0 26 18 43t43 17h642l-242 244q-19 18 -19 44t19 42q17 19 42 19t44 -19l390 -390l-390 -391q-20 -18 -44 -18t-42 18t-19 44t19 43l242 242h-642q-25 0 -43 18t-18 44z" />
    <glyph glyph-name="qq" unicode="&#xe82e;" 
d="M151 400q-5 11 -5 29q0 11 6 28t14 25q-1 12 4 29t13 24q0 78 51 161t122 117q77 37 180 37q75 0 149 -31q27 -11 50 -26t40 -32t30 -38t24 -41t18 -47t14 -50t12 -55l1 -2q31 -47 31 -84q0 -8 -5 -23t-5 -21v-2q0 -2 2 -2t1 -2q43 -64 68 -120t24 -116q0 -24 -11 -56
t-31 -32q-5 0 -11 4t-10 10t-11 14t-9 15t-7 15t-5 9t-2 1l-3 -2q-33 -86 -74 -125q12 -11 35 -21t38 -23t20 -37q-1 -2 -2 -9t-4 -10q-36 -54 -169 -54q-29 0 -61 5t-55 11t-58 17l-13 4q-8 2 -26 3t-22 0q-23 -25 -71 -36t-94 -11q-20 0 -39 1t-52 5t-56 11t-42 23t-18 35
q0 23 6 33t23 28q6 1 22 7t28 7l8 1q1 1 1 2l-1 2q-27 6 -60 58t-41 88l-3 2q-2 0 -7 -12q-10 -23 -30 -41t-43 -21h-1q-2 0 -3 2t-3 3q-13 31 -13 56q0 154 141 260z" />
    <glyph glyph-name="linkedin" unicode="&#xe82f;" horiz-adv-x="857" 
d="M195 501v-553h-184v553h184zM207 672q0 -41 -29 -68t-75 -27h-1q-46 0 -74 27t-28 68t29 68t75 27t74 -27t29 -68zM857 265v-317h-183v296q0 59 -23 92t-71 33q-35 0 -58 -19t-36 -48q-6 -17 -6 -45v-309h-184q1 223 1 361v165l-1 27h184v-80h-1q11 18 23 31t31 29t49 24
t64 9q95 0 153 -63t58 -186z" />
    <glyph glyph-name="html5" unicode="&#xe830;" horiz-adv-x="785" 
d="M631 517l9 98h-494l26 -298h342l-12 -128l-110 -29l-110 29l-7 78h-97l12 -155l202 -55h2l200 55l28 304h-359l-8 101h376zM0 779h786l-72 -803l-322 -90l-321 90z" />
    <glyph glyph-name="instagram" unicode="&#xe831;" horiz-adv-x="857" 
d="M571 350q0 59 -41 101t-101 42t-101 -42t-42 -101t42 -101t101 -42t101 42t41 101zM648 350q0 -91 -64 -156t-155 -64t-156 64t-64 156t64 156t156 64t155 -64t64 -156zM709 579q0 -21 -15 -36t-37 -15t-36 15t-15 36t15 36t36 15t37 -15t15 -36zM429 702h-43h-59
q-20 0 -54 -2t-57 -5t-40 -11q-28 -11 -49 -32t-33 -49q-6 -16 -10 -40t-6 -58t-1 -53t0 -59t0 -43t0 -43t0 -59t1 -53t6 -58l10 -40q12 -28 33 -49t49 -32q16 -6 40 -11t57 -5t54 -2t59 0t43 0t42 0t59 0t54 2t58 5t39 11q28 11 50 32t32 49q6 16 10 40t6 58t1 53t0 59
t0 43t0 43t0 59t-1 53t-6 58l-10 40q-11 28 -32 49t-50 32q-16 6 -39 11t-58 5t-54 2t-59 0t-42 0zM857 350q0 -128 -3 -177q-5 -116 -69 -180t-179 -69q-50 -3 -177 -3t-177 3q-116 6 -180 69t-69 180q-3 49 -3 177t3 177q5 116 69 180t180 69q49 3 177 3t177 -3
q116 -6 179 -69t69 -180q3 -49 3 -177z" />
    <glyph glyph-name="joomla" unicode="&#xe832;" horiz-adv-x="857" 
d="M597 251l-89 -89l-101 -102q-36 -35 -85 -48t-95 -1q-9 -39 -41 -65t-72 -25q-47 0 -80 34t-34 81q0 41 25 72t63 40q-12 48 1 97t49 84l7 7l84 -85l-6 -6q-21 -21 -21 -50t21 -49t49 -21t50 20l101 102l90 89zM407 632l7 -7l-85 -85l-7 7q-21 21 -50 21t-49 -21t-21 -50
t21 -50l190 -190l-84 -85l-90 89l-101 102q-38 37 -50 89t2 100q-39 8 -64 40t-25 72q0 47 34 81t81 34q42 0 74 -28t39 -68q47 11 94 -2t84 -49zM857 36q0 -47 -33 -81t-81 -34q-41 0 -73 27t-40 66q-48 -16 -100 -4t-90 50l-6 7l84 85l7 -7q20 -20 49 -20t50 20t21 50
t-21 50l-17 16l-174 174l85 85l174 -174l16 -17q36 -35 49 -84t1 -95q43 -6 71 -39t28 -75zM856 664q0 -43 -28 -76t-71 -38q14 -48 1 -99t-50 -88l-6 -7l-85 85l7 7q21 20 21 49t-21 50t-50 21t-49 -21l-191 -191l-85 85l90 89l85 85l16 17q37 37 89 50t99 -2q6 42 38 70
t76 29q47 0 81 -34t33 -81z" />
    <glyph glyph-name="drupal" unicode="&#xe833;" horiz-adv-x="857" 
d="M651 -35q-3 11 -13 3q-17 -13 -49 -22t-73 -10q-72 0 -107 28q-3 2 -8 2t-14 -7q-4 -3 -4 -9t4 -11q19 -18 49 -25t57 -7t55 2q23 2 47 12t36 16t16 12q7 6 4 16zM630 29q-11 26 -22 34q-13 9 -43 9q-26 0 -39 -6q-16 -7 -44 -31q-14 -14 -7 -25q6 -4 10 -2t18 13
q2 1 6 5t6 4t5 4t7 4t7 3t8 2t9 2t12 0q15 0 24 -4t13 -8t8 -12q5 -10 7 -11t7 0q13 7 8 19zM828 186q0 12 -3 25t-9 25t-19 20t-30 8t-54 -23t-72 -47t-56 -23q-15 -1 -36 11t-42 27t-47 32t-55 28t-62 10q-64 0 -110 -44t-47 -99q-1 -63 41 -92q16 -11 35 -16t58 -4
q32 0 73 18t75 39t67 40t52 17q15 -1 36 -18t40 -37t38 -38t31 -17q20 -2 33 7t31 35q15 23 24 57t8 59zM857 275q0 -91 -34 -170t-93 -131t-135 -84t-162 -30t-164 32t-138 88t-95 135t-36 168q0 50 11 96t27 82t40 66t43 52t44 39t36 26t24 14l59 30q11 6 27 17t33 25
q20 15 33 40t16 70q72 -86 104 -108q25 -16 73 -38t72 -36q12 -8 22 -14t33 -26t43 -40t42 -53t38 -68t26 -83t11 -99z" />
    <glyph glyph-name="dropbox" unicode="&#xe834;" 
d="M224 456l276 -171l-191 -159l-273 178zM775 146v-60l-274 -164v-1v1l-1 -1v1l-273 164v60l82 -54l191 159v1l1 -1v1v-1l192 -159zM309 784l191 -159l-276 -169l-188 150zM776 456l188 -152l-273 -178l-191 159zM691 784l273 -178l-188 -150l-276 169z" />
    <glyph glyph-name="arrow-up" unicode="&#xe835;" horiz-adv-x="817" 
d="M0 354q0 26 18 44l391 390l390 -390q18 -18 18 -44t-18 -43t-43 -18t-43 18l-243 243v-642q0 -25 -18 -43t-43 -18t-44 18t-17 43v642l-244 -243q-18 -18 -43 -18t-43 18t-18 43z" />
    <glyph glyph-name="arrow-down" unicode="&#xe836;" horiz-adv-x="817" 
d="M0 283q0 25 18 43t44 18t42 -18l244 -243v642q0 25 18 43t43 18t43 -18t18 -43v-642l243 243q18 18 43 18t43 -18t18 -43t-18 -44l-390 -390l-391 390q-18 20 -18 44z" />
    <glyph glyph-name="github" unicode="&#xe837;" horiz-adv-x="928" 
d="M357 171q0 -22 -7 -45t-24 -43t-40 -19t-41 19t-24 43t-7 45t7 46t24 43t41 19t40 -19t24 -43t7 -46zM714 171q0 -22 -7 -45t-24 -43t-40 -19t-41 19t-24 43t-7 45t7 46t24 43t41 19t40 -19t24 -43t7 -46zM804 171q0 67 -39 114t-104 47q-23 0 -109 -12q-40 -6 -88 -6
t-87 6q-85 12 -109 12q-66 0 -104 -47t-39 -114q0 -49 18 -85t45 -58t68 -33t78 -17t83 -4h94q46 0 83 4t78 17t69 33t45 58t18 85zM929 270q0 -116 -34 -185q-22 -43 -59 -74t-79 -48t-95 -27t-96 -12t-93 -3q-43 0 -79 2t-82 7t-85 17t-77 29t-67 45t-48 64
q-35 69 -35 185q0 132 76 221q-15 45 -15 95q0 64 28 121q61 0 106 -22t106 -69q82 20 172 20q83 0 157 -18q58 46 104 67t105 22q29 -57 29 -121q0 -49 -15 -94q76 -89 76 -222z" />
    <glyph glyph-name="codeopen" unicode="&#xe838;" 
d="M121 198l336 -225v201l-186 124zM86 278l108 72l-108 72v-144zM543 -27l337 225l-151 100l-186 -124v-201zM500 248l152 102l-152 102l-152 -102zM271 402l186 124v201l-336 -225zM806 350l108 -72v144zM729 402l151 100l-337 225v-201zM1000 502v-304q0 -23 -19 -36
l-457 -305q-12 -7 -24 -7t-24 7l-457 305q-19 13 -19 36v304q0 23 19 36l457 305q12 7 24 7t24 -7l457 -305q19 -13 19 -36z" />
    <glyph glyph-name="pinterest" unicode="&#xe839;" horiz-adv-x="714" 
d="M0 517q0 60 21 113t58 93t85 69t103 44t113 14q88 0 164 -37t123 -108t47 -160q0 -54 -10 -105t-34 -99t-56 -83t-80 -58t-106 -21q-38 0 -75 18t-54 49l-15 -63q-10 -41 -14 -53t-11 -40t-15 -39t-17 -35t-26 -44t-35 -48l-7 -3l-5 6q-9 88 -9 105q0 51 12 115t37 161
l29 113q-18 36 -18 94q0 47 29 87t74 41q34 0 53 -23t19 -57q0 -37 -24 -106t-24 -104t24 -59t61 -23q31 0 57 14t44 38t31 53t21 61t11 62t4 56q0 96 -61 150t-160 54q-111 0 -186 -72t-75 -183q0 -25 7 -48t15 -36t15 -26t7 -17q0 -15 -8 -40t-21 -25l-9 1q-29 9 -51 31
t-34 53t-18 60t-6 60z" />
    <glyph glyph-name="picture" unicode="&#xe83a;" horiz-adv-x="1071" 
d="M357 529q0 -45 -31 -76t-76 -32t-76 32t-31 76t31 76t76 31t76 -31t31 -76zM929 314v-250h-786v107l178 179l90 -89l285 285zM982 707h-893q-7 0 -12 -5t-6 -13v-678q0 -7 6 -13t12 -5h893q7 0 13 5t5 13v678q0 8 -5 13t-13 5zM1071 689v-678q0 -37 -26 -63t-63 -27h-893
q-36 0 -63 27t-26 63v678q0 37 26 63t63 27h893q37 0 63 -27t26 -63z" />
    <glyph glyph-name="github-circled" unicode="&#xe83b;" horiz-adv-x="857" 
d="M429 779q116 0 215 -58t156 -156t57 -215q0 -140 -82 -252t-211 -155q-15 -3 -22 4t-7 17v118q0 54 -29 79q32 3 57 10t53 22t45 37t30 58t11 84q0 67 -44 115q21 51 -4 114q-16 5 -46 -6t-51 -25l-21 -13q-52 15 -107 15t-108 -15q-8 6 -23 15t-47 22t-47 7
q-25 -63 -5 -114q-44 -48 -44 -115q0 -47 12 -83t29 -59t45 -37t52 -22t57 -10q-21 -20 -27 -58q-12 -5 -25 -8t-32 -3t-36 12t-31 35q-11 18 -27 29t-28 14l-11 1q-12 0 -16 -2t-3 -7t5 -8t7 -6l4 -3q12 -6 24 -21t18 -29l6 -13q7 -21 24 -34t37 -17t39 -3t31 1l13 3v-50
q0 -28 1 -30q0 -10 -8 -17t-22 -4q-129 43 -211 155t-82 252q0 117 58 215t155 156t216 58zM162 163q2 4 -3 7q-6 1 -8 -1q-1 -4 4 -7t7 1zM180 144q4 3 -1 9t-9 2t1 -9t9 -2zM196 119q6 4 1 11t-10 4t0 -11t9 -4zM220 96q4 4 -2 11t-11 1t2 -11t11 -1zM252 82q1 6 -7 9
t-11 -4t7 -9t11 4zM287 79q0 7 -9 7t-10 -7t10 -6t9 6zM319 84q-1 7 -10 6t-8 -9t10 -4t8 7z" />
    <glyph glyph-name="ios" unicode="&#xe83c;" 
d="M171 442h6v-296h-83v296h77zM136 561q-20 0 -33 -12t-13 -32t13 -32t33 -13t32 13t13 32t-12 32t-33 12zM609 353q0 -64 -24 -112t-68 -75t-103 -27q-54 0 -96 27t-67 73t-24 108t25 110t68 75t100 27t99 -26t67 -72t23 -108zM522 350q0 56 -25 96q-29 44 -78 44t-77 -39
t-29 -104q0 -62 29 -100t76 -39t76 39t28 103zM805 386q-41 16 -55 27q-17 13 -17 33q0 17 14 29q16 13 46 13q41 0 77 -18l5 -3l19 64l1 5l-3 2q-42 20 -97 20q-64 0 -105 -33t-41 -86q0 -41 28 -70t83 -50q36 -14 51 -27t15 -35t-17 -35t-49 -13q-26 0 -53 8q-23 7 -40 17
l-6 3l-2 -6l-17 -64l3 -2q19 -11 50 -18t60 -8q54 0 91 19q33 17 49 48q15 26 15 57q0 43 -25 73t-80 50z" />
    <glyph glyph-name="onedrive" unicode="&#xe83d;" 
d="M910 193q0 -36 -25 -61t-62 -26h-443q-44 0 -75 31t-31 75t31 75t75 31h12q1 39 21 72t53 51t72 19t70 -17t51 -47q24 12 53 12q32 0 60 -16t44 -44t16 -60q0 -5 -1 -8q34 -3 57 -28t22 -59zM365 348q8 40 33 73t62 51t78 18q38 0 72 -15t59 -43q21 6 43 6v0
q-5 44 -29 80t-63 56t-83 20q-50 0 -92 -26t-64 -70q-30 16 -63 16t-63 -17t-46 -46t-17 -63q0 -18 4 -31q-44 -1 -75 -33t-31 -77q0 -30 15 -56t41 -41t55 -15h66q-23 34 -23 77q0 52 35 91t86 45z" />
    <glyph glyph-name="download" unicode="&#xe83e;" horiz-adv-x="928" 
d="M714 100q0 15 -10 25t-25 11t-25 -11t-11 -25t11 -25t25 -11t25 11t10 25zM857 100q0 15 -10 25t-26 11t-25 -11t-10 -25t10 -25t25 -11t26 11t10 25zM929 225v-179q0 -22 -16 -37t-38 -16h-821q-23 0 -38 16t-16 37v179q0 22 16 38t38 16h259l75 -76q33 -32 76 -32
t76 32l76 76h259q22 0 38 -16t16 -38zM747 543q10 -23 -8 -39l-250 -250q-10 -11 -25 -11t-25 11l-250 250q-17 16 -8 39q10 21 33 21h143v250q0 15 11 25t25 11h143q14 0 25 -11t10 -25v-250h143q24 0 33 -21z" />
    <glyph glyph-name="upload" unicode="&#xe83f;" horiz-adv-x="928" 
d="M714 29q0 14 -10 25t-25 10t-25 -10t-11 -25t11 -25t25 -11t25 11t10 25zM857 29q0 14 -10 25t-26 10t-25 -10t-10 -25t10 -25t25 -11t26 11t10 25zM929 154v-179q0 -22 -16 -38t-38 -16h-821q-23 0 -38 16t-16 38v179q0 22 16 38t38 15h238q12 -31 39 -51t62 -20h143
q34 0 61 20t40 51h238q22 0 38 -15t16 -38zM747 515q-9 -22 -33 -22h-143v-250q0 -15 -10 -25t-25 -11h-143q-15 0 -25 11t-11 25v250h-143q-23 0 -32 22t7 39l250 250q10 10 25 10t25 -10l250 -250q18 -17 8 -39z" />
    <glyph glyph-name="down-open" unicode="&#xf004;" horiz-adv-x="817" 
d="M0 533q0 25 18 43t44 18t42 -18l305 -303l304 303q18 18 43 18t43 -18t18 -43t-18 -43l-390 -391l-391 391q-18 19 -18 43z" />
    <glyph glyph-name="up-open" unicode="&#xf005;" horiz-adv-x="816" 
d="M0 167q0 26 18 43l391 391l390 -391q17 -17 17 -43t-17 -43t-44 -18t-43 17l-303 305l-305 -305q-18 -17 -43 -17t-43 18t-18 43z" />
    <glyph glyph-name="right-open" unicode="&#xf006;" horiz-adv-x="495" 
d="M0 0q0 25 18 43l305 304l-305 304q-18 18 -18 44t18 43t44 18t43 -18l390 -391l-390 -391q-19 -18 -43 -18t-43 18t-19 44z" />
    <glyph glyph-name="left-open" unicode="&#xf007;" horiz-adv-x="495" 
d="M0 353l391 391q18 18 43 18t43 -18t18 -44t-18 -43l-304 -304l304 -305q18 -17 18 -43t-18 -44t-43 -17t-43 18z" />
    <glyph glyph-name="gplus" unicode="&#xf0d5;" horiz-adv-x="1285" 
d="M802 341q0 -117 -49 -207t-138 -142t-206 -51q-83 0 -159 32t-131 87t-87 131t-32 159t32 159t87 131t131 87t159 32q160 0 274 -107l-111 -107q-65 63 -163 63q-69 0 -127 -34t-92 -94t-34 -130t34 -130t92 -94t127 -34q46 0 85 13t64 32t44 43t27 47t12 41h-232v141
h386q7 -36 7 -68zM1286 409v-118h-117v-116h-117v116h-117v118h117v116h117v-116h117z" />
    <glyph glyph-name="comment-empty" unicode="&#xf0e5;" 
d="M500 636q-114 0 -213 -39t-157 -105t-59 -142q0 -62 40 -119t113 -98l48 -28l-15 -53q-13 -51 -39 -97q85 36 154 96l24 21l32 -3q38 -5 72 -5q114 0 213 39t157 105t59 142t-59 142t-157 105t-213 39zM1000 350q0 -97 -67 -179t-182 -130t-251 -48q-39 0 -81 4
q-110 -97 -257 -135q-27 -8 -63 -12h-3q-8 0 -15 6t-9 15v1q-2 2 0 6t1 6t2 5l12 15q4 5 17 19l20 22q7 8 17 22t18 28t15 33l15 42q-88 50 -138 123t-51 157q0 97 67 179t182 130t251 48t251 -48t182 -130t67 -179z" />
    <glyph glyph-name="bell-alt" unicode="&#xf0f3;" 
d="M509 -96q0 8 -9 8q-33 0 -57 24t-23 57q0 9 -9 9t-9 -9q0 -41 29 -70t69 -28q9 0 9 9zM964 64q0 -29 -21 -50t-50 -21h-250q0 -59 -42 -101t-101 -42t-101 42t-42 101h-250q-29 0 -50 21t-21 50q28 24 51 49t47 67t42 89t27 115t11 145q0 84 66 157t171 89q-5 10 -5 21
q0 23 16 38t38 16t38 -16t16 -38q0 -11 -5 -21q106 -16 171 -89t66 -157q0 -78 11 -145t28 -115t41 -89t48 -67t50 -49z" />
    <glyph glyph-name="help" unicode="&#xf128;" horiz-adv-x="571" 
d="M393 149v-134q0 -9 -7 -15t-15 -7h-134q-9 0 -16 7t-7 15v134q0 9 7 16t16 6h134q9 0 15 -6t7 -16zM569 484q0 -30 -8 -56t-20 -43t-31 -33t-32 -25t-34 -19q-23 -13 -38 -37t-15 -37q0 -10 -7 -18t-16 -9h-134q-8 0 -14 11t-6 20v26q0 46 37 87t79 60q33 16 47 32t14 41
t-26 42t-60 18q-36 0 -60 -16q-20 -14 -60 -64q-7 -9 -17 -9q-7 0 -14 4l-91 70q-8 6 -9 14t3 16q89 148 259 148q45 0 90 -17t81 -46t59 -72t23 -88z" />
    <glyph glyph-name="info" unicode="&#xf129;" horiz-adv-x="357" 
d="M357 100v-71q0 -15 -10 -25t-26 -11h-285q-15 0 -25 11t-11 25v71q0 15 11 25t25 11h35v214h-35q-15 0 -25 11t-11 25v71q0 15 11 25t25 11h214q15 0 25 -11t11 -25v-321h35q15 0 26 -11t10 -25zM286 743v-107q0 -15 -11 -25t-25 -11h-143q-14 0 -25 11t-11 25v107
q0 14 11 25t25 11h143q15 0 25 -11t11 -25z" />
    <glyph glyph-name="attention-alt" unicode="&#xf12a;" horiz-adv-x="357" 
d="M286 154v-125q0 -15 -11 -25t-25 -11h-143q-14 0 -25 11t-11 25v125q0 14 11 25t25 10h143q15 0 25 -10t11 -25zM303 743l-16 -429q-1 -14 -12 -25t-25 -10h-143q-14 0 -25 10t-12 25l-15 429q-1 14 10 25t24 11h179q14 0 25 -11t10 -25z" />
    <glyph glyph-name="skype" unicode="&#xf17e;" horiz-adv-x="857" 
d="M655 257q0 28 -11 51t-27 38t-41 27t-46 19t-49 13l-83 20q-8 2 -19 6t-17 9t-9 12t-4 16q0 43 80 43q24 0 43 -6t30 -16l21 -19q10 -9 23 -16t27 -7q26 0 42 18t16 43q0 31 -32 55t-79 38t-101 13q-38 0 -74 -9t-67 -26t-49 -48t-19 -72q0 -34 10 -60t32 -42t44 -27
t58 -18l81 -20q51 -12 63 -20q18 -11 18 -33t-23 -37t-58 -14q-29 0 -51 9t-37 22t-25 25t-26 21t-30 9q-28 0 -42 -17t-14 -41q0 -52 68 -88t162 -37q41 0 78 10t69 30t49 52t19 74zM857 136q0 -89 -63 -152t-151 -63q-73 0 -131 45q-43 -9 -83 -9q-80 0 -153 31t-126 84
t-83 125t-31 153q0 41 9 84q-45 58 -45 130q0 89 63 152t151 63q73 0 131 -45q43 9 84 9q79 0 152 -31t126 -84t84 -125t30 -153q0 -41 -8 -84q44 -58 44 -130z" />
    <glyph glyph-name="trello" unicode="&#xf181;" horiz-adv-x="857" 
d="M393 100v571q0 8 -5 13t-13 5h-268q-8 0 -13 -5t-5 -13v-571q0 -8 5 -13t13 -5h268q8 0 13 5t5 13zM768 314v357q0 8 -5 13t-13 5h-268q-8 0 -13 -5t-5 -13v-357q0 -7 5 -12t13 -6h268q8 0 13 6t5 12zM857 743v-786q0 -14 -10 -25t-26 -11h-785q-15 0 -25 11t-11 25v786
q0 14 11 25t25 11h785q15 0 26 -11t10 -25z" />
    <glyph glyph-name="wheelchair" unicode="&#xf193;" horiz-adv-x="928" 
d="M571 188l57 -114q-33 -100 -117 -162t-190 -62q-87 0 -161 43t-117 117t-43 161q0 101 58 185t154 117l9 -73q-68 -30 -109 -92t-41 -137q0 -103 74 -176t176 -74q71 0 130 37t92 98t28 132zM877 132l32 -64l-143 -71q-7 -4 -16 -4q-22 0 -32 19l-133 267h-264
q-13 0 -23 9t-12 22l-54 435q-1 9 4 24q7 28 31 46t54 17q37 0 64 -26t26 -63q0 -39 -29 -66t-67 -23l20 -161h236v-72h-227l9 -71h254q23 0 32 -19l127 -254z" />
    <glyph glyph-name="database" unicode="&#xf1c0;" horiz-adv-x="857" 
d="M429 421q132 0 247 24t181 71v-95q0 -38 -57 -71t-157 -52t-214 -19t-215 19t-156 52t-58 71v95q66 -47 181 -71t248 -24zM429 -7q132 0 247 24t181 71v-95q0 -39 -57 -72t-157 -52t-214 -19t-215 19t-156 52t-58 72v95q66 -47 181 -71t248 -24zM429 207q132 0 247 24
t181 71v-95q0 -38 -57 -71t-157 -52t-214 -20t-215 20t-156 52t-58 71v95q66 -47 181 -71t248 -24zM429 850q116 0 214 -19t157 -52t57 -72v-71q0 -39 -57 -72t-157 -52t-214 -19t-215 19t-156 52t-58 72v71q0 39 58 72t156 52t215 19z" />
    <glyph glyph-name="git" unicode="&#xf1d3;" 
d="M332 5q0 56 -92 56q-88 0 -88 -57t96 -58q84 0 84 59zM299 427q0 34 -17 56t-49 23q-69 0 -69 -81q0 -75 69 -75q66 0 66 77zM449 607v-112q-20 -7 -44 -13q9 -24 9 -47q0 -70 -41 -120t-110 -63q-22 -5 -33 -15t-11 -33q0 -17 13 -28t32 -18t44 -12t48 -15t44 -21
t32 -35t13 -55q0 -170 -203 -170q-38 0 -72 7t-65 23t-49 46t-18 71q0 92 102 125v3q-38 22 -38 70q0 61 35 76v3q-40 13 -66 60t-27 93q0 77 53 129t131 51q54 0 100 -26q54 0 121 26zM627 116h-124q2 25 2 74v340q0 53 -2 72h124q-3 -19 -3 -69v-343q0 -49 3 -74zM962 240
v-110q-40 -22 -97 -22q-35 0 -60 12t-39 27t-22 44t-10 51t-2 58v196h1v2h-11q-7 0 -10 1q-12 0 -33 -3v106h54v42q0 30 -4 50h127q-3 -23 -3 -92h95v-106q-8 0 -24 1t-24 1h-47v-204q0 -73 48 -73q34 0 61 19zM641 768q0 -32 -22 -57t-54 -24t-54 24t-22 57t21 57t55 25
t54 -25t22 -57z" />
    <glyph glyph-name="chrome" unicode="&#xf268;" 
d="M498 850q134 1 252 -67q130 -75 196 -208l-414 22q-89 5 -164 -41t-103 -128l-154 236q72 89 174 137t213 49zM82 624l188 -370q40 -80 117 -121t164 -25l-129 -252q-118 19 -214 88t-152 176t-56 230q0 149 82 274zM967 530q32 -84 33 -174t-27 -170t-86 -152t-137 -117
q-128 -74 -278 -66l226 347q49 73 46 162t-59 155zM500 519q70 0 119 -50t50 -119t-50 -119t-119 -49t-119 49t-49 119t49 119t119 50z" />
    <glyph glyph-name="firefox" unicode="&#xf269;" 
d="M504 -150q-158 0 -282 84t-183 222q-33 74 -38 168t15 186t62 174t100 135l-7 -156q7 7 38 8t39 -8q24 45 90 77t131 32q-30 -25 -67 -82t-33 -92q14 -4 35 -7t36 -4l37 -3q22 -2 29 -1q8 -3 5 -26t-17 -42q-3 -4 -9 -10t-32 -20t-56 -19l8 -105l-77 37q-10 -24 -5 -45
t21 -38t36 -23t45 -3q29 5 55 19l47 25q21 11 41 10q34 -2 50 -19t10 -36q0 -1 -1 -3t-5 -7t-10 -9t-17 -5t-26 -1q-34 -53 -81 -76t-117 -16q41 -34 91 -46t94 -3t86 29t71 48t45 58q24 51 22 108t-21 105t-44 70q49 -21 77 -45t43 -62q8 95 -32 191t-117 159
q148 -43 230 -156t84 -289q1 -71 -23 -143t-68 -132t-106 -110t-138 -75t-161 -28z" />
    <glyph glyph-name="opera" unicode="&#xf26a;" 
d="M833 723q-92 61 -200 61q-87 0 -164 -41t-134 -111q-41 -52 -66 -122t-27 -148v-24q2 -78 27 -148t66 -122q57 -71 134 -111t164 -41q108 0 200 61q-67 -60 -153 -94t-180 -33q-16 0 -24 1q-98 4 -186 45t-152 108t-101 157t-37 189q0 102 40 194t106 160t160 106t194 40
h2q93 -1 179 -34t152 -93zM1000 350q0 -107 -43 -202t-119 -166q-58 -35 -124 -35q-76 0 -142 47q86 31 141 130t56 226t-55 225t-141 131q66 46 141 46q67 0 126 -36q76 -70 118 -164t42 -202z" />
    <glyph glyph-name="internet-explorer" unicode="&#xf26b;" 
d="M1000 327q0 -31 -4 -58h-642q0 -81 61 -136t144 -55q55 0 103 26t76 73h236q-31 -89 -95 -157t-149 -106t-179 -37q-105 0 -199 47q-127 -65 -220 -65q-132 0 -132 147q0 64 25 153q10 34 61 128q111 201 265 338q-103 -44 -238 -197q35 153 158 250t280 98h25
q142 65 242 65q35 0 64 -7t53 -23t37 -42t14 -65q0 -64 -42 -159q56 -102 56 -218zM961 684q0 47 -30 74t-76 27q-60 0 -142 -39q68 -26 124 -73t96 -109q28 75 28 120zM71 -6q0 -48 28 -74t75 -26q64 0 148 46q-68 41 -119 103t-77 136q-55 -114 -55 -185zM353 392h406
q-3 79 -63 132t-140 53t-140 -53t-63 -132z" />
    <glyph glyph-name="commenting" unicode="&#xf27a;" 
d="M357 350q0 30 -21 51t-50 20t-51 -20t-21 -51t21 -50t51 -21t50 21t21 50zM571 350q0 30 -20 51t-51 20t-50 -20t-21 -51t21 -50t50 -21t51 21t20 50zM786 350q0 30 -21 51t-51 20t-50 -20t-21 -51t21 -50t50 -21t51 21t21 50zM1000 350q0 -97 -67 -179t-182 -130
t-251 -48q-61 0 -118 10q-96 -97 -242 -128q-29 -6 -48 -7q-7 -1 -13 3t-7 10q-2 9 11 21l28 25q5 4 13 14t13 18t11 20t12 27t8 32t7 41q-82 50 -128 121t-47 150q0 97 67 179t182 130t251 48t251 -48t182 -130t67 -179z" />
    <glyph glyph-name="vimeo" unicode="&#xf27d;" 
d="M954 561q-6 -132 -186 -363q-185 -241 -313 -241q-79 0 -134 147q-25 89 -74 269q-40 146 -87 146q-10 0 -71 -42l-43 54l133 119q87 77 134 81q53 5 85 -31t46 -113q24 -160 37 -208q30 -139 66 -139q29 0 86 90t61 137q8 77 -61 77q-31 0 -67 -14q67 219 256 213
q140 -5 132 -182z" />
    <glyph glyph-name="edge" unicode="&#xf282;" 
d="M39 406v0q9 71 33 135t64 121t93 98t125 66t154 24q129 0 231 -59t165 -169q58 -105 58 -247v-105h-628q0 -62 30 -107t76 -69t106 -31t118 -2t116 26t97 47v-210q-51 -31 -128 -52t-174 -21t-177 30q-105 40 -173 139t-70 207q-1 135 62 230t181 150q-26 -34 -43 -70
t-26 -89h355q4 43 -5 78t-26 56t-39 38t-45 22t-42 12t-31 5h-13q-75 -3 -145 -25t-124 -58t-98 -78t-77 -92z" />
    <glyph glyph-name="gitlab" unicode="&#xf296;" 
d="M58 456l442 -566l-484 351q-10 7 -14 19t0 24zM316 456h368l-184 -566zM205 798l111 -342h-258l111 342q4 12 18 12t18 -12zM942 456l56 -172q4 -12 0 -24t-14 -19l-484 -351zM942 456h-258l111 342q4 12 18 12t19 -12z" />
    <glyph glyph-name="viadeo" unicode="&#xf2a9;" horiz-adv-x="714" 
d="M586 233q0 -120 -82 -209t-211 -90t-211 90t-82 209q0 82 38 151t105 109t150 41q54 0 102 -17q-18 -35 -22 -70q-37 15 -80 15q-93 0 -157 -68t-63 -163t63 -161t157 -66t157 66t62 161q0 50 -18 93q37 7 69 27q23 -55 23 -118zM472 338q0 -107 -44 -192t-133 -141
l-8 -1q-16 0 -35 3q47 18 82 57t56 86t32 106t17 107t4 100q0 38 -2 57q31 -89 31 -182zM441 521v-1q-40 120 -114 246q49 -33 79 -104t35 -141zM578 408q-47 0 -90 42q122 67 162 138q11 20 12 31q-24 -52 -78 -93t-114 -54q-20 30 -20 63q0 20 10 44t24 38q26 24 87 41
q33 9 60 33t41 56q41 -59 41 -141q0 -61 -13 -95q-18 -43 -50 -73t-72 -30z" />
    <glyph glyph-name="snapchat-ghost" unicode="&#xf2ac;" horiz-adv-x="928" 
d="M473 779q75 0 134 -39t92 -107q15 -32 15 -100q0 -26 -5 -106q8 -4 15 -4q10 0 29 7t28 8q16 0 32 -10t15 -26q0 -18 -18 -30t-38 -18t-39 -16t-18 -26q0 -9 7 -24q21 -46 57 -84t81 -57q16 -6 45 -12q15 -4 15 -20q0 -39 -122 -57q-4 -6 -6 -22t-8 -26t-17 -10t-36 3
l-36 4q-20 0 -34 -3q-18 -3 -35 -13t-33 -21l-32 -22q-16 -11 -43 -19t-55 -8t-54 8t-41 19l-65 43q-15 10 -35 13q-14 3 -35 3q-13 0 -36 -4t-33 -5q-14 0 -19 11t-8 26t-6 23q-123 18 -123 57q0 16 16 20q29 6 45 12q43 18 80 57t58 84q6 15 6 24q0 15 -17 26t-39 17
t-39 17t-18 29q0 15 15 26t31 10q8 0 26 -7t29 -7t19 4q-5 79 -5 106q0 68 15 100q36 76 96 110t147 36z" />
  </font>
</defs>
</svg>
