<?xml version="1.0" standalone="no"?>
<!DOCTYPE svg PUBLIC "-//W3C//DTD SVG 20010904//EN"
 "http://www.w3.org/TR/2001/REC-SVG-20010904/DTD/svg10.dtd">
<svg version="1.0" xmlns="http://www.w3.org/2000/svg"
 width="512.000000pt" height="512.000000pt" viewBox="0 0 512.000000 512.000000"
 preserveAspectRatio="xMidYMid meet">
<metadata>
Created by potrace 1.11, written by Peter Selinger 2001-2013
</metadata>
<g transform="translate(0.000000,512.000000) scale(0.100000,-0.100000)"
fill="#000000" stroke="none">
<path d="M2893 4356 c-23 -6 -49 -18 -57 -26 -8 -8 -25 -53 -39 -100 -14 -47
-36 -116 -48 -155 -11 -38 -25 -83 -29 -100 -4 -16 -76 -262 -160 -545 -83
-283 -179 -607 -212 -720 -33 -113 -80 -272 -104 -355 -50 -168 -60 -202 -139
-470 -31 -104 -63 -212 -71 -240 -22 -68 -65 -216 -69 -235 -2 -8 -12 -44 -23
-80 -17 -55 -70 -229 -89 -294 -5 -18 2 -18 148 -14 94 3 164 10 180 18 31 14
42 36 68 129 11 36 31 107 46 156 15 50 28 95 29 100 2 6 9 30 16 55 7 25 15
50 16 55 2 6 23 78 48 160 63 215 91 310 143 485 25 85 49 169 55 185 5 17 11
37 13 45 2 8 11 40 20 70 9 30 18 62 20 70 2 8 103 353 225 765 122 413 235
797 251 855 17 58 37 124 45 148 8 23 14 45 14 48 0 9 -254 1 -297 -10z"/>
<path d="M1390 2879 c-132 -65 -392 -191 -885 -429 -161 -78 -207 -114 -225
-179 -19 -69 -10 -146 27 -232 17 -40 11 -36 258 -144 72 -32 148 -65 170 -75
522 -234 705 -310 751 -310 59 0 135 112 149 218 6 51 6 51 -27 65 -18 8 -53
24 -78 35 -36 16 -427 190 -752 335 -27 11 -48 23 -48 26 0 3 89 49 198 102
587 288 673 332 684 352 20 37 15 117 -12 169 -28 56 -77 118 -93 118 -7 0
-59 -23 -117 -51z"/>
<path d="M3526 2869 c-47 -37 -105 -163 -106 -230 0 -10 41 -33 123 -69 67
-29 160 -71 207 -93 46 -21 161 -72 255 -114 93 -41 195 -86 225 -100 30 -14
68 -30 85 -38 33 -14 74 8 -628 -333 -204 -100 -229 -114 -241 -143 -8 -18
-12 -49 -11 -70 4 -47 46 -136 87 -182 l33 -37 160 78 c1067 522 1005 490
1040 542 28 41 30 52 29 130 0 66 -5 97 -23 137 -20 46 -29 54 -79 76 -102 45
-946 418 -977 432 -38 17 -104 35 -131 35 -12 0 -33 -9 -48 -21z"/>
</g>
</svg>
