<?xml version="1.0" encoding="utf-8"?>
<svg xmlns="http://www.w3.org/2000/svg">
<symbol id="accor" viewBox="0 0 84.72 40.05"><defs><style>.cls-1{fill:#6c6c6c;}</style></defs><title>Fichier 1</title><g id="Calque_2" data-name="Calque 2"><g id="Calque_1-2" data-name="Calque 1"><path class="cls-1" d="M0,40s25.5.88,38.75-4.62,14.13-10.87,28.88-14,16.13-1.25,17-2.12-4.87-2.37-4.87-2.37-1.12-2.75-3.87-2.75S71,14.88,67.63,16s-8.25,6.13-18.12,4.13c0,0-3.87-8.5-15-11.87S21,8.88,2.13,0c0,0,3.25,12,15.5,22.75,5.64,4.95,4.25,6.5,4.25,6.5S22.38,33,0,40Z"/></g></g>
</symbol>
<symbol id="acf" viewBox="0 0 118.83 140.16"><defs><style>.cls-1{fill:#70bd4c;}</style></defs><title>path14685</title><g id="Calque_2" data-name="Calque 2"><g id="Calque_1-2" data-name="Calque 1"><path id="path14685" class="cls-1" d="M64,140.16V104s45.26-9,54.79-52.26c-10,2.38-29.06,10-29.06,10V20.9S76.42,34.68,72.13,48c1.43,0-5.72-13.78-5.72-13.78s-6,10.11-7.56,13.06C59.23,24.57,49.26,0,49.26,0s-5.72,25.66-6.19,47.51c-.48,1.9-21-24.23-21-24.23l.48,34.21L.19,39.91S-6,83.62,53.07,100.25v39.91Z"/></g></g>
</symbol>
<symbol id="actforair" viewBox="0 0 512 512"><path d="M398.1,233.2c0-1.2,0.2-2.4,0.2-3.6c0-65-51.8-117.6-115.7-117.6c-46.1,0-85.7,27.4-104.3,67c-8.1-4.1-17.2-6.5-26.8-6.5  c-29.5,0-54.1,21.9-58.8,50.5C57.3,235.2,32,269.1,32,309c0,50.2,40.1,90.9,89.5,91h276.7l0,0c45.2-0.2,81.7-37.5,81.7-83.4  C480,270.6,443.3,233.3,398.1,233.2z"/>
</symbol>
<symbol id="android" viewBox="0 0 56.693 56.693"><g><path d="M35.021,8.568l0.547-0.819l0.537-0.808l1.209-1.813c0.148-0.223,0.088-0.523-0.133-0.672   c-0.225-0.149-0.525-0.089-0.674,0.135l-1.295,1.944l-0.545,0.817L34.114,8.18c-1.752-0.679-3.705-1.06-5.768-1.06   c-2.061,0-4.014,0.381-5.766,1.06L22.03,7.352l-0.545-0.817L20.188,4.59c-0.148-0.223-0.449-0.283-0.673-0.135   c-0.222,0.148-0.282,0.449-0.134,0.672l1.208,1.813l0.539,0.808l0.547,0.819c-4.115,1.916-6.898,5.546-6.898,9.701h27.142   C41.919,14.114,39.136,10.484,35.021,8.568z M22.532,14.391c-0.805,0-1.455-0.651-1.455-1.454s0.65-1.453,1.455-1.453   c0.803,0,1.453,0.65,1.453,1.453S23.335,14.391,22.532,14.391z M34.163,14.391c-0.803,0-1.453-0.651-1.453-1.454   s0.65-1.453,1.453-1.453c0.805,0,1.455,0.65,1.455,1.453S34.968,14.391,34.163,14.391z"/><path d="M14.986,20.208h-0.209v2.418v1.973v16.936c0,1.693,1.376,3.07,3.069,3.07h2.216c-0.074,0.256-0.116,0.527-0.116,0.807   v0.162v0.969v5.01c0,1.605,1.303,2.908,2.909,2.908s2.908-1.303,2.908-2.908v-5.01v-0.969v-0.162c0-0.279-0.043-0.551-0.115-0.807   h5.4c-0.074,0.256-0.115,0.527-0.115,0.807v0.162v0.969v5.01c0,1.605,1.303,2.908,2.908,2.908s2.908-1.303,2.908-2.908v-5.01   v-0.969v-0.162c0-0.279-0.041-0.551-0.115-0.807h2.215c1.693,0,3.07-1.377,3.07-3.07V24.599v-1.973v-2.418H41.71H14.986z"/><path d="M9.929,20.208c-1.606,0-2.908,1.301-2.908,2.909v12.439c0,1.605,1.302,2.908,2.908,2.908c1.605,0,2.908-1.303,2.908-2.908   V23.116C12.837,21.509,11.535,20.208,9.929,20.208z"/><path d="M46.767,20.208c-1.607,0-2.908,1.301-2.908,2.909v12.439c0,1.605,1.301,2.908,2.908,2.908c1.605,0,2.906-1.303,2.906-2.908   V23.116C49.673,21.509,48.372,20.208,46.767,20.208z"/></g>
</symbol>
<symbol id="apple" viewBox="0 0 56.693 56.693"><g><path d="M41.777,30.517c-0.062-6.232,5.082-9.221,5.312-9.372c-2.891-4.227-7.395-4.807-8.998-4.873   c-3.83-0.389-7.477,2.256-9.42,2.256c-1.939,0-4.941-2.199-8.117-2.143c-4.178,0.062-8.029,2.43-10.179,6.17   c-4.339,7.527-1.11,18.682,3.118,24.791c2.067,2.986,4.532,6.346,7.766,6.223c3.117-0.123,4.293-2.016,8.061-2.016   s4.826,2.016,8.123,1.953c3.352-0.061,5.477-3.043,7.527-6.041c2.373-3.469,3.35-6.828,3.408-6.998   C48.305,40.433,41.844,37.958,41.777,30.517z"/><path d="M35.582,12.229c1.715-2.082,2.877-4.975,2.561-7.855c-2.475,0.1-5.471,1.645-7.248,3.725   c-1.592,1.846-2.984,4.785-2.611,7.613C31.045,15.926,33.861,14.307,35.582,12.229z"/></g>
</symbol>
<symbol id="areva" viewBox="0 0 390.95 308.9"><defs><style>.cls-1{fill:#c1022b;}</style></defs><title>Fichier 2</title><g id="Calque_2" data-name="Calque 2"><g id="svg6030"><path id="path8880" class="cls-1" d="M103.65,235.58a986.44,986.44,0,0,1,153-64.43L196.83,48.48Zm246.93-91.72,7.4,14.55q-18,7.5-36.07,15.39l69,135.1h-67.1L269.44,197.43c-69.8,32.84-138.36,70-200.22,111.47,0,0-.1-.22-69.22-.22L160.58,0H233L312,154.46c12.82-3.66,25.63-7.1,38.62-10.6"/></g></g>
</symbol>
<symbol id="armani" viewBox="0 0 285.42 31.74"><defs><style>.cls-1,.cls-2{fill:none;}.cls-2,.cls-4{clip-path:url(#clip-path);}.cls-3{clip-path:url(#clip-path-8);}</style><clipPath id="clip-path"><polyline class="cls-1" points="0 0 285.52 0 285.52 31.54 0 31.54 0 0"/></clipPath><clipPath id="clip-path-8"><polyline class="cls-1" points="0 0 0 31.74 285.42 31.74 285.42 0"/></clipPath></defs><title>Fichier 1</title><g id="Calque_2" data-name="Calque 2"><g id="Layer_1" data-name="Layer 1"><g class="cls-3"><g class="cls-4"><path d="M234.78,20.35l4.81-14.08,4.65,14.08h-9.46M185,14.9v-13h2.25c3.72,0,6.22,2.42,6.22,6.8,0,2.41-1.89,6.18-5.81,6.18Zm-24.34,5.45,4.81-14.08,4.65,14.08Zm124.8-19H271.17v.62h2.35V24.21L259,1.3h-6.23v.62h2.35V30.1h-3.94L241.13,0,230.72,30.1H227V1.92h2.15V1.3h-5.62l-8,23.51L207.14,1.3h-5.72v.62h2.35V30.1h-4.32c-1.48,0-2.71-1.32-2.71-3.41V22.32c0-3.61-1.26-6.49-5.29-7.1a6.81,6.81,0,0,0,5.8-6.66c0-4.09-3-7.25-9.07-7.25h-9v.62h2.35V30.11h-4.5L167,0,156.56,30.1h-1.94v.62H160V30.1h-2.7L160.41,21h9.88l3,9.13h-3.7v.62h19v-.62H185V15.52h2.67c3.66,0,5.58,1.49,5.58,5.14v2.56c0,6,3.89,7.5,6,7.5H207V30.1H204.4V4l9.87,27,9.35-27.89v27h-2.35v.62h12.89V30.1h-2.7L234.57,21h9.88l3,9.13h-3.7v.62h14.38V30.1h-2.36V2.9l18.37,28.84V1.92h5.53V30.1h-2.36v.62h8.1V30.1h-2.36V1.92h2.36V1.3Z"/><path d="M128.44,30.85c-7.82,0-8.2-10.22-8.2-14.82s.52-14.82,8.2-14.82,8.24,10.25,8.24,14.82-.44,14.82-8.24,14.82m0-30.26C120.74.6,115.69,9.16,115.69,16c0,7.5,5.47,15.4,12.75,15.4S141.19,24,141.19,16C141.19,9.16,135.72.6,128.44.6Z"/><polyline points="106.49 1.92 108.85 1.92 108.85 30.1 106.49 30.1 106.49 30.72 114.59 30.72 114.59 30.1 112.24 30.1 112.24 1.92 114.59 1.92 114.59 1.3 106.49 1.3 106.49 1.92"/><path d="M66.57,14.9v-13h2.25c3.72,0,6.22,2.42,6.22,6.8,0,2.41-1.89,6.18-5.81,6.18H66.57m14.5,15.46c-1.49,0-2.71-1.36-2.71-3.45V22.32c0-3.62-1.26-6.49-5.29-7.1a6.81,6.81,0,0,0,5.8-6.66c0-4.09-2.95-7.25-9.07-7.25h-9v.62h2.35V30.11H60.83v.62H70.2v-.62H66.57V15.52h2.67c3.66,0,5.58,1.55,5.58,5.14v2.85c0,5.95,3.89,7.5,6,7.5a3.1,3.1,0,0,0,2.38-.83l-.37-.51A2.41,2.41,0,0,1,81.07,30.35Z"/><path d="M47,30.85c-7.82,0-8.2-10.22-8.2-14.82S39.31,1.22,47,1.22,55.24,11.47,55.24,16,54.8,30.85,47,30.85M47,.6C39.3.6,34.24,9.16,34.24,16c0,7.5,5.47,15.4,12.75,15.4S59.74,24,59.74,16C59.74,9.16,54.27.6,47,.6Z"/><polyline points="25 1.92 27.36 1.92 27.36 30.1 25 30.1 25 30.72 33.1 30.72 33.1 30.1 30.75 30.1 30.75 1.92 33.1 1.92 33.1 1.3 25 1.3 25 1.92"/><path d="M15.91,19.09h2.77v5.58a6.11,6.11,0,0,1-6.09,6.18c-7.37,0-8-9.3-8-14.82,0-5,.51-14.82,8.6-14.82,3.12,0,6.47,2.78,7.14,8.51h.53v-9h-.53a1.71,1.71,0,0,1-2,1.46C17.27,2.18,15.92.6,13.12.6,4.47.6,0,9.78,0,16c0,6.59,5,15.4,12.58,15.4,4.22,0,4.48-2.52,7.19-2.52a1.81,1.81,0,0,1,1.64,1.82h.66V19.09h2.35v-.62H15.91v.62"/><path d="M97.49,19.09h2.77v5.58a6.11,6.11,0,0,1-6.1,6.18c-7.37,0-8-9.3-8-14.82,0-5,.51-14.82,8.6-14.82,3.12,0,6.47,2.78,7.14,8.51h.53v-9h-.53a1.71,1.71,0,0,1-2,1.46C98.85,2.18,97.49.6,94.7.6,86.05.6,81.58,9.78,81.58,16c0,6.58,5,15.4,12.58,15.4,4.22,0,4.47-2.52,7.19-2.52A1.81,1.81,0,0,1,103,30.72h.66V19.09H106v-.62H97.49v.62"/></g></g></g></g>
</symbol>
<symbol id="arrow-left" viewBox="0 0 128 128"><g><g><line style="fill:none;stroke:#2F3435;stroke-width:12;stroke-linecap:square;stroke-miterlimit:10;" x1="57.12" x2="17.787" y1="103.334" y2="64"/><line style="fill:none;stroke:#2F3435;stroke-width:12;stroke-linecap:square;stroke-miterlimit:10;" x1="17.787" x2="57.12" y1="64" y2="24.666"/></g><line style="fill:none;stroke:#2F3435;stroke-width:12;stroke-miterlimit:10;" x1="17.787" x2="118.213" y1="64" y2="64"/></g>
</symbol>
<symbol id="arrow-right" viewBox="0 0 128 128"><g><g><line style="fill:none;stroke:#2F3435;stroke-width:12;stroke-linecap:square;stroke-miterlimit:10;" x1="70.88" x2="110.213" y1="24.666" y2="64"/><line style="fill:none;stroke:#2F3435;stroke-width:12;stroke-linecap:square;stroke-miterlimit:10;" x1="110.213" x2="70.88" y1="64" y2="103.334"/></g><line style="fill:none;stroke:#2F3435;stroke-width:12;stroke-miterlimit:10;" x1="110.213" x2="9.787" y1="64" y2="64"/></g>
</symbol>
<symbol id="cancel" viewBox="0 0 80 80"><polygon points="56.971,52.728 44.243,40 56.971,27.272 52.728,23.029 40,35.757 27.272,23.029 23.029,27.272 35.757,40   23.029,52.728 27.272,56.971 40,44.243 52.728,56.971 "/>
</symbol>
<symbol id="check" viewBox="0 0 80 80"><g><polygon points="54.849,26.565 36.464,44.95 25.151,33.636 20.908,37.879 36.464,53.435 59.092,30.808  "/></g>
</symbol>
<symbol id="chrome" viewBox="0 0 32 32"><g id="Flat_copy"><g><path d="M16,24.188c-1.625,0-3.104-0.438-4.438-1.312c-1.334-0.875-2.334-2-3-3.375L2,8c-1.375,2.459-2,5.209-2,8    c0,4,1.302,7.49,3.906,10.469s5.844,4.76,9.719,5.344l4.641-8.031C17.799,23.919,17.02,24.188,16,24.188z"/><path d="M10.969,9.531C12.447,8.386,14.125,8,16,8c0.25,0,13.75,0,13.75,0c-1.417-2.416-3.344-4.458-5.781-5.875    C21.531,0.709,18.875,0,16,0c-2.5,0-4.834,0.531-7,1.594C6.833,2.656,4.828,4.203,3.359,6.188L8,14    C8.458,12.209,9.489,10.678,10.969,9.531z"/><path d="M30.797,10H21.5c1.625,1.625,2.688,3.709,2.688,6c0,1.709-0.479,3.271-1.438,4.688L16.188,32    c4.375-0.042,8.104-1.625,11.188-4.75C30.458,24.125,32,20.375,32,16C32,13.959,31.656,11.812,30.797,10z"/><circle cx="16" cy="16" r="6"/></g></g>
</symbol>
<symbol id="codepen" viewBox="0 0 30 30"><path d="M29.979,10.205c-0.007-0.036-0.014-0.072-0.022-0.107c-0.006-0.021-0.014-0.042-0.021-0.063  c-0.01-0.031-0.021-0.063-0.033-0.094c-0.009-0.021-0.019-0.042-0.028-0.063c-0.014-0.029-0.028-0.058-0.045-0.086  c-0.011-0.021-0.023-0.04-0.036-0.06c-0.018-0.026-0.035-0.053-0.055-0.078c-0.014-0.02-0.028-0.037-0.044-0.056  c-0.021-0.024-0.042-0.047-0.064-0.07c-0.017-0.017-0.033-0.034-0.051-0.05c-0.023-0.021-0.048-0.042-0.073-0.062  c-0.02-0.015-0.038-0.03-0.059-0.044c-0.007-0.005-0.014-0.011-0.021-0.017L15.715,0.216c-0.433-0.288-0.997-0.288-1.43,0  L0.574,9.356C0.566,9.362,0.56,9.368,0.553,9.373c-0.02,0.014-0.039,0.029-0.059,0.044c-0.024,0.02-0.049,0.04-0.073,0.062  C0.404,9.494,0.387,9.512,0.37,9.528c-0.022,0.023-0.044,0.046-0.064,0.07c-0.015,0.019-0.03,0.036-0.044,0.056  C0.242,9.68,0.225,9.706,0.207,9.732c-0.013,0.02-0.025,0.039-0.037,0.06C0.154,9.82,0.14,9.849,0.126,9.878  c-0.01,0.021-0.02,0.041-0.029,0.063c-0.012,0.031-0.023,0.063-0.033,0.094c-0.007,0.021-0.014,0.042-0.02,0.063  c-0.009,0.035-0.016,0.071-0.022,0.107c-0.003,0.019-0.008,0.037-0.011,0.056C0.004,10.316,0,10.373,0,10.43v9.141  c0,0.057,0.004,0.112,0.011,0.168c0.003,0.02,0.007,0.037,0.011,0.056c0.006,0.036,0.013,0.072,0.022,0.108  c0.006,0.021,0.013,0.042,0.02,0.063c0.01,0.031,0.021,0.063,0.033,0.095c0.009,0.021,0.019,0.041,0.029,0.062  c0.014,0.029,0.028,0.058,0.044,0.087c0.011,0.02,0.024,0.039,0.037,0.059c0.018,0.027,0.035,0.053,0.055,0.079  c0.014,0.019,0.029,0.037,0.044,0.055c0.021,0.024,0.042,0.048,0.064,0.07c0.017,0.017,0.034,0.034,0.051,0.05  c0.023,0.021,0.048,0.042,0.073,0.062c0.02,0.016,0.039,0.03,0.059,0.045c0.007,0.005,0.014,0.011,0.021,0.016l13.711,9.141  C14.502,29.928,14.751,30,15,30s0.499-0.072,0.715-0.217l13.711-9.141c0.008-0.005,0.015-0.011,0.021-0.016  c0.021-0.015,0.039-0.029,0.059-0.045c0.025-0.02,0.05-0.04,0.073-0.062c0.018-0.016,0.034-0.033,0.051-0.05  c0.022-0.022,0.044-0.046,0.064-0.07c0.016-0.018,0.03-0.036,0.044-0.055c0.02-0.026,0.037-0.052,0.055-0.079  c0.013-0.02,0.025-0.039,0.036-0.059c0.017-0.029,0.031-0.058,0.045-0.087c0.01-0.021,0.02-0.041,0.028-0.062  c0.013-0.031,0.023-0.063,0.033-0.095c0.007-0.021,0.015-0.041,0.021-0.063c0.009-0.036,0.016-0.072,0.022-0.108  c0.003-0.019,0.008-0.036,0.01-0.056C29.996,19.683,30,19.627,30,19.57V10.43c0-0.057-0.004-0.113-0.012-0.169  C29.986,10.242,29.981,10.224,29.979,10.205z M15,18.05L10.441,15L15,11.95L19.56,15L15,18.05z M13.711,9.711l-5.589,3.738  L3.61,10.432l10.101-6.734V9.711z M5.803,15l-3.225,2.157v-4.314L5.803,15z M8.122,16.551l5.589,3.738v6.013L3.61,19.568  L8.122,16.551z M16.289,20.289l5.589-3.738l4.512,3.018l-10.101,6.733V20.289z M24.196,15l3.226-2.157v4.314L24.196,15z   M21.878,13.449l-5.589-3.738V3.697l10.101,6.734L21.878,13.449z" id="wtf"/>
</symbol>
<symbol id="dropbox" viewBox="0 0 32 32"><g id="Flat_copy"><path d="M22.682,24.566l2.827-1.696v1.543l-9.531,6.182l-9.32-6.226v-1.453l2.788,1.652l0.31,0.183l0.286-0.219l6.021-4.621   l6.019,4.621l0.288,0.219L22.682,24.566z M16.083,7.131l9.166,5.266L16,18.526l-9.192-5.791L16.083,7.131z M31.999,7.439   l-9.443-6.034l-6.493,5.444L9.717,1.405L0,7.734l6.691,5.09L0,17.915l6.657,3.944l3.06,1.811l6.346-4.87l6.344,4.87l3.102-1.861   L32,17.915l-6.197-5.313L31.999,7.439z"/></g>
</symbol>
<symbol id="edge" viewBox="0 0 56.6934 56.6934"><g><path d="M23.9119,16.9729c-1.884,2.141-2.8612,4.6136-3.2311,7.4099c5.6693,0,11.2781,0,16.9289,0   c0-0.4139,0.0223-0.8342-0.0039-1.2515c-0.1145-1.8259-0.5071-3.5784-1.5042-5.1423c-1.336-2.0954-3.3417-3.1383-5.7285-3.5229   c-3.4634-0.5581-6.8051,0.033-10.0522,1.216c-4.7503,1.7307-8.7392,4.5588-11.9133,8.5069   c-0.5335,0.6636-1.0082,1.3745-1.5934,2.178c0.0485-0.3993,0.0764-0.6875,0.1192-0.9734   c0.6841-4.5728,2.3307-8.7442,5.2947-12.3261c3.4833-4.2094,7.9725-6.7032,13.3569-7.5721   c5.2449-0.8464,10.2058,0.0045,14.8107,2.6715c4.2386,2.4549,7.1601,6.0524,8.9041,10.6113   c1.0058,2.6293,1.4971,5.3621,1.5227,8.1777c0.0161,1.7735,0.0324,3.547,0.0482,5.3204c0.0016,0.1771,0.0002,0.3543,0.0002,0.5999   c-10.0212,0-19.9979,0-30.0079,0c0.0115,2.4612,0.7278,4.5816,2.3803,6.3431c1.9199,2.0465,4.3838,3.0406,7.0832,3.4341   c5.6665,0.826,11.0037-0.2087,15.9823-3.0528c0.1275-0.0728,0.2545-0.1465,0.3826-0.2183   c0.0126-0.0071,0.0314-0.0032,0.1075-0.0089c0.0105,0.1715,0.0301,0.3432,0.0301,0.5149c0.0013,3.0229-0.0058,6.0459,0.0078,9.0687   c0.0016,0.3467-0.1105,0.5268-0.417,0.6796c-3.5699,1.7792-7.3483,2.7951-11.3187,3.1029   c-2.5295,0.1961-5.0515,0.1975-7.5561-0.3103c-7.5354-1.5277-13.5458-7.0451-14.925-14.806   c-1.5738-8.8562,2.6413-17.0331,11.1093-20.6493C23.7559,16.963,23.7913,16.9729,23.9119,16.9729z"/></g>
</symbol>
<symbol id="elior" viewBox="0 0 171.09 167.92"><defs><style>.cls-1{fill:#424242;}</style></defs><title>Fichier 1</title><g id="Calque_2" data-name="Calque 2"><g id="Calque_1-2" data-name="Calque 1"><path class="cls-1" d="M65.05,138.48s-43.33-8.67-43.67-57c-.39-56.37,46.33-67.67,57-68.33,0,0-75.07-2.24-78.33,69.67C-1.62,119.48,38.68,145.15,65.05,138.48Z"/><path class="cls-1" d="M165.72,91.15s-2.78,36.6-48,53.67c-35.33,13.33-86.56,4.89-91.33-4.67,0,0,31.67,43,97.67,22C153.21,152.87,171.38,117.81,165.72,91.15Z"/><path class="cls-1" d="M139.05,96.15a50.59,50.59,0,0,1-35.67,18c-15.68,1.1-30.07-4.77-34.85-14.33,0,0,2.43,29.72,33.18,29.72C124.05,129.53,139.39,106.15,139.05,96.15Z"/><path class="cls-1" d="M68.54,121.48S47.72,94.15,63.05,66.15c21.74-39.71,42.35-30.45,53-31.33,0,0-47.51-30-74.09,25.31C27.93,94.43,59.13,118.08,68.54,121.48Z"/><path class="cls-1" d="M65.05,4.48s57.4-5.09,79,37c13,25.33,4.83,41.5-.67,50.67,0,0,49.67-18.06,16-63.67C125.38-7.85,73.3-1.19,65.05,4.48Z"/><path class="cls-1" d="M108.38,41.81s23.67,3.67,21,27.33-26,31.67-44.67,23S70.05,68.68,70.05,68.68s13.67,20.47,36,5.41C127.53,59.6,108.38,41.81,108.38,41.81Z"/></g></g>
</symbol>
<symbol id="emmaus" viewBox="0 0 261 209"><title>Fichier 1</title><g id="Calque_2" data-name="Calque 2"><g id="Layer_1" data-name="Layer 1"><path id="path5" d="M226,0h3c2,7.79-7.26,12.62-9,20a10.3,10.3,0,0,0-6,6c-.62,2.71-4.18,2.49-4,6-5.48,1.85-6.35,8.31-10,12v2c-5.71,1.63-3.07,9.8-12,10h-1c-.15-2.19-2.52-2.15-5-2-1.32-4.65,3.32-3.35,2-8,5.1-3.9,10.38-7.62,13-14,1.61-2.06,5.4-1.93,5-6,5.26-4.07,10.25-8.41,14-14V11c1.65-1.35,3.44-2.56,4-5h2C224.95,5.61,224.29,1.63,226,0Z"/><path id="path7" d="M102,20c-.34-8.88,7.24-3.86,12,0a18.21,18.21,0,0,0,8,8c-.37,1.7.78,1.89,2,2a55.54,55.54,0,0,0,14,14v2a4.67,4.67,0,0,0,4,4c2.82-.15,2.51,2.83,4,4v4h-4a4.67,4.67,0,0,0-4-4h-2c-4.34-1-3.45-7.21-8-8-3,.38-1.7-3.63-4-4-3.52-6.48-10-10-16-14-1.17-1.49-4.15-1.18-4-4C103.77,22.23,105,19,102,20Z"/><path id="path9" d="M104,24h-2V20C105,19,103.77,22.23,104,24Z"/><path id="path11" d="M32,24c.74-2.26,5.61-.39,8-1C39.26,25.26,34.39,23.39,32,24Z"/><path id="path13" d="M90,25h8C97.56,26.65,90.44,26.65,90,25Z"/><path id="path15" d="M166,32c.44-.89.88-1.79,2-2V43C165.07,41.6,168.93,33.4,166,32Z"/><path id="path17" d="M146,54h2c-.23,1.77,1,5-2,4Z"/><path id="path19" d="M182,54c2.48-.15,4.85-.19,5,2C185.11,55.56,181,57.36,182,54Z"/><path id="path21" d="M2,60c2.24.43.41,4.93,1,7C.76,66.57,2.59,62.07,2,60Z"/><path id="path23" d="M164,62c-.65-3.22,10.65-3.22,10,0Z"/><path id="path25" d="M148,66c7.15.49,9.68-3.65,16-4h10c4.69-.69,4.49,3.51,10,2a28.38,28.38,0,0,0,10,10c-.69,4.69,3.51,4.49,2,10v16c-4.19-.69-.68,1.91-2,4-1,1.59-5,2.66-6,4-.65.85.54,3.06,0,4-1.33,2.32-7.07,3.1-6,6-4-1.38-3.16,2.17-6,2-1.77.23-5-1-4,2a61.82,61.82,0,0,1-21-2c-2.22-2.11-3.82-4.85-7-6,1.24-3.24-3.24-.76-2-4a4.67,4.67,0,0,0-4-4c-1.29-7.38-5.4-11.93-4-22,3,1,1.77-2.23,2-4V78A40.8,40.8,0,0,0,148,66Z"/><path id="path27" d="M131,76v7C129.35,82.86,129.35,76.14,131,76Z"/><path id="path29" d="M234,84c7.85-1.48,14.51-4.16,22-6h4c1.38,4-2.17,3.16-2,6h-2c-1.77.23-5-1-4,2h-2c-1.77.23-5-1-4,2h-2c-1.77.23-5-1-4,2-4.64.69-8.28,2.38-12,4-2.48-.15-4.85-.19-5,2-4.58.42-7.51,2.49-11,4h-8V96q3.06-2.94,6-6h6c2.06-.61,6.95,1.61,6-2,4.65,1.32,3.35-3.32,8-2C231.77,85.77,235,87,234,84Z"/><path id="path31" d="M136,80c-.23,1.77,1,5-2,4V80Z"/><path id="path33" d="M196,84c3.22-.65,3.22,10.65,0,10Z"/><path id="path35" d="M230,86c-1-3,2.23-1.77,4-2C235,87,231.77,85.77,230,86Z"/><path id="path37" d="M256,84c1,3-2.23,1.77-4,2C251,83,254.23,84.23,256,84Z"/><path id="path39" d="M17,86c2.27,1.06.38,6.29,1,9C15.73,93.94,17.62,88.71,17,86Z"/><path id="path41" d="M250,86c1,3-2.23,1.77-4,2C245,85,248.23,86.23,250,86Z"/><path id="path43" d="M5,94c-1.65-.14-1.65-6.86,0-7Z"/><path id="path45" d="M216,90c-.95-3.61,3.94-1.39,6-2C222.95,91.61,218.06,89.39,216,90Z"/><path id="path47" d="M244,88c1,3-2.23,1.77-4,2C239,87,242.23,88.23,244,88Z"/><path id="path49" d="M122,96c-1-3,2.23-1.77,4-2C127,97,123.77,95.77,122,96Z"/><path id="path51" d="M126,94c.84,1.21,3.9,1.78,4,2,4.09,9-9.55,7.15-14,10-2.7,2-7.37,2-8,6h-2c-1.77.23-5-1-4,2-4-1.38-3.16,2.17-6,2-.39-2.95-4.37-2.29-6-4-1-4.34,2.21-4.46,4-6,2.06-.61,6.95,1.61,6-2h2a4.67,4.67,0,0,0,4-4c6.5-.16,7.71-5.63,16-4C123.77,95.77,127,97,126,94Z"/><path id="path53" d="M228,94q-1.28,2.22-5,2C223.15,93.81,225.52,93.85,228,94Z"/><path id="path55" d="M204,100h8c.61,3.94-5.49,1.18-8,2Z"/><path id="path57" d="M94,106c-.95-3.61,3.94-1.39,6-2C100.95,107.61,96.06,105.39,94,106Z"/><path id="path59" d="M16,112c1.91-2,.13,7.56-1,9v-1C15.12,117.12,14.45,113.45,16,112Z"/><path id="path61" d="M15,112h1c-1.55,1.45-.88,5.12-1,8C13.35,119.56,13.35,112.44,15,112Z"/><path id="path63" d="M106,112c1,3-2.23,1.77-4,2C101,111,104.23,112.23,106,112Z"/><path id="path65" d="M176,120c-.24,1.76-1.72,2.28-4,2C171,119,174.23,120.23,176,120Z"/><path id="path67" d="M192,124c1.76-5.63,6.4,1,10,0a10.3,10.3,0,0,0,6,6c3.82.18,2.72,5.28,8,4a10.3,10.3,0,0,0,6,6c3.82.18,2.72,5.28,8,4a4.67,4.67,0,0,0,4,4c3.69,1,4,5.3,6,8-5.3,4.24-12.7-2.07-18-4-.08-3.92-3.42-4.58-6-6-3.08.75-1.22-3.45-5-2-.74-4.93-6.26-5.08-9-8h-1c-.51-3.16-4.57-2.77-7-4-1.7.37-1.89-.78-2-2Z"/><path id="path69" d="M192,124v6c-3.61.95-1.4-3.94-2-6Z"/><path id="path71" d="M160,142v-4c4.69.69,4.49-3.51,10-2v4c-1.32,2.35-2.79,4.55-2,9-2.19.15-2.15,2.52-2,5-1.69,2.31-2.59,5.41-2,10-1.75.92-2.21,3.13-2,6,.37,1.7-.78,1.89-2,2-2.62-.71-4.5-2.17-4-6-.64-6.59,2.58-4.54,2-12C162.27,153.6,159,145.62,160,142Z"/><path id="path73" d="M170,136c1.95-.49,3.6,5,0,4Z"/><path id="path75" d="M8,147c.59-2.07-1.24-6.57,1-7C8.41,142.07,10.24,146.57,8,147Z"/><path id="path77" d="M172,147c.6-2.07-1.24-6.57,1-7C172.4,142.07,174.24,146.57,172,147Z"/><path id="path79" d="M158,154c1-3.62-2.27-11.6,2-12C159,145.62,162.27,153.6,158,154Z"/><path id="path81" d="M168,149c-.44,1.89,1.36,6-2,5C165.85,151.52,165.81,149.15,168,149Z"/><path id="path83" d="M170,163c.6-2.07-1.24-6.57,1-7C170.4,158.07,172.24,162.57,170,163Z"/><path id="path85" d="M164,164c-.6,2.06,1.61,6.95-2,6C161.79,167.13,162.25,164.92,164,164Z"/><path id="path87" d="M167,168c.17-1.16,1.58-1.09,3-1v8c-2.24-.43-.4-4.93-1-7Z"/><path id="path89" d="M170,176v8C168.35,183.56,168.35,176.44,170,176Z"/><path id="path91" d="M34,197c.43-2.24,4.93-.4,7-1C40.57,198.24,36.07,196.4,34,197Z"/><path id="path93" d="M77,198c.76-1.65,8.24-1.65,9,0Z"/><path id="path95" d="M101,206c-2.39-.61-7.25,1.26-8-1C95.39,205.61,100.25,203.74,101,206Z"/><path id="path97" d="M224,0h2c-1.71,1.63-1.05,5.61-4,6C220.62,2,224.17,2.84,224,0Z"/><path id="path99" d="M220,6c-.56,2.44-2.35,3.65-4,5C215.8,7.8,217.68,6.68,220,6Z"/><path id="path101" d="M202,26c4-5.34,8.38-10.29,14-14C212.25,17.59,207.26,21.93,202,26Z"/><path id="path103" d="M197,32c-2.62,6.38-7.9,10.1-13,14C187.31,40.31,192.85,36.85,197,32Z"/><path id="path105" d="M200,46c-1.11,3.55-9,16.2-12,10C196.93,55.8,194.29,47.63,200,46Z"/><path id="path107" d="M210,32c-3.39,3.94-4.7,10-10,12C203.65,40.31,204.52,33.85,210,32Z"/><path id="path109" d="M220,20a13.32,13.32,0,0,1-6,6A10.3,10.3,0,0,1,220,20Z"/><path id="path111" d="M258,84c-.17-2.84,3.38-2,2-6h-4c-.48-4.12,4.88-1.42,5,0v4C260,82.65,260,84.3,258,84Z"/><path id="path113" d="M210,90q-2.94,3.06-6,6Q203.52,89.52,210,90Z"/><path id="path115" d="M177,168c.14,4.14-.27,7.73-2,10C175.51,174.51,175.45,170.45,177,168Z"/><path id="path117" d="M196,100c2.6,4.58-4.8,5.56-6,8-.46.93.64,3.22,0,4-2,2.44-5.66,4.14-8,6-1.07-2.9,4.67-3.68,6-6,.54-.94-.65-3.15,0-4,1-1.34,5-2.41,6-4C195.32,101.91,191.81,99.31,196,100Z"/><path id="path119" d="M184,64a28.38,28.38,0,0,1,10,10A28.38,28.38,0,0,1,184,64Z"/><path id="path121" d="M148,66a40.8,40.8,0,0,1-12,12A40.8,40.8,0,0,1,148,66Z"/><path id="path123" d="M116,106c-1.15,3.51-5.48,3.85-8,6C108.63,108,113.3,108,116,106Z"/><path id="path125" d="M106,100a4.67,4.67,0,0,1-4,4A4.67,4.67,0,0,1,106,100Z"/><path id="path127" d="M90,112c1.63,1.71,5.61,1.05,6,4C92.17,116.5,90.71,114.62,90,112Z"/><path id="path131" d="M108,28c6,4,12.48,7.52,16,14C118.94,37.06,111.88,34.12,108,28Z"/><path id="path133" d="M128,46c4.55.79,3.66,7,8,8C129.81,54.86,130.32,49,128,46Z"/><path id="path135" d="M138,54a4.67,4.67,0,0,1,4,4A4.67,4.67,0,0,1,138,54Z"/><path id="path137" d="M138,46a4.67,4.67,0,0,1,4,4A4.67,4.67,0,0,1,138,46Z"/><path id="path139" d="M124,30a55.54,55.54,0,0,1,14,14A55.54,55.54,0,0,1,124,30Z"/><path id="path141" d="M114,20a18.21,18.21,0,0,1,8,8A18.21,18.21,0,0,1,114,20Z"/><path id="path143" d="M65,14c2.1-2.35,7.9,0,10,1C70.63,15.7,69.37,13.3,65,14Z"/><path id="path145" d="M10,43c.53-3.47-1.49-9.49,2-10C9.51,34.51,12.61,41.61,10,43Z"/><path id="path147" d="M15,139c4.06,4.26.27,16.16,1,21-.17-1.5.36-3.69-1-4C14.73,148.91,16.73,145.15,15,139Z"/><path id="path149" d="M143,44c1.14,3.53,6.34,3,8,6C147.35,49,143.67,48,143,44Z"/><path id="path151" d="M89,31c3.07-1.37,14.44-2.46,16,1C101.41,29.92,94.19,31.48,89,31Z"/><path id="path153" d="M155,125c4.21,1.27,8.36-2.61,9,1C163,124,156.88,128.1,155,125Z"/><path id="path157" d="M144,114c3.18,1.15,4.78,3.89,7,6C148.21,118.46,144.76,117.58,144,114Z"/><path id="path159" d="M138,106a4.67,4.67,0,0,1,4,4A4.67,4.67,0,0,1,138,106Z"/><path id="path161" d="M201,136c-1.33-2.34-6.88-.46-7-4C196.43,133.23,200.49,132.84,201,136Z"/><path id="path163" d="M211,144c-2.93-2.74-7.91-3.43-9-8C204.74,138.92,210.26,139.07,211,144Z"/><path id="path165" d="M222,152c-2.21-1.79-4.69-3.31-6-6C218.58,147.42,221.92,148.08,222,152Z"/><path id="path167" d="M230,144a4.67,4.67,0,0,1,4,4A4.67,4.67,0,0,1,230,144Z"/><path id="path169" d="M216,134a10.3,10.3,0,0,1,6,6A10.3,10.3,0,0,1,216,134Z"/><path id="path171" d="M202,124a10.3,10.3,0,0,1,6,6A10.3,10.3,0,0,1,202,124Z"/><path id="path173" d="M160,172v2c-2.39-.73-9.26-6.11-4-8C155.5,169.83,157.38,171.29,160,172Z"/><path id="path177" d="M1,33c.51-10.18,3.09-12,10-14s9.25-.58,14-1c2-.17,4-1.67,6-2,3.22-.53,7.74.73,11,0,1.79-.4,2.58-1.88,4-2,7.33-.62,13.58,2.46,19,0,4.37-.7,5.63,1.7,10,1,5.88,1.36,36.33-.82,23,10H90c-4.84-3.35-10.19.7-15,0-3.06-.44-5-2.72-8-3-8.56-.78-17.68,1.59-27,1-2.39.61-7.26-1.26-8,1-6.32,3.35-20.16-.83-20,9-3.49.51-1.47,6.53-2,10a226.79,226.79,0,0,0,3,36v23c-.41,4.41.27,7.73,2,10-1.65.44-1.65,7.56,0,8v1c.44,6.57,1.16,10.19,0,18,1.73,6.15-.27,9.91,0,17v7c-2.8,7.85.94,19.25-3,24,1.6,4.59.07,6.79,0,12,21.63,1.73,46.17.47,65-1h9c11.51-1.33,25.93,5.71,36,1,16.41-4.07,51.94,6.15,48-15V163c2.24-.43.4-4.93,1-7,0-3.29,1.69-5,1-9,2.24-.43.4-4.93,1-7,1.41-4.5-5-17.69,4-19,3.31,19.82.49,30.4,0,47-1.55,2.45-1.49,6.51-2,10-2.19,9.06,3.23,14.32,1,20-5.1,13-43.35,2.78-52,11h-3c-3.92-2.9-12.1-1.87-20-3-.75-2.26-5.61-.39-8-1-12.85.55-31.19-1.74-41-1-9.35.71-15.88.63-24,1-8.55.39-19.92,2.33-23-4-3.37-6.92,1.48-29.63,2-34,.9-7.52-.54-14.15,1-20,2.24-.43.41-4.93,1-7,.14-18.41-5.6-31.27-4-46V87c-.39-6.95-1.27-13.39-2-20-.59-2.07,1.24-6.57-1-7-1.21-1.79-.18-5.82-2-7V46C2.3,43.63.36,37,1,33Z"/><path id="path179" d="M168,30c.51-8.22-11.44-5-19-5-2.05,0-1.58-1.62-4-2-8.39-1.3-15.65,4.23-22-1-11.6-9.56,17.06-6.53,27-6,1.54.08,3.39-1.07,5-1s3.29,2,4,2c2.64,0,9.21-3,14-1s4.49,4.55,5,13c.49,8.06,2.6,16.92,2,22-.9,7.68-6.34,4.47-15,6V54c.48-4.18,1.92-7.41,3-11Z"/><path id="path181" d="M0,46V33H1C.36,37,2.3,43.63,0,46Z"/><path id="path183" d="M168,43c-1.08,3.59-2.52,6.82-3,11-6.19,4-12.27,3.31-14-4-1.66-3-6.86-2.47-8-6-3.27-3.73-4.52-9.48-6-15,7.41-.63,24.24-3.33,29,3C168.93,33.4,165.07,41.6,168,43Z"/><path id="path185" d="M13,79c1.66,5.35,1.66,17.65,0,23Z"/><path id="path187" d="M18,109c-2.48-1.58-.41-7,0-9C20.87,102,17.65,106.24,18,109Z"/><path id="path189" d="M170,184c3.94,21.15-31.59,10.93-48,15-4.51-.46-12-2.44-15-3-3.41-.64-9.23,1-13,0-2.47-.68-2.64-2.8-5-3-10.14-.85-21,2.81-30,2-1.31-.12-3.55-2.11-5-2-4.39.32-8.08,4.17-13,3-2.07.6-6.57-1.24-7,1-5.74-2.9-11.18,2-15,0-3.36-1.72-1.57-10.48-7-10,3.94-4.75.2-16.15,3-24,2.89,2.24,2.44,10.34,3,17,1,11.61.11,12.31,14,13,4.09.2,10.4,2,12-2-4.4-6.3-11.54,0-17-4-6.79-5-3.72-14.66-4-25-.32-12-3.73-26.09-3-37s4.59-20.95,3-29c-1.27-2.55-4.9.93-5-1-.62-2.71,1.27-7.94-1-9,1.75-7,.26-14.81,1-21s4.75-14.67,6-22c.43-2.51-.66-6.14,0-8,3.27-9.26,8.05-5,16-5,4.74,0,10-2.77,13-3,10.63-.83,26.14,4.36,36,4,5.19.48,12.41-1.08,16,1,6.08-.31,9,6.49,12,10,2.28,2.66,6.28,3.91,8,6,1,1.18.2,3.83,1,5,2.32,3.42,15.71,6,16,10,.15,2-3.76,2.14-6,4-4.19,3.47-4,5.91-5,9-1.65.14-1.65,6.86,0,7,1.91,10.79-8.74,5.84-14,7-4.62,1-19,7.76-22,10-4.62,3.44-10.52,5.36-10,11,.41,4.39,7.77,9.2,13,9,1.2,0,4.57-3.34,9-5s11-1.74,14-3c3.29-1.37,10.35-8.75,13-8,4.86,1.37,2.82,11,5,14,2.78,3.86,15.19,5.86,16,7,1.88,3.1,8-1,9,1,3.93-1,5.81,2.21,4,4-3,.63-8.61-1.28-10,1-4.5.28-.69,7.54-3,17-.51,2.1-2.62,4.85-3,7a78.18,78.18,0,0,0-1,15,7.79,7.79,0,0,0,12,6c2.61-1.71,1.2-3.65,4-8h2c.6,2.07-1.24,6.57,1,7v1C168.35,176.44,168.35,183.56,170,184Z"/><path id="path191" d="M158,131c1.39-2.28,7-.37,10-1C166.61,132.28,161,130.37,158,131Z"/></g></g>
</symbol>
<symbol id="engie" viewBox="0 0 124.85 126.32"><defs><style>.cls-1{fill:#b1b1b1;}</style></defs><title>Fichier 1</title><g id="Calque_2" data-name="Calque 2"><g id="Calque_1-2" data-name="Calque 1"><path class="cls-1" d="M86,19.27V1.52A96.48,96.48,0,0,0,67,0C56.75.27.5,4.52,0,58.52s39.75,68.75,63.25,67.75,45-15,53-29,12.25-30,4.5-64c0,0-33.75-5-49.75,9.5C55.8,56.55,53.25,66.27,53.5,79.52H63s.5-14.25,5.25-20.25,17.25-19.25,44-17.5c0,0,12.5,43.5-18.25,64s-61.25,4.75-70.75-9.5C14.63,83.34,0,39.77,40.75,16.52,62,6.52,86,19.27,86,19.27Z"/><path class="cls-1" d="M94.5,64.77S95,90.77,71.25,96,33,96.64,32,91c-.67-3.75-.75-3,5-2.5,11.88,1.13,26.1,3,38.5-3.25C84.26,80.86,84,81.54,94.5,64.77Z"/></g></g>
</symbol>
<symbol id="external" viewBox="0 0 16 16"><path d="M10,11H5V6h2l1-1H4v7h7V8l-1,1V11z M8,3v1h3.293L7,8.293L7.707,9L12,4.707V8h1V3H8z"/>
</symbol>
<symbol id="facebook" viewBox="0 0 56.693 56.693"><path d="M40.43,21.739h-7.645v-5.014c0-1.883,1.248-2.322,2.127-2.322c0.877,0,5.395,0,5.395,0V6.125l-7.43-0.029  c-8.248,0-10.125,6.174-10.125,10.125v5.518h-4.77v8.53h4.77c0,10.947,0,24.137,0,24.137h10.033c0,0,0-13.32,0-24.137h6.77  L40.43,21.739z"/>
</symbol>
<symbol id="firefox" viewBox="0 0 56.7 56.7"><path d="M50.1518,35.9687c1.5177-2.8698,3.2753-8.3992,1.8103-13.2533c-0.0185-0.062-0.0402-0.1231-0.0598-0.1848  c-0.0559-0.1856-0.0938-0.2882-0.0938-0.2882l-0.0001,0.0002l-0.0001-0.0002l0.0001,0.0002l-0.0001,0.0002  c-0.0049-0.0141-0.0089-0.0284-0.0139-0.0425c0.0042,0.016,0.0079,0.0321,0.012,0.0481c-0.0257,0.0773-0.4268,1.2875-0.954,3.0668  c0.2859-2.6547,0.086-5.4206-0.8379-7.9778c-0.4381-1.2203-0.9839-2.2336-1.5155-3.0426c-0.6891-1.1242-1.447-1.9833-2.0438-2.3949  c0.0679,0.0512,0.135,0.1106,0.2012,0.1766C46.529,11.9594,46.4551,11.9,46.4551,11.9c0.0145,0.0158,0.0276,0.0317,0.0419,0.0475  c-0.0439-0.0395-0.0699-0.0616-0.0699-0.0616s0.052,0.283,0.1429,0.7816c-1.2371-1.9677-3.0918-2.9611-3.3492-3.0923  c-0.029-0.0195-0.0449-0.0296-0.0449-0.0296s0.1011,0.5751,0.2539,1.8017c-1.9416-1.5476-4.2794-2.8152-7.0648-3.5815  c4.5546,2.999,6.2503,5.5496,7.3152,7.8199c-1.2191-1.2473-3.2933-2.5366-4.7087-2.6487c2.0789,1.5522,5.5532,6.1214,5.2638,13.0402  c-0.9391-2.3531-2.2088-3.3284-2.2088-3.3284c0.0017,0.0197,0.0035,0.04,0.0052,0.0598c-0.0109-0.0101-0.0224-0.0223-0.0332-0.0318  c0.295,2.6986,0.3749,4.5709,0.3352,5.9599c-0.0099,0.3115-0.0257,0.6241-0.0491,0.9366c-0.114,1.4462-0.3742,2.2852-0.602,3.1591  c-0.2565-1.0939-0.5949-1.7033-0.5949-1.7033s-0.0025,0.0266-0.0077,0.074c-0.0066-0.0148-0.0143-0.0318-0.0205-0.0459  c0,0-0.0842,2.1582-1.4856,5.2413c-0.8676,1.907-1.7539,2.7344-2.3178,2.9301c-0.2055,0.0592-0.375,0.033-0.4986-0.0572  c-0.0034,0.0133-0.0075,0.0261-0.011,0.0394c-0.0105-0.0066-0.0172-0.0113-0.0172-0.0113c0.028-0.3082,0.0701-0.6166-0.014-0.8268  c0,0-0.4485,0.1543-0.7429,0.5606c-0.1121,0.1683-0.2661,0.3225-0.4625,0.4765c-0.028,0.028,0.3223-0.4483,0.2944-0.4344  c-0.1682,0.1401-0.3645,0.3082-0.5465,0.5045c-0.6867,0.7147-1.3173,1.5137-1.6396,1.2893c0.2944-0.0981,0.5465-0.4763,0.6026-0.855  c-0.2661,0.1962-0.953,0.7007-2.4945,0.9391c-0.6306,0.098-3.3073,0.5885-6.8809-1.2054c0.5185-0.0559,1.3033-0.2382,1.8919,0.1121  c-0.5886-0.6447-2.032-0.5184-3.0551-0.8408c-0.8969-0.2803-2.0601-1.5415-2.7327-2.1722c2.4109,0.5905,4.9506,0.2845,6.673-0.5761  c0.2508-0.1231,0.4849-0.2582,0.6984-0.4047c1.0354-0.7159,2.4884-1.7433,3.2998-1.8231c0.0974-0.0006,0.1934,0.0072,0.2877,0.0293  c0.8969,0.1961,1.4995-0.7007,0.7988-1.5135c-0.7007-0.813-2.4104-1.8919-4.7227-1.3173c-1.7797,0.4485-3.2792,1.864-5.7737,0.883  c-0.1543-0.056-0.3083-0.1261-0.4626-0.2102c-0.1542-0.0842,0.5185,0.098,0.3504,0c-0.4763-0.1823-1.3452-0.5747-1.5694-0.7289  c-0.0422-0.0279,0.3644,0.0701,0.3223,0.0422c-0.4863-0.2878-0.8649-0.5635-1.1616-0.8263  c-0.0054-0.0049-0.0101-0.0099-0.0156-0.0147c-1.3452-1.1912-1.0369-2.3404-0.8689-2.9289  c0.1309-0.4641,0.4836-0.8766,0.7159-1.0424c0.0272-0.0173,0.0544-0.0348,0.0828-0.0506c0.3363,0.1261,0.5466,0.2382,0.5466,0.2382  s-0.1543-0.2382-0.2523-0.3644c0.0279-0.014,0.042-0.014,0.0701-0.028c0.2803,0.0981,0.9109,0.3223,1.2191,0.4905  c0.4346,0.2102,0.5747,0.4344,0.5747,0.4344s0.0981-0.0701,0-0.2803c-0.042-0.0981-0.1962-0.3644-0.6166-0.6166  c0.0142,0,0.0142,0,0.0142,0c0.2242,0.0841,0.4625,0.1962,0.7147,0.3504c0.0842-0.3784,0.2382-0.7708,0.1401-1.4575  c-0.0841-0.4905-0.0701-0.6026-0.1822-0.7848c-0.0981-0.1542,0.028-0.2102,0.1822-0.0841c-0.042-0.1261-0.0981-0.2382-0.1542-0.3644  c0.0005-0.0023,0.002-0.0049,0.0026-0.0073c0.0174,0.0349,0.032,0.0534,0.047,0.0505c0.0109,0.0145,0.0175,0.012,0.0206-0.0153  l0.0002-0.0006c0.7439-0.8972,3.6711-2.2559,4.3295-2.9564c0.0844-0.0914,0.1539-0.1695,0.2115-0.2375  c-0.005,0.0141-0.0102,0.0296-0.0148,0.0414c0.3782-0.2943,0.5463-0.5746,0.7146-0.981c0.1682-0.4204,0.3645-1.4014-0.1961-1.6116  c-0.443-0.1074-0.8352-0.1888-1.5323-0.1832c-0.5862-0.043-1.3779-0.0629-2.4479-0.055c-1.5556,0.014-2.2843-1.3453-2.5366-1.9199  c-0.0047,0.017-0.0088,0.0341-0.0134,0.0512c-0.0048-0.0122-0.0105-0.0257-0.0148-0.037c0.4485-1.6396,1.3594-3.0691,2.7748-4.2323  c0.0841-0.0701-0.3363,0.042-0.2523-0.028c0.0981-0.0841,0.7007-0.3784,0.8128-0.4344c0.1401-0.0841-0.6587-0.2943-1.3313-0.1542  c-0.6446,0.1316-0.7953,0.2137-1.1127,0.374c-0.0154,0.0061-0.0327,0.013-0.0535,0.0215c0.151-0.1536,0.5891-0.3671,0.4795-0.3534  c-0.7428,0.1682-1.6256,0.6587-2.3682,1.1772c0-0.0701,0-0.1261,0.014-0.2242c-0.3504,0.1822-1.2052,0.8408-1.4154,1.3313  c0-0.1121,0-0.1682-0.0141-0.2803c-0.2381,0.2241-0.4763,0.4904-0.6866,0.7706c0,0-0.0017,0.0052-0.0059,0.0093  c-0.8302-0.2069-1.5928-0.3066-2.2774-0.337c-1.2481-0.0625-2.3685,0.1001-3.3712,0.4152c-0.5299-0.431-1.3132-1.1814-1.9131-2.1476  c-0.0103-0.0155-0.0187-0.018-0.026-0.0126c-0.0111-0.0075-0.0197,0.0009-0.0271,0.0173C9.656,11.847,9.655,11.8455,9.654,11.8439  c-0.035-0.0527-0.0481,0.0376-0.0668,0.0917c-0.3734-0.6752-0.6762-1.8093-0.7179-2.6143c0,0-0.0055,0.0034-0.0134,0.0084  C8.8557,9.3271,8.8554,9.3241,8.8553,9.3214c0,0-0.0152,0.0091-0.0402,0.0268C8.8146,9.3394,8.8137,9.3301,8.8133,9.3214  c0,0-0.6165,0.3504-1.009,1.6116c-0.0399,0.1277-0.0751,0.2231-0.1058,0.3053c0.0073-0.1051,0.0151-0.215,0.0079-0.1932  c-0.003,0.0066-0.0078,0.0144-0.0113,0.0214c0.0006-0.0199-0.0001-0.0292-0.0027-0.0214c-0.0106,0.0234-0.0255,0.0496-0.0422,0.0773  c0.0033-0.0543,0.0046-0.0906,0.0001-0.0773c-0.0701,0.1542-0.2943,0.4064-0.3644,0.6867  c-0.0439,0.1647-0.1047,0.2787-0.1426,0.4481c-0.0029-0.0632-0.0062-0.1112-0.0117-0.0838  c-0.0006,0.0016-0.0012,0.0033-0.0018,0.0049c-0.0017-0.0112-0.0051-0.0189-0.0124-0.0189c0,0,0,0-0.0142,0  c-0.0047,0.0118-0.0094,0.0252-0.014,0.0377c-0.0042-0.0327-0.0089-0.0519-0.0136-0.0377c-0.1823,0.4625-0.3363,0.995-0.4765,1.5976  c-0.1379,0.6698-0.2753,1.5135-0.3013,2.5295c-0.0536,0.937-0.0172,1.6375,0.0349,1.7729c0.0041-0.0041,0.0073-0.0078,0.0113-0.0118  c0,0,0.0003,0.0009,0.0004,0.0015c-0.601,0.8252-0.9786,1.5244-1.1327,1.8743c-0.7289,1.4154-1.4718,3.6016-2.0742,6.993  c0,0,0.0127-0.0395,0.0362-0.108c-0.0074,0.041-0.0149,0.0807-0.0222,0.1221c0,0,0.0021-0.0066,0.006-0.0186  c-0.002,0.011-0.004,0.0216-0.006,0.0327c0,0,0.014-0.0561,0.0559-0.1542c-0.014,0.042-0.014,0.0981-0.028,0.1401  c0,0,0.0561-0.1542,0.1543-0.4344c0.0095-0.0529,0.0194-0.1029,0.029-0.1552c0.1892-0.4918,0.5057-1.2405,0.9509-2.0505  c-0.5751,1.8247-1.0313,4.6308-0.7557,8.8063c0.0013-0.0132,0.004-0.0374,0.0074-0.0668c0.0023,0.0364,0.0043,0.0722,0.0068,0.1088  c0-0.0251,0.0108-0.0741,0.0131-0.1442c0.0004-0.0035,0.0008-0.007,0.0012-0.0106c0.0001,0.0492,0.0009,0.0896,0.0137,0.1408  c0-0.0559,0.028-0.2943,0.0842-0.6585c-0.0027-0.0509-0.004-0.0992-0.0065-0.1497c0.0701-0.4574,0.1782-1.079,0.3337-1.7954  c0.1631,2.8147,0.844,6.2438,3.0218,9.975c1.6817,2.8729,6.0961,9.5437,17.1814,12.038c-0.0418-0.012-0.0817-0.0254-0.1224-0.0382  c0.055,0.0126,0.109,0.0259,0.1643,0.0383c-0.5045-0.1401-0.9389-0.3503-1.2613-0.5465c-0.0287-0.0077-0.0567-0.0157-0.0853-0.0235  c-0.4298-0.2576-0.6714-0.4812-0.6714-0.4812s0.2591,0.0831,0.6947,0.2061c0.0021,0.0014,0.0039,0.0027,0.006,0.0041  c1.2893,0.3644,4.2184,1.1071,6.5165,1.0232c-0.0218-0.0044-0.0409-0.0093-0.062-0.0139c0.002-0.0001,0.0041-0.0001,0.0061-0.0001  c-0.0264-0.0047-0.05-0.0103-0.0753-0.0154c-0.2185-0.0507-0.3986-0.1106-0.5273-0.1808c-0.0138-0.0005-0.0278-0.0013-0.0417-0.0018  c-0.397-0.1916-0.491-0.4186-0.491-0.4186s0.1191,0.0066,0.3342,0.0126c0.0055,0.0052,0.0103,0.0101,0.0161,0.0154  c1.5275,0.0422,8.801,0.0982,12.795-3.0549c0.995-0.7429,1.6395-1.6116,1.8497-2.3967c0,0-0.0068,0.0061-0.0221,0.014  c0.0015-0.0055,0.0032-0.011,0.0046-0.0165l0.0031-0.0016l-0.0006-0.0072c0.0008-0.0032,0.0019-0.0065,0.0027-0.0097  c0.0033-0.0017,0.0066-0.0035,0.0099-0.0052l0.0022,0.0123c0,0-0.0043,0.004-0.0142,0.0098l0.0004,0.0042  c0.4625-0.2381,0.9249-0.5184,1.4014-0.8407c1.076-0.7303,2.36-1.721,3.4402-2.9555c0.0411-0.0469,0.0814-0.0946,0.1219-0.1422  c0.0596-0.0702,0.1215-0.1379,0.1797-0.2097c0.4553-0.5519,0.8015-1.0898,1.0662-1.5879c0.0012-0.0022,0.0024-0.0044,0.0036-0.0067  c0.003-0.0056,0.0063-0.0114,0.0093-0.017c-0.0014,0.0026-0.003,0.0052-0.0044,0.0077c0.5331-0.9895,0.892-2.0938,0.9574-3.3151  c-0.0193,0.2825-0.0861,0.5608-0.1909,0.834c0.0059-0.0324,0.0115-0.0647,0.0172-0.097  C50.5117,37.3429,50.4866,36.5291,50.1518,35.9687z"/>
</symbol>
<symbol id="github" viewBox="-1163 1657.697 56.693 56.693"><g><path clip-rule="evenodd" d="M-1134.6598,1662.9163c-13.601,0-24.63,11.0267-24.63,24.6299   c0,10.8821,7.0573,20.1144,16.8435,23.3713c1.2308,0.2279,1.6829-0.5345,1.6829-1.1849c0-0.587-0.0227-2.5276-0.0334-4.5857   c-6.8521,1.4901-8.2979-2.906-8.2979-2.906c-1.1205-2.8467-2.7347-3.6039-2.7347-3.6039   c-2.2349-1.5287,0.1685-1.4972,0.1685-1.4972c2.473,0.1737,3.7755,2.5385,3.7755,2.5385c2.1967,3.7651,5.7618,2.6765,7.1675,2.0472   c0.2211-1.5917,0.8591-2.6786,1.5637-3.2936c-5.4707-0.6226-11.2218-2.7347-11.2218-12.1722c0-2.6888,0.9623-4.8861,2.538-6.611   c-0.2557-0.6206-1.0989-3.1255,0.2386-6.5183c0,0,2.0684-0.6616,6.7747,2.525c1.9648-0.5458,4.0719-0.8195,6.165-0.829   c2.093,0.0095,4.2017,0.2832,6.17,0.829c4.7012-3.1866,6.7665-2.525,6.7665-2.525c1.3406,3.3928,0.4974,5.8977,0.2417,6.5183   c1.5793,1.7249,2.5348,3.9221,2.5348,6.611c0,9.4602-5.7618,11.5428-11.2465,12.1527c0.8834,0.7644,1.6704,2.2632,1.6704,4.561   c0,3.2955-0.0282,5.9479-0.0282,6.7592c0,0.6556,0.4432,1.4236,1.6915,1.1818c9.7812-3.2605,16.8296-12.4896,16.8296-23.3682   C-1110.0299,1673.943-1121.0574,1662.9163-1134.6598,1662.9163z" fill-rule="evenodd"/><path d="M-1149.9611,1698.2793c-0.0542,0.1227-0.2469,0.1593-0.4222,0.0753c-0.1788-0.0804-0.2788-0.2473-0.2211-0.37   c0.053-0.126,0.2457-0.161,0.4242-0.0769C-1150.0013,1697.9882-1149.8993,1698.1566-1149.9611,1698.2793L-1149.9611,1698.2793z    M-1150.2642,1698.0547"/><path d="M-1148.9634,1699.3922c-0.1174,0.1086-0.3473,0.0581-0.5031-0.1139c-0.1613-0.1718-0.1912-0.4016-0.072-0.5118   c0.1211-0.1088,0.3438-0.0579,0.505,0.1139C-1148.8721,1699.0541-1148.8407,1699.2819-1148.9634,1699.3922L-1148.9634,1699.3922z    M-1149.1984,1699.14"/><path d="M-1147.9922,1700.8105c-0.151,0.1051-0.3979,0.0067-0.5505-0.2123c-0.151-0.2191-0.151-0.4819,0.0035-0.5872   c0.1526-0.1051,0.396-0.0104,0.5505,0.2068C-1147.8381,1700.4406-1147.8381,1700.7034-1147.9922,1700.8105L-1147.9922,1700.8105z    M-1147.9922,1700.8105"/><path d="M-1146.6619,1702.1812c-0.1351,0.1489-0.4227,0.1086-0.6329-0.0945c-0.2155-0.1984-0.2753-0.4803-0.1403-0.6293   c0.1371-0.149,0.4263-0.1072,0.6381,0.0944C-1146.5831,1701.7501-1146.5182,1702.0337-1146.6619,1702.1812L-1146.6619,1702.1812z    M-1146.6619,1702.1812"/><path d="M-1144.8265,1702.9769c-0.0597,0.1927-0.3365,0.2804-0.6154,0.1984c-0.2788-0.0845-0.4608-0.3103-0.4047-0.5051   c0.0577-0.1943,0.3361-0.2855,0.6169-0.1979C-1144.9512,1702.5563-1144.7688,1702.7805-1144.8265,1702.9769L-1144.8265,1702.9769z    M-1144.8265,1702.9769"/><path d="M-1142.8107,1703.1243c0.0067,0.2031-0.2299,0.3716-0.5226,0.3752c-0.2944,0.0067-0.533-0.1577-0.5361-0.3577   c0-0.2052,0.2313-0.3717,0.5258-0.3768C-1143.0509,1702.7594-1142.8107,1702.9227-1142.8107,1703.1243L-1142.8107,1703.1243z    M-1142.8107,1703.1243"/><path d="M-1140.9351,1702.8052c0.035,0.198-0.1686,0.4015-0.4594,0.4557c-0.2859,0.0526-0.5504-0.0701-0.587-0.2665   c-0.0354-0.2031,0.1716-0.4066,0.4573-0.4592C-1141.233,1702.4846-1140.9722,1702.6036-1140.9351,1702.8052L-1140.9351,1702.8052z    M-1140.9351,1702.8052"/></g>
</symbol>
<symbol id="google-plus" viewBox="0 0 56.6934 56.6934"><g><path d="M19.6671,25.7867c-0.0075,1.7935,0,3.5869,0.0076,5.3803c3.0067,0.098,6.0208,0.0527,9.0275,0.098   c-1.3262,6.6689-10.3989,8.8315-15.199,4.4761C8.5674,31.9206,8.801,23.5412,13.9327,19.992   c3.5869-2.8635,8.6884-2.1552,12.2752,0.324c1.4092-1.3036,2.7278-2.6977,4.0013-4.1445   c-2.984-2.3812-6.6462-4.0767-10.5421-3.8958c-8.1307-0.2713-15.6059,6.8497-15.7415,14.9805   c-0.52,6.6462,3.8506,13.1644,10.0222,15.5155c6.1489,2.3661,14.031,0.7535,17.957-4.77c2.5922-3.4889,3.1498-7.98,2.8484-12.1999   C29.7194,25.7641,24.6933,25.7716,19.6671,25.7867z"/><path d="M49.0704,25.7641c-0.0151-1.4996-0.0226-3.0067-0.0301-4.5062c-1.4996,0-2.9916,0-4.4836,0   c-0.0151,1.4996-0.0301,2.9991-0.0377,4.5062c-1.5071,0.0075-3.0067,0.0151-4.5062,0.0302c0,1.4995,0,2.9915,0,4.4836   c1.4995,0.0151,3.0066,0.0302,4.5062,0.0452c0.0151,1.4996,0.0151,2.9991,0.0302,4.4987c1.4996,0,2.9916,0,4.4911,0   c0.0075-1.4996,0.015-2.9991,0.0301-4.5062c1.5071-0.0151,3.0067-0.0226,4.5062-0.0377c0-1.4921,0-2.9916,0-4.4836   C52.0771,25.7792,50.57,25.7792,49.0704,25.7641z"/></g>
</symbol>
<symbol id="instagram" viewBox="0 0 56.7 56.7"><g><path d="M28.2,16.7c-7,0-12.8,5.7-12.8,12.8s5.7,12.8,12.8,12.8S41,36.5,41,29.5S35.2,16.7,28.2,16.7z M28.2,37.7   c-4.5,0-8.2-3.7-8.2-8.2s3.7-8.2,8.2-8.2s8.2,3.7,8.2,8.2S32.7,37.7,28.2,37.7z"/><circle cx="41.5" cy="16.4" r="2.9"/><path d="M49,8.9c-2.6-2.7-6.3-4.1-10.5-4.1H17.9c-8.7,0-14.5,5.8-14.5,14.5v20.5c0,4.3,1.4,8,4.2,10.7c2.7,2.6,6.3,3.9,10.4,3.9   h20.4c4.3,0,7.9-1.4,10.5-3.9c2.7-2.6,4.1-6.3,4.1-10.6V19.3C53,15.1,51.6,11.5,49,8.9z M48.4,39.9c0,3.1-0.9,5.6-2.7,7.3   c-1.8,1.7-4.3,2.6-7.3,2.6H18c-3,0-5.5-0.9-7.3-2.6C8.9,45.4,8,42.9,8,39.8V19.3c0-3,0.9-5.5,2.7-7.3c1.7-1.7,4.3-2.6,7.3-2.6h20.6   c3,0,5.5,0.9,7.3,2.7c1.7,1.8,2.7,4.3,2.7,7.2V39.9z"/></g>
</symbol>
<symbol id="internet-explorer" viewBox="0 0 32 32"><g id="Flat_copy"><g><path d="M11.456,18.421v0.064c0,1.051,0.24,2.061,0.725,3.023c0.569,1.008,1.35,1.807,2.337,2.398    c0.987,0.59,2.085,0.886,3.292,0.886c1.207,0,2.306-0.296,3.294-0.886c0.986-0.592,1.766-1.391,2.336-2.398h7.837    c-1.011,2.848-2.766,5.181-5.267,6.997c-2.503,1.818-5.313,2.727-8.429,2.727c-2.326,0-4.521-0.503-6.584-1.512    c-4.609,2.235-7.924,2.344-9.943,0.329C0.35,29.395,0,28.299,0,26.765c0-1.533,0.296-3.242,0.889-5.125    c0.592-1.883,1.58-3.954,2.963-6.21c1.382-2.256,3.017-4.304,4.904-6.144c1.098-1.14,1.8-1.841,2.106-2.103    c-2.722,1.313-5.18,3.352-7.373,6.11c0.789-3.197,2.491-5.826,5.102-7.886c2.611-2.059,5.608-3.088,8.988-3.088    c0.351,0,0.701,0.022,1.052,0.065c2.459-1.096,4.697-1.708,6.717-1.84c2.019-0.132,3.445,0.197,4.279,0.985    c1.668,1.709,1.822,4.381,0.461,8.017c1.273,2.238,1.91,4.648,1.91,7.232c0,0.613-0.022,1.161-0.065,1.644h-7.771L11.456,18.421    L11.456,18.421z M10.075,29.199c-2.94-1.796-5.005-4.314-6.191-7.558c-1.975,3.856-2.238,6.506-0.79,7.952    C4.367,30.863,6.693,30.731,10.075,29.199z M23.638,14.611c-0.088-1.578-0.724-2.924-1.909-4.042    c-1.186-1.117-2.579-1.676-4.181-1.676c-1.604,0-2.996,0.559-4.181,1.676c-1.187,1.118-1.823,2.464-1.911,4.042H23.638z     M22.914,3.373c2.808,1.139,5.047,2.978,6.715,5.52c1.01-2.716,0.965-4.621-0.131-5.718C28.312,1.95,26.117,2.016,22.914,3.373z"/></g></g>
</symbol>
<symbol id="ios" viewBox="-822 823.1 56.7 56.7"><g id="g10088_1_" transform="matrix(0.58397792,0,0,0.58397792,-520.1179,950.32031)"><path d="M-477.1-189.5c-3.4,0-6.3,0.7-9.1,2.1c-7.3,3.6-11.5,11.3-11.5,20.9c0,9.6,4.1,17.1,11.4,20.5   c2,0.9,4,1.4,7,1.8c1.5,0.1,2.9,0.2,4.4,0c3-0.4,5-0.9,7-1.8c7.3-3.5,11.4-10.9,11.4-20.5c0-9.6-4.2-17.3-11.5-20.9   C-470.9-188.8-473.8-189.5-477.1-189.5L-477.1-189.5z M-474.2-182.7c4.4,1.2,7.5,5.1,8.8,10.9c0.9,4,0.6,8.7-0.6,12.4   c-1.9,5.7-6,9-11.1,8.9c-5,0.1-9.2-3.2-11.1-8.9c-1.2-3.7-1.5-8.3-0.6-12.4c1.2-5.8,4.4-9.7,8.8-10.9   C-478.1-183.1-476.1-183.1-474.2-182.7L-474.2-182.7z" id="path10079_1_"/><path d="M-506.2-189.5c-2.4,0-4.4,2-4.4,4.4c0,2.4,2,4.4,4.4,4.4s4.4-2,4.4-4.4   C-501.8-187.5-503.8-189.5-506.2-189.5z M-510.3-176.2v32.1h8.2v-32.1H-510.3z" id="path10077_1_"/><path d="M-444.7-144.1c-3.5-0.6-6.9-1.1-9.7-2.7c0,0,1.7-6.5,1.8-6.6c4.6,1.6,11.1,3.7,15.4,1.7   c2.4-1.2,3.5-3.4,3.2-5.9c-0.4-2.9-2.4-4.5-7.8-6.5c-6-2.3-9.6-5-11-8.6c-0.7-1.8-0.9-4-0.6-6c0.9-5.5,5.2-9.3,11.7-10.5   c1.9-0.3,6-0.3,8,0c2.9,0.5,6.2,1.6,6.2,2c0,0.2-1.7,6.1-1.8,6.3c-2.9-1.1-6-1.9-8.8-2c-3.8-0.1-8,2.2-7.3,6.2   c0.5,2.5,2.1,3.7,8,6.1c4.4,1.8,6.4,3,8.2,4.8c2.5,2.5,3.3,5.4,3.3,8.3c0,2.4-0.2,3.5-1.1,5.4c-2.1,4.5-6.3,7.1-12.7,7.8   C-440.9-144.1-443.7-144-444.7-144.1L-444.7-144.1z" id="path10039_1_"/></g>
</symbol>
<symbol id="jds" viewBox="0 0 130.67 47.79"><title>Fichier 1</title><g id="Calque_2" data-name="Calque 2"><g id="Calque_1-2" data-name="Calque 1"><path d="M18.89,47.79C7.09,47.79,0,42.76,0,30.94v-.6H13.72v.54c0,4.3,1.59,5.84,4.71,5.84s4.71-1.54,4.71-5.84V.81H37.77V30.94C37.77,42.76,30.68,47.79,18.89,47.79Z"/><path d="M86.74,23.9C86.74,39.67,78.39,47,62.82,47H43.07V.81H62.82C78.39.81,86.74,8.12,86.74,23.9Zm-29,12h4.84c6.43,0,9.21-3.69,9.21-10v-4c0-6.31-2.78-10-9.21-10H57.72Z"/><path d="M129.41,14.23V15H115.7v-.27c0-2.42-1.66-4.7-5.9-4.7-4,0-6,1.41-6,3,0,6.91,26.57,1.48,26.91,18.59,0,11.48-8.61,16.11-20.08,16.11-12.79,0-22.53-3.29-22.53-16.45h13.85c0,5,2.85,5.84,7.36,5.84,2.65,0,6.43-.2,6.43-3.09,0-6.65-26.91-1.34-26.91-19.33C88.79,4,98.47,0,109.27,0,120.27,0,129.21,4.36,129.41,14.23Z"/></g></g>
</symbol>
<symbol id="laposte" viewBox="0 0 96.48 34.27"><defs><style>.cls-1{fill:#22458a;}</style></defs><title>Fichier 1</title><g id="Calque_2" data-name="Calque 2"><g id="Calque_1-2" data-name="Calque 1"><path class="cls-1" d="M.23,34.26C37.54,24.83,62.29,17.8,95.48,11.53c1-.15,1.63-.58,0-.61L38,12c.23,2.34-2.27,5.69-7.48,8.92-2.67,1.67-8.77,4.89-30.34,13-.29.12-.15.42.07.37"/><path class="cls-1" d="M60.9,21.32l-6.54,8.39c-.92,1.23-2.66,3.16-5.11,3.26L9.35,34.25c-.25,0-.18-.16-.07-.2l51.51-13c.28-.09.29.08.12.25"/><path class="cls-1" d="M69.84,0c5.12.07,5,3.28,2.58,6.48-1,1.33-1.33,1.8-2.27,2.95l-33.05.36C32.57,5.74,23.93,2.43,18.7.56c-1-.39-.41-.39.39-.38,5,0,48-.22,50.75-.18"/></g></g>
</symbol>
<symbol id="liebig" viewBox="0 0 227.27 197.07"><defs><style>.cls-1{fill:#fff;}</style></defs><title>Fichier 1</title><g id="Calque_2" data-name="Calque 2"><g id="Calque_1-2" data-name="Calque 1"><path class="cls-1" d="M109.76,197.07s2.5-25,61-56.5,56.5-73.5,56.5-83-.94-55-63.5-57.5c-50.56-2-62,42-62,42s-17-19.5-45-14.5-60,33-56.5,72.5S30.26,180.57,109.76,197.07Z"/></g></g>
</symbol>
<symbol id="linkedin" viewBox="0 0 32 32"><g id="Flat_copy"><path d="M32,31.292V19.46c0-6.34-3.384-9.29-7.896-9.29c-3.641,0-5.273,2.003-6.182,3.409v-2.924h-6.86   c0.091,1.937,0,20.637,0,20.637h6.86V19.767c0-0.615,0.044-1.232,0.226-1.672c0.495-1.233,1.624-2.509,3.518-2.509   c2.483,0,3.475,1.892,3.475,4.666v11.041H32V31.292z M3.835,7.838c2.391,0,3.882-1.586,3.882-3.567   c-0.044-2.024-1.49-3.564-3.836-3.564S0,2.246,0,4.271c0,1.981,1.489,3.567,3.792,3.567H3.835z M7.265,31.292V10.655H0.406v20.637   H7.265z"/></g>
</symbol>
<symbol id="me" viewBox="0 0 512 512"><defs><style>.cls-1 {fill: #fff;}.cls-2{fill:#82aac1}.cls-2, .cls-3{fill-rule: evenodd;}.cls-3 {fill: #000;opacity: 0.1;}</style></defs><circle class="cls-1" cx="256" cy="256" r="256"/><path class="cls-2" d="M365.537,327.016 C391.864,326.915 400.280,314.652 401.750,315.706 C403.220,316.760 410.528,329.212 406.277,334.933 C402.025,340.654 375.276,348.503 345.167,343.981 C315.059,339.459 304.129,318.391 305.559,285.169 C306.990,251.948 326.706,230.882 359.879,230.882 C379.312,230.882 405.145,237.265 405.145,261.418 C405.145,272.130 405.145,275.935 405.145,282.907 C405.145,289.879 399.889,294.217 389.302,294.217 C385.231,294.217 340.641,294.217 340.641,294.217 C340.641,294.217 339.210,327.117 365.537,327.016 ZM340.641,278.383 L370.064,278.383 C370.064,278.383 374.420,278.735 374.590,274.990 C374.979,266.445 372.124,248.478 357.616,248.977 C337.857,249.658 340.641,278.383 340.641,278.383 ZM172.023,342.850 C165.163,342.850 123.362,342.850 123.362,342.850 C114.977,329.136 126.743,327.956 134.679,328.147 C134.228,317.672 144.277,248.717 130.152,248.977 C116.027,249.238 116.833,233.479 122.231,233.143 C127.628,232.808 148.505,230.882 155.049,230.882 C161.592,230.882 159.090,235.764 159.575,242.191 C200.792,217.380 222.033,231.955 228.607,242.191 C261.861,213.571 294.243,235.003 294.243,248.977 C294.243,262.952 296.506,313.479 296.506,320.230 C296.506,326.981 296.394,329.278 303.296,329.278 C310.198,329.278 306.650,342.850 301.033,342.850 C295.415,342.850 275.395,342.850 271.610,342.850 C267.824,342.850 263.688,339.384 263.688,333.802 C263.688,328.220 262.556,292.146 262.556,268.205 C262.556,244.263 230.870,249.479 230.870,268.205 C230.870,286.930 230.870,328.147 230.870,328.147 C230.870,328.147 232.687,328.147 241.055,328.147 C249.422,328.147 246.476,342.850 239.923,342.850 C231.895,342.850 219.770,343.981 198.052,343.981 C184.719,343.981 183.568,329.278 198.052,329.278 C198.052,323.183 198.052,289.098 198.052,269.335 C198.052,245.763 167.497,243.384 167.497,270.466 C167.497,270.466 167.610,309.670 167.497,328.147 C183.392,327.577 178.884,342.850 172.023,342.850 ZM256.000,512.000 C211.799,512.000 170.215,500.798 133.931,481.078 C184.664,469.201 246.713,434.461 246.713,434.461 C337.345,434.312 465.326,383.666 463.992,291.956 C462.657,200.245 356.580,136.585 253.503,137.009 C150.426,137.434 60.929,202.813 59.990,284.039 C59.050,365.265 160.707,418.627 160.707,418.627 C159.203,431.742 133.206,454.146 114.019,469.037 C45.281,423.134 0.000,344.859 0.000,256.000 C0.000,114.615 114.615,0.000 256.000,0.000 C397.385,0.000 512.000,114.615 512.000,256.000 C512.000,397.385 397.385,512.000 256.000,512.000 Z"/><path class="cls-3" d="M436.999,75.012 C536.959,174.972 536.959,337.039 436.999,436.999 C337.039,536.959 174.972,536.959 75.012,436.999 "/>
</symbol>
<symbol id="mercedes" viewBox="0 0 74.15 74.15"><g id="Calque_2" data-name="Calque 2"><g id="mercedes"><g id="mercedes-2" data-name="mercedes"><path id="path3524" class="cls-1" d="M54.28,4.2a37.09,37.09,0,0,1,0,65.7V65.66a33.18,33.18,0,0,0,11.11-11L54.28,50.2V43.34l12.19,9.52a33,33,0,0,0,4-15.81A33.44,33.44,0,0,0,54.28,8.44V4.2ZM37.11,0A36.94,36.94,0,0,1,54.28,4.2V8.44A33.51,33.51,0,0,0,38.12,3.7L42.36,34l11.92,9.29V50.2L37,43.22l-17.13,7V43.42L31.9,34,36.11,3.7a33.42,33.42,0,0,0-16.2,4.74V4.2A36.87,36.87,0,0,1,37.11,0ZM54.28,69.91a37.1,37.1,0,0,1-34.37,0V65.66a33.28,33.28,0,0,0,34.37,0v4.24Zm-34.37,0a37.09,37.09,0,0,1,0-65.74V8.44A33.39,33.39,0,0,0,7.72,52.94l12.19-9.52v6.83L8.83,54.79A33.15,33.15,0,0,0,19.91,65.66v4.28Z"/></g></g></g>
</symbol>
<symbol id="moet" viewBox="0 0 51.57 44.98"><defs><style>.cls-1{fill:#231f20;fill-rule:evenodd;}</style></defs><title>Fichier 1</title><g id="Calque_2" data-name="Calque 2"><g id="Calque_1-2" data-name="Calque 1"><path class="cls-1" d="M19.89,39.5a1.17,1.17,0,1,1-1.17,1.17,1.17,1.17,0,0,1,1.17-1.17Zm11.78,0a1.17,1.17,0,1,1-1.17,1.17,1.17,1.17,0,0,1,1.17-1.17ZM6.58,36.32H45a.62.62,0,0,1,.62.62h0a.62.62,0,0,1-.62.62H6.58A.62.62,0,0,1,6,36.94H6a.62.62,0,0,1,.62-.62Zm0,7.42H45a.62.62,0,0,1,.62.62h0A.62.62,0,0,1,45,45H6.58A.62.62,0,0,1,6,44.36H6a.62.62,0,0,1,.62-.62ZM7,38.53H44.55V42.8H7V38.53Zm16.2,1.24h5.14v1.79H23.22V39.77Zm-15.12,0h2.57v1.79H8.1V39.77Zm32.81,0h2.57v1.79H40.9V39.77Zm-26.14,2L17,40.66l-2.21-1.08-2.21,1.08,2.21,1.08Zm22,0L39,40.66,36.8,39.59l-2.21,1.08,2.21,1.08ZM1.91,26.07A1.14,1.14,0,1,1,.78,27.21a1.14,1.14,0,0,1,1.14-1.14Zm-.57-3.29A1.35,1.35,0,1,1,0,24.13a1.35,1.35,0,0,1,1.35-1.35Zm1.08-3.05A1.23,1.23,0,1,1,1.2,21a1.23,1.23,0,0,1,1.23-1.23Zm2.14-2.12a1.12,1.12,0,1,1-1.12,1.12,1.12,1.12,0,0,1,1.12-1.12Zm2.56-1.2A1.08,1.08,0,1,1,6,17.49a1.08,1.08,0,0,1,1.08-1.08Zm2.78-.66a1.08,1.08,0,1,1-1.08,1.08A1.08,1.08,0,0,1,9.9,15.75Zm2.6,5.59a1.14,1.14,0,1,1-1.14,1.14,1.14,1.14,0,0,1,1.14-1.14Zm-.39-3a1.26,1.26,0,1,1-1.26,1.26,1.26,1.26,0,0,1,1.26-1.26Zm1.07-2.51A1.14,1.14,0,1,1,12.05,17a1.14,1.14,0,0,1,1.14-1.14ZM15.28,14a1.14,1.14,0,1,1-1.14,1.14A1.14,1.14,0,0,1,15.28,14Zm2.45-.54a.93.93,0,1,1-.93.93.93.93,0,0,1,.93-.93Zm2.39-.06a.84.84,0,1,1-.84.84.84.84,0,0,1,.84-.84Zm2.09.15a.69.69,0,1,1-.69.69.69.69,0,0,1,.69-.69Zm3.56,21.89H6.5a6.07,6.07,0,0,0-1-1.21C5.17,34,4.33,34,4,33.37a3.65,3.65,0,0,1-.32-1.55c-.09-.52,0-.54-.45-1a5.12,5.12,0,0,0-1.42-1.16,1.33,1.33,0,0,0-.84,0c-.15,0,0-.19.26-.39a1.48,1.48,0,0,1,1.68,0,13.84,13.84,0,0,1,1.62,1.6c.28.19.74-.11.79-.66s0-.89-.17-1-.15-.26.25-.17a1.32,1.32,0,0,1,.87.82c.14.37,0,.49.2.52a1.3,1.3,0,0,1,1.13.55,1.57,1.57,0,0,1,.3,1.2c0,.18,0,.24.34.53a1.18,1.18,0,0,1,.52,1c0,.46-.15.72-.32.81s0-.56-.53-.78a2,2,0,0,0-1.33-.11c-.24.09-.36.25,0,.6a2.85,2.85,0,0,0,1.09.87,3.25,3.25,0,0,0,1.35,0,2,2,0,0,0,1.22-1.17,1.65,1.65,0,0,0,0-.77,1.39,1.39,0,0,1-1.34-.85c-.37-.69-.3-1.45.17-1.7s1.15.1,1.52.78a1.41,1.41,0,0,1,0,1.57l.23.26a1.76,1.76,0,0,0,1.89.72,1.77,1.77,0,0,0,1.48-1.94c0-1.16-.09-1.46-.34-1.62a.48.48,0,0,0-.78.26,5.65,5.65,0,0,1-.6,1.5c-.21.25-.53.12-.78-.26a1.68,1.68,0,0,1-.3-.83c0-.19-.16-.25-.35-.32a.76.76,0,0,1-.51-.76c0-.53.11-.71-.12-.94a1.35,1.35,0,0,1-.44-1.09c.09-.41.55-.35,1.29-.14s.79.23.94.11.14-.18-.49-.83-1.08-1-1.15-1.48.44-.6.81-.6a.6.6,0,0,0,.62-.35.75.75,0,0,1,.83-.26c.39.09.51-.09.74-.21s.48-.32.79-.16.23,1,.12,1.92-.16,1.22,0,1.27.32,0,.44-.39a2.76,2.76,0,0,1,1-1.24.58.58,0,0,1,.76.6,1,1,0,0,0,.25,1,1.65,1.65,0,0,1,.44,1.41c-.12.55,0,.72.21.94s.34,1.16-.05,1.25a2.71,2.71,0,0,1-1.8-.72c-.53-.48-.83-.19-.86.07a2.64,2.64,0,0,0,.81,1.52,2.3,2.3,0,0,0,2.19.83,2,2,0,0,0,1.88-1.71,1.61,1.61,0,0,1-1.14-1.31,1.44,1.44,0,0,1,.84-1.81c.65-.14,1.32.45,1.5,1.31a1.56,1.56,0,0,1-.59,1.71,2.06,2.06,0,0,0,1.49,1.46A2.92,2.92,0,0,0,25,30.48c.49-1.16.46-1.59.41-1.83s-.3-.3-.49-.35-.44.12-.64.41A5.28,5.28,0,0,1,22.6,30c-.53.19-.85,0-.83-.71s.12-.9-.07-1.27-.48-.69-.26-1.25.34-.35.11-1.06-.19-1.16.32-1.24,2.08,1,2.33,1.2.51-.07.32-.37a24.4,24.4,0,0,1-1.16-2.42c-.25-.63.19-1,.76-.79s.67.23.86.09.29-.21.81-.21.62.07.81.21.3.07.86-.09,1,.16.76.79a24.4,24.4,0,0,1-1.16,2.42c-.19.3.07.55.32.37s1.82-1.27,2.33-1.2.55.53.32,1.24-.11.49.11,1.06-.07.88-.26,1.25-.09.6-.07,1.27-.3.9-.83.71a5.28,5.28,0,0,1-1.62-1.34c-.19-.28-.44-.46-.64-.41s-.44.11-.49.35-.09.67.41,1.83a2.92,2.92,0,0,0,3.26,1.41,2.06,2.06,0,0,0,1.49-1.46,1.56,1.56,0,0,1-.59-1.71c.18-.86.86-1.45,1.5-1.31a1.44,1.44,0,0,1,.84,1.81A1.61,1.61,0,0,1,32,30.53a2,2,0,0,0,1.88,1.71,2.3,2.3,0,0,0,2.19-.83,2.64,2.64,0,0,0,.81-1.52c0-.26-.34-.55-.86-.07a2.71,2.71,0,0,1-1.8.72c-.39-.09-.26-1-.05-1.25s.34-.39.21-.94a1.65,1.65,0,0,1,.44-1.41A1,1,0,0,0,35,26a.58.58,0,0,1,.76-.6,2.76,2.76,0,0,1,1,1.24c.12.35.32.44.44.39s.07-.32,0-1.27S37,24,37.29,23.81s.56,0,.79.16.35.3.74.21a.75.75,0,0,1,.83.26.6.6,0,0,0,.62.35c.37,0,.88.07.81.6s-.51.83-1.15,1.48-.64.71-.49.83.19.11.94-.11,1.2-.26,1.29.14a1.35,1.35,0,0,1-.44,1.09c-.23.23-.09.41-.12.94a.76.76,0,0,1-.51.76c-.19.07-.34.12-.35.32a1.68,1.68,0,0,1-.3.83c-.25.39-.56.51-.78.26a5.65,5.65,0,0,1-.6-1.5.48.48,0,0,0-.78-.26c-.25.16-.3.46-.34,1.62A1.87,1.87,0,0,0,40.82,33l.23-.26a1.41,1.41,0,0,1,0-1.57c.37-.69,1.05-1,1.52-.78s.55,1,.17,1.7a1.39,1.39,0,0,1-1.34.85,1.65,1.65,0,0,0,0,.77,2,2,0,0,0,1.22,1.17,3.25,3.25,0,0,0,1.35,0A2.85,2.85,0,0,0,45,34.05c.33-.36.21-.51,0-.6a2,2,0,0,0-1.33.11c-.55.23-.37.87-.53.78s-.31-.34-.32-.81a1.18,1.18,0,0,1,.52-1c.32-.3.34-.36.34-.53a1.57,1.57,0,0,1,.3-1.2,1.3,1.3,0,0,1,1.13-.55c.25,0,.06-.15.2-.52a1.32,1.32,0,0,1,.87-.82c.4-.09.41,0,.25.17s-.23.46-.17,1,.51.85.79.66a13.84,13.84,0,0,1,1.62-1.6,1.48,1.48,0,0,1,1.68,0c.24.2.42.4.26.39a1.33,1.33,0,0,0-.84,0,5.12,5.12,0,0,0-1.42,1.16c-.5.47-.37.5-.45,1a3.65,3.65,0,0,1-.32,1.55c-.34.63-1.19.67-1.53.88a6.07,6.07,0,0,0-1,1.21ZM4.29,28.83a1.86,1.86,0,0,1,1-.75,12.74,12.74,0,0,1-.54-3.77c.08-1.8,1-4.14,5.25-4.88a1.13,1.13,0,0,1,.44-1,11.05,11.05,0,0,0-3.49,1c-1.76.85-4.66,3-2.64,9.45Zm19.15-7.19a2.13,2.13,0,0,1,1-.1,8.08,8.08,0,0,1-.34-3.25,13.15,13.15,0,0,1,.63-3.17,2.08,2.08,0,0,0-1,.28c-.65.32-1.66.38-3.81.4s-3.94.36-5.07,2a5.21,5.21,0,0,0-.16,5,5.5,5.5,0,0,1,.54,2.34,1.25,1.25,0,0,1,.95-.5,3.81,3.81,0,0,0-.4-2.08,5.61,5.61,0,0,1-.32-3.9,3.49,3.49,0,0,1,3-1.9A23.72,23.72,0,0,1,22,16.6a3.49,3.49,0,0,0,1.45-.26s-.89,1.72,0,5.31ZM6,33.78c.15-.1,0-.33-.16-.58a.42.42,0,0,1,.11-.61.63.63,0,0,1,.43-.18c.1,0,.06-.22-.21-.22a.65.65,0,0,0-.59.22c-.19.21-.26,0-.43-.22a3.41,3.41,0,0,0-.76-.74c-.12-.05,0,.14.1.61a2.13,2.13,0,0,0,.62,1.25c.43.34.72.52.89.47Zm8.19-4c-.19.08-.32-.22-.58-.52s-.26-.37-.54-.34a1,1,0,0,0-.59.34c-.14.12-.34-.08-.21-.37a1.06,1.06,0,0,1,.63-.54c.21-.05.37-.08.11-.55a3.92,3.92,0,0,1-.32-1.5c-.05-.47.05-.61.19-.48a3.07,3.07,0,0,1,.76,1.06A6.26,6.26,0,0,1,14,28c0,.12.23-.15.43-.21a.71.71,0,0,1,.69.21c.16.21.15.25-.11.25a1,1,0,0,0-.65.23.72.72,0,0,0-.16.73c.08.3.16.54-.07.54Zm11.64-5.83c-.32,0-.54,1.15-.5,1.9s-.12.37-.6.45a1,1,0,0,0-.78.61c-.07.16.15.12.46,0a2.54,2.54,0,0,1,.78-.06c.16,0,.21,0,.27.4s0,.79.36.79V23.93Zm23.87,2.14a1.14,1.14,0,1,0,1.14,1.14,1.14,1.14,0,0,0-1.14-1.14Zm.57-3.29a1.35,1.35,0,1,0,1.35,1.35,1.35,1.35,0,0,0-1.35-1.35Zm-1.08-3.05A1.23,1.23,0,1,0,50.37,21a1.23,1.23,0,0,0-1.23-1.23ZM47,17.61a1.12,1.12,0,1,0,1.12,1.12A1.12,1.12,0,0,0,47,17.61Zm-2.56-1.2a1.08,1.08,0,1,0,1.08,1.08,1.08,1.08,0,0,0-1.08-1.08Zm-2.78-.66a1.08,1.08,0,1,0,1.08,1.08,1.08,1.08,0,0,0-1.08-1.08Zm-2.6,5.59a1.14,1.14,0,1,0,1.14,1.14,1.14,1.14,0,0,0-1.14-1.14Zm.39-3a1.26,1.26,0,1,0,1.26,1.26,1.26,1.26,0,0,0-1.26-1.26Zm-1.07-2.51A1.14,1.14,0,1,0,39.51,17a1.14,1.14,0,0,0-1.14-1.14ZM36.28,14a1.14,1.14,0,1,0,1.14,1.14A1.14,1.14,0,0,0,36.28,14Zm-2.45-.54a.93.93,0,1,0,.93.93.93.93,0,0,0-.93-.93Zm-2.39-.06a.84.84,0,1,0,.84.84.84.84,0,0,0-.84-.84Zm-2.09.15a.69.69,0,1,0,.69.69.69.69,0,0,0-.69-.69ZM47.27,28.83a1.86,1.86,0,0,0-1-.75,12.74,12.74,0,0,0,.54-3.77c-.08-1.8-1-4.14-5.25-4.88a1.13,1.13,0,0,0-.44-1,11.05,11.05,0,0,1,3.49,1c1.76.85,4.66,3,2.64,9.45ZM28.12,21.65a2.13,2.13,0,0,0-1-.1,8.08,8.08,0,0,0,.34-3.25,13.15,13.15,0,0,0-.63-3.17,2.08,2.08,0,0,1,1,.28c.65.32,1.66.38,3.81.4s3.94.36,5.07,2a5.21,5.21,0,0,1,.16,5,5.5,5.5,0,0,0-.54,2.34,1.25,1.25,0,0,0-.95-.5,3.81,3.81,0,0,1,.4-2.08,5.61,5.61,0,0,0,.32-3.9,3.49,3.49,0,0,0-3-1.9,23.72,23.72,0,0,0-3.55-.14,3.49,3.49,0,0,1-1.45-.26s.89,1.72,0,5.31ZM45.61,33.78c-.15-.1,0-.33.17-.58a.42.42,0,0,0-.11-.61.63.63,0,0,0-.43-.18c-.1,0-.06-.22.21-.22a.65.65,0,0,1,.59.22c.19.21.26,0,.43-.22a3.41,3.41,0,0,1,.76-.74c.12-.05,0,.14-.1.61a2.13,2.13,0,0,1-.62,1.25c-.43.34-.72.52-.89.47Zm-8.19-4c.19.08.32-.22.58-.52s.26-.37.54-.34a1,1,0,0,1,.59.34c.14.12.34-.08.21-.37a1.06,1.06,0,0,0-.63-.54c-.21-.05-.37-.08-.11-.55a3.92,3.92,0,0,0,.32-1.5c.05-.47-.05-.61-.19-.48A3.07,3.07,0,0,0,38,26.86,6.27,6.27,0,0,0,37.55,28c0,.12-.23-.15-.43-.21a.71.71,0,0,0-.69.21c-.16.21-.15.25.11.25a1,1,0,0,1,.65.23.72.72,0,0,1,.16.73c-.08.3-.16.54.07.54ZM25.78,23.93c.32,0,.54,1.15.5,1.9s.12.37.6.45a1,1,0,0,1,.78.61c.07.16-.15.12-.46,0a2.54,2.54,0,0,0-.78-.06c-.16,0-.21,0-.27.4s0,.79-.36.79V23.93Zm0-4.4a1,1,0,1,1-1,1,1,1,0,0,1,1-1Zm0-2.4a.9.9,0,1,1-.9.9.9.9,0,0,1,.9-.9Zm0-1.9a.71.71,0,1,1-.71.71.71.71,0,0,1,.71-.71Zm0-9.14a4.09,4.09,0,1,1-4.09,4.09,4.09,4.09,0,0,1,4.09-4.09Zm4.06,3.58a4.11,4.11,0,0,1-.07,1.44,22.38,22.38,0,0,0-4-.38,22.38,22.38,0,0,0-4,.38,4.12,4.12,0,0,1-.07-1.44,24.37,24.37,0,0,1,3.37-.37V3.56l-2,.68V1.6l2,.68V2l-.7-2h2.79l-.7,2v.29l2-.68V4.24l-2-.68V9.31a24.37,24.37,0,0,1,3.37.37Z"/></g></g>
</symbol>
<symbol id="omega" viewBox="0 0 70.86 60.27"><defs><style>.cls-1{fill:#c50124;}</style></defs><title>Fichier 1</title><g id="Calque_2" data-name="Calque 2"><g id="Calque_1-2" data-name="Calque 1"><g id="_c50124ff" data-name="#c50124ff"><path class="cls-1" d="M10.61,9.45C23.2-2.56,44.78-3.11,58.28,7.72A26.82,26.82,0,0,1,68.19,32c-1.11,9.56-7.24,18-15.06,23.3,4,.16,8,.14,12,.06,1.57-2,2.48-5.6,5.75-4.85-1.7,3.28-3.4,6.57-5.19,9.8-8.08-.14-16.17.21-24.24-.2,5.1-4.54,10.28-9.2,13.53-15.32,5.84-10.49,5.91-24.95-2.42-34.17C44.61,1.37,29,.6,20.14,8.84,14.43,13.79,11.57,21.52,11.73,29a35,35,0,0,0,8.92,22.56c2.59,3.13,5.83,5.62,8.66,8.52-8.07.37-16.14.14-24.21.13C3.43,56.92,1.65,53.7,0,50.41c3.37-.86,4.15,3,5.87,5,3.93,0,7.86,0,11.79,0C11.4,50.82,6.05,44.61,3.8,37.11.67,27.59,3.24,16.35,10.61,9.45Z"/></g></g></g>
</symbol>
<symbol id="outlook" viewBox="0 0 56.6934 56.6934"><g><path d="M38.9577,26.3841l14.6256-9.8605c0-1.1669-1.0887-2.0036-1.7031-2.0036H35.1861v9.7243l3.3984,2.1398   C38.6739,26.41,38.8682,26.4122,38.9577,26.3841z"/><path d="M39.2509,30.0032c0,0-0.5265,0.321-0.9632,0l-3.1016-2.1304h-0.0018v13.2156h15.7551c1.4002,0,2.6458-0.8157,2.6458-2.7616   V20.4542C53.5852,20.4542,38.7262,30.3242,39.2509,30.0032z"/><path d="M18.6389,34.1928c1.04,0,1.8651-0.4688,2.4738-1.4056c0.6087-0.9377,0.9149-2.2394,0.9149-3.9033   c0-1.7345-0.2949-3.0847-0.8871-4.0496c-0.5917-0.9635-1.3999-1.4453-2.4269-1.4453c-1.0569,0-1.899,0.4969-2.521,1.4878   c-0.6217,0.9925-0.9333,2.3051-0.9333,3.9386c0,1.6581,0.3116,2.9686,0.9333,3.9321   C16.8145,33.7132,17.6306,34.1928,18.6389,34.1928z"/><path d="M4.0003,47.6256l28.9409,6.0676V3.9801L4.0003,9.5818V47.6256z M13.9221,22.5941   c1.2267-1.6343,2.8514-2.4515,4.8736-2.4515c1.9098,0,3.4561,0.7804,4.6342,2.3454c1.1799,1.5643,1.7699,3.6248,1.7699,6.1852   c0.0018,2.631-0.6104,4.7521-1.8333,6.3619c-1.2232,1.609-2.8178,2.4161-4.7857,2.4161c-1.9177,0-3.4784-0.7804-4.6865-2.3397   c-1.2063-1.5608-1.8113-3.5924-1.8113-6.0986C12.083,26.3675,12.6957,24.2276,13.9221,22.5941z"/></g>
</symbol>
<symbol id="pinterest" viewBox="0 0 56.693 56.693"><path d="M30.374,4.622c-13.586,0-20.437,9.74-20.437,17.864c0,4.918,1.862,9.293,5.855,10.922c0.655,0.27,1.242,0.01,1.432-0.715  c0.132-0.5,0.445-1.766,0.584-2.295c0.191-0.717,0.117-0.967-0.412-1.594c-1.151-1.357-1.888-3.115-1.888-5.607  c0-7.226,5.407-13.695,14.079-13.695c7.679,0,11.898,4.692,11.898,10.957c0,8.246-3.649,15.205-9.065,15.205  c-2.992,0-5.23-2.473-4.514-5.508c0.859-3.623,2.524-7.531,2.524-10.148c0-2.34-1.257-4.292-3.856-4.292  c-3.058,0-5.515,3.164-5.515,7.401c0,2.699,0.912,4.525,0.912,4.525s-3.129,13.26-3.678,15.582  c-1.092,4.625-0.164,10.293-0.085,10.865c0.046,0.34,0.482,0.422,0.68,0.166c0.281-0.369,3.925-4.865,5.162-9.359  c0.351-1.271,2.011-7.859,2.011-7.859c0.994,1.896,3.898,3.562,6.986,3.562c9.191,0,15.428-8.379,15.428-19.595  C48.476,12.521,41.292,4.622,30.374,4.622z"/>
</symbol>
<symbol id="pole-emploi" viewBox="0 0 128.33 120.92"><defs><style>.cls-1{fill:#b6b6b6;}</style></defs><title>Fichier 1</title><g id="Calque_2" data-name="Calque 2"><g id="Calque_1-2" data-name="Calque 1"><path class="cls-1" d="M123.67,84.83c2.67-5.33,1.5-7.5.17-9-.71-.8-2.41-1.06-4.87-.1a60.25,60.25,0,0,1-11.46,22.68A26,26,0,0,0,123.67,84.83Z"/><path class="cls-1" d="M120.82,63.76c4.51-1.54,7.51-5,7.51-9.76,0-5.09-2.76-22.65-19.74-30.11a60.18,60.18,0,0,1,12.32,36.57C120.92,61.57,120.88,62.67,120.82,63.76Z"/><path class="cls-1" d="M115.5,64.67c-7.33.17-29.17,0-39.17,0a31.66,31.66,0,0,0-4.62.29c2,21.62,16.63,24.53,21.78,24.38,5.5-.17,10.5-.67,17.33-7.67A24.46,24.46,0,0,1,119,75.73a60.37,60.37,0,0,0,1.86-12A17.75,17.75,0,0,1,115.5,64.67Z"/><path class="cls-1" d="M53.67,60.39c0-12.61,4.5-40.05,37.33-39.89a43.88,43.88,0,0,1,17.6,3.39,60.46,60.46,0,1,0-1.09,74.52,44.63,44.63,0,0,1-13.67,1.92C58.33,100.31,53.67,73,53.67,60.39Z"/><path class="cls-1" d="M75.83,55.33S102.17,55,106.17,55s4.31.67,4.17-4.5c-.39-14.23-16.5-18-19.33-17.83-2.61.15-17.1,1.6-19.23,22A26.65,26.65,0,0,0,75.83,55.33Z"/><path class="cls-1" d="M67.33,67.67l0-.3A.87.87,0,0,0,67.33,67.67Z"/></g></g>
</symbol>
<symbol id="sandro" viewBox="0 0 296.79 34.69"><title>Fichier 1</title><g id="Calque_2" data-name="Calque 2"><g id="Calque_1-2" data-name="Calque 1"><path d="M1.33,26.45c.92,3.91,3,6.63,6.72,6.63,2.44,0,4.28-1.47,4.28-3.82,0-3.13-2.9-4.19-5-4.83C3.54,23.28.41,21.58.41,17.76.41,13.39,3.82,11,8.79,11a10.6,10.6,0,0,1,5.93,1.56V18H13.39c-.32-2.81-1.89-5.34-5.15-5.34-2.3,0-4.14,1.33-4.14,3.73,0,2.58,3,3.54,4.92,4.14,4.74,1.47,7.22,3.31,7.22,7.36s-3.13,6.81-8.6,6.81c-2.71,0-5.52-.74-7.18-2.21l-.46-6Z"/><path d="M55.75,22.68c3.63-1.15,8.1-2.3,9.25-3.5V17.25c0-3.68-2.12-4.6-3.91-4.6s-3.73,1.1-4.74,4.51c-.23.78-.51,1.29-1.47,1.29s-2.58-.69-2.58-2.16C52.3,13.76,56.4,11,61.6,11c6.95,0,7.54,3.45,7.54,6.12V28.29c0,2.9.78,3.77,1.61,4a5.76,5.76,0,0,0,2.35,0l.28,1.1a12.66,12.66,0,0,1-5.43,1.38c-1.61,0-2.35-1.06-3-2.76-1.47,1-4.19,2.76-6.85,2.76a6.27,6.27,0,0,1-6.62-6.53C51.47,26,52.44,23.69,55.75,22.68Zm4.6,9.57A4.4,4.4,0,0,0,65,27.56V21.07a39.24,39.24,0,0,1-5.29,2.21c-2.58,1-3.59,2.07-3.59,4.23C56.12,30.23,57.5,32.25,60.35,32.25Z"/><path d="M106.08,32.8c3.31-.23,3.45-.32,3.45-2.67V15.64c0-1.66-.28-1.89-1.47-2.07l-1.75-.23V12.19L113.16,11l.64,3.5c2.85-1.84,5-3.5,8.37-3.5,4.23,0,6.76,2.67,6.76,7.32V30.13c0,2.35.18,2.44,3.45,2.67v1.33H121.17V32.8c3.31-.23,3.45-.32,3.45-2.67V19.28c0-4-1.7-5.75-4.83-5.75a6.36,6.36,0,0,0-5.47,3.31,5.09,5.09,0,0,0-.46,2.53V30.13c0,2.35.18,2.44,3.45,2.67v1.33H106.08Z"/><path d="M169.83,14.22A11.41,11.41,0,0,1,178.34,11a10.78,10.78,0,0,1,5.11,1.1V4.6c0-1.75-.28-2-1.47-2.12l-1.75-.18V1.15L187.45,0l.32.28V30.13c0,2.35.18,2.44,3.45,2.67v1.33h-7.45l-.37-.32V31.56c-2.48,2-4.65,3.13-7.13,3.13-6.07,0-9.62-4.55-9.62-11.36C166.66,19.32,167.85,16.29,169.83,14.22Zm8,18c2.39,0,4.42-.92,5.34-3.31a7.48,7.48,0,0,0,.32-2.58v-8.1a5.61,5.61,0,0,0-.41-2.67,4.89,4.89,0,0,0-4.74-2.9c-4.69,0-6.85,4.14-6.85,10.12C171.44,28.06,173.56,32.2,177.79,32.2Z"/><path d="M224.71,32.8c3.22-.23,3.45-.32,3.45-2.67V15.64c0-1.66-.28-1.89-1.47-2.07l-1.75-.23V12.19l7-1.15.55,3.68c3-2.67,4.42-3.68,6.07-3.68A2.22,2.22,0,0,1,241,13.3a2.42,2.42,0,0,1-2.12,2.58,1.93,1.93,0,0,1-.92-.23,6,6,0,0,0-2.85-1c-1.06,0-2.62,1.2-2.62,4.74V30.13c0,2.35.28,2.44,4.37,2.67v1.33H224.71Z"/><path d="M285.75,11c7.41,0,11,4.37,11,11.82s-3.63,11.82-11,11.82-11-4.37-11-11.82S278.34,11,285.75,11Zm0,22c4.23,0,6.26-3.86,6.26-10.21s-2-10.21-6.26-10.21-6.26,3.86-6.26,10.21S281.52,33.08,285.75,33.08Z"/></g></g>
</symbol>
<symbol id="search" viewBox="0 0 80 80"><path d="M59.446,55.911L49.337,45.802c1.922-2.64,3.069-5.88,3.069-9.396c0-8.837-7.163-16-16-16s-16,7.163-16,16s7.163,16,16,16  c3.516,0,6.756-1.147,9.396-3.069l10.109,10.109L59.446,55.911z M36.406,47.406c-6.065,0-11-4.935-11-11s4.935-11,11-11  s11,4.935,11,11S42.471,47.406,36.406,47.406z"/>
</symbol>
<symbol id="sfr" viewBox="0 0 444.37 444.37"><defs><style>.cls-1{fill:#c40808;}</style></defs><title>Fichier 1</title><g id="Calque_2" data-name="Calque 2"><g id="Calque_1-2" data-name="Calque 1"><path class="cls-1" d="M376.76,167.49h-20v35.12h17.95c13.8,0,28.53-1.39,28.53-17.95C403.22,169.44,389.08,167.49,376.76,167.49Z"/><path class="cls-1" d="M0,0V444.37H444.37V0ZM148.9,284.4c-13.18,0-31.57-3.19-44.34-18.37l-.36-.43,18.89-18.3.4.6a30.92,30.92,0,0,0,26,13.72c11.08,0,22.85-6.21,22.85-17.73,0-12.44-11.84-16.28-25.58-20.74-17.82-5.78-38-12.33-38-39.61,0-28.39,25.11-41.1,50-41.1,11,0,26.59,2.43,38.82,14l.44.42-18.33,19.32-.43-.6c-4.66-6.57-13-10.34-23-10.34-10.31,0-21.33,4.37-21.33,16.61,0,11.08,11.4,14.75,24.61,19,17.36,5.59,38.95,12.54,38.95,40.22C198.51,273.05,171.8,284.4,148.9,284.4ZM309.75,168.62H247.14v34h59v22.77h-59V281H222.08V145.85h87.66ZM404.21,281s-30.69-56.12-31-56.75H356.74V281h-25V145.85h47.15c23.06,0,50.55,6.77,50.55,39,0,20-11.48,33.61-30.69,36.73L434.39,281Z"/></g></g>
</symbol>
<symbol id="slack" viewBox="-91 49.217 56.693 56.693"><path d="M-38.3289,79.8244c-0.7526-2.2362-3.1756-3.4388-5.4117-2.6861l-4.5351,1.5264l-3.0737-9.1321l4.4169-1.4866  c2.2362-0.7526,3.4388-3.1756,2.6861-5.4117c-0.7526-2.2362-3.1756-3.4388-5.4117-2.6861l-4.4168,1.4866l-1.4877-4.4201  c-0.7527-2.2362-3.1756-3.4388-5.4117-2.6861v0c-2.2362,0.7526-3.4388,3.1756-2.6861,5.4117l1.4877,4.4201l-9.3246,3.1385  l-1.4697-4.3666c-0.7527-2.2362-3.1756-3.4388-5.4117-2.6861c-2.2362,0.7527-3.4388,3.1756-2.6861,5.4117l1.4697,4.3666  l-4.445,1.4961c-2.2362,0.7527-3.4388,3.1756-2.6861,5.4117v0c0.7526,2.2362,3.1756,3.4388,5.4117,2.6861l4.445-1.4961  l3.0737,9.1321l-4.3268,1.4563c-2.2362,0.7527-3.4388,3.1756-2.6861,5.4117c0.7526,2.2362,3.1756,3.4388,5.4117,2.6861  l4.3268-1.4563l1.5778,4.6877c0.7527,2.2362,3.1756,3.4388,5.4117,2.6861c2.2362-0.7527,3.4388-3.1756,2.6861-5.4117l-1.5778-4.6877  l9.3246-3.1385l1.5598,4.6342c0.7527,2.2362,3.1756,3.4388,5.4117,2.6861c2.2362-0.7527,3.4388-3.1756,2.6861-5.4117l-1.5598-4.6342  l4.5351-1.5264C-38.7789,84.4835-37.5762,82.0606-38.3289,79.8244z M-65.6982,84.5288l-3.0737-9.1321l9.3246-3.1385l3.0737,9.1321  L-65.6982,84.5288z"/>
</symbol>
<symbol id="sogitec" viewBox="0 0 46 53"><defs><style>.cls-1{fill:#ffffff;}.cls-2{fill:#ffffff;}.cls-3{fill:#ffffff;}</style></defs><title>sogitec-icon</title><polygon class="cls-1" points="23 53 23 26.6 31.6 21.7 36.7 34.4 45.9 39.3 38.6 38.3 40.3 42.5 23 53"/><path class="cls-1" d="M236.4,172" transform="translate(-213.4 -145.5)"/><polyline class="cls-1" points="36.2 19.1 46 13.8 45.9 39.3"/><polygon class="cls-2" points="0 13.7 23 0 9.8 19.2 0 13.7"/><polygon class="cls-2" points="14.4 21.8 23 11.2 23 0 25.8 7.7 29 3.7 46 13.8 23 26.5 14.4 21.8"/><polygon class="cls-3" points="0 39.3 23 39.4 23 53 0 39.3"/><polygon class="cls-3" points="0 13.7 23 26.5 23 36.1 9.1 34.3 0 39.3 4.7 33.6 0 32.8 0 13.7"/>
</symbol>
<symbol id="stackoverflow" viewBox="-1163 1657.697 56.693 56.693"><rect height="4.1104" transform="matrix(-0.8613 -0.508 0.508 -0.8613 -2964.1831 2556.6357)" width="19.2465" x="-1142.8167" y="1680.7778"/><rect height="4.1105" transform="matrix(-0.9657 -0.2596 0.2596 -0.9657 -2672.0498 3027.386)" width="19.2462" x="-1145.7363" y="1688.085"/><rect height="4.1098" transform="matrix(-0.9958 -0.0918 0.0918 -0.9958 -2425.5647 3282.8535)" width="19.246" x="-1146.9451" y="1695.1263"/><rect height="4.111" width="19.2473" x="-1147.2625" y="1701.293"/><path d="M-1121.4579,1710.9474c0,0,0,0.9601-0.0323,0.9601v0.0156h-30.7953c0,0-0.9598,0-0.9598-0.0156h-0.0326v-20.03h3.2877  v16.8049h25.2446v-16.8049h3.2877V1710.9474z"/><rect height="4.111" transform="matrix(0.5634 0.8262 -0.8262 0.5634 892.9033 1662.7915)" width="19.247" x="-1136.5389" y="1674.2235"/><rect height="4.1108" transform="matrix(0.171 0.9853 -0.9853 0.171 720.9987 2489.031)" width="19.2461" x="-1128.3032" y="1670.9347"/>
</symbol>
<symbol id="twitter" viewBox="0 0 56.693 56.693"><path d="M52.837,15.065c-1.811,0.805-3.76,1.348-5.805,1.591c2.088-1.25,3.689-3.23,4.444-5.592c-1.953,1.159-4.115,2-6.418,2.454  c-1.843-1.964-4.47-3.192-7.377-3.192c-5.581,0-10.106,4.525-10.106,10.107c0,0.791,0.089,1.562,0.262,2.303  c-8.4-0.422-15.848-4.445-20.833-10.56c-0.87,1.492-1.368,3.228-1.368,5.082c0,3.506,1.784,6.6,4.496,8.412  c-1.656-0.053-3.215-0.508-4.578-1.265c-0.001,0.042-0.001,0.085-0.001,0.128c0,4.896,3.484,8.98,8.108,9.91  c-0.848,0.23-1.741,0.354-2.663,0.354c-0.652,0-1.285-0.063-1.902-0.182c1.287,4.015,5.019,6.938,9.441,7.019  c-3.459,2.711-7.816,4.327-12.552,4.327c-0.815,0-1.62-0.048-2.411-0.142c4.474,2.869,9.786,4.541,15.493,4.541  c18.591,0,28.756-15.4,28.756-28.756c0-0.438-0.009-0.875-0.028-1.309C49.769,18.873,51.483,17.092,52.837,15.065z"/>
</symbol>
<symbol id="ubisoft" viewBox="0 0 65.69 65.7"><g id="Calque_2" data-name="Calque 2"><g id="Calque_1-2" data-name="Calque 1"><path class="cls-1" d="M29.58.16a32.85,32.85,0,1,1-25.81,48A32.95,32.95,0,0,1,7.12,12.41,32.74,32.74,0,0,1,29.58.16Zm1.21,2.9A29.83,29.83,0,1,0,45.95,6a29.73,29.73,0,0,0-15.15-3ZM28.3,7.92a25,25,0,0,1,20.2,5.27,25.27,25.27,0,0,1,8.05,10.66,24.94,24.94,0,0,1,1.23,14.2A24.61,24.61,0,0,1,41.65,56.41a25.53,25.53,0,0,1-8.77,1.36,21.42,21.42,0,0,1-12.14-3.49,18.93,18.93,0,0,1-7.29-10.64A16.18,16.18,0,0,1,42.37,30.11a12.71,12.71,0,0,0-5.89-3.38,12.42,12.42,0,0,0-15.09,15,12,12,0,0,0,3.27,5.76,13,13,0,0,0,13.81,2.81,13,13,0,0,0,7-7.17,17.3,17.3,0,0,0,.9-9.45,17.67,17.67,0,0,0-5.46-10.14,19,19,0,0,0-11.17-4.83A18.92,18.92,0,0,0,10.51,30.1a19.11,19.11,0,0,0-1,12l0,.27A25.41,25.41,0,0,1,8.24,26.88a25,25,0,0,1,20.06-19ZM27.05,31.4A9.45,9.45,0,1,1,39.5,45.63a9.32,9.32,0,0,1-7.92,2A7.18,7.18,0,0,0,36.32,46a7.24,7.24,0,1,0-11.56-4A9,9,0,0,1,24,37.69a9.45,9.45,0,0,1,3-6.3Zm-.73,8.69A5,5,0,0,1,29.18,36a4,4,0,0,0-1.62,2.77,3.8,3.8,0,0,0,7.36,1.68,3.87,3.87,0,0,0-1.13-4.24,4.94,4.94,0,0,1,2.4,3.4A5.06,5.06,0,0,1,35.63,43a5,5,0,0,1-9.31-2.88Z"/></g></g>
</symbol>
<symbol id="watch" viewBox="0 0 55.5 63.7"><defs><style>.cls-1{fill:#1c2b36;}</style></defs><title>Fichier 1</title><g id="Calque_2" data-name="Calque 2"><g id="Layer_1" data-name="Layer 1"><path class="cls-1" d="M45.5,10.5V2.8A2.69,2.69,0,0,0,42.8.1H39.5V6.8A28.14,28.14,0,0,0,27.9,4.2a28.5,28.5,0,0,0-12,2.7V0H12.6A2.69,2.69,0,0,0,9.9,2.7v8A27.63,27.63,0,0,0,9.8,53v8a2.69,2.69,0,0,0,2.7,2.7h3.3V56.9a28.16,28.16,0,0,0,12,2.7A26.33,26.33,0,0,0,39.4,57v6.7h3.3A2.69,2.69,0,0,0,45.4,61V53.3a27.81,27.81,0,0,0,.1-42.8ZM27.8,52.3A20.4,20.4,0,1,1,48.2,31.9,20.42,20.42,0,0,1,27.8,52.3ZM29.4,14H26.2v6.1h3.2ZM26.2,49.8h3.2V43.7H26.2ZM39.6,30.3v3.2h6.1V30.3ZM9.9,33.5H16V30.3H9.9Zm17.9-2.4L15.9,18.2,26.1,32l-2.8,1.4L26,37.3l2.4-2.2,1.8,2.5,2-1.6L30,33.6l8.1-7.7Z"/></g></g>
</symbol>
<symbol id="windows" viewBox="0 0 56.693 56.693"><g><path d="M3.765,46.362l19.836,2.873V30.257H3.765V46.362z M3.765,27.546h19.836V8.566L3.765,11.439V27.546z M26.312,49.628   l26.616,3.855V30.257H26.312V49.628z M26.312,8.172v19.374h26.616V4.319L26.312,8.172z"/></g>
</symbol>
<symbol id="yamaha" viewBox="0 0 99 99"><title>Fichier 1</title><g id="Calque_2" data-name="Calque 2"><g id="svg5398"><path id="path5411" d="M49.5,0A49.51,49.51,0,0,1,99,49.5,49.51,49.51,0,0,1,49.5,99,49.51,49.51,0,0,1,0,49.5,49.51,49.51,0,0,1,49.5,0Zm0,5.59A44,44,0,0,0,5.59,49.5,44,44,0,0,0,49.5,93.4,43.9,43.9,0,0,0,93.4,49.5,43.9,43.9,0,0,0,49.5,5.59Zm0,2.28a.73.73,0,0,1,.44.12.79.79,0,0,1,.28.37l3.69,10.41a1.3,1.3,0,0,1,0,.81,1.21,1.21,0,0,1-.47.62,3.81,3.81,0,0,0-1.56,4.12,3.82,3.82,0,0,0,1.22,1.94,9.81,9.81,0,0,1,3.41,7.37v3.72L74.78,26.81l2.28,3.94L56.5,42.59v2.87L59,46.87,79.53,35l2.25,3.91L63.5,49.5l3.22,1.87a9.66,9.66,0,0,1,3.06,2.78A9.84,9.84,0,0,1,71.4,58a3.79,3.79,0,0,0,1.09,2,3.84,3.84,0,0,0,2,1.06,3.88,3.88,0,0,0,2.28-.31,1.22,1.22,0,0,1,.78-.09,1.26,1.26,0,0,1,.69.41l7.19,8.37a.82.82,0,0,1,.19.44.71.71,0,0,1-.09.44.78.78,0,0,1-.34.31.8.8,0,0,1-.47.06l-10.84-2a1.21,1.21,0,0,1-.69-.37,1.34,1.34,0,0,1-.34-.75A3.82,3.82,0,0,0,72,65.4a3.89,3.89,0,0,0-1.94-1.25,3.8,3.8,0,0,0-2.28.06,9.53,9.53,0,0,1-8.09-.75L56.5,61.62V82.75H52V59L49.5,57.59,47,59V82.75H42.5V61.62l-3.22,1.84a9.53,9.53,0,0,1-8.09.75,3.8,3.8,0,0,0-2.28-.06A3.88,3.88,0,0,0,27,65.4a3.82,3.82,0,0,0-.84,2.12,1.3,1.3,0,0,1-.31.75,1.29,1.29,0,0,1-.72.37l-10.84,2a.79.79,0,0,1-.47-.06.76.76,0,0,1-.34-.31.73.73,0,0,1-.09-.44.82.82,0,0,1,.19-.44l7.19-8.37a1.25,1.25,0,0,1,.69-.41,1.21,1.21,0,0,1,.78.09,3.88,3.88,0,0,0,2.28.31,3.84,3.84,0,0,0,2-1.06,3.79,3.79,0,0,0,1.09-2,9.81,9.81,0,0,1,4.69-6.66L35.5,49.5,17.22,38.94,19.47,35,40,46.87l2.47-1.41V42.59L21.94,30.75l2.28-3.94L42.5,37.37V33.66a9.81,9.81,0,0,1,3.41-7.37,3.83,3.83,0,0,0,1.22-1.94,3.81,3.81,0,0,0-1.56-4.12,1.22,1.22,0,0,1-.47-.62,1.31,1.31,0,0,1,0-.81L48.78,8.37A.79.79,0,0,1,49.06,8,.74.74,0,0,1,49.5,7.87Zm0,22.69A2.45,2.45,0,0,0,47,33v7l2.47,1.41L52,40V33a2.45,2.45,0,0,0-2.47-2.47Zm0,15.66-2.84,1.66v3.28l2.84,1.62,2.84-1.62V47.87ZM40,52.12l-6,3.47a2.47,2.47,0,1,0,2.47,4.28l6-3.47V53.53Zm18.94,0L56.5,53.53v2.87l6,3.47A2.47,2.47,0,1,0,65,55.59Z"/></g></g>
</symbol></svg>